<svg version="1.1" viewBox="0.0 0.0 600.0 371.0" fill="none" stroke="none" stroke-linecap="square" stroke-miterlimit="10" width="600" height="371" xmlns:xlink="http://www.w3.org/1999/xlink" xmlns="http://www.w3.org/2000/svg"><path fill="#ffffff" d="M0 0L600.0 0L600.0 371.0L0 371.0L0 0Z" fill-rule="nonzero"/><path stroke="#cccccc" stroke-width="1.0" stroke-linecap="butt" d="M158.5 61.5L158.5 300.5" fill-rule="nonzero"/><path stroke="#cccccc" stroke-width="1.0" stroke-linecap="butt" d="M251.5 61.5L251.5 300.5" fill-rule="nonzero"/><path stroke="#cccccc" stroke-width="1.0" stroke-linecap="butt" d="M343.5 61.5L343.5 300.5" fill-rule="nonzero"/><path stroke="#cccccc" stroke-width="1.0" stroke-linecap="butt" d="M435.5 61.5L435.5 300.5" fill-rule="nonzero"/><path stroke="#cccccc" stroke-width="1.0" stroke-linecap="butt" d="M528.5 61.5L528.5 300.5" fill-rule="nonzero"/><path stroke="#333333" stroke-width="1.0" stroke-linecap="butt" d="M105.5 300.5L581.5 300.5" fill-rule="nonzero"/><path stroke="#cccccc" stroke-width="1.0" stroke-linecap="butt" d="M105.5 240.5L581.5 240.5" fill-rule="nonzero"/><path stroke="#cccccc" stroke-width="1.0" stroke-linecap="butt" d="M105.5 181.5L581.5 181.5" fill-rule="nonzero"/><path stroke="#cccccc" stroke-width="1.0" stroke-linecap="butt" d="M105.5 121.5L581.5 121.5" fill-rule="nonzero"/><path stroke="#cccccc" stroke-width="1.0" stroke-linecap="butt" d="M105.5 61.5L581.5 61.5" fill-rule="nonzero"/><clipPath id="id_0"><path d="M105.55 61.916668L581.45 61.916668L581.45 300.45L105.55 300.45L105.55 61.916668Z" clip-rule="nonzero"/></clipPath><path fill="#4285f4" clip-path="url(#id_0)" d="M163.07997 270.63333C163.07997 273.11862 161.06525 275.13333 158.57997 275.13333C156.09468 275.13333 154.07997 273.11862 154.07997 270.63333C154.07997 268.14804 156.09468 266.13333 158.57997 266.13333C161.06525 266.13333 163.07997 268.14804 163.07997 270.63333Z" fill-rule="nonzero"/><path fill="#4285f4" clip-path="url(#id_0)" d="M209.30998 278.4602C209.30998 280.9455 207.29526 282.9602 204.80998 282.9602C202.32469 282.9602 200.30998 280.9455 200.30998 278.4602C200.30998 275.9749 202.32469 273.9602 204.80998 273.9602C207.29526 273.9602 209.30998 275.9749 209.30998 278.4602Z" fill-rule="nonzero"/><path fill="#4285f4" clip-path="url(#id_0)" d="M255.53998 290.01416C255.53998 292.49945 253.52527 294.51416 251.03998 294.51416C248.5547 294.51416 246.53998 292.49945 246.53998 290.01416C246.53998 287.5289 248.5547 285.51416 251.03998 285.51416C253.52527 285.51416 255.53998 287.5289 255.53998 290.01416Z" fill-rule="nonzero"/><path fill="#4285f4" clip-path="url(#id_0)" d="M301.77 229.63542C301.77 232.1207 299.75528 234.13542 297.27 234.13542C294.7847 234.13542 292.77 232.1207 292.77 229.63542C292.77 227.15013 294.7847 225.13542 297.27 225.13542C299.75528 225.13542 301.77 227.15013 301.77 229.63542Z" fill-rule="nonzero"/><path fill="#4285f4" clip-path="url(#id_0)" d="M348.0 277.71478C348.0 280.20007 345.9853 282.21478 343.5 282.21478C341.0147 282.21478 339.0 280.20007 339.0 277.71478C339.0 275.22952 341.0147 273.21478 343.5 273.21478C345.9853 273.21478 348.0 275.22952 348.0 277.71478Z" fill-rule="nonzero"/><path fill="#4285f4" clip-path="url(#id_0)" d="M394.23 278.83292C394.23 281.3182 392.2153 283.33292 389.73 283.33292C387.24472 283.33292 385.23 281.3182 385.23 278.83292C385.23 276.34763 387.24472 274.33292 389.73 274.33292C392.2153 274.33292 394.23 276.34763 394.23 278.83292Z" fill-rule="nonzero"/><path fill="#4285f4" clip-path="url(#id_0)" d="M440.46002 278.83292C440.46002 281.3182 438.4453 283.33292 435.96002 283.33292C433.47473 283.33292 431.46002 281.3182 431.46002 278.83292C431.46002 276.34763 433.47473 274.33292 435.96002 274.33292C438.4453 274.33292 440.46002 276.34763 440.46002 278.83292Z" fill-rule="nonzero"/><path fill="#4285f4" clip-path="url(#id_0)" d="M486.69003 286.6598C486.69003 289.14508 484.6753 291.1598 482.19003 291.1598C479.70474 291.1598 477.69003 289.14508 477.69003 286.6598C477.69003 284.1745 479.70474 282.1598 482.19003 282.1598C484.6753 282.1598 486.69003 284.1745 486.69003 286.6598Z" fill-rule="nonzero"/><path fill="#4285f4" clip-path="url(#id_0)" d="M532.92004 276.59668C532.92004 279.08194 530.90533 281.09668 528.42004 281.09668C525.93475 281.09668 523.92004 279.08194 523.92004 276.59668C523.92004 274.1114 525.93475 272.09668 528.42004 272.09668C530.90533 272.09668 532.92004 274.1114 532.92004 276.59668Z" fill-rule="nonzero"/><path fill="#4285f4" clip-path="url(#id_0)" d="M579.15 82.78833C579.15 85.27361 577.1353 87.28833 574.65 87.28833C572.16473 87.28833 570.15 85.27361 570.15 82.78833C570.15 80.303055 572.16473 78.28833 574.65 78.28833C577.1353 78.28833 579.15 80.303055 579.15 82.78833Z" fill-rule="nonzero"/><path fill="#000000" d="M332.98438 349.45L336.28125 340.85626L337.5 340.85626L341.01562 349.45L339.73438 349.45L338.71875 346.84064L335.14062 346.84064L334.1875 349.45L332.98438 349.45ZM335.46875 345.91876L338.375 345.91876L337.48438 343.54376Q337.0625 342.46564 336.875 341.7625Q336.70312 342.59064 336.40625 343.40314L335.46875 345.91876ZM340.79688 349.45L340.79688 343.23126L341.73438 343.23126L341.73438 344.10626Q342.42188 343.09064 343.71875 343.09064Q344.28125 343.09064 344.75 343.29376Q345.23438 343.4969 345.46875 343.825Q345.70312 344.15314 345.79688 344.59064Q345.84375 344.8875 345.84375 345.6219L345.84375 349.45L344.79688 349.45L344.79688 345.66876Q344.79688 345.0125 344.67188 344.7Q344.54688 344.3875 344.23438 344.2Q343.92188 343.9969 343.5 343.9969Q342.82812 343.9969 342.32812 344.4344Q341.84375 344.85626 341.84375 346.04376L341.84375 349.45L340.79688 349.45ZM347.40625 346.34064Q347.40625 344.60626 348.35938 343.77814Q349.15625 343.09064 350.3125 343.09064Q351.59375 343.09064 352.40625 343.9344Q353.23438 344.7625 353.23438 346.2469Q353.23438 347.45 352.875 348.1375Q352.51562 348.825 351.8125 349.21564Q351.125 349.59064 350.3125 349.59064Q349.01562 349.59064 348.20312 348.7625Q347.40625 347.91876 347.40625 346.34064ZM348.48438 346.34064Q348.48438 347.52814 349.0 348.1219Q349.53125 348.71564 350.3125 348.71564Q351.10938 348.71564 351.625 348.1219Q352.14062 347.52814 352.14062 346.3094Q352.14062 345.15314 351.60938 344.5594Q351.09375 343.96564 350.3125 343.96564Q349.53125 343.96564 349.0 344.5594Q348.48438 345.1375 348.48438 346.34064Z" fill-rule="nonzero"/><path fill="#000000" d="M26.534388 229.12083L26.831263 227.99583Q28.221888 228.35521 28.956263 229.27708Q29.690638 230.19896 29.690638 231.54271Q29.690638 232.93333 29.128138 233.80833Q28.565638 234.68333 27.503138 235.13646Q26.425013 235.58958 25.190638 235.58958Q23.846888 235.58958 22.846888 235.07396Q21.846888 234.55833 21.331263 233.62083Q20.815638 232.66771 20.815638 231.52708Q20.815638 230.24583 21.471888 229.37083Q22.128138 228.48021 23.315638 228.13646L23.581263 229.26146Q22.643763 229.55833 22.221888 230.13646Q21.784388 230.69896 21.784388 231.55833Q21.784388 232.54271 22.268763 233.21458Q22.737513 233.87083 23.534388 234.15208Q24.331263 234.41771 25.190638 234.41771Q26.284388 234.41771 27.096888 234.10521Q27.909388 233.77708 28.315638 233.10521Q28.721888 232.43333 28.721888 231.63646Q28.721888 230.68333 28.175013 230.02708Q27.628138 229.35521 26.534388 229.12083ZM26.440638 226.77708Q24.706263 226.77708 23.878138 225.82396Q23.190638 225.02708 23.190638 223.87083Q23.190638 222.58958 24.034388 221.77708Q24.862513 220.94896 26.346888 220.94896Q27.550013 220.94896 28.237513 221.30833Q28.925013 221.66771 29.315638 222.37083Q29.690638 223.05833 29.690638 223.87083Q29.690638 225.16771 28.862513 225.98021Q28.018763 226.77708 26.440638 226.77708ZM26.440638 225.69896Q27.628138 225.69896 28.221888 225.18333Q28.815638 224.65208 28.815638 223.87083Q28.815638 223.07396 28.221888 222.55833Q27.628138 222.04271 26.409388 222.04271Q25.253138 222.04271 24.659388 222.57396Q24.065638 223.08958 24.065638 223.87083Q24.065638 224.65208 24.659388 225.18333Q25.237513 225.69896 26.440638 225.69896ZM29.550013 219.41771L20.956263 219.41771L20.956263 218.35521L29.550013 218.35521L29.550013 219.41771ZM22.175013 216.38646L20.956263 216.38646L20.956263 215.32396L22.175013 215.32396L22.175013 216.38646ZM29.550013 216.38646L23.331263 216.38646L23.331263 215.32396L29.550013 215.32396L29.550013 216.38646ZM29.550013 213.13646L24.143763 213.13646L24.143763 214.07396L23.331263 214.07396L23.331263 213.13646L22.659388 213.13646Q22.034388 213.13646 21.737513 213.02708Q21.315638 212.87083 21.065638 212.49583Q20.815638 212.10521 20.815638 211.41771Q20.815638 210.96458 20.925013 210.43333L21.831263 210.58958Q21.784388 210.91771 21.784388 211.21458Q21.784388 211.69896 21.987513 211.90208Q22.190638 212.08958 22.753138 212.08958L23.331263 212.08958L23.331263 210.87083L24.143763 210.87083L24.143763 212.08958L29.550013 212.08958L29.550013 213.13646ZM26.440638 210.77708Q24.706263 210.77708 23.878138 209.82396Q23.190638 209.02708 23.190638 207.87083Q23.190638 206.58958 24.034388 205.77708Q24.862513 204.94896 26.346888 204.94896Q27.550013 204.94896 28.237513 205.30833Q28.925013 205.66771 29.315638 206.37083Q29.690638 207.05833 29.690638 207.87083Q29.690638 209.16771 28.862513 209.98021Q28.018763 210.77708 26.440638 210.77708ZM26.440638 209.69896Q27.628138 209.69896 28.221888 209.18333Q28.815638 208.65208 28.815638 207.87083Q28.815638 207.07396 28.221888 206.55833Q27.628138 206.04271 26.409388 206.04271Q25.253138 206.04271 24.659388 206.57396Q24.065638 207.08958 24.065638 207.87083Q24.065638 208.65208 24.659388 209.18333Q25.237513 209.69896 26.440638 209.69896ZM29.550013 203.40208L23.331263 203.40208L23.331263 202.44896L24.268763 202.44896Q23.612513 202.08958 23.409388 201.79271Q23.190638 201.48021 23.190638 201.10521Q23.190638 200.57396 23.518763 200.02708L24.503138 200.38646Q24.268763 200.77708 24.268763 201.15208Q24.268763 201.51146 24.487513 201.79271Q24.690638 202.05833 25.065638 202.16771Q25.628138 202.35521 26.284388 202.35521L29.550013 202.35521L29.550013 203.40208ZM29.550013 199.38646L23.331263 199.38646L23.331263 198.44896L24.206263 198.44896Q23.737513 198.15208 23.471888 197.66771Q23.190638 197.18333 23.190638 196.55833Q23.190638 195.87083 23.471888 195.43333Q23.753138 194.98021 24.268763 194.80833Q23.190638 194.05833 23.190638 192.88646Q23.190638 191.94896 23.706263 191.46458Q24.206263 190.96458 25.284388 190.96458L29.550013 190.96458L29.550013 192.01146L25.628138 192.01146Q25.003138 192.01146 24.721888 192.12083Q24.440638 192.21458 24.268763 192.48021Q24.096888 192.74583 24.096888 193.12083Q24.096888 193.77708 24.534388 194.21458Q24.971888 194.63646 25.940638 194.63646L29.550013 194.63646L29.550013 195.69896L25.503138 195.69896Q24.800013 195.69896 24.456263 195.96458Q24.096888 196.21458 24.096888 196.79271Q24.096888 197.24583 24.331263 197.62083Q24.565638 197.99583 25.018763 198.16771Q25.471888 198.33958 26.315638 198.33958L29.550013 198.33958L29.550013 199.38646ZM27.550013 184.13646L27.675013 183.04271Q28.628138 183.29271 29.159388 183.99583Q29.690638 184.69896 29.690638 185.77708Q29.690638 187.13646 28.846888 187.94896Q28.003138 188.74583 26.487513 188.74583Q24.925013 188.74583 24.065638 187.93333Q23.190638 187.12083 23.190638 185.83958Q23.190638 184.58958 24.034388 183.80833Q24.878138 183.01146 26.425013 183.01146Q26.518763 183.01146 26.706263 183.01146L26.706263 187.65208Q27.737513 187.58958 28.284388 187.07396Q28.815638 186.55833 28.815638 185.77708Q28.815638 185.19896 28.518763 184.79271Q28.206263 184.37083 27.550013 184.13646ZM25.846888 187.58958L25.846888 184.12083Q25.050013 184.18333 24.659388 184.51146Q24.050013 185.02708 24.050013 185.82396Q24.050013 186.55833 24.534388 187.05833Q25.018763 187.54271 25.846888 187.58958ZM27.690638 181.80833L27.534388 180.77708Q28.159388 180.68333 28.487513 180.29271Q28.815638 179.88646 28.815638 179.15208Q28.815638 178.43333 28.534388 178.08958Q28.237513 177.73021 27.831263 177.73021Q27.471888 177.73021 27.268763 178.04271Q27.128138 178.26146 26.909388 179.12083Q26.612513 180.27708 26.409388 180.73021Q26.190638 181.16771 25.815638 181.40208Q25.440638 181.63646 24.971888 181.63646Q24.565638 181.63646 24.206263 181.44896Q23.846888 181.26146 23.612513 180.93333Q23.440638 180.68333 23.315638 180.26146Q23.190638 179.83958 23.190638 179.33958Q23.190638 178.62083 23.409388 178.07396Q23.612513 177.51146 23.971888 177.24583Q24.331263 176.98021 24.925013 176.88646L25.065638 177.91771Q24.596888 177.98021 24.331263 178.32396Q24.050013 178.65208 24.050013 179.27708Q24.050013 179.99583 24.300013 180.30833Q24.534388 180.62083 24.862513 180.62083Q25.065638 180.62083 25.221888 180.49583Q25.393763 180.35521 25.503138 180.08958Q25.565638 179.93333 25.768763 179.15208Q26.081263 178.02708 26.268763 177.58958Q26.456263 177.15208 26.815638 176.90208Q27.175013 176.65208 27.721888 176.65208Q28.253138 176.65208 28.721888 176.96458Q29.175013 177.26146 29.440638 177.83958Q29.690638 178.41771 29.690638 179.15208Q29.690638 180.37083 29.190638 181.01146Q28.675013 181.63646 27.690638 181.80833ZM29.550013 171.13646L24.143763 171.13646L24.143763 172.07396L23.331263 172.07396L23.331263 171.13646L22.659388 171.13646Q22.034388 171.13646 21.737513 171.02708Q21.315638 170.87083 21.065638 170.49583Q20.815638 170.10521 20.815638 169.41771Q20.815638 168.96458 20.925013 168.43333L21.831263 168.58958Q21.784388 168.91771 21.784388 169.21458Q21.784388 169.69896 21.987513 169.90208Q22.190638 170.08958 22.753138 170.08958L23.331263 170.08958L23.331263 168.87083L24.143763 168.87083L24.143763 170.08958L29.550013 170.08958L29.550013 171.13646ZM27.550013 164.13646L27.675013 163.04271Q28.628138 163.29271 29.159388 163.99583Q29.690638 164.69896 29.690638 165.77708Q29.690638 167.13646 28.846888 167.94896Q28.003138 168.74583 26.487513 168.74583Q24.925013 168.74583 24.065638 167.93333Q23.190638 167.12083 23.190638 165.83958Q23.190638 164.58958 24.034388 163.80833Q24.878138 163.01146 26.425013 163.01146Q26.518763 163.01146 26.706263 163.01146L26.706263 167.65208Q27.737513 167.58958 28.284388 167.07396Q28.815638 166.55833 28.815638 165.77708Q28.815638 165.19896 28.518763 164.79271Q28.206263 164.37083 27.550013 164.13646ZM25.846888 167.58958L25.846888 164.12083Q25.050013 164.18333 24.659388 164.51146Q24.050013 165.02708 24.050013 165.82396Q24.050013 166.55833 24.534388 167.05833Q25.018763 167.54271 25.846888 167.58958ZM27.268763 157.32396L27.409388 156.29271Q28.471888 156.46458 29.081263 157.16771Q29.690638 157.87083 29.690638 158.88646Q29.690638 160.16771 28.862513 160.94896Q28.018763 161.71458 26.456263 161.71458Q25.456263 161.71458 24.706263 161.38646Q23.940638 161.04271 23.565638 160.37083Q23.190638 159.68333 23.190638 158.87083Q23.190638 157.87083 23.706263 157.23021Q24.206263 156.57396 25.159388 156.38646L25.315638 157.41771Q24.690638 157.55833 24.378138 157.93333Q24.050013 158.30833 24.050013 158.83958Q24.050013 159.63646 24.628138 160.13646Q25.190638 160.63646 26.425013 160.63646Q27.690638 160.63646 28.253138 160.15208Q28.815638 159.66771 28.815638 158.90208Q28.815638 158.27708 28.440638 157.87083Q28.065638 157.44896 27.268763 157.32396ZM28.784388 151.32396Q29.284388 151.91771 29.487513 152.46458Q29.690638 152.99583 29.690638 153.62083Q29.690638 154.65208 29.190638 155.19896Q28.690638 155.74583 27.909388 155.74583Q27.456263 155.74583 27.081263 155.54271Q26.690638 155.33958 26.471888 154.99583Q26.237513 154.65208 26.128138 154.23021Q26.034388 153.93333 25.956263 153.29271Q25.815638 152.02708 25.596888 151.41771Q25.378138 151.41771 25.331263 151.41771Q24.675013 151.41771 24.409388 151.71458Q24.065638 152.12083 24.065638 152.91771Q24.065638 153.65208 24.331263 154.01146Q24.581263 154.37083 25.237513 154.54271L25.096888 155.57396Q24.440638 155.43333 24.034388 155.10521Q23.628138 154.77708 23.409388 154.16771Q23.190638 153.55833 23.190638 152.76146Q23.190638 151.96458 23.378138 151.46458Q23.565638 150.96458 23.846888 150.73021Q24.128138 150.49583 24.565638 150.40208Q24.831263 150.35521 25.534388 150.35521L26.940638 150.35521Q28.409388 150.35521 28.800013 150.29271Q29.190638 150.21458 29.550013 150.01146L29.550013 151.12083Q29.221888 151.27708 28.784388 151.32396ZM26.425013 151.41771Q26.659388 151.99583 26.831263 153.13646Q26.925013 153.79271 27.050013 154.05833Q27.159388 154.32396 27.378138 154.48021Q27.596888 154.62083 27.878138 154.62083Q28.300013 154.62083 28.581263 154.30833Q28.862513 153.98021 28.862513 153.37083Q28.862513 152.76146 28.596888 152.29271Q28.331263 151.80833 27.862513 151.58958Q27.503138 151.41771 26.815638 151.41771L26.425013 151.41771ZM22.175013 148.38646L20.956263 148.38646L20.956263 147.32396L22.175013 147.32396L22.175013 148.38646ZM29.550013 148.38646L23.331263 148.38646L23.331263 147.32396L29.550013 147.32396L29.550013 148.38646ZM27.690638 145.80833L27.534388 144.77708Q28.159388 144.68333 28.487513 144.29271Q28.815638 143.88646 28.815638 143.15208Q28.815638 142.43333 28.534388 142.08958Q28.237513 141.73021 27.831263 141.73021Q27.471888 141.73021 27.268763 142.04271Q27.128138 142.26146 26.909388 143.12083Q26.612513 144.27708 26.409388 144.73021Q26.190638 145.16771 25.815638 145.40208Q25.440638 145.63646 24.971888 145.63646Q24.565638 145.63646 24.206263 145.44896Q23.846888 145.26146 23.612513 144.93333Q23.440638 144.68333 23.315638 144.26146Q23.190638 143.83958 23.190638 143.33958Q23.190638 142.62083 23.409388 142.07396Q23.612513 141.51146 23.971888 141.24583Q24.331263 140.98021 24.925013 140.88646L25.065638 141.91771Q24.596888 141.98021 24.331263 142.32396Q24.050013 142.65208 24.050013 143.27708Q24.050013 143.99583 24.300013 144.30833Q24.534388 144.62083 24.862513 144.62083Q25.065638 144.62083 25.221888 144.49583Q25.393763 144.35521 25.503138 144.08958Q25.565638 143.93333 25.768763 143.15208Q26.081263 142.02708 26.268763 141.58958Q26.456263 141.15208 26.815638 140.90208Q27.175013 140.65208 27.721888 140.65208Q28.253138 140.65208 28.721888 140.96458Q29.175013 141.26146 29.440638 141.83958Q29.690638 142.41771 29.690638 143.15208Q29.690638 144.37083 29.190638 145.01146Q28.675013 145.63646 27.690638 145.80833Z" fill-rule="nonzero"/><path fill="#000000" d="M93.05 300.21564Q93.05 298.6844 93.3625 297.7625Q93.675 296.825 94.28438 296.325Q94.90938 295.825 95.84688 295.825Q96.53438 295.825 97.05 296.10626Q97.58125 296.3875 97.925 296.91876Q98.26875 297.4344 98.45625 298.1844Q98.64375 298.9344 98.64375 300.21564Q98.64375 301.73126 98.33125 302.65314Q98.03438 303.575 97.40938 304.09064Q96.8 304.59064 95.84688 304.59064Q94.6125 304.59064 93.89375 303.7Q93.05 302.6375 93.05 300.21564ZM94.12813 300.21564Q94.12813 302.325 94.62813 303.02814Q95.12813 303.73126 95.84688 303.73126Q96.58125 303.73126 97.06563 303.02814Q97.56563 302.325 97.56563 300.21564Q97.56563 298.09064 97.06563 297.40314Q96.58125 296.7 95.83125 296.7Q95.1125 296.7 94.675 297.3094Q94.12813 298.09064 94.12813 300.21564Z" fill-rule="nonzero"/><path fill="#000000" d="M56.596874 243.80104L56.596874 244.81667L50.909374 244.81667Q50.909374 244.44167 51.034374 244.08229Q51.253124 243.50417 51.721874 242.94167Q52.20625 242.37917 53.1125 241.64479Q54.51875 240.48854 55.003124 239.81667Q55.503124 239.14479 55.503124 238.55104Q55.503124 237.92604 55.05 237.50417Q54.596874 237.06667 53.878124 237.06667Q53.1125 237.06667 52.659374 237.51979Q52.20625 237.97292 52.190624 238.78542L51.1125 238.67604Q51.221874 237.45729 51.940624 236.83229Q52.675 236.19167 53.909374 236.19167Q55.14375 236.19167 55.8625 236.87917Q56.58125 237.56667 56.58125 238.58229Q56.58125 239.09792 56.3625 239.59792Q56.159374 240.08229 55.659374 240.64479Q55.175 241.19167 54.05 242.14479Q53.096874 242.94167 52.815624 243.23854Q52.55 243.51979 52.378124 243.80104L56.596874 243.80104ZM58.05 240.58229Q58.05 239.05104 58.3625 238.12917Q58.675 237.19167 59.284374 236.69167Q59.909374 236.19167 60.846874 236.19167Q61.534374 236.19167 62.05 236.47292Q62.58125 236.75417 62.925 237.28542Q63.26875 237.80104 63.45625 238.55104Q63.64375 239.30104 63.64375 240.58229Q63.64375 242.09792 63.33125 243.01979Q63.034374 243.94167 62.409374 244.45729Q61.8 244.95729 60.846874 244.95729Q59.6125 244.95729 58.89375 244.06667Q58.05 243.00417 58.05 240.58229ZM59.128124 240.58229Q59.128124 242.69167 59.628124 243.39479Q60.128124 244.09792 60.846874 244.09792Q61.58125 244.09792 62.065624 243.39479Q62.565624 242.69167 62.565624 240.58229Q62.565624 238.45729 62.065624 237.76979Q61.58125 237.06667 60.83125 237.06667Q60.1125 237.06667 59.675 237.67604Q59.128124 238.45729 59.128124 240.58229ZM65.05 240.58229Q65.05 239.05104 65.3625 238.12917Q65.675 237.19167 66.28438 236.69167Q66.90938 236.19167 67.84688 236.19167Q68.53438 236.19167 69.05 236.47292Q69.58125 236.75417 69.925 237.28542Q70.26875 237.80104 70.45625 238.55104Q70.64375 239.30104 70.64375 240.58229Q70.64375 242.09792 70.33125 243.01979Q70.03438 243.94167 69.40938 244.45729Q68.8 244.95729 67.84688 244.95729Q66.6125 244.95729 65.89375 244.06667Q65.05 243.00417 65.05 240.58229ZM66.12813 240.58229Q66.12813 242.69167 66.62813 243.39479Q67.12813 244.09792 67.84688 244.09792Q68.58125 244.09792 69.06563 243.39479Q69.56563 242.69167 69.56563 240.58229Q69.56563 238.45729 69.06563 237.76979Q68.58125 237.06667 67.83125 237.06667Q67.1125 237.06667 66.675 237.67604Q66.12813 238.45729 66.12813 240.58229ZM72.05 240.58229Q72.05 239.05104 72.3625 238.12917Q72.675 237.19167 73.28438 236.69167Q73.90938 236.19167 74.84688 236.19167Q75.53438 236.19167 76.05 236.47292Q76.58125 236.75417 76.925 237.28542Q77.26875 237.80104 77.45625 238.55104Q77.64375 239.30104 77.64375 240.58229Q77.64375 242.09792 77.33125 243.01979Q77.03438 243.94167 76.40938 244.45729Q75.8 244.95729 74.84688 244.95729Q73.6125 244.95729 72.89375 244.06667Q72.05 243.00417 72.05 240.58229ZM73.12813 240.58229Q73.12813 242.69167 73.62813 243.39479Q74.12813 244.09792 74.84688 244.09792Q75.58125 244.09792 76.06563 243.39479Q76.56563 242.69167 76.56563 240.58229Q76.56563 238.45729 76.06563 237.76979Q75.58125 237.06667 74.83125 237.06667Q74.1125 237.06667 73.675 237.67604Q73.12813 238.45729 73.12813 240.58229ZM79.05 240.58229Q79.05 239.05104 79.3625 238.12917Q79.675 237.19167 80.28438 236.69167Q80.90938 236.19167 81.84688 236.19167Q82.53438 236.19167 83.05 236.47292Q83.58125 236.75417 83.925 237.28542Q84.26875 237.80104 84.45625 238.55104Q84.64375 239.30104 84.64375 240.58229Q84.64375 242.09792 84.33125 243.01979Q84.03438 243.94167 83.40938 244.45729Q82.8 244.95729 81.84688 244.95729Q80.6125 244.95729 79.89375 244.06667Q79.05 243.00417 79.05 240.58229ZM80.12813 240.58229Q80.12813 242.69167 80.62813 243.39479Q81.12813 244.09792 81.84688 244.09792Q82.58125 244.09792 83.06563 243.39479Q83.56563 242.69167 83.56563 240.58229Q83.56563 238.45729 83.06563 237.76979Q82.58125 237.06667 81.83125 237.06667Q81.1125 237.06667 80.675 237.67604Q80.12813 238.45729 80.12813 240.58229ZM86.05 240.58229Q86.05 239.05104 86.3625 238.12917Q86.675 237.19167 87.28438 236.69167Q87.90938 236.19167 88.84688 236.19167Q89.53438 236.19167 90.05 236.47292Q90.58125 236.75417 90.925 237.28542Q91.26875 237.80104 91.45625 238.55104Q91.64375 239.30104 91.64375 240.58229Q91.64375 242.09792 91.33125 243.01979Q91.03438 243.94167 90.40938 244.45729Q89.8 244.95729 88.84688 244.95729Q87.6125 244.95729 86.89375 244.06667Q86.05 243.00417 86.05 240.58229ZM87.12813 240.58229Q87.12813 242.69167 87.62813 243.39479Q88.12813 244.09792 88.84688 244.09792Q89.58125 244.09792 90.06563 243.39479Q90.56563 242.69167 90.56563 240.58229Q90.56563 238.45729 90.06563 237.76979Q89.58125 237.06667 88.83125 237.06667Q88.1125 237.06667 87.675 237.67604Q87.12813 238.45729 87.12813 240.58229ZM93.05 240.58229Q93.05 239.05104 93.3625 238.12917Q93.675 237.19167 94.28438 236.69167Q94.90938 236.19167 95.84688 236.19167Q96.53438 236.19167 97.05 236.47292Q97.58125 236.75417 97.925 237.28542Q98.26875 237.80104 98.45625 238.55104Q98.64375 239.30104 98.64375 240.58229Q98.64375 242.09792 98.33125 243.01979Q98.03438 243.94167 97.40938 244.45729Q96.8 244.95729 95.84688 244.95729Q94.6125 244.95729 93.89375 244.06667Q93.05 243.00417 93.05 240.58229ZM94.12813 240.58229Q94.12813 242.69167 94.62813 243.39479Q95.12813 244.09792 95.84688 244.09792Q96.58125 244.09792 97.06563 243.39479Q97.56563 242.69167 97.56563 240.58229Q97.56563 238.45729 97.06563 237.76979Q96.58125 237.06667 95.83125 237.06667Q95.1125 237.06667 94.675 237.67604Q94.12813 238.45729 94.12813 240.58229Z" fill-rule="nonzero"/><path fill="#000000" d="M54.425 185.18333L54.425 183.12083L50.70625 183.12083L50.70625 182.15208L54.628124 176.58958L55.4875 176.58958L55.4875 182.15208L56.64375 182.15208L56.64375 183.12083L55.4875 183.12083L55.4875 185.18333L54.425 185.18333ZM54.425 182.15208L54.425 178.29271L51.7375 182.15208L54.425 182.15208ZM58.05 180.94896Q58.05 179.41771 58.3625 178.49583Q58.675 177.55833 59.284374 177.05833Q59.909374 176.55833 60.846874 176.55833Q61.534374 176.55833 62.05 176.83958Q62.58125 177.12083 62.925 177.65208Q63.26875 178.16771 63.45625 178.91771Q63.64375 179.66771 63.64375 180.94896Q63.64375 182.46458 63.33125 183.38646Q63.034374 184.30833 62.409374 184.82396Q61.8 185.32396 60.846874 185.32396Q59.6125 185.32396 58.89375 184.43333Q58.05 183.37083 58.05 180.94896ZM59.128124 180.94896Q59.128124 183.05833 59.628124 183.76146Q60.128124 184.46458 60.846874 184.46458Q61.58125 184.46458 62.065624 183.76146Q62.565624 183.05833 62.565624 180.94896Q62.565624 178.82396 62.065624 178.13646Q61.58125 177.43333 60.83125 177.43333Q60.1125 177.43333 59.675 178.04271Q59.128124 178.82396 59.128124 180.94896ZM65.05 180.94896Q65.05 179.41771 65.3625 178.49583Q65.675 177.55833 66.28438 177.05833Q66.90938 176.55833 67.84688 176.55833Q68.53438 176.55833 69.05 176.83958Q69.58125 177.12083 69.925 177.65208Q70.26875 178.16771 70.45625 178.91771Q70.64375 179.66771 70.64375 180.94896Q70.64375 182.46458 70.33125 183.38646Q70.03438 184.30833 69.40938 184.82396Q68.8 185.32396 67.84688 185.32396Q66.6125 185.32396 65.89375 184.43333Q65.05 183.37083 65.05 180.94896ZM66.12813 180.94896Q66.12813 183.05833 66.62813 183.76146Q67.12813 184.46458 67.84688 184.46458Q68.58125 184.46458 69.06563 183.76146Q69.56563 183.05833 69.56563 180.94896Q69.56563 178.82396 69.06563 178.13646Q68.58125 177.43333 67.83125 177.43333Q67.1125 177.43333 66.675 178.04271Q66.12813 178.82396 66.12813 180.94896ZM72.05 180.94896Q72.05 179.41771 72.3625 178.49583Q72.675 177.55833 73.28438 177.05833Q73.90938 176.55833 74.84688 176.55833Q75.53438 176.55833 76.05 176.83958Q76.58125 177.12083 76.925 177.65208Q77.26875 178.16771 77.45625 178.91771Q77.64375 179.66771 77.64375 180.94896Q77.64375 182.46458 77.33125 183.38646Q77.03438 184.30833 76.40938 184.82396Q75.8 185.32396 74.84688 185.32396Q73.6125 185.32396 72.89375 184.43333Q72.05 183.37083 72.05 180.94896ZM73.12813 180.94896Q73.12813 183.05833 73.62813 183.76146Q74.12813 184.46458 74.84688 184.46458Q75.58125 184.46458 76.06563 183.76146Q76.56563 183.05833 76.56563 180.94896Q76.56563 178.82396 76.06563 178.13646Q75.58125 177.43333 74.83125 177.43333Q74.1125 177.43333 73.675 178.04271Q73.12813 178.82396 73.12813 180.94896ZM79.05 180.94896Q79.05 179.41771 79.3625 178.49583Q79.675 177.55833 80.28438 177.05833Q80.90938 176.55833 81.84688 176.55833Q82.53438 176.55833 83.05 176.83958Q83.58125 177.12083 83.925 177.65208Q84.26875 178.16771 84.45625 178.91771Q84.64375 179.66771 84.64375 180.94896Q84.64375 182.46458 84.33125 183.38646Q84.03438 184.30833 83.40938 184.82396Q82.8 185.32396 81.84688 185.32396Q80.6125 185.32396 79.89375 184.43333Q79.05 183.37083 79.05 180.94896ZM80.12813 180.94896Q80.12813 183.05833 80.62813 183.76146Q81.12813 184.46458 81.84688 184.46458Q82.58125 184.46458 83.06563 183.76146Q83.56563 183.05833 83.56563 180.94896Q83.56563 178.82396 83.06563 178.13646Q82.58125 177.43333 81.83125 177.43333Q81.1125 177.43333 80.675 178.04271Q80.12813 178.82396 80.12813 180.94896ZM86.05 180.94896Q86.05 179.41771 86.3625 178.49583Q86.675 177.55833 87.28438 177.05833Q87.90938 176.55833 88.84688 176.55833Q89.53438 176.55833 90.05 176.83958Q90.58125 177.12083 90.925 177.65208Q91.26875 178.16771 91.45625 178.91771Q91.64375 179.66771 91.64375 180.94896Q91.64375 182.46458 91.33125 183.38646Q91.03438 184.30833 90.40938 184.82396Q89.8 185.32396 88.84688 185.32396Q87.6125 185.32396 86.89375 184.43333Q86.05 183.37083 86.05 180.94896ZM87.12813 180.94896Q87.12813 183.05833 87.62813 183.76146Q88.12813 184.46458 88.84688 184.46458Q89.58125 184.46458 90.06563 183.76146Q90.56563 183.05833 90.56563 180.94896Q90.56563 178.82396 90.06563 178.13646Q89.58125 177.43333 88.83125 177.43333Q88.1125 177.43333 87.675 178.04271Q87.12813 178.82396 87.12813 180.94896ZM93.05 180.94896Q93.05 179.41771 93.3625 178.49583Q93.675 177.55833 94.28438 177.05833Q94.90938 176.55833 95.84688 176.55833Q96.53438 176.55833 97.05 176.83958Q97.58125 177.12083 97.925 177.65208Q98.26875 178.16771 98.45625 178.91771Q98.64375 179.66771 98.64375 180.94896Q98.64375 182.46458 98.33125 183.38646Q98.03438 184.30833 97.40938 184.82396Q96.8 185.32396 95.84688 185.32396Q94.6125 185.32396 93.89375 184.43333Q93.05 183.37083 93.05 180.94896ZM94.12813 180.94896Q94.12813 183.05833 94.62813 183.76146Q95.12813 184.46458 95.84688 184.46458Q96.58125 184.46458 97.06563 183.76146Q97.56563 183.05833 97.56563 180.94896Q97.56563 178.82396 97.06563 178.13646Q96.58125 177.43333 95.83125 177.43333Q95.1125 177.43333 94.675 178.04271Q94.12813 178.82396 94.12813 180.94896Z" fill-rule="nonzero"/><path fill="#000000" d="M56.51875 119.06563L55.471874 119.14375Q55.33125 118.51875 55.08125 118.2375Q54.64375 117.78438 54.01875 117.78438Q53.51875 117.78438 53.128124 118.06563Q52.64375 118.44063 52.346874 119.14375Q52.065624 119.83125 52.05 121.1125Q52.425 120.53438 52.971874 120.25313Q53.534374 119.97188 54.14375 119.97188Q55.190624 119.97188 55.925 120.75313Q56.675 121.53438 56.675 122.75313Q56.675 123.56563 56.315624 124.26875Q55.971874 124.95625 55.3625 125.33125Q54.753124 125.69063 53.9875 125.69063Q52.659374 125.69063 51.83125 124.72188Q51.003124 123.75313 51.003124 121.53438Q51.003124 119.03438 51.925 117.90938Q52.721874 116.925 54.08125 116.925Q55.096874 116.925 55.7375 117.50313Q56.39375 118.06563 56.51875 119.06563ZM52.221874 122.76875Q52.221874 123.31563 52.440624 123.81563Q52.675 124.3 53.08125 124.56563Q53.503124 124.83125 53.971874 124.83125Q54.628124 124.83125 55.1125 124.3Q55.596874 123.75313 55.596874 122.83125Q55.596874 121.94063 55.1125 121.425Q54.64375 120.90938 53.925 120.90938Q53.20625 120.90938 52.70625 121.425Q52.221874 121.94063 52.221874 122.76875ZM58.05 121.31563Q58.05 119.78438 58.3625 118.8625Q58.675 117.925 59.284374 117.425Q59.909374 116.925 60.846874 116.925Q61.534374 116.925 62.05 117.20625Q62.58125 117.4875 62.925 118.01875Q63.26875 118.53438 63.45625 119.28438Q63.64375 120.03438 63.64375 121.31563Q63.64375 122.83125 63.33125 123.75313Q63.034374 124.675 62.409374 125.19063Q61.8 125.69063 60.846874 125.69063Q59.6125 125.69063 58.89375 124.8Q58.05 123.7375 58.05 121.31563ZM59.128124 121.31563Q59.128124 123.425 59.628124 124.12813Q60.128124 124.83125 60.846874 124.83125Q61.58125 124.83125 62.065624 124.12813Q62.565624 123.425 62.565624 121.31563Q62.565624 119.19063 62.065624 118.50313Q61.58125 117.8 60.83125 117.8Q60.1125 117.8 59.675 118.40938Q59.128124 119.19063 59.128124 121.31563ZM65.05 121.31563Q65.05 119.78438 65.3625 118.8625Q65.675 117.925 66.28438 117.425Q66.90938 116.925 67.84688 116.925Q68.53438 116.925 69.05 117.20625Q69.58125 117.4875 69.925 118.01875Q70.26875 118.53438 70.45625 119.28438Q70.64375 120.03438 70.64375 121.31563Q70.64375 122.83125 70.33125 123.75313Q70.03438 124.675 69.40938 125.19063Q68.8 125.69063 67.84688 125.69063Q66.6125 125.69063 65.89375 124.8Q65.05 123.7375 65.05 121.31563ZM66.12813 121.31563Q66.12813 123.425 66.62813 124.12813Q67.12813 124.83125 67.84688 124.83125Q68.58125 124.83125 69.06563 124.12813Q69.56563 123.425 69.56563 121.31563Q69.56563 119.19063 69.06563 118.50313Q68.58125 117.8 67.83125 117.8Q67.1125 117.8 66.675 118.40938Q66.12813 119.19063 66.12813 121.31563ZM72.05 121.31563Q72.05 119.78438 72.3625 118.8625Q72.675 117.925 73.28438 117.425Q73.90938 116.925 74.84688 116.925Q75.53438 116.925 76.05 117.20625Q76.58125 117.4875 76.925 118.01875Q77.26875 118.53438 77.45625 119.28438Q77.64375 120.03438 77.64375 121.31563Q77.64375 122.83125 77.33125 123.75313Q77.03438 124.675 76.40938 125.19063Q75.8 125.69063 74.84688 125.69063Q73.6125 125.69063 72.89375 124.8Q72.05 123.7375 72.05 121.31563ZM73.12813 121.31563Q73.12813 123.425 73.62813 124.12813Q74.12813 124.83125 74.84688 124.83125Q75.58125 124.83125 76.06563 124.12813Q76.56563 123.425 76.56563 121.31563Q76.56563 119.19063 76.06563 118.50313Q75.58125 117.8 74.83125 117.8Q74.1125 117.8 73.675 118.40938Q73.12813 119.19063 73.12813 121.31563ZM79.05 121.31563Q79.05 119.78438 79.3625 118.8625Q79.675 117.925 80.28438 117.425Q80.90938 116.925 81.84688 116.925Q82.53438 116.925 83.05 117.20625Q83.58125 117.4875 83.925 118.01875Q84.26875 118.53438 84.45625 119.28438Q84.64375 120.03438 84.64375 121.31563Q84.64375 122.83125 84.33125 123.75313Q84.03438 124.675 83.40938 125.19063Q82.8 125.69063 81.84688 125.69063Q80.6125 125.69063 79.89375 124.8Q79.05 123.7375 79.05 121.31563ZM80.12813 121.31563Q80.12813 123.425 80.62813 124.12813Q81.12813 124.83125 81.84688 124.83125Q82.58125 124.83125 83.06563 124.12813Q83.56563 123.425 83.56563 121.31563Q83.56563 119.19063 83.06563 118.50313Q82.58125 117.8 81.83125 117.8Q81.1125 117.8 80.675 118.40938Q80.12813 119.19063 80.12813 121.31563ZM86.05 121.31563Q86.05 119.78438 86.3625 118.8625Q86.675 117.925 87.28438 117.425Q87.90938 116.925 88.84688 116.925Q89.53438 116.925 90.05 117.20625Q90.58125 117.4875 90.925 118.01875Q91.26875 118.53438 91.45625 119.28438Q91.64375 120.03438 91.64375 121.31563Q91.64375 122.83125 91.33125 123.75313Q91.03438 124.675 90.40938 125.19063Q89.8 125.69063 88.84688 125.69063Q87.6125 125.69063 86.89375 124.8Q86.05 123.7375 86.05 121.31563ZM87.12813 121.31563Q87.12813 123.425 87.62813 124.12813Q88.12813 124.83125 88.84688 124.83125Q89.58125 124.83125 90.06563 124.12813Q90.56563 123.425 90.56563 121.31563Q90.56563 119.19063 90.06563 118.50313Q89.58125 117.8 88.83125 117.8Q88.1125 117.8 87.675 118.40938Q87.12813 119.19063 87.12813 121.31563ZM93.05 121.31563Q93.05 119.78438 93.3625 118.8625Q93.675 117.925 94.28438 117.425Q94.90938 116.925 95.84688 116.925Q96.53438 116.925 97.05 117.20625Q97.58125 117.4875 97.925 118.01875Q98.26875 118.53438 98.45625 119.28438Q98.64375 120.03438 98.64375 121.31563Q98.64375 122.83125 98.33125 123.75313Q98.03438 124.675 97.40938 125.19063Q96.8 125.69063 95.84688 125.69063Q94.6125 125.69063 93.89375 124.8Q93.05 123.7375 93.05 121.31563ZM94.12813 121.31563Q94.12813 123.425 94.62813 124.12813Q95.12813 124.83125 95.84688 124.83125Q96.58125 124.83125 97.06563 124.12813Q97.56563 123.425 97.56563 121.31563Q97.56563 119.19063 97.06563 118.50313Q96.58125 117.8 95.83125 117.8Q95.1125 117.8 94.675 118.40938Q94.12813 119.19063 94.12813 121.31563Z" fill-rule="nonzero"/><path fill="#000000" d="M52.675 61.260414Q52.01875 61.010414 51.690624 60.572914Q51.378124 60.11979 51.378124 59.510414Q51.378124 58.572914 52.05 57.93229Q52.7375 57.291664 53.846874 57.291664Q54.971874 57.291664 55.659374 57.947914Q56.346874 58.604164 56.346874 59.541664Q56.346874 60.135414 56.034374 60.572914Q55.721874 61.010414 55.08125 61.260414Q55.878124 61.510414 56.284374 62.08854Q56.690624 62.666664 56.690624 63.46354Q56.690624 64.55729 55.909374 65.30729Q55.14375 66.05729 53.8625 66.05729Q52.596874 66.05729 51.815624 65.30729Q51.034374 64.55729 51.034374 63.43229Q51.034374 62.58854 51.45625 62.02604Q51.89375 61.46354 52.675 61.260414ZM52.45625 59.46354Q52.45625 60.072914 52.846874 60.46354Q53.253124 60.854164 53.878124 60.854164Q54.4875 60.854164 54.878124 60.479164Q55.26875 60.08854 55.26875 59.52604Q55.26875 58.947914 54.8625 58.55729Q54.45625 58.15104 53.8625 58.15104Q53.253124 58.15104 52.846874 58.541664Q52.45625 58.93229 52.45625 59.46354ZM52.128124 63.43229Q52.128124 63.885414 52.33125 64.30729Q52.55 64.729164 52.971874 64.96354Q53.39375 65.197914 53.878124 65.197914Q54.628124 65.197914 55.1125 64.71354Q55.6125 64.229164 55.6125 63.479164Q55.6125 62.71354 55.1125 62.21354Q54.6125 61.71354 53.846874 61.71354Q53.096874 61.71354 52.6125 62.21354Q52.128124 62.697914 52.128124 63.43229ZM58.05 61.68229Q58.05 60.15104 58.3625 59.229164Q58.675 58.291664 59.284374 57.791664Q59.909374 57.291664 60.846874 57.291664Q61.534374 57.291664 62.05 57.572914Q62.58125 57.854164 62.925 58.385414Q63.26875 58.90104 63.45625 59.65104Q63.64375 60.40104 63.64375 61.68229Q63.64375 63.197914 63.33125 64.11979Q63.034374 65.041664 62.409374 65.55729Q61.8 66.05729 60.846874 66.05729Q59.6125 66.05729 58.89375 65.166664Q58.05 64.104164 58.05 61.68229ZM59.128124 61.68229Q59.128124 63.791664 59.628124 64.49479Q60.128124 65.197914 60.846874 65.197914Q61.58125 65.197914 62.065624 64.49479Q62.565624 63.791664 62.565624 61.68229Q62.565624 59.55729 62.065624 58.86979Q61.58125 58.166664 60.83125 58.166664Q60.1125 58.166664 59.675 58.77604Q59.128124 59.55729 59.128124 61.68229ZM65.05 61.68229Q65.05 60.15104 65.3625 59.229164Q65.675 58.291664 66.28438 57.791664Q66.90938 57.291664 67.84688 57.291664Q68.53438 57.291664 69.05 57.572914Q69.58125 57.854164 69.925 58.385414Q70.26875 58.90104 70.45625 59.65104Q70.64375 60.40104 70.64375 61.68229Q70.64375 63.197914 70.33125 64.11979Q70.03438 65.041664 69.40938 65.55729Q68.8 66.05729 67.84688 66.05729Q66.6125 66.05729 65.89375 65.166664Q65.05 64.104164 65.05 61.68229ZM66.12813 61.68229Q66.12813 63.791664 66.62813 64.49479Q67.12813 65.197914 67.84688 65.197914Q68.58125 65.197914 69.06563 64.49479Q69.56563 63.791664 69.56563 61.68229Q69.56563 59.55729 69.06563 58.86979Q68.58125 58.166664 67.83125 58.166664Q67.1125 58.166664 66.675 58.77604Q66.12813 59.55729 66.12813 61.68229ZM72.05 61.68229Q72.05 60.15104 72.3625 59.229164Q72.675 58.291664 73.28438 57.791664Q73.90938 57.291664 74.84688 57.291664Q75.53438 57.291664 76.05 57.572914Q76.58125 57.854164 76.925 58.385414Q77.26875 58.90104 77.45625 59.65104Q77.64375 60.40104 77.64375 61.68229Q77.64375 63.197914 77.33125 64.11979Q77.03438 65.041664 76.40938 65.55729Q75.8 66.05729 74.84688 66.05729Q73.6125 66.05729 72.89375 65.166664Q72.05 64.104164 72.05 61.68229ZM73.12813 61.68229Q73.12813 63.791664 73.62813 64.49479Q74.12813 65.197914 74.84688 65.197914Q75.58125 65.197914 76.06563 64.49479Q76.56563 63.791664 76.56563 61.68229Q76.56563 59.55729 76.06563 58.86979Q75.58125 58.166664 74.83125 58.166664Q74.1125 58.166664 73.675 58.77604Q73.12813 59.55729 73.12813 61.68229ZM79.05 61.68229Q79.05 60.15104 79.3625 59.229164Q79.675 58.291664 80.28438 57.791664Q80.90938 57.291664 81.84688 57.291664Q82.53438 57.291664 83.05 57.572914Q83.58125 57.854164 83.925 58.385414Q84.26875 58.90104 84.45625 59.65104Q84.64375 60.40104 84.64375 61.68229Q84.64375 63.197914 84.33125 64.11979Q84.03438 65.041664 83.40938 65.55729Q82.8 66.05729 81.84688 66.05729Q80.6125 66.05729 79.89375 65.166664Q79.05 64.104164 79.05 61.68229ZM80.12813 61.68229Q80.12813 63.791664 80.62813 64.49479Q81.12813 65.197914 81.84688 65.197914Q82.58125 65.197914 83.06563 64.49479Q83.56563 63.791664 83.56563 61.68229Q83.56563 59.55729 83.06563 58.86979Q82.58125 58.166664 81.83125 58.166664Q81.1125 58.166664 80.675 58.77604Q80.12813 59.55729 80.12813 61.68229ZM86.05 61.68229Q86.05 60.15104 86.3625 59.229164Q86.675 58.291664 87.28438 57.791664Q87.90938 57.291664 88.84688 57.291664Q89.53438 57.291664 90.05 57.572914Q90.58125 57.854164 90.925 58.385414Q91.26875 58.90104 91.45625 59.65104Q91.64375 60.40104 91.64375 61.68229Q91.64375 63.197914 91.33125 64.11979Q91.03438 65.041664 90.40938 65.55729Q89.8 66.05729 88.84688 66.05729Q87.6125 66.05729 86.89375 65.166664Q86.05 64.104164 86.05 61.68229ZM87.12813 61.68229Q87.12813 63.791664 87.62813 64.49479Q88.12813 65.197914 88.84688 65.197914Q89.58125 65.197914 90.06563 64.49479Q90.56563 63.791664 90.56563 61.68229Q90.56563 59.55729 90.06563 58.86979Q89.58125 58.166664 88.83125 58.166664Q88.1125 58.166664 87.675 58.77604Q87.12813 59.55729 87.12813 61.68229ZM93.05 61.68229Q93.05 60.15104 93.3625 59.229164Q93.675 58.291664 94.28438 57.791664Q94.90938 57.291664 95.84688 57.291664Q96.53438 57.291664 97.05 57.572914Q97.58125 57.854164 97.925 58.385414Q98.26875 58.90104 98.45625 59.65104Q98.64375 60.40104 98.64375 61.68229Q98.64375 63.197914 98.33125 64.11979Q98.03438 65.041664 97.40938 65.55729Q96.8 66.05729 95.84688 66.05729Q94.6125 66.05729 93.89375 65.166664Q93.05 64.104164 93.05 61.68229ZM94.12813 61.68229Q94.12813 63.791664 94.62813 64.49479Q95.12813 65.197914 95.84688 65.197914Q96.58125 65.197914 97.06563 64.49479Q97.56563 63.791664 97.56563 61.68229Q97.56563 59.55729 97.06563 58.86979Q96.58125 58.166664 95.83125 58.166664Q95.1125 58.166664 94.675 58.77604Q94.12813 59.55729 94.12813 61.68229Z" fill-rule="nonzero"/><path fill="#000000" d="M150.62685 316.4344L150.62685 317.45L144.93935 317.45Q144.93935 317.075 145.06435 316.71564Q145.2831 316.1375 145.75185 315.575Q146.23622 315.0125 147.14247 314.27814Q148.54872 313.1219 149.0331 312.45Q149.5331 311.77814 149.5331 311.1844Q149.5331 310.5594 149.07997 310.1375Q148.62685 309.7 147.9081 309.7Q147.14247 309.7 146.68935 310.15314Q146.23622 310.60626 146.2206 311.41876L145.14247 311.3094Q145.25185 310.09064 145.9706 309.46564Q146.70497 308.825 147.93935 308.825Q149.17372 308.825 149.89247 309.5125Q150.61122 310.2 150.61122 311.21564Q150.61122 311.73126 150.39247 312.23126Q150.18935 312.71564 149.68935 313.27814Q149.20497 313.825 148.07997 314.77814Q147.12685 315.575 146.8456 315.8719Q146.57997 316.15314 146.4081 316.4344L150.62685 316.4344ZM152.07997 313.21564Q152.07997 311.6844 152.39247 310.7625Q152.70497 309.825 153.31435 309.325Q153.93935 308.825 154.87685 308.825Q155.56435 308.825 156.07997 309.10626Q156.61122 309.3875 156.95497 309.91876Q157.29872 310.4344 157.48622 311.1844Q157.67372 311.9344 157.67372 313.21564Q157.67372 314.73126 157.36122 315.65314Q157.06435 316.575 156.43935 317.09064Q155.82997 317.59064 154.87685 317.59064Q153.64247 317.59064 152.92372 316.7Q152.07997 315.6375 152.07997 313.21564ZM153.1581 313.21564Q153.1581 315.325 153.6581 316.02814Q154.1581 316.73126 154.87685 316.73126Q155.61122 316.73126 156.0956 316.02814Q156.5956 315.325 156.5956 313.21564Q156.5956 311.09064 156.0956 310.40314Q155.61122 309.7 154.86122 309.7Q154.14247 309.7 153.70497 310.3094Q153.1581 311.09064 153.1581 313.21564ZM163.04872 317.45L162.00185 317.45L162.00185 310.73126Q161.61122 311.09064 160.98622 311.46564Q160.37685 311.825 159.89247 311.9969L159.89247 310.98126Q160.76747 310.5594 161.42372 309.98126Q162.0956 309.3875 162.37685 308.825L163.04872 308.825L163.04872 317.45ZM171.62685 316.4344L171.62685 317.45L165.93935 317.45Q165.93935 317.075 166.06435 316.71564Q166.2831 316.1375 166.75185 315.575Q167.23622 315.0125 168.14247 314.27814Q169.54872 313.1219 170.0331 312.45Q170.5331 311.77814 170.5331 311.1844Q170.5331 310.5594 170.07997 310.1375Q169.62685 309.7 168.9081 309.7Q168.14247 309.7 167.68935 310.15314Q167.23622 310.60626 167.2206 311.41876L166.14247 311.3094Q166.25185 310.09064 166.9706 309.46564Q167.70497 308.825 168.93935 308.825Q170.17372 308.825 170.89247 309.5125Q171.61122 310.2 171.61122 311.21564Q171.61122 311.73126 171.39247 312.23126Q171.18935 312.71564 170.68935 313.27814Q170.20497 313.825 169.07997 314.77814Q168.12685 315.575 167.8456 315.8719Q167.57997 316.15314 167.4081 316.4344L171.62685 316.4344Z" fill-rule="nonzero"/><path fill="#000000" d="M243.08685 316.4344L243.08685 317.45L237.39935 317.45Q237.39935 317.075 237.52435 316.71564Q237.7431 316.1375 238.21185 315.575Q238.69623 315.0125 239.60248 314.27814Q241.00873 313.1219 241.4931 312.45Q241.9931 311.77814 241.9931 311.1844Q241.9931 310.5594 241.53998 310.1375Q241.08685 309.7 240.3681 309.7Q239.60248 309.7 239.14935 310.15314Q238.69623 310.60626 238.6806 311.41876L237.60248 311.3094Q237.71185 310.09064 238.4306 309.46564Q239.16498 308.825 240.39935 308.825Q241.63373 308.825 242.35248 309.5125Q243.07123 310.2 243.07123 311.21564Q243.07123 311.73126 242.85248 312.23126Q242.64935 312.71564 242.14935 313.27814Q241.66498 313.825 240.53998 314.77814Q239.58685 315.575 239.3056 315.8719Q239.03998 316.15314 238.8681 316.4344L243.08685 316.4344ZM244.53998 313.21564Q244.53998 311.6844 244.85248 310.7625Q245.16498 309.825 245.77435 309.325Q246.39935 308.825 247.33685 308.825Q248.02435 308.825 248.53998 309.10626Q249.07123 309.3875 249.41498 309.91876Q249.75873 310.4344 249.94623 311.1844Q250.13373 311.9344 250.13373 313.21564Q250.13373 314.73126 249.82123 315.65314Q249.52435 316.575 248.89935 317.09064Q248.28998 317.59064 247.33685 317.59064Q246.10248 317.59064 245.38373 316.7Q244.53998 315.6375 244.53998 313.21564ZM245.6181 313.21564Q245.6181 315.325 246.1181 316.02814Q246.6181 316.73126 247.33685 316.73126Q248.07123 316.73126 248.5556 316.02814Q249.0556 315.325 249.0556 313.21564Q249.0556 311.09064 248.5556 310.40314Q248.07123 309.7 247.32123 309.7Q246.60248 309.7 246.16498 310.3094Q245.6181 311.09064 245.6181 313.21564ZM255.50873 317.45L254.46185 317.45L254.46185 310.73126Q254.07123 311.09064 253.44623 311.46564Q252.83685 311.825 252.35248 311.9969L252.35248 310.98126Q253.22748 310.5594 253.88373 309.98126Q254.5556 309.3875 254.83685 308.825L255.50873 308.825L255.50873 317.45ZM261.91498 317.45L261.91498 315.3875L258.19623 315.3875L258.19623 314.41876L262.1181 308.85626L262.97748 308.85626L262.97748 314.41876L264.13373 314.41876L264.13373 315.3875L262.97748 315.3875L262.97748 317.45L261.91498 317.45ZM261.91498 314.41876L261.91498 310.5594L259.22748 314.41876L261.91498 314.41876Z" fill-rule="nonzero"/><path fill="#000000" d="M335.54688 316.4344L335.54688 317.45L329.85938 317.45Q329.85938 317.075 329.98438 316.71564Q330.20312 316.1375 330.67188 315.575Q331.15625 315.0125 332.0625 314.27814Q333.46875 313.1219 333.95312 312.45Q334.45312 311.77814 334.45312 311.1844Q334.45312 310.5594 334.0 310.1375Q333.54688 309.7 332.82812 309.7Q332.0625 309.7 331.60938 310.15314Q331.15625 310.60626 331.14062 311.41876L330.0625 311.3094Q330.17188 310.09064 330.89062 309.46564Q331.625 308.825 332.85938 308.825Q334.09375 308.825 334.8125 309.5125Q335.53125 310.2 335.53125 311.21564Q335.53125 311.73126 335.3125 312.23126Q335.10938 312.71564 334.60938 313.27814Q334.125 313.825 333.0 314.77814Q332.04688 315.575 331.76562 315.8719Q331.5 316.15314 331.32812 316.4344L335.54688 316.4344ZM337.0 313.21564Q337.0 311.6844 337.3125 310.7625Q337.625 309.825 338.23438 309.325Q338.85938 308.825 339.79688 308.825Q340.48438 308.825 341.0 309.10626Q341.53125 309.3875 341.875 309.91876Q342.21875 310.4344 342.40625 311.1844Q342.59375 311.9344 342.59375 313.21564Q342.59375 314.73126 342.28125 315.65314Q341.98438 316.575 341.35938 317.09064Q340.75 317.59064 339.79688 317.59064Q338.5625 317.59064 337.84375 316.7Q337.0 315.6375 337.0 313.21564ZM338.07812 313.21564Q338.07812 315.325 338.57812 316.02814Q339.07812 316.73126 339.79688 316.73126Q340.53125 316.73126 341.01562 316.02814Q341.51562 315.325 341.51562 313.21564Q341.51562 311.09064 341.01562 310.40314Q340.53125 309.7 339.78125 309.7Q339.0625 309.7 338.625 310.3094Q338.07812 311.09064 338.07812 313.21564ZM347.96875 317.45L346.92188 317.45L346.92188 310.73126Q346.53125 311.09064 345.90625 311.46564Q345.29688 311.825 344.8125 311.9969L344.8125 310.98126Q345.6875 310.5594 346.34375 309.98126Q347.01562 309.3875 347.29688 308.825L347.96875 308.825L347.96875 317.45ZM356.46875 310.96564L355.42188 311.04376Q355.28125 310.41876 355.03125 310.1375Q354.59375 309.6844 353.96875 309.6844Q353.46875 309.6844 353.07812 309.96564Q352.59375 310.34064 352.29688 311.04376Q352.01562 311.73126 352.0 313.0125Q352.375 312.4344 352.92188 312.15314Q353.48438 311.8719 354.09375 311.8719Q355.14062 311.8719 355.875 312.65314Q356.625 313.4344 356.625 314.65314Q356.625 315.46564 356.26562 316.16876Q355.92188 316.85626 355.3125 317.23126Q354.70312 317.59064 353.9375 317.59064Q352.60938 317.59064 351.78125 316.6219Q350.95312 315.65314 350.95312 313.4344Q350.95312 310.9344 351.875 309.8094Q352.67188 308.825 354.03125 308.825Q355.04688 308.825 355.6875 309.40314Q356.34375 309.96564 356.46875 310.96564ZM352.17188 314.66876Q352.17188 315.21564 352.39062 315.71564Q352.625 316.2 353.03125 316.46564Q353.45312 316.73126 353.92188 316.73126Q354.57812 316.73126 355.0625 316.2Q355.54688 315.65314 355.54688 314.73126Q355.54688 313.84064 355.0625 313.325Q354.59375 312.8094 353.875 312.8094Q353.15625 312.8094 352.65625 313.325Q352.17188 313.84064 352.17188 314.66876Z" fill-rule="nonzero"/><path fill="#000000" d="M428.0069 316.4344L428.0069 317.45L422.3194 317.45Q422.3194 317.075 422.4444 316.71564Q422.66315 316.1375 423.1319 315.575Q423.61627 315.0125 424.52252 314.27814Q425.92877 313.1219 426.41315 312.45Q426.91315 311.77814 426.91315 311.1844Q426.91315 310.5594 426.46002 310.1375Q426.0069 309.7 425.28815 309.7Q424.52252 309.7 424.0694 310.15314Q423.61627 310.60626 423.60065 311.41876L422.52252 311.3094Q422.6319 310.09064 423.35065 309.46564Q424.08502 308.825 425.3194 308.825Q426.55377 308.825 427.27252 309.5125Q427.99127 310.2 427.99127 311.21564Q427.99127 311.73126 427.77252 312.23126Q427.5694 312.71564 427.0694 313.27814Q426.58502 313.825 425.46002 314.77814Q424.5069 315.575 424.22565 315.8719Q423.96002 316.15314 423.78815 316.4344L428.0069 316.4344ZM429.46002 313.21564Q429.46002 311.6844 429.77252 310.7625Q430.08502 309.825 430.6944 309.325Q431.3194 308.825 432.2569 308.825Q432.9444 308.825 433.46002 309.10626Q433.99127 309.3875 434.33502 309.91876Q434.67877 310.4344 434.86627 311.1844Q435.05377 311.9344 435.05377 313.21564Q435.05377 314.73126 434.74127 315.65314Q434.4444 316.575 433.8194 317.09064Q433.21002 317.59064 432.2569 317.59064Q431.02252 317.59064 430.30377 316.7Q429.46002 315.6375 429.46002 313.21564ZM430.53815 313.21564Q430.53815 315.325 431.03815 316.02814Q431.53815 316.73126 432.2569 316.73126Q432.99127 316.73126 433.47565 316.02814Q433.97565 315.325 433.97565 313.21564Q433.97565 311.09064 433.47565 310.40314Q432.99127 309.7 432.24127 309.7Q431.52252 309.7 431.08502 310.3094Q430.53815 311.09064 430.53815 313.21564ZM440.42877 317.45L439.3819 317.45L439.3819 310.73126Q438.99127 311.09064 438.36627 311.46564Q437.7569 311.825 437.27252 311.9969L437.27252 310.98126Q438.14752 310.5594 438.80377 309.98126Q439.47565 309.3875 439.7569 308.825L440.42877 308.825L440.42877 317.45ZM445.08502 312.79376Q444.42877 312.54376 444.10065 312.10626Q443.78815 311.65314 443.78815 311.04376Q443.78815 310.10626 444.46002 309.46564Q445.14752 308.825 446.2569 308.825Q447.3819 308.825 448.0694 309.48126Q448.7569 310.1375 448.7569 311.075Q448.7569 311.66876 448.4444 312.10626Q448.1319 312.54376 447.49127 312.79376Q448.28815 313.04376 448.6944 313.6219Q449.10065 314.2 449.10065 314.9969Q449.10065 316.09064 448.3194 316.84064Q447.55377 317.59064 446.27252 317.59064Q445.0069 317.59064 444.22565 316.84064Q443.4444 316.09064 443.4444 314.96564Q443.4444 314.1219 443.86627 313.5594Q444.30377 312.9969 445.08502 312.79376ZM444.86627 310.9969Q444.86627 311.60626 445.2569 311.9969Q445.66315 312.3875 446.28815 312.3875Q446.89752 312.3875 447.28815 312.0125Q447.67877 311.6219 447.67877 311.0594Q447.67877 310.48126 447.27252 310.09064Q446.86627 309.6844 446.27252 309.6844Q445.66315 309.6844 445.2569 310.075Q444.86627 310.46564 444.86627 310.9969ZM444.53815 314.96564Q444.53815 315.41876 444.74127 315.84064Q444.96002 316.2625 445.3819 316.4969Q445.80377 316.73126 446.28815 316.73126Q447.03815 316.73126 447.52252 316.2469Q448.02252 315.7625 448.02252 315.0125Q448.02252 314.2469 447.52252 313.7469Q447.02252 313.2469 446.2569 313.2469Q445.5069 313.2469 445.02252 313.7469Q444.53815 314.23126 444.53815 314.96564Z" fill-rule="nonzero"/><path fill="#000000" d="M520.4669 316.4344L520.4669 317.45L514.7794 317.45Q514.7794 317.075 514.9044 316.71564Q515.12317 316.1375 515.5919 315.575Q516.0763 315.0125 516.98254 314.27814Q518.3888 313.1219 518.87317 312.45Q519.37317 311.77814 519.37317 311.1844Q519.37317 310.5594 518.92004 310.1375Q518.4669 309.7 517.74817 309.7Q516.98254 309.7 516.5294 310.15314Q516.0763 310.60626 516.06067 311.41876L514.98254 311.3094Q515.0919 310.09064 515.81067 309.46564Q516.54504 308.825 517.7794 308.825Q519.0138 308.825 519.73254 309.5125Q520.4513 310.2 520.4513 311.21564Q520.4513 311.73126 520.23254 312.23126Q520.0294 312.71564 519.5294 313.27814Q519.04504 313.825 517.92004 314.77814Q516.9669 315.575 516.68567 315.8719Q516.42004 316.15314 516.24817 316.4344L520.4669 316.4344ZM521.92004 313.21564Q521.92004 311.6844 522.23254 310.7625Q522.54504 309.825 523.1544 309.325Q523.7794 308.825 524.7169 308.825Q525.4044 308.825 525.92004 309.10626Q526.4513 309.3875 526.79504 309.91876Q527.1388 310.4344 527.3263 311.1844Q527.5138 311.9344 527.5138 313.21564Q527.5138 314.73126 527.2013 315.65314Q526.9044 316.575 526.2794 317.09064Q525.67004 317.59064 524.7169 317.59064Q523.48254 317.59064 522.7638 316.7Q521.92004 315.6375 521.92004 313.21564ZM522.99817 313.21564Q522.99817 315.325 523.49817 316.02814Q523.99817 316.73126 524.7169 316.73126Q525.4513 316.73126 525.93567 316.02814Q526.43567 315.325 526.43567 313.21564Q526.43567 311.09064 525.93567 310.40314Q525.4513 309.7 524.7013 309.7Q523.98254 309.7 523.54504 310.3094Q522.99817 311.09064 522.99817 313.21564ZM534.4669 316.4344L534.4669 317.45L528.7794 317.45Q528.7794 317.075 528.9044 316.71564Q529.12317 316.1375 529.5919 315.575Q530.0763 315.0125 530.98254 314.27814Q532.3888 313.1219 532.87317 312.45Q533.37317 311.77814 533.37317 311.1844Q533.37317 310.5594 532.92004 310.1375Q532.4669 309.7 531.74817 309.7Q530.98254 309.7 530.5294 310.15314Q530.0763 310.60626 530.06067 311.41876L528.98254 311.3094Q529.0919 310.09064 529.81067 309.46564Q530.54504 308.825 531.7794 308.825Q533.0138 308.825 533.73254 309.5125Q534.4513 310.2 534.4513 311.21564Q534.4513 311.73126 534.23254 312.23126Q534.0294 312.71564 533.5294 313.27814Q533.04504 313.825 531.92004 314.77814Q530.9669 315.575 530.68567 315.8719Q530.42004 316.15314 530.24817 316.4344L534.4669 316.4344ZM535.92004 313.21564Q535.92004 311.6844 536.23254 310.7625Q536.54504 309.825 537.1544 309.325Q537.7794 308.825 538.7169 308.825Q539.4044 308.825 539.92004 309.10626Q540.4513 309.3875 540.79504 309.91876Q541.1388 310.4344 541.3263 311.1844Q541.5138 311.9344 541.5138 313.21564Q541.5138 314.73126 541.2013 315.65314Q540.9044 316.575 540.2794 317.09064Q539.67004 317.59064 538.7169 317.59064Q537.48254 317.59064 536.7638 316.7Q535.92004 315.6375 535.92004 313.21564ZM536.99817 313.21564Q536.99817 315.325 537.49817 316.02814Q537.99817 316.73126 538.7169 316.73126Q539.4513 316.73126 539.93567 316.02814Q540.43567 315.325 540.43567 313.21564Q540.43567 311.09064 539.93567 310.40314Q539.4513 309.7 538.7013 309.7Q537.98254 309.7 537.54504 310.3094Q536.99817 311.09064 536.99817 313.21564Z" fill-rule="nonzero"/><path fill="#757575" d="M30.315624 32.534374L32.20625 33.003124Q31.6125 35.346874 30.065624 36.58125Q28.51875 37.8 26.26875 37.8Q23.95625 37.8 22.503124 36.8625Q21.065624 35.909374 20.3 34.128124Q19.55 32.33125 19.55 30.284374Q19.55 28.05 20.39375 26.39375Q21.253124 24.721874 22.83125 23.8625Q24.409374 22.9875 26.3 22.9875Q28.45625 22.9875 29.909374 24.08125Q31.378124 25.175 31.95625 27.159374L30.096874 27.596874Q29.596874 26.034374 28.64375 25.33125Q27.70625 24.6125 26.26875 24.6125Q24.6125 24.6125 23.503124 25.409374Q22.39375 26.190624 21.940624 27.534374Q21.503124 28.8625 21.503124 30.26875Q21.503124 32.096874 22.034374 33.471874Q22.565624 34.83125 23.690624 35.503124Q24.815624 36.175 26.1125 36.175Q27.70625 36.175 28.815624 35.253124Q29.925 34.33125 30.315624 32.534374ZM33.221874 32.3625Q33.221874 29.4875 34.815624 28.096874Q36.159374 26.940624 38.08125 26.940624Q40.221874 26.940624 41.565624 28.346874Q42.925 29.753124 42.925 32.221874Q42.925 34.221874 42.33125 35.378124Q41.7375 36.51875 40.58125 37.159374Q39.440624 37.784374 38.08125 37.784374Q35.89375 37.784374 34.55 36.39375Q33.221874 34.9875 33.221874 32.3625ZM35.01875 32.3625Q35.01875 34.3625 35.878124 35.346874Q36.753124 36.33125 38.08125 36.33125Q39.39375 36.33125 40.253124 35.346874Q41.128124 34.346874 41.128124 32.3Q41.128124 30.378124 40.253124 29.39375Q39.378124 28.39375 38.08125 28.39375Q36.753124 28.39375 35.878124 29.39375Q35.01875 30.378124 35.01875 32.3625ZM44.83125 37.55L44.83125 23.2375L46.58125 23.2375L46.58125 37.55L44.83125 37.55ZM48.878124 25.253124L48.878124 23.2375L50.64375 23.2375L50.64375 25.253124L48.878124 25.253124ZM48.878124 37.55L48.878124 27.175L50.64375 27.175L50.64375 37.55L48.878124 37.55ZM53.284374 37.55L53.284374 28.55L51.7375 28.55L51.7375 27.175L53.284374 27.175L53.284374 26.08125Q53.284374 25.034374 53.471874 24.51875Q53.721874 23.83125 54.3625 23.409374Q55.003124 22.9875 56.159374 22.9875Q56.909374 22.9875 57.8 23.159374L57.534374 24.690624Q56.9875 24.596874 56.503124 24.596874Q55.70625 24.596874 55.3625 24.940624Q55.034374 25.284374 55.034374 26.221874L55.034374 27.175L57.065624 27.175L57.065624 28.55L55.034374 28.55L55.034374 37.55L53.284374 37.55ZM58.221874 32.3625Q58.221874 29.4875 59.815624 28.096874Q61.159374 26.940624 63.08125 26.940624Q65.22188 26.940624 66.56563 28.346874Q67.925 29.753124 67.925 32.221874Q67.925 34.221874 67.33125 35.378124Q66.7375 36.51875 65.58125 37.159374Q64.44063 37.784374 63.08125 37.784374Q60.89375 37.784374 59.55 36.39375Q58.221874 34.9875 58.221874 32.3625ZM60.01875 32.3625Q60.01875 34.3625 60.878124 35.346874Q61.753124 36.33125 63.08125 36.33125Q64.39375 36.33125 65.25313 35.346874Q66.12813 34.346874 66.12813 32.3Q66.12813 30.378124 65.25313 29.39375Q64.37813 28.39375 63.08125 28.39375Q61.753124 28.39375 60.878124 29.39375Q60.01875 30.378124 60.01875 32.3625ZM69.84688 37.55L69.84688 27.175L71.425 27.175L71.425 28.753124Q72.03438 27.64375 72.55 27.3Q73.06563 26.940624 73.675 26.940624Q74.56563 26.940624 75.4875 27.503124L74.87813 29.14375Q74.2375 28.753124 73.59688 28.753124Q73.01875 28.753124 72.55 29.1125Q72.09688 29.45625 71.89375 30.065624Q71.6125 31.003124 71.6125 32.1125L71.6125 37.55L69.84688 37.55ZM76.8625 37.55L76.8625 27.175L78.44063 27.175L78.44063 28.628124Q78.925 27.878124 79.7375 27.409374Q80.55 26.940624 81.58125 26.940624Q82.7375 26.940624 83.47188 27.425Q84.20625 27.89375 84.51875 28.753124Q85.75313 26.940624 87.72188 26.940624Q89.26875 26.940624 90.09688 27.8Q90.925 28.659374 90.925 30.425L90.925 37.55L89.175 37.55L89.175 31.01875Q89.175 29.95625 89.00313 29.503124Q88.83125 29.034374 88.37813 28.753124Q87.94063 28.471874 87.33125 28.471874Q86.2375 28.471874 85.50313 29.20625Q84.78438 29.925 84.78438 31.51875L84.78438 37.55L83.03438 37.55L83.03438 30.815624Q83.03438 29.64375 82.59688 29.065624Q82.175 28.471874 81.19063 28.471874Q80.45625 28.471874 79.81563 28.8625Q79.19063 29.253124 78.90938 30.003124Q78.62813 30.753124 78.62813 32.175L78.62813 37.55L76.8625 37.55ZM99.97188 34.20625L101.78438 34.440624Q101.3625 36.01875 100.19063 36.909374Q99.03438 37.784374 97.22188 37.784374Q94.95625 37.784374 93.6125 36.39375Q92.28438 34.9875 92.28438 32.45625Q92.28438 29.83125 93.62813 28.39375Q94.97188 26.940624 97.12813 26.940624Q99.20625 26.940624 100.51875 28.3625Q101.84688 29.76875 101.84688 32.346874Q101.84688 32.503124 101.83125 32.815624L94.09688 32.815624Q94.19063 34.51875 95.06563 35.425Q95.94063 36.33125 97.2375 36.33125Q98.20625 36.33125 98.87813 35.83125Q99.56563 35.315624 99.97188 34.20625ZM94.19063 31.3625L99.9875 31.3625Q99.87813 30.065624 99.33125 29.409374Q98.4875 28.39375 97.14375 28.39375Q95.94063 28.39375 95.1125 29.20625Q94.28438 30.003124 94.19063 31.3625ZM103.15938 34.45625L104.90938 34.175Q105.05 35.221874 105.72188 35.784374Q106.39375 36.33125 107.59688 36.33125Q108.8 36.33125 109.37813 35.846874Q109.97188 35.346874 109.97188 34.690624Q109.97188 34.096874 109.45625 33.753124Q109.09688 33.51875 107.65938 33.159374Q105.72188 32.659374 104.97188 32.315624Q104.2375 31.95625 103.84688 31.33125Q103.45625 30.690624 103.45625 29.925Q103.45625 29.2375 103.76875 28.64375Q104.09688 28.05 104.64375 27.659374Q105.05 27.3625 105.75313 27.159374Q106.47188 26.940624 107.28438 26.940624Q108.50313 26.940624 109.425 27.3Q110.34688 27.64375 110.78438 28.253124Q111.22188 28.846874 111.39375 29.846874L109.675 30.08125Q109.55 29.284374 108.9875 28.846874Q108.425 28.39375 107.40938 28.39375Q106.19063 28.39375 105.675 28.8Q105.15938 29.190624 105.15938 29.721874Q105.15938 30.065624 105.37813 30.346874Q105.58125 30.628124 106.05 30.815624Q106.31563 30.909374 107.59688 31.253124Q109.47188 31.753124 110.20625 32.08125Q110.94063 32.39375 111.3625 33.003124Q111.78438 33.596874 111.78438 34.503124Q111.78438 35.378124 111.26875 36.159374Q110.75313 36.940624 109.78438 37.3625Q108.81563 37.784374 107.59688 37.784374Q105.58125 37.784374 104.51875 36.940624Q103.45625 36.096874 103.15938 34.45625ZM120.28438 37.55L120.28438 28.55L118.7375 28.55L118.7375 27.175L120.28438 27.175L120.28438 26.08125Q120.28438 25.034374 120.47188 24.51875Q120.72188 23.83125 121.3625 23.409374Q122.00313 22.9875 123.15938 22.9875Q123.90938 22.9875 124.8 23.159374L124.53438 24.690624Q123.9875 24.596874 123.50313 24.596874Q122.70625 24.596874 122.3625 24.940624Q122.03438 25.284374 122.03438 26.221874L122.03438 27.175L124.06563 27.175L124.06563 28.55L122.03438 28.55L122.03438 37.55L120.28438 37.55ZM132.97188 34.20625L134.78438 34.440624Q134.3625 36.01875 133.19063 36.909374Q132.03438 37.784374 130.22188 37.784374Q127.95625 37.784374 126.6125 36.39375Q125.28438 34.9875 125.28438 32.45625Q125.28438 29.83125 126.62813 28.39375Q127.97188 26.940624 130.12813 26.940624Q132.20625 26.940624 133.51875 28.3625Q134.84688 29.76875 134.84688 32.346874Q134.84688 32.503124 134.83125 32.815624L127.09688 32.815624Q127.19063 34.51875 128.06563 35.425Q128.94063 36.33125 130.2375 36.33125Q131.20625 36.33125 131.87813 35.83125Q132.56563 35.315624 132.97188 34.20625ZM127.19063 31.3625L132.9875 31.3625Q132.87813 30.065624 132.33125 29.409374Q131.4875 28.39375 130.14375 28.39375Q128.94063 28.39375 128.1125 29.20625Q127.28438 30.003124 127.19063 31.3625ZM143.64375 33.753124L145.3625 33.971874Q145.08125 35.76875 143.90938 36.784374Q142.75313 37.784374 141.05 37.784374Q138.925 37.784374 137.62813 36.39375Q136.33125 35.003124 136.33125 32.409374Q136.33125 30.721874 136.87813 29.471874Q137.44063 28.20625 138.58125 27.58125Q139.72188 26.940624 141.06563 26.940624Q142.75313 26.940624 143.81563 27.8Q144.89375 28.659374 145.20625 30.221874L143.4875 30.4875Q143.25313 29.440624 142.62813 28.925Q142.00313 28.39375 141.12813 28.39375Q139.8 28.39375 138.97188 29.346874Q138.14375 30.3 138.14375 32.346874Q138.14375 34.440624 138.94063 35.39375Q139.7375 36.33125 141.03438 36.33125Q142.06563 36.33125 142.75313 35.70625Q143.45625 35.065624 143.64375 33.753124ZM153.64375 36.26875Q152.65938 37.096874 151.75313 37.440624Q150.84688 37.784374 149.81563 37.784374Q148.1125 37.784374 147.19063 36.95625Q146.26875 36.1125 146.26875 34.815624Q146.26875 34.05 146.6125 33.425Q146.97188 32.8 147.53438 32.425Q148.09688 32.034374 148.8 31.83125Q149.31563 31.70625 150.3625 31.565624Q152.4875 31.315624 153.4875 30.971874Q153.50313 30.6125 153.50313 30.503124Q153.50313 29.440624 153.00313 28.9875Q152.33125 28.39375 151.00313 28.39375Q149.75313 28.39375 149.15938 28.83125Q148.58125 29.26875 148.3 30.378124L146.58125 30.14375Q146.81563 29.034374 147.34688 28.3625Q147.87813 27.675 148.89375 27.315624Q149.90938 26.940624 151.25313 26.940624Q152.58125 26.940624 153.40938 27.253124Q154.2375 27.565624 154.62813 28.05Q155.01875 28.51875 155.175 29.2375Q155.26875 29.690624 155.26875 30.8625L155.26875 33.20625Q155.26875 35.659374 155.37813 36.315624Q155.4875 36.95625 155.83125 37.55L153.9875 37.55Q153.72188 37.003124 153.64375 36.26875ZM153.4875 32.346874Q152.53438 32.7375 150.6125 33.003124Q149.53438 33.159374 149.08125 33.3625Q148.64375 33.55 148.39375 33.925Q148.14375 34.3 148.14375 34.76875Q148.14375 35.471874 148.675 35.940624Q149.20625 36.409374 150.2375 36.409374Q151.25313 36.409374 152.03438 35.971874Q152.83125 35.51875 153.20625 34.753124Q153.4875 34.14375 153.4875 32.9875L153.4875 32.346874ZM157.87813 25.253124L157.87813 23.2375L159.64375 23.2375L159.64375 25.253124L157.87813 25.253124ZM157.87813 37.55L157.87813 27.175L159.64375 27.175L159.64375 37.55L157.87813 37.55ZM161.15938 34.45625L162.90938 34.175Q163.05 35.221874 163.72188 35.784374Q164.39375 36.33125 165.59688 36.33125Q166.8 36.33125 167.37813 35.846874Q167.97188 35.346874 167.97188 34.690624Q167.97188 34.096874 167.45625 33.753124Q167.09688 33.51875 165.65938 33.159374Q163.72188 32.659374 162.97188 32.315624Q162.2375 31.95625 161.84688 31.33125Q161.45625 30.690624 161.45625 29.925Q161.45625 29.2375 161.76875 28.64375Q162.09688 28.05 162.64375 27.659374Q163.05 27.3625 163.75313 27.159374Q164.47188 26.940624 165.28438 26.940624Q166.50313 26.940624 167.425 27.3Q168.34688 27.64375 168.78438 28.253124Q169.22188 28.846874 169.39375 29.846874L167.675 30.08125Q167.55 29.284374 166.9875 28.846874Q166.425 28.39375 165.40938 28.39375Q164.19063 28.39375 163.675 28.8Q163.15938 29.190624 163.15938 29.721874Q163.15938 30.065624 163.37813 30.346874Q163.58125 30.628124 164.05 30.815624Q164.31563 30.909374 165.59688 31.253124Q167.47188 31.753124 168.20625 32.08125Q168.94063 32.39375 169.3625 33.003124Q169.78438 33.596874 169.78438 34.503124Q169.78438 35.378124 169.26875 36.159374Q168.75313 36.940624 167.78438 37.3625Q166.81563 37.784374 165.59688 37.784374Q163.58125 37.784374 162.51875 36.940624Q161.45625 36.096874 161.15938 34.45625ZM177.8625 41.51875L177.8625 27.175L179.47188 27.175L179.47188 28.51875Q180.03438 27.7375 180.7375 27.346874Q181.45625 26.940624 182.47188 26.940624Q183.8 26.940624 184.81563 27.628124Q185.83125 28.315624 186.34688 29.565624Q186.87813 30.8 186.87813 32.284374Q186.87813 33.878124 186.3 35.159374Q185.7375 36.425 184.64375 37.1125Q183.55 37.784374 182.34688 37.784374Q181.47188 37.784374 180.76875 37.409374Q180.08125 37.034374 179.62813 36.471874L179.62813 41.51875L177.8625 41.51875ZM179.45625 32.425Q179.45625 34.425 180.26875 35.378124Q181.08125 36.33125 182.2375 36.33125Q183.40938 36.33125 184.2375 35.346874Q185.08125 34.3625 185.08125 32.26875Q185.08125 30.3 184.25313 29.315624Q183.44063 28.315624 182.31563 28.315624Q181.19063 28.315624 180.31563 29.378124Q179.45625 30.425 179.45625 32.425ZM188.22188 32.3625Q188.22188 29.4875 189.81563 28.096874Q191.15938 26.940624 193.08125 26.940624Q195.22188 26.940624 196.56563 28.346874Q197.925 29.753124 197.925 32.221874Q197.925 34.221874 197.33125 35.378124Q196.7375 36.51875 195.58125 37.159374Q194.44063 37.784374 193.08125 37.784374Q190.89375 37.784374 189.55 36.39375Q188.22188 34.9875 188.22188 32.3625ZM190.01875 32.3625Q190.01875 34.3625 190.87813 35.346874Q191.75313 36.33125 193.08125 36.33125Q194.39375 36.33125 195.25313 35.346874Q196.12813 34.346874 196.12813 32.3Q196.12813 30.378124 195.25313 29.39375Q194.37813 28.39375 193.08125 28.39375Q191.75313 28.39375 190.87813 29.39375Q190.01875 30.378124 190.01875 32.3625ZM199.84688 37.55L199.84688 27.175L201.425 27.175L201.425 28.753124Q202.03438 27.64375 202.55 27.3Q203.06563 26.940624 203.675 26.940624Q204.56563 26.940624 205.4875 27.503124L204.87813 29.14375Q204.2375 28.753124 203.59688 28.753124Q203.01875 28.753124 202.55 29.1125Q202.09688 29.45625 201.89375 30.065624Q201.6125 31.003124 201.6125 32.1125L201.6125 37.55L199.84688 37.55ZM219.64375 36.26875Q218.65938 37.096874 217.75313 37.440624Q216.84688 37.784374 215.81563 37.784374Q214.1125 37.784374 213.19063 36.95625Q212.26875 36.1125 212.26875 34.815624Q212.26875 34.05 212.6125 33.425Q212.97188 32.8 213.53438 32.425Q214.09688 32.034374 214.8 31.83125Q215.31563 31.70625 216.3625 31.565624Q218.4875 31.315624 219.4875 30.971874Q219.50313 30.6125 219.50313 30.503124Q219.50313 29.440624 219.00313 28.9875Q218.33125 28.39375 217.00313 28.39375Q215.75313 28.39375 215.15938 28.83125Q214.58125 29.26875 214.3 30.378124L212.58125 30.14375Q212.81563 29.034374 213.34688 28.3625Q213.87813 27.675 214.89375 27.315624Q215.90938 26.940624 217.25313 26.940624Q218.58125 26.940624 219.40938 27.253124Q220.2375 27.565624 220.62813 28.05Q221.01875 28.51875 221.175 29.2375Q221.26875 29.690624 221.26875 30.8625L221.26875 33.20625Q221.26875 35.659374 221.37813 36.315624Q221.4875 36.95625 221.83125 37.55L219.9875 37.55Q219.72188 37.003124 219.64375 36.26875ZM219.4875 32.346874Q218.53438 32.7375 216.6125 33.003124Q215.53438 33.159374 215.08125 33.3625Q214.64375 33.55 214.39375 33.925Q214.14375 34.3 214.14375 34.76875Q214.14375 35.471874 214.675 35.940624Q215.20625 36.409374 216.2375 36.409374Q217.25313 36.409374 218.03438 35.971874Q218.83125 35.51875 219.20625 34.753124Q219.4875 34.14375 219.4875 32.9875L219.4875 32.346874ZM223.8625 37.55L223.8625 27.175L225.45625 27.175L225.45625 28.659374Q226.59688 26.940624 228.75313 26.940624Q229.69063 26.940624 230.47188 27.284374Q231.26875 27.6125 231.65938 28.159374Q232.05 28.70625 232.20625 29.45625Q232.3 29.95625 232.3 31.175L232.3 37.55L230.53438 37.55L230.53438 31.2375Q230.53438 30.159374 230.33125 29.628124Q230.12813 29.096874 229.59688 28.784374Q229.08125 28.471874 228.37813 28.471874Q227.25313 28.471874 226.44063 29.190624Q225.62813 29.89375 225.62813 31.878124L225.62813 37.55L223.8625 37.55ZM233.22188 32.3625Q233.22188 29.4875 234.81563 28.096874Q236.15938 26.940624 238.08125 26.940624Q240.22188 26.940624 241.56563 28.346874Q242.925 29.753124 242.925 32.221874Q242.925 34.221874 242.33125 35.378124Q241.7375 36.51875 240.58125 37.159374Q239.44063 37.784374 238.08125 37.784374Q235.89375 37.784374 234.55 36.39375Q233.22188 34.9875 233.22188 32.3625ZM235.01875 32.3625Q235.01875 34.3625 235.87813 35.346874Q236.75313 36.33125 238.08125 36.33125Q239.39375 36.33125 240.25313 35.346874Q241.12813 34.346874 241.12813 32.3Q241.12813 30.378124 240.25313 29.39375Q239.37813 28.39375 238.08125 28.39375Q236.75313 28.39375 235.87813 29.39375Q235.01875 30.378124 235.01875 32.3625ZM254.22188 41.753124Q252.76875 39.925 251.76875 37.471874Q250.76875 35.003124 250.76875 32.3625Q250.76875 30.034374 251.51875 27.909374Q252.39375 25.440624 254.22188 22.9875L255.4875 22.9875Q254.3 25.01875 253.925 25.89375Q253.33125 27.2375 252.9875 28.70625Q252.56563 30.534374 252.56563 32.378124Q252.56563 37.065624 255.4875 41.753124L254.22188 41.753124ZM266.6125 35.8625L266.6125 37.55L257.15936 37.55Q257.14374 36.909374 257.3625 36.33125Q257.72186 35.3625 258.51874 34.425Q259.3156 33.4875 260.8156 32.253124Q263.15936 30.346874 263.97186 29.2375Q264.8 28.1125 264.8 27.1125Q264.8 26.065624 264.05 25.346874Q263.3 24.628124 262.09686 24.628124Q260.83124 24.628124 260.0656 25.39375Q259.3 26.159374 259.3 27.503124L257.4875 27.315624Q257.675 25.3 258.8781 24.2375Q260.09686 23.175 262.14374 23.175Q264.1906 23.175 265.39374 24.315624Q266.59686 25.45625 266.59686 27.14375Q266.59686 28.003124 266.2375 28.846874Q265.89374 29.675 265.08124 30.596874Q264.26874 31.503124 262.3781 33.1125Q260.78436 34.440624 260.33124 34.909374Q259.89374 35.378124 259.59686 35.8625L266.6125 35.8625ZM268.3781 30.4875Q268.3781 27.95625 268.89374 26.409374Q269.425 24.846874 270.45624 24.01875Q271.4875 23.175 273.05 23.175Q274.20624 23.175 275.0656 23.64375Q275.9406 24.096874 276.5031 24.971874Q277.0656 25.846874 277.39374 27.1125Q277.72186 28.3625 277.72186 30.4875Q277.72186 33.003124 277.1906 34.55Q276.675 36.096874 275.64374 36.95625Q274.6281 37.8 273.05 37.8Q270.97186 37.8 269.8 36.315624Q268.3781 34.51875 268.3781 30.4875ZM270.1906 30.4875Q270.1906 34.01875 271.0031 35.190624Q271.83124 36.346874 273.05 36.346874Q274.2531 36.346874 275.08124 35.175Q275.90936 34.003124 275.90936 30.4875Q275.90936 26.95625 275.08124 25.8Q274.2531 24.628124 273.03436 24.628124Q271.8156 24.628124 271.09686 25.659374Q270.1906 26.95625 270.1906 30.4875ZM286.0031 37.55L284.2375 37.55L284.2375 26.346874Q283.6125 26.95625 282.58124 27.565624Q281.55 28.159374 280.72186 28.471874L280.72186 26.76875Q282.20624 26.08125 283.3 25.096874Q284.40936 24.096874 284.8625 23.175L286.0031 23.175L286.0031 37.55ZM297.0031 37.55L295.2375 37.55L295.2375 26.346874Q294.6125 26.95625 293.58124 27.565624Q292.55 28.159374 291.72186 28.471874L291.72186 26.76875Q293.20624 26.08125 294.3 25.096874Q295.40936 24.096874 295.8625 23.175L297.0031 23.175L297.0031 37.55ZM301.1906 33.253124L301.1906 31.4875L306.58124 31.4875L306.58124 33.253124L301.1906 33.253124ZM317.6125 35.8625L317.6125 37.55L308.15936 37.55Q308.14374 36.909374 308.3625 36.33125Q308.72186 35.3625 309.51874 34.425Q310.3156 33.4875 311.8156 32.253124Q314.15936 30.346874 314.97186 29.2375Q315.8 28.1125 315.8 27.1125Q315.8 26.065624 315.05 25.346874Q314.3 24.628124 313.09686 24.628124Q311.83124 24.628124 311.0656 25.39375Q310.3 26.159374 310.3 27.503124L308.4875 27.315624Q308.675 25.3 309.8781 24.2375Q311.09686 23.175 313.14374 23.175Q315.1906 23.175 316.39374 24.315624Q317.59686 25.45625 317.59686 27.14375Q317.59686 28.003124 317.2375 28.846874Q316.89374 29.675 316.08124 30.596874Q315.26874 31.503124 313.3781 33.1125Q311.78436 34.440624 311.33124 34.909374Q310.89374 35.378124 310.59686 35.8625L317.6125 35.8625ZM319.3781 30.4875Q319.3781 27.95625 319.89374 26.409374Q320.425 24.846874 321.45624 24.01875Q322.4875 23.175 324.05 23.175Q325.20624 23.175 326.0656 23.64375Q326.9406 24.096874 327.5031 24.971874Q328.0656 25.846874 328.39374 27.1125Q328.72186 28.3625 328.72186 30.4875Q328.72186 33.003124 328.1906 34.55Q327.675 36.096874 326.64374 36.95625Q325.6281 37.8 324.05 37.8Q321.97186 37.8 320.8 36.315624Q319.3781 34.51875 319.3781 30.4875ZM321.1906 30.4875Q321.1906 34.01875 322.0031 35.190624Q322.83124 36.346874 324.05 36.346874Q325.2531 36.346874 326.08124 35.175Q326.90936 34.003124 326.90936 30.4875Q326.90936 26.95625 326.08124 25.8Q325.2531 24.628124 324.03436 24.628124Q322.8156 24.628124 322.09686 25.659374Q321.1906 26.95625 321.1906 30.4875ZM339.6125 35.8625L339.6125 37.55L330.15936 37.55Q330.14374 36.909374 330.3625 36.33125Q330.72186 35.3625 331.51874 34.425Q332.3156 33.4875 333.8156 32.253124Q336.15936 30.346874 336.97186 29.2375Q337.8 28.1125 337.8 27.1125Q337.8 26.065624 337.05 25.346874Q336.3 24.628124 335.09686 24.628124Q333.83124 24.628124 333.0656 25.39375Q332.3 26.159374 332.3 27.503124L330.4875 27.315624Q330.675 25.3 331.8781 24.2375Q333.09686 23.175 335.14374 23.175Q337.1906 23.175 338.39374 24.315624Q339.59686 25.45625 339.59686 27.14375Q339.59686 28.003124 339.2375 28.846874Q338.89374 29.675 338.08124 30.596874Q337.26874 31.503124 335.3781 33.1125Q333.78436 34.440624 333.33124 34.909374Q332.89374 35.378124 332.59686 35.8625L339.6125 35.8625ZM348.0031 37.55L346.2375 37.55L346.2375 26.346874Q345.6125 26.95625 344.58124 27.565624Q343.55 28.159374 342.72186 28.471874L342.72186 26.76875Q344.20624 26.08125 345.3 25.096874Q346.40936 24.096874 346.8625 23.175L348.0031 23.175L348.0031 37.55ZM354.01874 41.753124L352.76874 41.753124Q355.675 37.065624 355.675 32.378124Q355.675 30.534374 355.26874 28.7375Q354.925 27.26875 354.33124 25.925Q353.95624 25.034374 352.76874 22.9875L354.01874 22.9875Q355.8625 25.440624 356.7375 27.909374Q357.4875 30.034374 357.4875 32.3625Q357.4875 35.003124 356.47186 37.471874Q355.47186 39.925 354.01874 41.753124Z" fill-rule="nonzero"/></svg>