<svg version="1.1" viewBox="0.0 0.0 600.0 371.0" fill="none" stroke="none" stroke-linecap="square" stroke-miterlimit="10" width="600" height="371" xmlns:xlink="http://www.w3.org/1999/xlink" xmlns="http://www.w3.org/2000/svg"><path fill="#ffffff" d="M0 0L600.0 0L600.0 371.0L0 371.0L0 0Z" fill-rule="nonzero"/><path stroke="#cccccc" stroke-width="1.0" stroke-linecap="butt" d="M133.5 61.5L133.5 300.5" fill-rule="nonzero"/><path stroke="#cccccc" stroke-width="1.0" stroke-linecap="butt" d="M231.5 61.5L231.5 300.5" fill-rule="nonzero"/><path stroke="#cccccc" stroke-width="1.0" stroke-linecap="butt" d="M329.5 61.5L329.5 300.5" fill-rule="nonzero"/><path stroke="#cccccc" stroke-width="1.0" stroke-linecap="butt" d="M427.5 61.5L427.5 300.5" fill-rule="nonzero"/><path stroke="#cccccc" stroke-width="1.0" stroke-linecap="butt" d="M525.5 61.5L525.5 300.5" fill-rule="nonzero"/><path stroke="#333333" stroke-width="1.0" stroke-linecap="butt" d="M77.5 300.5L581.5 300.5" fill-rule="nonzero"/><path stroke="#cccccc" stroke-width="1.0" stroke-linecap="butt" d="M77.5 220.5L581.5 220.5" fill-rule="nonzero"/><path stroke="#cccccc" stroke-width="1.0" stroke-linecap="butt" d="M77.5 141.5L581.5 141.5" fill-rule="nonzero"/><path stroke="#cccccc" stroke-width="1.0" stroke-linecap="butt" d="M77.5 61.5L581.5 61.5" fill-rule="nonzero"/><clipPath id="id_0"><path d="M77.55 61.916668L581.45 61.916668L581.45 300.45L77.55 300.45L77.55 61.916668Z" clip-rule="nonzero"/></clipPath><path fill="#34a853" clip-path="url(#id_0)" d="M88.86077 77.818886C88.86077 80.30417 86.846054 82.318886 84.36077 82.318886C81.875496 82.318886 79.86077 80.30417 79.86077 77.818886C79.86077 75.33361 81.875496 73.318886 84.36077 73.318886C86.846054 73.318886 88.86077 75.33361 88.86077 77.818886Z" fill-rule="nonzero"/><path fill="#34a853" clip-path="url(#id_0)" d="M137.88863 189.13445C137.88863 191.61972 135.8739 193.63445 133.38863 193.63445C130.90334 193.63445 128.88863 191.61972 128.88863 189.13445C128.88863 186.64917 130.90334 184.63445 133.38863 184.63445C135.8739 184.63445 137.88863 186.64917 137.88863 189.13445Z" fill-rule="nonzero"/><path fill="#34a853" clip-path="url(#id_0)" d="M186.91646 81.79444C186.91646 84.279724 184.90175 86.29444 182.41646 86.29444C179.93118 86.29444 177.91646 84.279724 177.91646 81.79444C177.91646 79.309166 179.93118 77.29444 182.41646 77.29444C184.90175 77.29444 186.91646 79.309166 186.91646 81.79444Z" fill-rule="nonzero"/><path fill="#34a853" clip-path="url(#id_0)" d="M235.9443 129.50111C235.9443 131.98639 233.9296 134.00111 231.4443 134.00111C228.95903 134.00111 226.9443 131.98639 226.9443 129.50111C226.9443 127.01583 228.95903 125.001114 231.4443 125.001114C233.9296 125.001114 235.9443 127.01583 235.9443 129.50111Z" fill-rule="nonzero"/><path fill="#34a853" clip-path="url(#id_0)" d="M284.97217 205.03667C284.97217 207.52194 282.95743 209.53667 280.47217 209.53667C277.98688 209.53667 275.97217 207.52194 275.97217 205.03667C275.97217 202.55139 277.98688 200.53667 280.47217 200.53667C282.95743 200.53667 284.97217 202.55139 284.97217 205.03667Z" fill-rule="nonzero"/><path fill="#34a853" clip-path="url(#id_0)" d="M334.0 185.15889C334.0 187.64417 331.9853 189.65889 329.5 189.65889C327.0147 189.65889 325.0 187.64417 325.0 185.15889C325.0 182.67361 327.0147 180.65889 329.5 180.65889C331.9853 180.65889 334.0 182.67361 334.0 185.15889Z" fill-rule="nonzero"/><path fill="#34a853" clip-path="url(#id_0)" d="M383.02783 232.86555C383.02783 235.35083 381.01312 237.36555 378.52783 237.36555C376.04257 237.36555 374.02783 235.35083 374.02783 232.86555C374.02783 230.38028 376.04257 228.36555 378.52783 228.36555C381.01312 228.36555 383.02783 230.38028 383.02783 232.86555Z" fill-rule="nonzero"/><path fill="#34a853" clip-path="url(#id_0)" d="M432.0557 177.20778C432.0557 179.69305 430.041 181.70778 427.5557 181.70778C425.0704 181.70778 423.0557 179.69305 423.0557 177.20778C423.0557 174.7225 425.0704 172.70778 427.5557 172.70778C430.041 172.70778 432.0557 174.7225 432.0557 177.20778Z" fill-rule="nonzero"/><path fill="#34a853" clip-path="url(#id_0)" d="M481.08353 161.30556C481.08353 163.79083 479.06882 165.80556 476.58353 165.80556C474.09827 165.80556 472.08353 163.79083 472.08353 161.30556C472.08353 158.82027 474.09827 156.80556 476.58353 156.80556C479.06882 156.80556 481.08353 158.82027 481.08353 161.30556Z" fill-rule="nonzero"/><path fill="#34a853" clip-path="url(#id_0)" d="M530.1114 137.84978C530.1114 140.33505 528.0967 142.34978 525.6114 142.34978C523.1261 142.34978 521.1114 140.33505 521.1114 137.84978C521.1114 135.3645 523.1261 133.34978 525.6114 133.34978C528.0967 133.34978 530.1114 135.3645 530.1114 137.84978Z" fill-rule="nonzero"/><path fill="#34a853" clip-path="url(#id_0)" d="M579.1392 193.11C579.1392 195.59528 577.1245 197.61 574.6392 197.61C572.15393 197.61 570.1392 195.59528 570.1392 193.11C570.1392 190.62473 572.15393 188.61 574.6392 188.61C577.1245 188.61 579.1392 190.62473 579.1392 193.11Z" fill-rule="nonzero"/><path fill="#000000" d="M318.98438 349.45L322.28125 340.85626L323.5 340.85626L327.01562 349.45L325.73438 349.45L324.71875 346.84064L321.14062 346.84064L320.1875 349.45L318.98438 349.45ZM321.46875 345.91876L324.375 345.91876L323.48438 343.54376Q323.0625 342.46564 322.875 341.7625Q322.70312 342.59064 322.40625 343.40314L321.46875 345.91876ZM326.79688 349.45L326.79688 343.23126L327.73438 343.23126L327.73438 344.10626Q328.42188 343.09064 329.71875 343.09064Q330.28125 343.09064 330.75 343.29376Q331.23438 343.4969 331.46875 343.825Q331.70312 344.15314 331.79688 344.59064Q331.84375 344.8875 331.84375 345.6219L331.84375 349.45L330.79688 349.45L330.79688 345.66876Q330.79688 345.0125 330.67188 344.7Q330.54688 344.3875 330.23438 344.2Q329.92188 343.9969 329.5 343.9969Q328.82812 343.9969 328.32812 344.4344Q327.84375 344.85626 327.84375 346.04376L327.84375 349.45L326.79688 349.45ZM333.40625 346.34064Q333.40625 344.60626 334.35938 343.77814Q335.15625 343.09064 336.3125 343.09064Q337.59375 343.09064 338.40625 343.9344Q339.23438 344.7625 339.23438 346.2469Q339.23438 347.45 338.875 348.1375Q338.51562 348.825 337.8125 349.21564Q337.125 349.59064 336.3125 349.59064Q335.01562 349.59064 334.20312 348.7625Q333.40625 347.91876 333.40625 346.34064ZM334.48438 346.34064Q334.48438 347.52814 335.0 348.1219Q335.53125 348.71564 336.3125 348.71564Q337.10938 348.71564 337.625 348.1219Q338.14062 347.52814 338.14062 346.3094Q338.14062 345.15314 337.60938 344.5594Q337.09375 343.96564 336.3125 343.96564Q335.53125 343.96564 335.0 344.5594Q334.48438 345.1375 334.48438 346.34064Z" fill-rule="nonzero"/><path fill="#000000" d="M29.550013 199.76146L20.956263 199.76146L20.956263 196.79271Q20.956263 195.79271 21.081263 195.26146Q21.253138 194.52708 21.690638 194.01146Q22.268763 193.32396 23.175013 192.99583Q24.065638 192.65208 25.206263 192.65208Q26.190638 192.65208 26.940638 192.88646Q27.690638 193.10521 28.190638 193.46458Q28.690638 193.82396 28.971888 194.26146Q29.253138 194.68333 29.409388 195.27708Q29.550013 195.87083 29.550013 196.65208L29.550013 199.76146ZM28.534388 198.62083L28.534388 196.79271Q28.534388 195.93333 28.378138 195.44896Q28.221888 194.96458 27.925013 194.68333Q27.534388 194.27708 26.846888 194.05833Q26.159388 193.82396 25.190638 193.82396Q23.846888 193.82396 23.128138 194.27708Q22.393763 194.71458 22.143763 195.33958Q21.971888 195.80833 21.971888 196.80833L21.971888 198.62083L28.534388 198.62083ZM29.550013 190.80833L20.956263 190.80833L20.956263 187.57396Q20.956263 186.58958 21.221888 185.99583Q21.487513 185.40208 22.034388 185.07396Q22.565638 184.73021 23.159388 184.73021Q23.706263 184.73021 24.190638 185.02708Q24.675013 185.32396 24.971888 185.93333Q25.206263 185.15208 25.768763 184.74583Q26.315638 184.32396 27.065638 184.32396Q27.659388 184.32396 28.190638 184.57396Q28.706263 184.82396 28.987513 185.19896Q29.268763 185.57396 29.409388 186.15208Q29.550013 186.71458 29.550013 187.52708L29.550013 190.80833ZM24.565638 189.66771L24.565638 187.80833Q24.565638 187.05833 24.471888 186.73021Q24.346888 186.29271 24.050013 186.07396Q23.737513 185.85521 23.284388 185.85521Q22.862513 185.85521 22.534388 186.05833Q22.206263 186.26146 22.096888 186.65208Q21.971888 187.02708 21.971888 187.94896L21.971888 189.66771L24.565638 189.66771ZM28.534388 189.66771L28.534388 187.52708Q28.534388 186.98021 28.487513 186.76146Q28.425013 186.35521 28.268763 186.10521Q28.096888 185.83958 27.784388 185.66771Q27.471888 185.49583 27.065638 185.49583Q26.581263 185.49583 26.221888 185.74583Q25.862513 185.98021 25.721888 186.41771Q25.581263 186.85521 25.581263 187.68333L25.581263 189.66771L28.534388 189.66771ZM25.362513 183.10521Q23.221888 183.10521 22.018763 181.96458Q20.800013 180.80833 20.800013 178.99583Q20.800013 177.79271 21.378138 176.83958Q21.940638 175.88646 22.956263 175.38646Q23.971888 174.88646 25.268763 174.88646Q26.565638 174.88646 27.596888 175.41771Q28.628138 175.94896 29.159388 176.91771Q29.690638 177.87083 29.690638 178.99583Q29.690638 180.21458 29.112513 181.16771Q28.518763 182.12083 27.518763 182.62083Q26.503138 183.10521 25.362513 183.10521ZM25.378138 181.93333Q26.940638 181.93333 27.831263 181.10521Q28.721888 180.26146 28.721888 178.99583Q28.721888 177.71458 27.831263 176.88646Q26.925013 176.05833 25.253138 176.05833Q24.206263 176.05833 23.425013 176.41771Q22.643763 176.76146 22.221888 177.44896Q21.784388 178.13646 21.784388 178.98021Q21.784388 180.18333 22.612513 181.05833Q23.440638 181.93333 25.378138 181.93333Z" fill-rule="nonzero"/><path fill="#000000" d="M65.05 300.21564Q65.05 298.6844 65.3625 297.7625Q65.675 296.825 66.28438 296.325Q66.90938 295.825 67.84688 295.825Q68.53438 295.825 69.05 296.10626Q69.58125 296.3875 69.925 296.91876Q70.26875 297.4344 70.45625 298.1844Q70.64375 298.9344 70.64375 300.21564Q70.64375 301.73126 70.33125 302.65314Q70.03438 303.575 69.40938 304.09064Q68.8 304.59064 67.84688 304.59064Q66.6125 304.59064 65.89375 303.7Q65.05 302.6375 65.05 300.21564ZM66.12813 300.21564Q66.12813 302.325 66.62813 303.02814Q67.12813 303.73126 67.84688 303.73126Q68.58125 303.73126 69.06563 303.02814Q69.56563 302.325 69.56563 300.21564Q69.56563 298.09064 69.06563 297.40314Q68.58125 296.7 67.83125 296.7Q67.1125 296.7 66.675 297.3094Q66.12813 298.09064 66.12813 300.21564Z" fill-rule="nonzero"/><path fill="#000000" d="M63.596874 223.92326L63.596874 224.93889L57.909374 224.93889Q57.909374 224.56389 58.034374 224.20451Q58.253124 223.62639 58.721874 223.06389Q59.20625 222.50139 60.1125 221.76701Q61.51875 220.61076 62.003124 219.93889Q62.503124 219.26701 62.503124 218.67326Q62.503124 218.04826 62.05 217.62639Q61.596874 217.18889 60.878124 217.18889Q60.1125 217.18889 59.659374 217.64201Q59.20625 218.09514 59.190624 218.90764L58.1125 218.79826Q58.221874 217.57951 58.940624 216.95451Q59.675 216.31389 60.909374 216.31389Q62.14375 216.31389 62.8625 217.00139Q63.58125 217.68889 63.58125 218.70451Q63.58125 219.22014 63.3625 219.72014Q63.159374 220.20451 62.659374 220.76701Q62.175 221.31389 61.05 222.26701Q60.096874 223.06389 59.815624 223.36076Q59.55 223.64201 59.378124 223.92326L63.596874 223.92326ZM65.05 220.70451Q65.05 219.17326 65.3625 218.25139Q65.675 217.31389 66.28438 216.81389Q66.90938 216.31389 67.84688 216.31389Q68.53438 216.31389 69.05 216.59514Q69.58125 216.87639 69.925 217.40764Q70.26875 217.92326 70.45625 218.67326Q70.64375 219.42326 70.64375 220.70451Q70.64375 222.22014 70.33125 223.14201Q70.03438 224.06389 69.40938 224.57951Q68.8 225.07951 67.84688 225.07951Q66.6125 225.07951 65.89375 224.18889Q65.05 223.12639 65.05 220.70451ZM66.12813 220.70451Q66.12813 222.81389 66.62813 223.51701Q67.12813 224.22014 67.84688 224.22014Q68.58125 224.22014 69.06563 223.51701Q69.56563 222.81389 69.56563 220.70451Q69.56563 218.57951 69.06563 217.89201Q68.58125 217.18889 67.83125 217.18889Q67.1125 217.18889 66.675 217.79826Q66.12813 218.57951 66.12813 220.70451Z" fill-rule="nonzero"/><path fill="#000000" d="M61.425 145.42778L61.425 143.36528L57.70625 143.36528L57.70625 142.39653L61.628124 136.83403L62.4875 136.83403L62.4875 142.39653L63.64375 142.39653L63.64375 143.36528L62.4875 143.36528L62.4875 145.42778L61.425 145.42778ZM61.425 142.39653L61.425 138.53716L58.7375 142.39653L61.425 142.39653ZM65.05 141.1934Q65.05 139.66216 65.3625 138.74028Q65.675 137.80278 66.28438 137.30278Q66.90938 136.80278 67.84688 136.80278Q68.53438 136.80278 69.05 137.08403Q69.58125 137.36528 69.925 137.89653Q70.26875 138.41216 70.45625 139.16216Q70.64375 139.91216 70.64375 141.1934Q70.64375 142.70903 70.33125 143.6309Q70.03438 144.55278 69.40938 145.0684Q68.8 145.5684 67.84688 145.5684Q66.6125 145.5684 65.89375 144.67778Q65.05 143.61528 65.05 141.1934ZM66.12813 141.1934Q66.12813 143.30278 66.62813 144.0059Q67.12813 144.70903 67.84688 144.70903Q68.58125 144.70903 69.06563 144.0059Q69.56563 143.30278 69.56563 141.1934Q69.56563 139.0684 69.06563 138.3809Q68.58125 137.67778 67.83125 137.67778Q67.1125 137.67778 66.675 138.28716Q66.12813 139.0684 66.12813 141.1934Z" fill-rule="nonzero"/><path fill="#000000" d="M63.51875 59.43229L62.471874 59.510414Q62.33125 58.885414 62.08125 58.604164Q61.64375 58.15104 61.01875 58.15104Q60.51875 58.15104 60.128124 58.43229Q59.64375 58.80729 59.346874 59.510414Q59.065624 60.197914 59.05 61.479164Q59.425 60.90104 59.971874 60.61979Q60.534374 60.33854 61.14375 60.33854Q62.190624 60.33854 62.925 61.11979Q63.675 61.90104 63.675 63.11979Q63.675 63.93229 63.315624 64.635414Q62.971874 65.322914 62.3625 65.697914Q61.753124 66.05729 60.9875 66.05729Q59.659374 66.05729 58.83125 65.08854Q58.003124 64.11979 58.003124 61.90104Q58.003124 59.40104 58.925 58.27604Q59.721874 57.291664 61.08125 57.291664Q62.096874 57.291664 62.7375 57.86979Q63.39375 58.43229 63.51875 59.43229ZM59.221874 63.135414Q59.221874 63.68229 59.440624 64.18229Q59.675 64.666664 60.08125 64.93229Q60.503124 65.197914 60.971874 65.197914Q61.628124 65.197914 62.1125 64.666664Q62.596874 64.11979 62.596874 63.197914Q62.596874 62.30729 62.1125 61.791664Q61.64375 61.27604 60.925 61.27604Q60.20625 61.27604 59.70625 61.791664Q59.221874 62.30729 59.221874 63.135414ZM65.05 61.68229Q65.05 60.15104 65.3625 59.229164Q65.675 58.291664 66.28438 57.791664Q66.90938 57.291664 67.84688 57.291664Q68.53438 57.291664 69.05 57.572914Q69.58125 57.854164 69.925 58.385414Q70.26875 58.90104 70.45625 59.65104Q70.64375 60.40104 70.64375 61.68229Q70.64375 63.197914 70.33125 64.11979Q70.03438 65.041664 69.40938 65.55729Q68.8 66.05729 67.84688 66.05729Q66.6125 66.05729 65.89375 65.166664Q65.05 64.104164 65.05 61.68229ZM66.12813 61.68229Q66.12813 63.791664 66.62813 64.49479Q67.12813 65.197914 67.84688 65.197914Q68.58125 65.197914 69.06563 64.49479Q69.56563 63.791664 69.56563 61.68229Q69.56563 59.55729 69.06563 58.86979Q68.58125 58.166664 67.83125 58.166664Q67.1125 58.166664 66.675 58.77604Q66.12813 59.55729 66.12813 61.68229Z" fill-rule="nonzero"/><path fill="#000000" d="M125.43549 316.4344L125.43549 317.45L119.74799 317.45Q119.74799 317.075 119.87299 316.71564Q120.09174 316.1375 120.56049 315.575Q121.04487 315.0125 121.95112 314.27814Q123.35737 313.1219 123.84174 312.45Q124.34174 311.77814 124.34174 311.1844Q124.34174 310.5594 123.88862 310.1375Q123.43549 309.7 122.71674 309.7Q121.95112 309.7 121.49799 310.15314Q121.04487 310.60626 121.02924 311.41876L119.95112 311.3094Q120.06049 310.09064 120.77924 309.46564Q121.51362 308.825 122.74799 308.825Q123.98237 308.825 124.70112 309.5125Q125.41987 310.2 125.41987 311.21564Q125.41987 311.73126 125.20112 312.23126Q124.99799 312.71564 124.49799 313.27814Q124.01362 313.825 122.88862 314.77814Q121.93549 315.575 121.65424 315.8719Q121.38862 316.15314 121.21674 316.4344L125.43549 316.4344ZM126.88862 313.21564Q126.88862 311.6844 127.20112 310.7625Q127.51362 309.825 128.12299 309.325Q128.74799 308.825 129.68549 308.825Q130.37299 308.825 130.88861 309.10626Q131.41986 309.3875 131.76361 309.91876Q132.10736 310.4344 132.29486 311.1844Q132.48236 311.9344 132.48236 313.21564Q132.48236 314.73126 132.16986 315.65314Q131.87299 316.575 131.24799 317.09064Q130.63861 317.59064 129.68549 317.59064Q128.45111 317.59064 127.73237 316.7Q126.88862 315.6375 126.88862 313.21564ZM127.96674 313.21564Q127.96674 315.325 128.46674 316.02814Q128.96674 316.73126 129.68549 316.73126Q130.41986 316.73126 130.90424 316.02814Q131.40424 315.325 131.40424 313.21564Q131.40424 311.09064 130.90424 310.40314Q130.41986 309.7 129.66986 309.7Q128.95111 309.7 128.51361 310.3094Q127.96674 311.09064 127.96674 313.21564ZM137.85736 317.45L136.81049 317.45L136.81049 310.73126Q136.41986 311.09064 135.79486 311.46564Q135.18549 311.825 134.70111 311.9969L134.70111 310.98126Q135.57611 310.5594 136.23236 309.98126Q136.90424 309.3875 137.18549 308.825L137.85736 308.825L137.85736 317.45ZM146.43549 316.4344L146.43549 317.45L140.74799 317.45Q140.74799 317.075 140.87299 316.71564Q141.09174 316.1375 141.56049 315.575Q142.04486 315.0125 142.95111 314.27814Q144.35736 313.1219 144.84174 312.45Q145.34174 311.77814 145.34174 311.1844Q145.34174 310.5594 144.88861 310.1375Q144.43549 309.7 143.71674 309.7Q142.95111 309.7 142.49799 310.15314Q142.04486 310.60626 142.02924 311.41876L140.95111 311.3094Q141.06049 310.09064 141.77924 309.46564Q142.51361 308.825 143.74799 308.825Q144.98236 308.825 145.70111 309.5125Q146.41986 310.2 146.41986 311.21564Q146.41986 311.73126 146.20111 312.23126Q145.99799 312.71564 145.49799 313.27814Q145.01361 313.825 143.88861 314.77814Q142.93549 315.575 142.65424 315.8719Q142.38861 316.15314 142.21674 316.4344L146.43549 316.4344Z" fill-rule="nonzero"/><path fill="#000000" d="M223.49118 316.4344L223.49118 317.45L217.80368 317.45Q217.80368 317.075 217.92868 316.71564Q218.14743 316.1375 218.61618 315.575Q219.10056 315.0125 220.0068 314.27814Q221.41306 313.1219 221.89743 312.45Q222.39743 311.77814 222.39743 311.1844Q222.39743 310.5594 221.9443 310.1375Q221.49118 309.7 220.77243 309.7Q220.0068 309.7 219.55368 310.15314Q219.10056 310.60626 219.08493 311.41876L218.0068 311.3094Q218.11618 310.09064 218.83493 309.46564Q219.5693 308.825 220.80368 308.825Q222.03806 308.825 222.7568 309.5125Q223.47556 310.2 223.47556 311.21564Q223.47556 311.73126 223.2568 312.23126Q223.05368 312.71564 222.55368 313.27814Q222.0693 313.825 220.9443 314.77814Q219.99118 315.575 219.70993 315.8719Q219.4443 316.15314 219.27243 316.4344L223.49118 316.4344ZM224.9443 313.21564Q224.9443 311.6844 225.2568 310.7625Q225.5693 309.825 226.17868 309.325Q226.80368 308.825 227.74118 308.825Q228.42868 308.825 228.9443 309.10626Q229.47556 309.3875 229.8193 309.91876Q230.16306 310.4344 230.35056 311.1844Q230.53806 311.9344 230.53806 313.21564Q230.53806 314.73126 230.22556 315.65314Q229.92868 316.575 229.30368 317.09064Q228.6943 317.59064 227.74118 317.59064Q226.5068 317.59064 225.78806 316.7Q224.9443 315.6375 224.9443 313.21564ZM226.02243 313.21564Q226.02243 315.325 226.52243 316.02814Q227.02243 316.73126 227.74118 316.73126Q228.47556 316.73126 228.95993 316.02814Q229.45993 315.325 229.45993 313.21564Q229.45993 311.09064 228.95993 310.40314Q228.47556 309.7 227.72556 309.7Q227.0068 309.7 226.5693 310.3094Q226.02243 311.09064 226.02243 313.21564ZM235.91306 317.45L234.86618 317.45L234.86618 310.73126Q234.47556 311.09064 233.85056 311.46564Q233.24118 311.825 232.7568 311.9969L232.7568 310.98126Q233.6318 310.5594 234.28806 309.98126Q234.95993 309.3875 235.24118 308.825L235.91306 308.825L235.91306 317.45ZM242.3193 317.45L242.3193 315.3875L238.60056 315.3875L238.60056 314.41876L242.52243 308.85626L243.3818 308.85626L243.3818 314.41876L244.53806 314.41876L244.53806 315.3875L243.3818 315.3875L243.3818 317.45L242.3193 317.45ZM242.3193 314.41876L242.3193 310.5594L239.6318 314.41876L242.3193 314.41876Z" fill-rule="nonzero"/><path fill="#000000" d="M321.54688 316.4344L321.54688 317.45L315.85938 317.45Q315.85938 317.075 315.98438 316.71564Q316.20312 316.1375 316.67188 315.575Q317.15625 315.0125 318.0625 314.27814Q319.46875 313.1219 319.95312 312.45Q320.45312 311.77814 320.45312 311.1844Q320.45312 310.5594 320.0 310.1375Q319.54688 309.7 318.82812 309.7Q318.0625 309.7 317.60938 310.15314Q317.15625 310.60626 317.14062 311.41876L316.0625 311.3094Q316.17188 310.09064 316.89062 309.46564Q317.625 308.825 318.85938 308.825Q320.09375 308.825 320.8125 309.5125Q321.53125 310.2 321.53125 311.21564Q321.53125 311.73126 321.3125 312.23126Q321.10938 312.71564 320.60938 313.27814Q320.125 313.825 319.0 314.77814Q318.04688 315.575 317.76562 315.8719Q317.5 316.15314 317.32812 316.4344L321.54688 316.4344ZM323.0 313.21564Q323.0 311.6844 323.3125 310.7625Q323.625 309.825 324.23438 309.325Q324.85938 308.825 325.79688 308.825Q326.48438 308.825 327.0 309.10626Q327.53125 309.3875 327.875 309.91876Q328.21875 310.4344 328.40625 311.1844Q328.59375 311.9344 328.59375 313.21564Q328.59375 314.73126 328.28125 315.65314Q327.98438 316.575 327.35938 317.09064Q326.75 317.59064 325.79688 317.59064Q324.5625 317.59064 323.84375 316.7Q323.0 315.6375 323.0 313.21564ZM324.07812 313.21564Q324.07812 315.325 324.57812 316.02814Q325.07812 316.73126 325.79688 316.73126Q326.53125 316.73126 327.01562 316.02814Q327.51562 315.325 327.51562 313.21564Q327.51562 311.09064 327.01562 310.40314Q326.53125 309.7 325.78125 309.7Q325.0625 309.7 324.625 310.3094Q324.07812 311.09064 324.07812 313.21564ZM333.96875 317.45L332.92188 317.45L332.92188 310.73126Q332.53125 311.09064 331.90625 311.46564Q331.29688 311.825 330.8125 311.9969L330.8125 310.98126Q331.6875 310.5594 332.34375 309.98126Q333.01562 309.3875 333.29688 308.825L333.96875 308.825L333.96875 317.45ZM342.46875 310.96564L341.42188 311.04376Q341.28125 310.41876 341.03125 310.1375Q340.59375 309.6844 339.96875 309.6844Q339.46875 309.6844 339.07812 309.96564Q338.59375 310.34064 338.29688 311.04376Q338.01562 311.73126 338.0 313.0125Q338.375 312.4344 338.92188 312.15314Q339.48438 311.8719 340.09375 311.8719Q341.14062 311.8719 341.875 312.65314Q342.625 313.4344 342.625 314.65314Q342.625 315.46564 342.26562 316.16876Q341.92188 316.85626 341.3125 317.23126Q340.70312 317.59064 339.9375 317.59064Q338.60938 317.59064 337.78125 316.6219Q336.95312 315.65314 336.95312 313.4344Q336.95312 310.9344 337.875 309.8094Q338.67188 308.825 340.03125 308.825Q341.04688 308.825 341.6875 309.40314Q342.34375 309.96564 342.46875 310.96564ZM338.17188 314.66876Q338.17188 315.21564 338.39062 315.71564Q338.625 316.2 339.03125 316.46564Q339.45312 316.73126 339.92188 316.73126Q340.57812 316.73126 341.0625 316.2Q341.54688 315.65314 341.54688 314.73126Q341.54688 313.84064 341.0625 313.325Q340.59375 312.8094 339.875 312.8094Q339.15625 312.8094 338.65625 313.325Q338.17188 313.84064 338.17188 314.66876Z" fill-rule="nonzero"/><path fill="#000000" d="M419.60257 316.4344L419.60257 317.45L413.91507 317.45Q413.91507 317.075 414.04007 316.71564Q414.25882 316.1375 414.72757 315.575Q415.21194 315.0125 416.1182 314.27814Q417.52444 313.1219 418.00882 312.45Q418.50882 311.77814 418.50882 311.1844Q418.50882 310.5594 418.0557 310.1375Q417.60257 309.7 416.88382 309.7Q416.1182 309.7 415.66507 310.15314Q415.21194 310.60626 415.19632 311.41876L414.1182 311.3094Q414.22757 310.09064 414.94632 309.46564Q415.6807 308.825 416.91507 308.825Q418.14944 308.825 418.8682 309.5125Q419.58694 310.2 419.58694 311.21564Q419.58694 311.73126 419.3682 312.23126Q419.16507 312.71564 418.66507 313.27814Q418.1807 313.825 417.0557 314.77814Q416.10257 315.575 415.82132 315.8719Q415.5557 316.15314 415.38382 316.4344L419.60257 316.4344ZM421.0557 313.21564Q421.0557 311.6844 421.3682 310.7625Q421.6807 309.825 422.29007 309.325Q422.91507 308.825 423.85257 308.825Q424.54007 308.825 425.0557 309.10626Q425.58694 309.3875 425.9307 309.91876Q426.27444 310.4344 426.46194 311.1844Q426.64944 311.9344 426.64944 313.21564Q426.64944 314.73126 426.33694 315.65314Q426.04007 316.575 425.41507 317.09064Q424.8057 317.59064 423.85257 317.59064Q422.6182 317.59064 421.89944 316.7Q421.0557 315.6375 421.0557 313.21564ZM422.13382 313.21564Q422.13382 315.325 422.63382 316.02814Q423.13382 316.73126 423.85257 316.73126Q424.58694 316.73126 425.07132 316.02814Q425.57132 315.325 425.57132 313.21564Q425.57132 311.09064 425.07132 310.40314Q424.58694 309.7 423.83694 309.7Q423.1182 309.7 422.6807 310.3094Q422.13382 311.09064 422.13382 313.21564ZM432.02444 317.45L430.97757 317.45L430.97757 310.73126Q430.58694 311.09064 429.96194 311.46564Q429.35257 311.825 428.8682 311.9969L428.8682 310.98126Q429.7432 310.5594 430.39944 309.98126Q431.07132 309.3875 431.35257 308.825L432.02444 308.825L432.02444 317.45ZM436.6807 312.79376Q436.02444 312.54376 435.69632 312.10626Q435.38382 311.65314 435.38382 311.04376Q435.38382 310.10626 436.0557 309.46564Q436.7432 308.825 437.85257 308.825Q438.97757 308.825 439.66507 309.48126Q440.35257 310.1375 440.35257 311.075Q440.35257 311.66876 440.04007 312.10626Q439.72757 312.54376 439.08694 312.79376Q439.88382 313.04376 440.29007 313.6219Q440.69632 314.2 440.69632 314.9969Q440.69632 316.09064 439.91507 316.84064Q439.14944 317.59064 437.8682 317.59064Q436.60257 317.59064 435.82132 316.84064Q435.04007 316.09064 435.04007 314.96564Q435.04007 314.1219 435.46194 313.5594Q435.89944 312.9969 436.6807 312.79376ZM436.46194 310.9969Q436.46194 311.60626 436.85257 311.9969Q437.25882 312.3875 437.88382 312.3875Q438.4932 312.3875 438.88382 312.0125Q439.27444 311.6219 439.27444 311.0594Q439.27444 310.48126 438.8682 310.09064Q438.46194 309.6844 437.8682 309.6844Q437.25882 309.6844 436.85257 310.075Q436.46194 310.46564 436.46194 310.9969ZM436.13382 314.96564Q436.13382 315.41876 436.33694 315.84064Q436.5557 316.2625 436.97757 316.4969Q437.39944 316.73126 437.88382 316.73126Q438.63382 316.73126 439.1182 316.2469Q439.6182 315.7625 439.6182 315.0125Q439.6182 314.2469 439.1182 313.7469Q438.6182 313.2469 437.85257 313.2469Q437.10257 313.2469 436.6182 313.7469Q436.13382 314.23126 436.13382 314.96564Z" fill-rule="nonzero"/><path fill="#000000" d="M517.65826 316.4344L517.65826 317.45L511.97076 317.45Q511.97076 317.075 512.09576 316.71564Q512.3145 316.1375 512.78326 315.575Q513.26764 315.0125 514.1739 314.27814Q515.58014 313.1219 516.0645 312.45Q516.5645 311.77814 516.5645 311.1844Q516.5645 310.5594 516.1114 310.1375Q515.65826 309.7 514.9395 309.7Q514.1739 309.7 513.72076 310.15314Q513.26764 310.60626 513.252 311.41876L512.1739 311.3094Q512.28326 310.09064 513.002 309.46564Q513.7364 308.825 514.97076 308.825Q516.20514 308.825 516.9239 309.5125Q517.64264 310.2 517.64264 311.21564Q517.64264 311.73126 517.4239 312.23126Q517.22076 312.71564 516.72076 313.27814Q516.2364 313.825 515.1114 314.77814Q514.15826 315.575 513.877 315.8719Q513.6114 316.15314 513.4395 316.4344L517.65826 316.4344ZM519.1114 313.21564Q519.1114 311.6844 519.4239 310.7625Q519.7364 309.825 520.34576 309.325Q520.97076 308.825 521.90826 308.825Q522.59576 308.825 523.1114 309.10626Q523.64264 309.3875 523.9864 309.91876Q524.33014 310.4344 524.51764 311.1844Q524.70514 311.9344 524.70514 313.21564Q524.70514 314.73126 524.39264 315.65314Q524.09576 316.575 523.47076 317.09064Q522.8614 317.59064 521.90826 317.59064Q520.6739 317.59064 519.95514 316.7Q519.1114 315.6375 519.1114 313.21564ZM520.1895 313.21564Q520.1895 315.325 520.6895 316.02814Q521.1895 316.73126 521.90826 316.73126Q522.64264 316.73126 523.127 316.02814Q523.627 315.325 523.627 313.21564Q523.627 311.09064 523.127 310.40314Q522.64264 309.7 521.89264 309.7Q521.1739 309.7 520.7364 310.3094Q520.1895 311.09064 520.1895 313.21564ZM531.65826 316.4344L531.65826 317.45L525.97076 317.45Q525.97076 317.075 526.09576 316.71564Q526.3145 316.1375 526.78326 315.575Q527.26764 315.0125 528.1739 314.27814Q529.58014 313.1219 530.0645 312.45Q530.5645 311.77814 530.5645 311.1844Q530.5645 310.5594 530.1114 310.1375Q529.65826 309.7 528.9395 309.7Q528.1739 309.7 527.72076 310.15314Q527.26764 310.60626 527.252 311.41876L526.1739 311.3094Q526.28326 310.09064 527.002 309.46564Q527.7364 308.825 528.97076 308.825Q530.20514 308.825 530.9239 309.5125Q531.64264 310.2 531.64264 311.21564Q531.64264 311.73126 531.4239 312.23126Q531.22076 312.71564 530.72076 313.27814Q530.2364 313.825 529.1114 314.77814Q528.15826 315.575 527.877 315.8719Q527.6114 316.15314 527.4395 316.4344L531.65826 316.4344ZM533.1114 313.21564Q533.1114 311.6844 533.4239 310.7625Q533.7364 309.825 534.34576 309.325Q534.97076 308.825 535.90826 308.825Q536.59576 308.825 537.1114 309.10626Q537.64264 309.3875 537.9864 309.91876Q538.33014 310.4344 538.51764 311.1844Q538.70514 311.9344 538.70514 313.21564Q538.70514 314.73126 538.39264 315.65314Q538.09576 316.575 537.47076 317.09064Q536.8614 317.59064 535.90826 317.59064Q534.6739 317.59064 533.95514 316.7Q533.1114 315.6375 533.1114 313.21564ZM534.1895 313.21564Q534.1895 315.325 534.6895 316.02814Q535.1895 316.73126 535.90826 316.73126Q536.64264 316.73126 537.127 316.02814Q537.627 315.325 537.627 313.21564Q537.627 311.09064 537.127 310.40314Q536.64264 309.7 535.89264 309.7Q535.1739 309.7 534.7364 310.3094Q534.1895 311.09064 534.1895 313.21564Z" fill-rule="nonzero"/><path fill="#757575" d="M20.096874 37.55L20.096874 23.2375L25.01875 23.2375Q26.690624 23.2375 27.58125 23.440624Q28.8 23.721874 29.675 24.45625Q30.8 25.425 31.3625 26.909374Q31.925 28.39375 31.925 30.315624Q31.925 31.940624 31.55 33.20625Q31.175 34.45625 30.565624 35.284374Q29.971874 36.1125 29.26875 36.596874Q28.565624 37.065624 27.565624 37.315624Q26.565624 37.55 25.253124 37.55L20.096874 37.55ZM21.9875 35.8625L25.05 35.8625Q26.45625 35.8625 27.253124 35.596874Q28.065624 35.33125 28.55 34.846874Q29.221874 34.175 29.596874 33.05Q29.971874 31.909374 29.971874 30.284374Q29.971874 28.034374 29.2375 26.83125Q28.503124 25.628124 27.440624 25.221874Q26.690624 24.925 25.003124 24.925L21.9875 24.925L21.9875 35.8625ZM34.01875 37.55L34.01875 23.2375L39.39375 23.2375Q41.034374 23.2375 42.01875 23.675Q43.003124 24.096874 43.565624 25.003124Q44.128124 25.909374 44.128124 26.89375Q44.128124 27.815624 43.628124 28.628124Q43.14375 29.440624 42.128124 29.925Q43.425 30.315624 44.128124 31.2375Q44.83125 32.14375 44.83125 33.39375Q44.83125 34.409374 44.39375 35.26875Q43.971874 36.128124 43.346874 36.596874Q42.721874 37.065624 41.784374 37.315624Q40.846874 37.55 39.471874 37.55L34.01875 37.55ZM35.909374 29.253124L39.003124 29.253124Q40.26875 29.253124 40.815624 29.08125Q41.534374 28.8625 41.89375 28.378124Q42.26875 27.878124 42.26875 27.1125Q42.26875 26.409374 41.925 25.8625Q41.58125 25.315624 40.940624 25.128124Q40.315624 24.925 38.76875 24.925L35.909374 24.925L35.909374 29.253124ZM35.909374 35.8625L39.471874 35.8625Q40.39375 35.8625 40.76875 35.784374Q41.425 35.675 41.8625 35.409374Q42.3 35.128124 42.58125 34.6125Q42.8625 34.08125 42.8625 33.39375Q42.8625 32.596874 42.45625 32.003124Q42.05 31.409374 41.315624 31.175Q40.58125 30.940624 39.221874 30.940624L35.909374 30.940624L35.909374 35.8625ZM46.51875 30.58125Q46.51875 27.01875 48.425 25.003124Q50.346874 22.971874 53.378124 22.971874Q55.3625 22.971874 56.940624 23.925Q58.534374 24.878124 59.3625 26.58125Q60.20625 28.26875 60.20625 30.409374Q60.20625 32.58125 59.33125 34.3Q58.45625 36.01875 56.83125 36.909374Q55.221874 37.8 53.3625 37.8Q51.346874 37.8 49.753124 36.83125Q48.159374 35.846874 47.33125 34.159374Q46.51875 32.45625 46.51875 30.58125ZM48.471874 30.6125Q48.471874 33.190624 49.8625 34.690624Q51.253124 36.175 53.346874 36.175Q55.4875 36.175 56.8625 34.675Q58.253124 33.159374 58.253124 30.39375Q58.253124 28.659374 57.659374 27.3625Q57.08125 26.05 55.940624 25.33125Q54.8 24.6125 53.378124 24.6125Q51.378124 24.6125 49.925 26.003124Q48.471874 27.378124 48.471874 30.6125ZM68.8625 41.51875L68.8625 27.175L70.47188 27.175L70.47188 28.51875Q71.03438 27.7375 71.7375 27.346874Q72.45625 26.940624 73.47188 26.940624Q74.8 26.940624 75.81563 27.628124Q76.83125 28.315624 77.34688 29.565624Q77.87813 30.8 77.87813 32.284374Q77.87813 33.878124 77.3 35.159374Q76.7375 36.425 75.64375 37.1125Q74.55 37.784374 73.34688 37.784374Q72.47188 37.784374 71.76875 37.409374Q71.08125 37.034374 70.62813 36.471874L70.62813 41.51875L68.8625 41.51875ZM70.45625 32.425Q70.45625 34.425 71.26875 35.378124Q72.08125 36.33125 73.2375 36.33125Q74.40938 36.33125 75.2375 35.346874Q76.08125 34.3625 76.08125 32.26875Q76.08125 30.3 75.25313 29.315624Q74.44063 28.315624 73.31563 28.315624Q72.19063 28.315624 71.31563 29.378124Q70.45625 30.425 70.45625 32.425ZM79.22188 32.3625Q79.22188 29.4875 80.81563 28.096874Q82.15938 26.940624 84.08125 26.940624Q86.22188 26.940624 87.56563 28.346874Q88.925 29.753124 88.925 32.221874Q88.925 34.221874 88.33125 35.378124Q87.7375 36.51875 86.58125 37.159374Q85.44063 37.784374 84.08125 37.784374Q81.89375 37.784374 80.55 36.39375Q79.22188 34.9875 79.22188 32.3625ZM81.01875 32.3625Q81.01875 34.3625 81.87813 35.346874Q82.75313 36.33125 84.08125 36.33125Q85.39375 36.33125 86.25313 35.346874Q87.12813 34.346874 87.12813 32.3Q87.12813 30.378124 86.25313 29.39375Q85.37813 28.39375 84.08125 28.39375Q82.75313 28.39375 81.87813 29.39375Q81.01875 30.378124 81.01875 32.3625ZM90.84688 37.55L90.84688 27.175L92.425 27.175L92.425 28.753124Q93.03438 27.64375 93.55 27.3Q94.06563 26.940624 94.675 26.940624Q95.56563 26.940624 96.4875 27.503124L95.87813 29.14375Q95.2375 28.753124 94.59688 28.753124Q94.01875 28.753124 93.55 29.1125Q93.09688 29.45625 92.89375 30.065624Q92.6125 31.003124 92.6125 32.1125L92.6125 37.55L90.84688 37.55ZM110.64375 36.26875Q109.65938 37.096874 108.75313 37.440624Q107.84688 37.784374 106.81563 37.784374Q105.1125 37.784374 104.19063 36.95625Q103.26875 36.1125 103.26875 34.815624Q103.26875 34.05 103.6125 33.425Q103.97188 32.8 104.53438 32.425Q105.09688 32.034374 105.8 31.83125Q106.31563 31.70625 107.3625 31.565624Q109.4875 31.315624 110.4875 30.971874Q110.50313 30.6125 110.50313 30.503124Q110.50313 29.440624 110.00313 28.9875Q109.33125 28.39375 108.00313 28.39375Q106.75313 28.39375 106.15938 28.83125Q105.58125 29.26875 105.3 30.378124L103.58125 30.14375Q103.81563 29.034374 104.34688 28.3625Q104.87813 27.675 105.89375 27.315624Q106.90938 26.940624 108.25313 26.940624Q109.58125 26.940624 110.40938 27.253124Q111.2375 27.565624 111.62813 28.05Q112.01875 28.51875 112.175 29.2375Q112.26875 29.690624 112.26875 30.8625L112.26875 33.20625Q112.26875 35.659374 112.37813 36.315624Q112.4875 36.95625 112.83125 37.55L110.9875 37.55Q110.72188 37.003124 110.64375 36.26875ZM110.4875 32.346874Q109.53438 32.7375 107.6125 33.003124Q106.53438 33.159374 106.08125 33.3625Q105.64375 33.55 105.39375 33.925Q105.14375 34.3 105.14375 34.76875Q105.14375 35.471874 105.675 35.940624Q106.20625 36.409374 107.2375 36.409374Q108.25313 36.409374 109.03438 35.971874Q109.83125 35.51875 110.20625 34.753124Q110.4875 34.14375 110.4875 32.9875L110.4875 32.346874ZM114.8625 37.55L114.8625 27.175L116.45625 27.175L116.45625 28.659374Q117.59688 26.940624 119.75313 26.940624Q120.69063 26.940624 121.47188 27.284374Q122.26875 27.6125 122.65938 28.159374Q123.05 28.70625 123.20625 29.45625Q123.3 29.95625 123.3 31.175L123.3 37.55L121.53438 37.55L121.53438 31.2375Q121.53438 30.159374 121.33125 29.628124Q121.12813 29.096874 120.59688 28.784374Q120.08125 28.471874 119.37813 28.471874Q118.25313 28.471874 117.44063 29.190624Q116.62813 29.89375 116.62813 31.878124L116.62813 37.55L114.8625 37.55ZM124.22188 32.3625Q124.22188 29.4875 125.81563 28.096874Q127.15938 26.940624 129.08125 26.940624Q131.22188 26.940624 132.56563 28.346874Q133.925 29.753124 133.925 32.221874Q133.925 34.221874 133.33125 35.378124Q132.7375 36.51875 131.58125 37.159374Q130.44063 37.784374 129.08125 37.784374Q126.89375 37.784374 125.55 36.39375Q124.22188 34.9875 124.22188 32.3625ZM126.01875 32.3625Q126.01875 34.3625 126.87813 35.346874Q127.75313 36.33125 129.08125 36.33125Q130.39375 36.33125 131.25313 35.346874Q132.12813 34.346874 132.12813 32.3Q132.12813 30.378124 131.25313 29.39375Q130.37813 28.39375 129.08125 28.39375Q127.75313 28.39375 126.87813 29.39375Q126.01875 30.378124 126.01875 32.3625ZM145.22188 41.753124Q143.76875 39.925 142.76875 37.471874Q141.76875 35.003124 141.76875 32.3625Q141.76875 30.034374 142.51875 27.909374Q143.39375 25.440624 145.22188 22.9875L146.4875 22.9875Q145.3 25.01875 144.925 25.89375Q144.33125 27.2375 143.9875 28.70625Q143.56563 30.534374 143.56563 32.378124Q143.56563 37.065624 146.4875 41.753124L145.22188 41.753124ZM157.6125 35.8625L157.6125 37.55L148.15938 37.55Q148.14375 36.909374 148.3625 36.33125Q148.72188 35.3625 149.51875 34.425Q150.31563 33.4875 151.81563 32.253124Q154.15938 30.346874 154.97188 29.2375Q155.8 28.1125 155.8 27.1125Q155.8 26.065624 155.05 25.346874Q154.3 24.628124 153.09688 24.628124Q151.83125 24.628124 151.06563 25.39375Q150.3 26.159374 150.3 27.503124L148.4875 27.315624Q148.675 25.3 149.87813 24.2375Q151.09688 23.175 153.14375 23.175Q155.19063 23.175 156.39375 24.315624Q157.59688 25.45625 157.59688 27.14375Q157.59688 28.003124 157.2375 28.846874Q156.89375 29.675 156.08125 30.596874Q155.26875 31.503124 153.37813 33.1125Q151.78438 34.440624 151.33125 34.909374Q150.89375 35.378124 150.59688 35.8625L157.6125 35.8625ZM159.37813 30.4875Q159.37813 27.95625 159.89375 26.409374Q160.425 24.846874 161.45625 24.01875Q162.4875 23.175 164.05 23.175Q165.20625 23.175 166.06563 23.64375Q166.94063 24.096874 167.50313 24.971874Q168.06563 25.846874 168.39375 27.1125Q168.72188 28.3625 168.72188 30.4875Q168.72188 33.003124 168.19063 34.55Q167.675 36.096874 166.64375 36.95625Q165.62813 37.8 164.05 37.8Q161.97188 37.8 160.8 36.315624Q159.37813 34.51875 159.37813 30.4875ZM161.19063 30.4875Q161.19063 34.01875 162.00313 35.190624Q162.83125 36.346874 164.05 36.346874Q165.25313 36.346874 166.08125 35.175Q166.90938 34.003124 166.90938 30.4875Q166.90938 26.95625 166.08125 25.8Q165.25313 24.628124 164.03438 24.628124Q162.81563 24.628124 162.09688 25.659374Q161.19063 26.95625 161.19063 30.4875ZM177.00313 37.55L175.2375 37.55L175.2375 26.346874Q174.6125 26.95625 173.58125 27.565624Q172.55 28.159374 171.72188 28.471874L171.72188 26.76875Q173.20625 26.08125 174.3 25.096874Q175.40938 24.096874 175.8625 23.175L177.00313 23.175L177.00313 37.55ZM188.00313 37.55L186.2375 37.55L186.2375 26.346874Q185.6125 26.95625 184.58125 27.565624Q183.55 28.159374 182.72188 28.471874L182.72188 26.76875Q184.20625 26.08125 185.3 25.096874Q186.40938 24.096874 186.8625 23.175L188.00313 23.175L188.00313 37.55ZM192.19063 33.253124L192.19063 31.4875L197.58125 31.4875L197.58125 33.253124L192.19063 33.253124ZM208.6125 35.8625L208.6125 37.55L199.15938 37.55Q199.14375 36.909374 199.3625 36.33125Q199.72188 35.3625 200.51875 34.425Q201.31563 33.4875 202.81563 32.253124Q205.15938 30.346874 205.97188 29.2375Q206.8 28.1125 206.8 27.1125Q206.8 26.065624 206.05 25.346874Q205.3 24.628124 204.09688 24.628124Q202.83125 24.628124 202.06563 25.39375Q201.3 26.159374 201.3 27.503124L199.4875 27.315624Q199.675 25.3 200.87813 24.2375Q202.09688 23.175 204.14375 23.175Q206.19063 23.175 207.39375 24.315624Q208.59688 25.45625 208.59688 27.14375Q208.59688 28.003124 208.2375 28.846874Q207.89375 29.675 207.08125 30.596874Q206.26875 31.503124 204.37813 33.1125Q202.78438 34.440624 202.33125 34.909374Q201.89375 35.378124 201.59688 35.8625L208.6125 35.8625ZM210.37813 30.4875Q210.37813 27.95625 210.89375 26.409374Q211.425 24.846874 212.45625 24.01875Q213.4875 23.175 215.05 23.175Q216.20625 23.175 217.06563 23.64375Q217.94063 24.096874 218.50313 24.971874Q219.06563 25.846874 219.39375 27.1125Q219.72188 28.3625 219.72188 30.4875Q219.72188 33.003124 219.19063 34.55Q218.675 36.096874 217.64375 36.95625Q216.62813 37.8 215.05 37.8Q212.97188 37.8 211.8 36.315624Q210.37813 34.51875 210.37813 30.4875ZM212.19063 30.4875Q212.19063 34.01875 213.00313 35.190624Q213.83125 36.346874 215.05 36.346874Q216.25313 36.346874 217.08125 35.175Q217.90938 34.003124 217.90938 30.4875Q217.90938 26.95625 217.08125 25.8Q216.25313 24.628124 215.03438 24.628124Q213.81563 24.628124 213.09688 25.659374Q212.19063 26.95625 212.19063 30.4875ZM230.6125 35.8625L230.6125 37.55L221.15938 37.55Q221.14375 36.909374 221.3625 36.33125Q221.72188 35.3625 222.51875 34.425Q223.31563 33.4875 224.81563 32.253124Q227.15938 30.346874 227.97188 29.2375Q228.8 28.1125 228.8 27.1125Q228.8 26.065624 228.05 25.346874Q227.3 24.628124 226.09688 24.628124Q224.83125 24.628124 224.06563 25.39375Q223.3 26.159374 223.3 27.503124L221.4875 27.315624Q221.675 25.3 222.87813 24.2375Q224.09688 23.175 226.14375 23.175Q228.19063 23.175 229.39375 24.315624Q230.59688 25.45625 230.59688 27.14375Q230.59688 28.003124 230.2375 28.846874Q229.89375 29.675 229.08125 30.596874Q228.26875 31.503124 226.37813 33.1125Q224.78438 34.440624 224.33125 34.909374Q223.89375 35.378124 223.59688 35.8625L230.6125 35.8625ZM239.00313 37.55L237.2375 37.55L237.2375 26.346874Q236.6125 26.95625 235.58125 27.565624Q234.55 28.159374 233.72188 28.471874L233.72188 26.76875Q235.20625 26.08125 236.3 25.096874Q237.40938 24.096874 237.8625 23.175L239.00313 23.175L239.00313 37.55ZM245.01875 41.753124L243.76875 41.753124Q246.675 37.065624 246.675 32.378124Q246.675 30.534374 246.26875 28.7375Q245.925 27.26875 245.33125 25.925Q244.95625 25.034374 243.76875 22.9875L245.01875 22.9875Q246.8625 25.440624 247.7375 27.909374Q248.4875 30.034374 248.4875 32.3625Q248.4875 35.003124 247.47188 37.471874Q246.47188 39.925 245.01875 41.753124Z" fill-rule="nonzero"/></svg>