<svg version="1.1" viewBox="0.0 0.0 600.0 371.0" fill="none" stroke="none" stroke-linecap="square" stroke-miterlimit="10" width="600" height="371" xmlns:xlink="http://www.w3.org/1999/xlink" xmlns="http://www.w3.org/2000/svg"><path fill="#ffffff" d="M0 0L600.0 0L600.0 371.0L0 371.0L0 0Z" fill-rule="nonzero"/><path stroke="#cccccc" stroke-width="1.0" stroke-linecap="butt" d="M133.5 61.5L133.5 300.5" fill-rule="nonzero"/><path stroke="#cccccc" stroke-width="1.0" stroke-linecap="butt" d="M231.5 61.5L231.5 300.5" fill-rule="nonzero"/><path stroke="#cccccc" stroke-width="1.0" stroke-linecap="butt" d="M329.5 61.5L329.5 300.5" fill-rule="nonzero"/><path stroke="#cccccc" stroke-width="1.0" stroke-linecap="butt" d="M427.5 61.5L427.5 300.5" fill-rule="nonzero"/><path stroke="#cccccc" stroke-width="1.0" stroke-linecap="butt" d="M525.5 61.5L525.5 300.5" fill-rule="nonzero"/><path stroke="#333333" stroke-width="1.0" stroke-linecap="butt" d="M77.5 300.5L581.5 300.5" fill-rule="nonzero"/><path stroke="#cccccc" stroke-width="1.0" stroke-linecap="butt" d="M77.5 252.5L581.5 252.5" fill-rule="nonzero"/><path stroke="#cccccc" stroke-width="1.0" stroke-linecap="butt" d="M77.5 205.5L581.5 205.5" fill-rule="nonzero"/><path stroke="#cccccc" stroke-width="1.0" stroke-linecap="butt" d="M77.5 157.5L581.5 157.5" fill-rule="nonzero"/><path stroke="#cccccc" stroke-width="1.0" stroke-linecap="butt" d="M77.5 109.5L581.5 109.5" fill-rule="nonzero"/><path stroke="#cccccc" stroke-width="1.0" stroke-linecap="butt" d="M77.5 61.5L581.5 61.5" fill-rule="nonzero"/><clipPath id="id_0"><path d="M77.55 61.916668L581.45 61.916668L581.45 300.45L77.55 300.45L77.55 61.916668Z" clip-rule="nonzero"/></clipPath><path fill="#ea4335" clip-path="url(#id_0)" d="M88.86077 197.88066C88.86077 200.36595 86.846054 202.38066 84.36077 202.38066C81.875496 202.38066 79.86077 200.36595 79.86077 197.88066C79.86077 195.39539 81.875496 193.38066 84.36077 193.38066C86.846054 193.38066 88.86077 195.39539 88.86077 197.88066Z" fill-rule="nonzero"/><path fill="#ea4335" clip-path="url(#id_0)" d="M137.88863 239.38547C137.88863 241.87074 135.8739 243.88547 133.38863 243.88547C130.90334 243.88547 128.88863 241.87074 128.88863 239.38547C128.88863 236.90019 130.90334 234.88547 133.38863 234.88547C135.8739 234.88547 137.88863 236.90019 137.88863 239.38547Z" fill-rule="nonzero"/><path fill="#ea4335" clip-path="url(#id_0)" d="M186.91646 195.49533C186.91646 197.98062 184.90175 199.99533 182.41646 199.99533C179.93118 199.99533 177.91646 197.98062 177.91646 195.49533C177.91646 193.01006 179.93118 190.99533 182.41646 190.99533C184.90175 190.99533 186.91646 193.01006 186.91646 195.49533Z" fill-rule="nonzero"/><path fill="#ea4335" clip-path="url(#id_0)" d="M235.9443 215.53214C235.9443 218.01741 233.9296 220.03214 231.4443 220.03214C228.95903 220.03214 226.9443 218.01741 226.9443 215.53214C226.9443 213.04684 228.95903 211.03214 231.4443 211.03214C233.9296 211.03214 235.9443 213.04684 235.9443 215.53214Z" fill-rule="nonzero"/><path fill="#ea4335" clip-path="url(#id_0)" d="M284.97217 254.6516C284.97217 257.13687 282.95743 259.1516 280.47217 259.1516C277.98688 259.1516 275.97217 257.13687 275.97217 254.6516C275.97217 252.16632 277.98688 250.1516 280.47217 250.1516C282.95743 250.1516 284.97217 252.16632 284.97217 254.6516Z" fill-rule="nonzero"/><path fill="#ea4335" clip-path="url(#id_0)" d="M334.0 243.202C334.0 245.68729 331.9853 247.702 329.5 247.702C327.0147 247.702 325.0 245.68729 325.0 243.202C325.0 240.71672 327.0147 238.702 329.5 238.702C331.9853 238.702 334.0 240.71672 334.0 243.202Z" fill-rule="nonzero"/><path fill="#ea4335" clip-path="url(#id_0)" d="M383.02783 266.57828C383.02783 269.06354 381.01312 271.07828 378.52783 271.07828C376.04257 271.07828 374.02783 269.06354 374.02783 266.57828C374.02783 264.093 376.04257 262.07828 378.52783 262.07828C381.01312 262.07828 383.02783 264.093 383.02783 266.57828Z" fill-rule="nonzero"/><path fill="#ea4335" clip-path="url(#id_0)" d="M432.0557 244.6332C432.0557 247.11848 430.041 249.1332 427.5557 249.1332C425.0704 249.1332 423.0557 247.11848 423.0557 244.6332C423.0557 242.14792 425.0704 240.1332 427.5557 240.1332C430.041 240.1332 432.0557 242.14792 432.0557 244.6332Z" fill-rule="nonzero"/><path fill="#ea4335" clip-path="url(#id_0)" d="M481.08353 225.55054C481.08353 228.03581 479.06882 230.05054 476.58353 230.05054C474.09827 230.05054 472.08353 228.03581 472.08353 225.55054C472.08353 223.06525 474.09827 221.05054 476.58353 221.05054C479.06882 221.05054 481.08353 223.06525 481.08353 225.55054Z" fill-rule="nonzero"/><path fill="#ea4335" clip-path="url(#id_0)" d="M530.1114 210.2844C530.1114 212.76968 528.0967 214.7844 525.6114 214.7844C523.1261 214.7844 521.1114 212.76968 521.1114 210.2844C521.1114 207.79912 523.1261 205.7844 525.6114 205.7844C528.0967 205.7844 530.1114 207.79912 530.1114 210.2844Z" fill-rule="nonzero"/><path fill="#ea4335" clip-path="url(#id_0)" d="M579.1392 300.45C579.1392 302.93527 577.1245 304.95 574.6392 304.95C572.15393 304.95 570.1392 302.93527 570.1392 300.45C570.1392 297.96472 572.15393 295.95 574.6392 295.95C577.1245 295.95 579.1392 297.96472 579.1392 300.45Z" fill-rule="nonzero"/><path fill="#000000" d="M318.98438 349.45L322.28125 340.85626L323.5 340.85626L327.01562 349.45L325.73438 349.45L324.71875 346.84064L321.14062 346.84064L320.1875 349.45L318.98438 349.45ZM321.46875 345.91876L324.375 345.91876L323.48438 343.54376Q323.0625 342.46564 322.875 341.7625Q322.70312 342.59064 322.40625 343.40314L321.46875 345.91876ZM326.79688 349.45L326.79688 343.23126L327.73438 343.23126L327.73438 344.10626Q328.42188 343.09064 329.71875 343.09064Q330.28125 343.09064 330.75 343.29376Q331.23438 343.4969 331.46875 343.825Q331.70312 344.15314 331.79688 344.59064Q331.84375 344.8875 331.84375 345.6219L331.84375 349.45L330.79688 349.45L330.79688 345.66876Q330.79688 345.0125 330.67188 344.7Q330.54688 344.3875 330.23438 344.2Q329.92188 343.9969 329.5 343.9969Q328.82812 343.9969 328.32812 344.4344Q327.84375 344.85626 327.84375 346.04376L327.84375 349.45L326.79688 349.45ZM333.40625 346.34064Q333.40625 344.60626 334.35938 343.77814Q335.15625 343.09064 336.3125 343.09064Q337.59375 343.09064 338.40625 343.9344Q339.23438 344.7625 339.23438 346.2469Q339.23438 347.45 338.875 348.1375Q338.51562 348.825 337.8125 349.21564Q337.125 349.59064 336.3125 349.59064Q335.01562 349.59064 334.20312 348.7625Q333.40625 347.91876 333.40625 346.34064ZM334.48438 346.34064Q334.48438 347.52814 335.0 348.1219Q335.53125 348.71564 336.3125 348.71564Q337.10938 348.71564 337.625 348.1219Q338.14062 347.52814 338.14062 346.3094Q338.14062 345.15314 337.60938 344.5594Q337.09375 343.96564 336.3125 343.96564Q335.53125 343.96564 335.0 344.5594Q334.48438 345.1375 334.48438 346.34064Z" fill-rule="nonzero"/><path fill="#000000" d="M29.550013 222.69896L20.956263 222.69896L20.956263 216.90208L21.971888 216.90208L21.971888 221.55833L24.628138 221.55833L24.628138 217.52708L25.643763 217.52708L25.643763 221.55833L29.550013 221.55833L29.550013 222.69896ZM26.440638 216.27708Q24.706263 216.27708 23.878138 215.32396Q23.190638 214.52708 23.190638 213.37083Q23.190638 212.08958 24.034388 211.27708Q24.862513 210.44896 26.346888 210.44896Q27.550013 210.44896 28.237513 210.80833Q28.925013 211.16771 29.315638 211.87083Q29.690638 212.55833 29.690638 213.37083Q29.690638 214.66771 28.862513 215.48021Q28.018763 216.27708 26.440638 216.27708ZM26.440638 215.19896Q27.628138 215.19896 28.221888 214.68333Q28.815638 214.15208 28.815638 213.37083Q28.815638 212.57396 28.221888 212.05833Q27.628138 211.54271 26.409388 211.54271Q25.253138 211.54271 24.659388 212.07396Q24.065638 212.58958 24.065638 213.37083Q24.065638 214.15208 24.659388 214.68333Q25.237513 215.19896 26.440638 215.19896ZM22.550013 213.94896L20.909388 213.16771L20.909388 211.77708L22.550013 213.07396L22.550013 213.94896ZM27.690638 209.30833L27.534388 208.27708Q28.159388 208.18333 28.487513 207.79271Q28.815638 207.38646 28.815638 206.65208Q28.815638 205.93333 28.534388 205.58958Q28.237513 205.23021 27.831263 205.23021Q27.471888 205.23021 27.268763 205.54271Q27.128138 205.76146 26.909388 206.62083Q26.612513 207.77708 26.409388 208.23021Q26.190638 208.66771 25.815638 208.90208Q25.440638 209.13646 24.971888 209.13646Q24.565638 209.13646 24.206263 208.94896Q23.846888 208.76146 23.612513 208.43333Q23.440638 208.18333 23.315638 207.76146Q23.190638 207.33958 23.190638 206.83958Q23.190638 206.12083 23.409388 205.57396Q23.612513 205.01146 23.971888 204.74583Q24.331263 204.48021 24.925013 204.38646L25.065638 205.41771Q24.596888 205.48021 24.331263 205.82396Q24.050013 206.15208 24.050013 206.77708Q24.050013 207.49583 24.300013 207.80833Q24.534388 208.12083 24.862513 208.12083Q25.065638 208.12083 25.221888 207.99583Q25.393763 207.85521 25.503138 207.58958Q25.565638 207.43333 25.768763 206.65208Q26.081263 205.52708 26.268763 205.08958Q26.456263 204.65208 26.815638 204.40208Q27.175013 204.15208 27.721888 204.15208Q28.253138 204.15208 28.721888 204.46458Q29.175013 204.76146 29.440638 205.33958Q29.690638 205.91771 29.690638 206.65208Q29.690638 207.87083 29.190638 208.51146Q28.675013 209.13646 27.690638 209.30833ZM29.550013 201.63646L24.143763 201.63646L24.143763 202.57396L23.331263 202.57396L23.331263 201.63646L22.659388 201.63646Q22.034388 201.63646 21.737513 201.52708Q21.315638 201.37083 21.065638 200.99583Q20.815638 200.60521 20.815638 199.91771Q20.815638 199.46458 20.925013 198.93333L21.831263 199.08958Q21.784388 199.41771 21.784388 199.71458Q21.784388 200.19896 21.987513 200.40208Q22.190638 200.58958 22.753138 200.58958L23.331263 200.58958L23.331263 199.37083L24.143763 199.37083L24.143763 200.58958L29.550013 200.58958L29.550013 201.63646ZM26.440638 199.27708Q24.706263 199.27708 23.878138 198.32396Q23.190638 197.52708 23.190638 196.37083Q23.190638 195.08958 24.034388 194.27708Q24.862513 193.44896 26.346888 193.44896Q27.550013 193.44896 28.237513 193.80833Q28.925013 194.16771 29.315638 194.87083Q29.690638 195.55833 29.690638 196.37083Q29.690638 197.66771 28.862513 198.48021Q28.018763 199.27708 26.440638 199.27708ZM26.440638 198.19896Q27.628138 198.19896 28.221888 197.68333Q28.815638 197.15208 28.815638 196.37083Q28.815638 195.57396 28.221888 195.05833Q27.628138 194.54271 26.409388 194.54271Q25.253138 194.54271 24.659388 195.07396Q24.065638 195.58958 24.065638 196.37083Q24.065638 197.15208 24.659388 197.68333Q25.237513 198.19896 26.440638 198.19896ZM29.550013 191.90208L23.331263 191.90208L23.331263 190.94896L24.268763 190.94896Q23.612513 190.58958 23.409388 190.29271Q23.190638 189.98021 23.190638 189.60521Q23.190638 189.07396 23.518763 188.52708L24.503138 188.88646Q24.268763 189.27708 24.268763 189.65208Q24.268763 190.01146 24.487513 190.29271Q24.690638 190.55833 25.065638 190.66771Q25.628138 190.85521 26.284388 190.85521L29.550013 190.85521L29.550013 191.90208ZM26.440638 188.27708Q24.706263 188.27708 23.878138 187.32396Q23.190638 186.52708 23.190638 185.37083Q23.190638 184.08958 24.034388 183.27708Q24.862513 182.44896 26.346888 182.44896Q27.550013 182.44896 28.237513 182.80833Q28.925013 183.16771 29.315638 183.87083Q29.690638 184.55833 29.690638 185.37083Q29.690638 186.66771 28.862513 187.48021Q28.018763 188.27708 26.440638 188.27708ZM26.440638 187.19896Q27.628138 187.19896 28.221888 186.68333Q28.815638 186.15208 28.815638 185.37083Q28.815638 184.57396 28.221888 184.05833Q27.628138 183.54271 26.409388 183.54271Q25.253138 183.54271 24.659388 184.07396Q24.065638 184.58958 24.065638 185.37083Q24.065638 186.15208 24.659388 186.68333Q25.237513 187.19896 26.440638 187.19896ZM29.550013 175.57396L21.971888 175.57396L21.971888 178.40208L20.956263 178.40208L20.956263 171.58958L21.971888 171.58958L21.971888 174.43333L29.550013 174.43333L29.550013 175.57396ZM26.440638 171.27708Q24.706263 171.27708 23.878138 170.32396Q23.190638 169.52708 23.190638 168.37083Q23.190638 167.08958 24.034388 166.27708Q24.862513 165.44896 26.346888 165.44896Q27.550013 165.44896 28.237513 165.80833Q28.925013 166.16771 29.315638 166.87083Q29.690638 167.55833 29.690638 168.37083Q29.690638 169.66771 28.862513 170.48021Q28.018763 171.27708 26.440638 171.27708ZM26.440638 170.19896Q27.628138 170.19896 28.221888 169.68333Q28.815638 169.15208 28.815638 168.37083Q28.815638 167.57396 28.221888 167.05833Q27.628138 166.54271 26.409388 166.54271Q25.253138 166.54271 24.659388 167.07396Q24.065638 167.58958 24.065638 168.37083Q24.065638 169.15208 24.659388 169.68333Q25.237513 170.19896 26.440638 170.19896ZM28.612513 161.58958L29.534388 161.43333Q29.628138 161.88646 29.628138 162.23021Q29.628138 162.80833 29.456263 163.12083Q29.268763 163.43333 28.971888 163.57396Q28.675013 163.69896 27.721888 163.69896L24.143763 163.69896L24.143763 164.46458L23.331263 164.46458L23.331263 163.69896L21.784388 163.69896L21.159388 162.65208L23.331263 162.65208L23.331263 161.58958L24.143763 161.58958L24.143763 162.65208L27.784388 162.65208Q28.237513 162.65208 28.362513 162.60521Q28.487513 162.54271 28.565638 162.41771Q28.643763 162.29271 28.643763 162.05833Q28.643763 161.87083 28.612513 161.58958ZM28.784388 156.82396Q29.284388 157.41771 29.487513 157.96458Q29.690638 158.49583 29.690638 159.12083Q29.690638 160.15208 29.190638 160.69896Q28.690638 161.24583 27.909388 161.24583Q27.456263 161.24583 27.081263 161.04271Q26.690638 160.83958 26.471888 160.49583Q26.237513 160.15208 26.128138 159.73021Q26.034388 159.43333 25.956263 158.79271Q25.815638 157.52708 25.596888 156.91771Q25.378138 156.91771 25.331263 156.91771Q24.675013 156.91771 24.409388 157.21458Q24.065638 157.62083 24.065638 158.41771Q24.065638 159.15208 24.331263 159.51146Q24.581263 159.87083 25.237513 160.04271L25.096888 161.07396Q24.440638 160.93333 24.034388 160.60521Q23.628138 160.27708 23.409388 159.66771Q23.190638 159.05833 23.190638 158.26146Q23.190638 157.46458 23.378138 156.96458Q23.565638 156.46458 23.846888 156.23021Q24.128138 155.99583 24.565638 155.90208Q24.831263 155.85521 25.534388 155.85521L26.940638 155.85521Q28.409388 155.85521 28.800013 155.79271Q29.190638 155.71458 29.550013 155.51146L29.550013 156.62083Q29.221888 156.77708 28.784388 156.82396ZM26.425013 156.91771Q26.659388 157.49583 26.831263 158.63646Q26.925013 159.29271 27.050013 159.55833Q27.159388 159.82396 27.378138 159.98021Q27.596888 160.12083 27.878138 160.12083Q28.300013 160.12083 28.581263 159.80833Q28.862513 159.48021 28.862513 158.87083Q28.862513 158.26146 28.596888 157.79271Q28.331263 157.30833 27.862513 157.08958Q27.503138 156.91771 26.815638 156.91771L26.425013 156.91771ZM29.550013 153.91771L20.956263 153.91771L20.956263 152.85521L29.550013 152.85521L29.550013 153.91771Z" fill-rule="nonzero"/><path fill="#000000" d="M65.05 300.21564Q65.05 298.6844 65.3625 297.7625Q65.675 296.825 66.28438 296.325Q66.90938 295.825 67.84688 295.825Q68.53438 295.825 69.05 296.10626Q69.58125 296.3875 69.925 296.91876Q70.26875 297.4344 70.45625 298.1844Q70.64375 298.9344 70.64375 300.21564Q70.64375 301.73126 70.33125 302.65314Q70.03438 303.575 69.40938 304.09064Q68.8 304.59064 67.84688 304.59064Q66.6125 304.59064 65.89375 303.7Q65.05 302.6375 65.05 300.21564ZM66.12813 300.21564Q66.12813 302.325 66.62813 303.02814Q67.12813 303.73126 67.84688 303.73126Q68.58125 303.73126 69.06563 303.02814Q69.56563 302.325 69.56563 300.21564Q69.56563 298.09064 69.06563 297.40314Q68.58125 296.7 67.83125 296.7Q67.1125 296.7 66.675 297.3094Q66.12813 298.09064 66.12813 300.21564Z" fill-rule="nonzero"/><path fill="#000000" d="M69.01875 256.74335L67.97188 256.74335L67.97188 250.0246Q67.58125 250.38397 66.95625 250.75897Q66.34688 251.11835 65.8625 251.29022L65.8625 250.2746Q66.7375 249.85272 67.39375 249.2746Q68.06563 248.68085 68.34688 248.11835L69.01875 248.11835L69.01875 256.74335Z" fill-rule="nonzero"/><path fill="#000000" d="M70.59688 208.02104L70.59688 209.03667L64.90938 209.03667Q64.90938 208.66167 65.03438 208.30229Q65.25313 207.72417 65.72188 207.16167Q66.20625 206.59917 67.1125 205.86479Q68.51875 204.70854 69.00313 204.03667Q69.50313 203.36479 69.50313 202.77104Q69.50313 202.14604 69.05 201.72417Q68.59688 201.28667 67.87813 201.28667Q67.1125 201.28667 66.65938 201.73979Q66.20625 202.19292 66.19063 203.00542L65.1125 202.89604Q65.22188 201.67729 65.94063 201.05229Q66.675 200.41167 67.90938 200.41167Q69.14375 200.41167 69.8625 201.09917Q70.58125 201.78667 70.58125 202.80229Q70.58125 203.31792 70.3625 203.81792Q70.15938 204.30229 69.65938 204.86479Q69.175 205.41167 68.05 206.36479Q67.09688 207.16167 66.81563 207.45854Q66.55 207.73979 66.37813 208.02104L70.59688 208.02104Z" fill-rule="nonzero"/><path fill="#000000" d="M65.05 159.06438L66.1125 158.92375Q66.28438 159.81438 66.72188 160.22063Q67.15938 160.61125 67.78438 160.61125Q68.53438 160.61125 69.05 160.09563Q69.56563 159.58 69.56563 158.81438Q69.56563 158.09563 69.08125 157.62688Q68.6125 157.1425 67.87813 157.1425Q67.58125 157.1425 67.12813 157.2675L67.25313 156.33Q67.3625 156.34563 67.425 156.34563Q68.09688 156.34563 68.62813 156.00188Q69.175 155.6425 69.175 154.90813Q69.175 154.33 68.78438 153.955Q68.39375 153.56438 67.76875 153.56438Q67.15938 153.56438 66.7375 153.955Q66.33125 154.34563 66.22188 155.11125L65.15938 154.92375Q65.34688 153.87688 66.03438 153.29875Q66.72188 152.705 67.7375 152.705Q68.44063 152.705 69.03438 153.0175Q69.62813 153.31438 69.94063 153.83Q70.25313 154.34563 70.25313 154.93938Q70.25313 155.48625 69.95625 155.955Q69.65938 156.40813 69.08125 156.67375Q69.83125 156.84563 70.25313 157.40813Q70.675 157.955 70.675 158.79875Q70.675 159.92375 69.84688 160.705Q69.03438 161.48625 67.78438 161.48625Q66.65938 161.48625 65.90938 160.81438Q65.15938 160.12688 65.05 159.06438Z" fill-rule="nonzero"/><path fill="#000000" d="M68.425 113.62334L68.425 111.56084L64.70625 111.56084L64.70625 110.59209L68.62813 105.02959L69.4875 105.02959L69.4875 110.59209L70.64375 110.59209L70.64375 111.56084L69.4875 111.56084L69.4875 113.62334L68.425 113.62334ZM68.425 110.59209L68.425 106.73271L65.7375 110.59209L68.425 110.59209Z" fill-rule="nonzero"/><path fill="#000000" d="M65.05 63.666664L66.15938 63.572914Q66.28438 64.385414 66.72188 64.791664Q67.175 65.197914 67.81563 65.197914Q68.56563 65.197914 69.09688 64.61979Q69.62813 64.041664 69.62813 63.104164Q69.62813 62.197914 69.1125 61.68229Q68.6125 61.15104 67.78438 61.15104Q67.28438 61.15104 66.8625 61.385414Q66.45625 61.61979 66.22188 61.979164L65.2375 61.854164L66.06563 57.447914L70.34688 57.447914L70.34688 58.447914L66.90938 58.447914L66.45625 60.760414Q67.22188 60.21354 68.06563 60.21354Q69.19063 60.21354 69.95625 60.99479Q70.7375 61.77604 70.7375 63.010414Q70.7375 64.166664 70.06563 65.02604Q69.2375 66.05729 67.81563 66.05729Q66.64375 66.05729 65.89375 65.40104Q65.15938 64.74479 65.05 63.666664Z" fill-rule="nonzero"/><path fill="#000000" d="M125.43549 316.4344L125.43549 317.45L119.74799 317.45Q119.74799 317.075 119.87299 316.71564Q120.09174 316.1375 120.56049 315.575Q121.04487 315.0125 121.95112 314.27814Q123.35737 313.1219 123.84174 312.45Q124.34174 311.77814 124.34174 311.1844Q124.34174 310.5594 123.88862 310.1375Q123.43549 309.7 122.71674 309.7Q121.95112 309.7 121.49799 310.15314Q121.04487 310.60626 121.02924 311.41876L119.95112 311.3094Q120.06049 310.09064 120.77924 309.46564Q121.51362 308.825 122.74799 308.825Q123.98237 308.825 124.70112 309.5125Q125.41987 310.2 125.41987 311.21564Q125.41987 311.73126 125.20112 312.23126Q124.99799 312.71564 124.49799 313.27814Q124.01362 313.825 122.88862 314.77814Q121.93549 315.575 121.65424 315.8719Q121.38862 316.15314 121.21674 316.4344L125.43549 316.4344ZM126.88862 313.21564Q126.88862 311.6844 127.20112 310.7625Q127.51362 309.825 128.12299 309.325Q128.74799 308.825 129.68549 308.825Q130.37299 308.825 130.88861 309.10626Q131.41986 309.3875 131.76361 309.91876Q132.10736 310.4344 132.29486 311.1844Q132.48236 311.9344 132.48236 313.21564Q132.48236 314.73126 132.16986 315.65314Q131.87299 316.575 131.24799 317.09064Q130.63861 317.59064 129.68549 317.59064Q128.45111 317.59064 127.73237 316.7Q126.88862 315.6375 126.88862 313.21564ZM127.96674 313.21564Q127.96674 315.325 128.46674 316.02814Q128.96674 316.73126 129.68549 316.73126Q130.41986 316.73126 130.90424 316.02814Q131.40424 315.325 131.40424 313.21564Q131.40424 311.09064 130.90424 310.40314Q130.41986 309.7 129.66986 309.7Q128.95111 309.7 128.51361 310.3094Q127.96674 311.09064 127.96674 313.21564ZM137.85736 317.45L136.81049 317.45L136.81049 310.73126Q136.41986 311.09064 135.79486 311.46564Q135.18549 311.825 134.70111 311.9969L134.70111 310.98126Q135.57611 310.5594 136.23236 309.98126Q136.90424 309.3875 137.18549 308.825L137.85736 308.825L137.85736 317.45ZM146.43549 316.4344L146.43549 317.45L140.74799 317.45Q140.74799 317.075 140.87299 316.71564Q141.09174 316.1375 141.56049 315.575Q142.04486 315.0125 142.95111 314.27814Q144.35736 313.1219 144.84174 312.45Q145.34174 311.77814 145.34174 311.1844Q145.34174 310.5594 144.88861 310.1375Q144.43549 309.7 143.71674 309.7Q142.95111 309.7 142.49799 310.15314Q142.04486 310.60626 142.02924 311.41876L140.95111 311.3094Q141.06049 310.09064 141.77924 309.46564Q142.51361 308.825 143.74799 308.825Q144.98236 308.825 145.70111 309.5125Q146.41986 310.2 146.41986 311.21564Q146.41986 311.73126 146.20111 312.23126Q145.99799 312.71564 145.49799 313.27814Q145.01361 313.825 143.88861 314.77814Q142.93549 315.575 142.65424 315.8719Q142.38861 316.15314 142.21674 316.4344L146.43549 316.4344Z" fill-rule="nonzero"/><path fill="#000000" d="M223.49118 316.4344L223.49118 317.45L217.80368 317.45Q217.80368 317.075 217.92868 316.71564Q218.14743 316.1375 218.61618 315.575Q219.10056 315.0125 220.0068 314.27814Q221.41306 313.1219 221.89743 312.45Q222.39743 311.77814 222.39743 311.1844Q222.39743 310.5594 221.9443 310.1375Q221.49118 309.7 220.77243 309.7Q220.0068 309.7 219.55368 310.15314Q219.10056 310.60626 219.08493 311.41876L218.0068 311.3094Q218.11618 310.09064 218.83493 309.46564Q219.5693 308.825 220.80368 308.825Q222.03806 308.825 222.7568 309.5125Q223.47556 310.2 223.47556 311.21564Q223.47556 311.73126 223.2568 312.23126Q223.05368 312.71564 222.55368 313.27814Q222.0693 313.825 220.9443 314.77814Q219.99118 315.575 219.70993 315.8719Q219.4443 316.15314 219.27243 316.4344L223.49118 316.4344ZM224.9443 313.21564Q224.9443 311.6844 225.2568 310.7625Q225.5693 309.825 226.17868 309.325Q226.80368 308.825 227.74118 308.825Q228.42868 308.825 228.9443 309.10626Q229.47556 309.3875 229.8193 309.91876Q230.16306 310.4344 230.35056 311.1844Q230.53806 311.9344 230.53806 313.21564Q230.53806 314.73126 230.22556 315.65314Q229.92868 316.575 229.30368 317.09064Q228.6943 317.59064 227.74118 317.59064Q226.5068 317.59064 225.78806 316.7Q224.9443 315.6375 224.9443 313.21564ZM226.02243 313.21564Q226.02243 315.325 226.52243 316.02814Q227.02243 316.73126 227.74118 316.73126Q228.47556 316.73126 228.95993 316.02814Q229.45993 315.325 229.45993 313.21564Q229.45993 311.09064 228.95993 310.40314Q228.47556 309.7 227.72556 309.7Q227.0068 309.7 226.5693 310.3094Q226.02243 311.09064 226.02243 313.21564ZM235.91306 317.45L234.86618 317.45L234.86618 310.73126Q234.47556 311.09064 233.85056 311.46564Q233.24118 311.825 232.7568 311.9969L232.7568 310.98126Q233.6318 310.5594 234.28806 309.98126Q234.95993 309.3875 235.24118 308.825L235.91306 308.825L235.91306 317.45ZM242.3193 317.45L242.3193 315.3875L238.60056 315.3875L238.60056 314.41876L242.52243 308.85626L243.3818 308.85626L243.3818 314.41876L244.53806 314.41876L244.53806 315.3875L243.3818 315.3875L243.3818 317.45L242.3193 317.45ZM242.3193 314.41876L242.3193 310.5594L239.6318 314.41876L242.3193 314.41876Z" fill-rule="nonzero"/><path fill="#000000" d="M321.54688 316.4344L321.54688 317.45L315.85938 317.45Q315.85938 317.075 315.98438 316.71564Q316.20312 316.1375 316.67188 315.575Q317.15625 315.0125 318.0625 314.27814Q319.46875 313.1219 319.95312 312.45Q320.45312 311.77814 320.45312 311.1844Q320.45312 310.5594 320.0 310.1375Q319.54688 309.7 318.82812 309.7Q318.0625 309.7 317.60938 310.15314Q317.15625 310.60626 317.14062 311.41876L316.0625 311.3094Q316.17188 310.09064 316.89062 309.46564Q317.625 308.825 318.85938 308.825Q320.09375 308.825 320.8125 309.5125Q321.53125 310.2 321.53125 311.21564Q321.53125 311.73126 321.3125 312.23126Q321.10938 312.71564 320.60938 313.27814Q320.125 313.825 319.0 314.77814Q318.04688 315.575 317.76562 315.8719Q317.5 316.15314 317.32812 316.4344L321.54688 316.4344ZM323.0 313.21564Q323.0 311.6844 323.3125 310.7625Q323.625 309.825 324.23438 309.325Q324.85938 308.825 325.79688 308.825Q326.48438 308.825 327.0 309.10626Q327.53125 309.3875 327.875 309.91876Q328.21875 310.4344 328.40625 311.1844Q328.59375 311.9344 328.59375 313.21564Q328.59375 314.73126 328.28125 315.65314Q327.98438 316.575 327.35938 317.09064Q326.75 317.59064 325.79688 317.59064Q324.5625 317.59064 323.84375 316.7Q323.0 315.6375 323.0 313.21564ZM324.07812 313.21564Q324.07812 315.325 324.57812 316.02814Q325.07812 316.73126 325.79688 316.73126Q326.53125 316.73126 327.01562 316.02814Q327.51562 315.325 327.51562 313.21564Q327.51562 311.09064 327.01562 310.40314Q326.53125 309.7 325.78125 309.7Q325.0625 309.7 324.625 310.3094Q324.07812 311.09064 324.07812 313.21564ZM333.96875 317.45L332.92188 317.45L332.92188 310.73126Q332.53125 311.09064 331.90625 311.46564Q331.29688 311.825 330.8125 311.9969L330.8125 310.98126Q331.6875 310.5594 332.34375 309.98126Q333.01562 309.3875 333.29688 308.825L333.96875 308.825L333.96875 317.45ZM342.46875 310.96564L341.42188 311.04376Q341.28125 310.41876 341.03125 310.1375Q340.59375 309.6844 339.96875 309.6844Q339.46875 309.6844 339.07812 309.96564Q338.59375 310.34064 338.29688 311.04376Q338.01562 311.73126 338.0 313.0125Q338.375 312.4344 338.92188 312.15314Q339.48438 311.8719 340.09375 311.8719Q341.14062 311.8719 341.875 312.65314Q342.625 313.4344 342.625 314.65314Q342.625 315.46564 342.26562 316.16876Q341.92188 316.85626 341.3125 317.23126Q340.70312 317.59064 339.9375 317.59064Q338.60938 317.59064 337.78125 316.6219Q336.95312 315.65314 336.95312 313.4344Q336.95312 310.9344 337.875 309.8094Q338.67188 308.825 340.03125 308.825Q341.04688 308.825 341.6875 309.40314Q342.34375 309.96564 342.46875 310.96564ZM338.17188 314.66876Q338.17188 315.21564 338.39062 315.71564Q338.625 316.2 339.03125 316.46564Q339.45312 316.73126 339.92188 316.73126Q340.57812 316.73126 341.0625 316.2Q341.54688 315.65314 341.54688 314.73126Q341.54688 313.84064 341.0625 313.325Q340.59375 312.8094 339.875 312.8094Q339.15625 312.8094 338.65625 313.325Q338.17188 313.84064 338.17188 314.66876Z" fill-rule="nonzero"/><path fill="#000000" d="M419.60257 316.4344L419.60257 317.45L413.91507 317.45Q413.91507 317.075 414.04007 316.71564Q414.25882 316.1375 414.72757 315.575Q415.21194 315.0125 416.1182 314.27814Q417.52444 313.1219 418.00882 312.45Q418.50882 311.77814 418.50882 311.1844Q418.50882 310.5594 418.0557 310.1375Q417.60257 309.7 416.88382 309.7Q416.1182 309.7 415.66507 310.15314Q415.21194 310.60626 415.19632 311.41876L414.1182 311.3094Q414.22757 310.09064 414.94632 309.46564Q415.6807 308.825 416.91507 308.825Q418.14944 308.825 418.8682 309.5125Q419.58694 310.2 419.58694 311.21564Q419.58694 311.73126 419.3682 312.23126Q419.16507 312.71564 418.66507 313.27814Q418.1807 313.825 417.0557 314.77814Q416.10257 315.575 415.82132 315.8719Q415.5557 316.15314 415.38382 316.4344L419.60257 316.4344ZM421.0557 313.21564Q421.0557 311.6844 421.3682 310.7625Q421.6807 309.825 422.29007 309.325Q422.91507 308.825 423.85257 308.825Q424.54007 308.825 425.0557 309.10626Q425.58694 309.3875 425.9307 309.91876Q426.27444 310.4344 426.46194 311.1844Q426.64944 311.9344 426.64944 313.21564Q426.64944 314.73126 426.33694 315.65314Q426.04007 316.575 425.41507 317.09064Q424.8057 317.59064 423.85257 317.59064Q422.6182 317.59064 421.89944 316.7Q421.0557 315.6375 421.0557 313.21564ZM422.13382 313.21564Q422.13382 315.325 422.63382 316.02814Q423.13382 316.73126 423.85257 316.73126Q424.58694 316.73126 425.07132 316.02814Q425.57132 315.325 425.57132 313.21564Q425.57132 311.09064 425.07132 310.40314Q424.58694 309.7 423.83694 309.7Q423.1182 309.7 422.6807 310.3094Q422.13382 311.09064 422.13382 313.21564ZM432.02444 317.45L430.97757 317.45L430.97757 310.73126Q430.58694 311.09064 429.96194 311.46564Q429.35257 311.825 428.8682 311.9969L428.8682 310.98126Q429.7432 310.5594 430.39944 309.98126Q431.07132 309.3875 431.35257 308.825L432.02444 308.825L432.02444 317.45ZM436.6807 312.79376Q436.02444 312.54376 435.69632 312.10626Q435.38382 311.65314 435.38382 311.04376Q435.38382 310.10626 436.0557 309.46564Q436.7432 308.825 437.85257 308.825Q438.97757 308.825 439.66507 309.48126Q440.35257 310.1375 440.35257 311.075Q440.35257 311.66876 440.04007 312.10626Q439.72757 312.54376 439.08694 312.79376Q439.88382 313.04376 440.29007 313.6219Q440.69632 314.2 440.69632 314.9969Q440.69632 316.09064 439.91507 316.84064Q439.14944 317.59064 437.8682 317.59064Q436.60257 317.59064 435.82132 316.84064Q435.04007 316.09064 435.04007 314.96564Q435.04007 314.1219 435.46194 313.5594Q435.89944 312.9969 436.6807 312.79376ZM436.46194 310.9969Q436.46194 311.60626 436.85257 311.9969Q437.25882 312.3875 437.88382 312.3875Q438.4932 312.3875 438.88382 312.0125Q439.27444 311.6219 439.27444 311.0594Q439.27444 310.48126 438.8682 310.09064Q438.46194 309.6844 437.8682 309.6844Q437.25882 309.6844 436.85257 310.075Q436.46194 310.46564 436.46194 310.9969ZM436.13382 314.96564Q436.13382 315.41876 436.33694 315.84064Q436.5557 316.2625 436.97757 316.4969Q437.39944 316.73126 437.88382 316.73126Q438.63382 316.73126 439.1182 316.2469Q439.6182 315.7625 439.6182 315.0125Q439.6182 314.2469 439.1182 313.7469Q438.6182 313.2469 437.85257 313.2469Q437.10257 313.2469 436.6182 313.7469Q436.13382 314.23126 436.13382 314.96564Z" fill-rule="nonzero"/><path fill="#000000" d="M517.65826 316.4344L517.65826 317.45L511.97076 317.45Q511.97076 317.075 512.09576 316.71564Q512.3145 316.1375 512.78326 315.575Q513.26764 315.0125 514.1739 314.27814Q515.58014 313.1219 516.0645 312.45Q516.5645 311.77814 516.5645 311.1844Q516.5645 310.5594 516.1114 310.1375Q515.65826 309.7 514.9395 309.7Q514.1739 309.7 513.72076 310.15314Q513.26764 310.60626 513.252 311.41876L512.1739 311.3094Q512.28326 310.09064 513.002 309.46564Q513.7364 308.825 514.97076 308.825Q516.20514 308.825 516.9239 309.5125Q517.64264 310.2 517.64264 311.21564Q517.64264 311.73126 517.4239 312.23126Q517.22076 312.71564 516.72076 313.27814Q516.2364 313.825 515.1114 314.77814Q514.15826 315.575 513.877 315.8719Q513.6114 316.15314 513.4395 316.4344L517.65826 316.4344ZM519.1114 313.21564Q519.1114 311.6844 519.4239 310.7625Q519.7364 309.825 520.34576 309.325Q520.97076 308.825 521.90826 308.825Q522.59576 308.825 523.1114 309.10626Q523.64264 309.3875 523.9864 309.91876Q524.33014 310.4344 524.51764 311.1844Q524.70514 311.9344 524.70514 313.21564Q524.70514 314.73126 524.39264 315.65314Q524.09576 316.575 523.47076 317.09064Q522.8614 317.59064 521.90826 317.59064Q520.6739 317.59064 519.95514 316.7Q519.1114 315.6375 519.1114 313.21564ZM520.1895 313.21564Q520.1895 315.325 520.6895 316.02814Q521.1895 316.73126 521.90826 316.73126Q522.64264 316.73126 523.127 316.02814Q523.627 315.325 523.627 313.21564Q523.627 311.09064 523.127 310.40314Q522.64264 309.7 521.89264 309.7Q521.1739 309.7 520.7364 310.3094Q520.1895 311.09064 520.1895 313.21564ZM531.65826 316.4344L531.65826 317.45L525.97076 317.45Q525.97076 317.075 526.09576 316.71564Q526.3145 316.1375 526.78326 315.575Q527.26764 315.0125 528.1739 314.27814Q529.58014 313.1219 530.0645 312.45Q530.5645 311.77814 530.5645 311.1844Q530.5645 310.5594 530.1114 310.1375Q529.65826 309.7 528.9395 309.7Q528.1739 309.7 527.72076 310.15314Q527.26764 310.60626 527.252 311.41876L526.1739 311.3094Q526.28326 310.09064 527.002 309.46564Q527.7364 308.825 528.97076 308.825Q530.20514 308.825 530.9239 309.5125Q531.64264 310.2 531.64264 311.21564Q531.64264 311.73126 531.4239 312.23126Q531.22076 312.71564 530.72076 313.27814Q530.2364 313.825 529.1114 314.77814Q528.15826 315.575 527.877 315.8719Q527.6114 316.15314 527.4395 316.4344L531.65826 316.4344ZM533.1114 313.21564Q533.1114 311.6844 533.4239 310.7625Q533.7364 309.825 534.34576 309.325Q534.97076 308.825 535.90826 308.825Q536.59576 308.825 537.1114 309.10626Q537.64264 309.3875 537.9864 309.91876Q538.33014 310.4344 538.51764 311.1844Q538.70514 311.9344 538.70514 313.21564Q538.70514 314.73126 538.39264 315.65314Q538.09576 316.575 537.47076 317.09064Q536.8614 317.59064 535.90826 317.59064Q534.6739 317.59064 533.95514 316.7Q533.1114 315.6375 533.1114 313.21564ZM534.1895 313.21564Q534.1895 315.325 534.6895 316.02814Q535.1895 316.73126 535.90826 316.73126Q536.64264 316.73126 537.127 316.02814Q537.627 315.325 537.627 313.21564Q537.627 311.09064 537.127 310.40314Q536.64264 309.7 535.89264 309.7Q535.1739 309.7 534.7364 310.3094Q534.1895 311.09064 534.1895 313.21564Z" fill-rule="nonzero"/><path fill="#757575" d="M20.190624 37.55L20.190624 23.2375L29.846874 23.2375L29.846874 24.925L22.08125 24.925L22.08125 29.3625L28.8 29.3625L28.8 31.05L22.08125 31.05L22.08125 37.55L20.190624 37.55ZM31.221874 32.3625Q31.221874 29.4875 32.815624 28.096874Q34.159374 26.940624 36.08125 26.940624Q38.221874 26.940624 39.565624 28.346874Q40.925 29.753124 40.925 32.221874Q40.925 34.221874 40.33125 35.378124Q39.7375 36.51875 38.58125 37.159374Q37.440624 37.784374 36.08125 37.784374Q33.89375 37.784374 32.55 36.39375Q31.221874 34.9875 31.221874 32.3625ZM33.01875 32.3625Q33.01875 34.3625 33.878124 35.346874Q34.753124 36.33125 36.08125 36.33125Q37.39375 36.33125 38.253124 35.346874Q39.128124 34.346874 39.128124 32.3Q39.128124 30.378124 38.253124 29.39375Q37.378124 28.39375 36.08125 28.39375Q34.753124 28.39375 33.878124 29.39375Q33.01875 30.378124 33.01875 32.3625ZM35.1125 25.89375L36.409374 23.159374L38.70625 23.159374L36.565624 25.89375L35.1125 25.89375ZM42.159374 34.45625L43.909374 34.175Q44.05 35.221874 44.721874 35.784374Q45.39375 36.33125 46.596874 36.33125Q47.8 36.33125 48.378124 35.846874Q48.971874 35.346874 48.971874 34.690624Q48.971874 34.096874 48.45625 33.753124Q48.096874 33.51875 46.659374 33.159374Q44.721874 32.659374 43.971874 32.315624Q43.2375 31.95625 42.846874 31.33125Q42.45625 30.690624 42.45625 29.925Q42.45625 29.2375 42.76875 28.64375Q43.096874 28.05 43.64375 27.659374Q44.05 27.3625 44.753124 27.159374Q45.471874 26.940624 46.284374 26.940624Q47.503124 26.940624 48.425 27.3Q49.346874 27.64375 49.784374 28.253124Q50.221874 28.846874 50.39375 29.846874L48.675 30.08125Q48.55 29.284374 47.9875 28.846874Q47.425 28.39375 46.409374 28.39375Q45.190624 28.39375 44.675 28.8Q44.159374 29.190624 44.159374 29.721874Q44.159374 30.065624 44.378124 30.346874Q44.58125 30.628124 45.05 30.815624Q45.315624 30.909374 46.596874 31.253124Q48.471874 31.753124 49.20625 32.08125Q49.940624 32.39375 50.3625 33.003124Q50.784374 33.596874 50.784374 34.503124Q50.784374 35.378124 50.26875 36.159374Q49.753124 36.940624 48.784374 37.3625Q47.815624 37.784374 46.596874 37.784374Q44.58125 37.784374 43.51875 36.940624Q42.45625 36.096874 42.159374 34.45625ZM53.284374 37.55L53.284374 28.55L51.7375 28.55L51.7375 27.175L53.284374 27.175L53.284374 26.08125Q53.284374 25.034374 53.471874 24.51875Q53.721874 23.83125 54.3625 23.409374Q55.003124 22.9875 56.159374 22.9875Q56.909374 22.9875 57.8 23.159374L57.534374 24.690624Q56.9875 24.596874 56.503124 24.596874Q55.70625 24.596874 55.3625 24.940624Q55.034374 25.284374 55.034374 26.221874L55.034374 27.175L57.065624 27.175L57.065624 28.55L55.034374 28.55L55.034374 37.55L53.284374 37.55ZM58.221874 32.3625Q58.221874 29.4875 59.815624 28.096874Q61.159374 26.940624 63.08125 26.940624Q65.22188 26.940624 66.56563 28.346874Q67.925 29.753124 67.925 32.221874Q67.925 34.221874 67.33125 35.378124Q66.7375 36.51875 65.58125 37.159374Q64.44063 37.784374 63.08125 37.784374Q60.89375 37.784374 59.55 36.39375Q58.221874 34.9875 58.221874 32.3625ZM60.01875 32.3625Q60.01875 34.3625 60.878124 35.346874Q61.753124 36.33125 63.08125 36.33125Q64.39375 36.33125 65.25313 35.346874Q66.12813 34.346874 66.12813 32.3Q66.12813 30.378124 65.25313 29.39375Q64.37813 28.39375 63.08125 28.39375Q61.753124 28.39375 60.878124 29.39375Q60.01875 30.378124 60.01875 32.3625ZM69.84688 37.55L69.84688 27.175L71.425 27.175L71.425 28.753124Q72.03438 27.64375 72.55 27.3Q73.06563 26.940624 73.675 26.940624Q74.56563 26.940624 75.4875 27.503124L74.87813 29.14375Q74.2375 28.753124 73.59688 28.753124Q73.01875 28.753124 72.55 29.1125Q72.09688 29.45625 71.89375 30.065624Q71.6125 31.003124 71.6125 32.1125L71.6125 37.55L69.84688 37.55ZM76.22188 32.3625Q76.22188 29.4875 77.81563 28.096874Q79.15938 26.940624 81.08125 26.940624Q83.22188 26.940624 84.56563 28.346874Q85.925 29.753124 85.925 32.221874Q85.925 34.221874 85.33125 35.378124Q84.7375 36.51875 83.58125 37.159374Q82.44063 37.784374 81.08125 37.784374Q78.89375 37.784374 77.55 36.39375Q76.22188 34.9875 76.22188 32.3625ZM78.01875 32.3625Q78.01875 34.3625 78.87813 35.346874Q79.75313 36.33125 81.08125 36.33125Q82.39375 36.33125 83.25313 35.346874Q84.12813 34.346874 84.12813 32.3Q84.12813 30.378124 83.25313 29.39375Q82.37813 28.39375 81.08125 28.39375Q79.75313 28.39375 78.87813 29.39375Q78.01875 30.378124 78.01875 32.3625ZM97.7375 37.55L97.7375 24.925L93.01875 24.925L93.01875 23.2375L104.3625 23.2375L104.3625 24.925L99.62813 24.925L99.62813 37.55L97.7375 37.55ZM105.22188 32.3625Q105.22188 29.4875 106.81563 28.096874Q108.15938 26.940624 110.08125 26.940624Q112.22188 26.940624 113.56563 28.346874Q114.925 29.753124 114.925 32.221874Q114.925 34.221874 114.33125 35.378124Q113.7375 36.51875 112.58125 37.159374Q111.44063 37.784374 110.08125 37.784374Q107.89375 37.784374 106.55 36.39375Q105.22188 34.9875 105.22188 32.3625ZM107.01875 32.3625Q107.01875 34.3625 107.87813 35.346874Q108.75313 36.33125 110.08125 36.33125Q111.39375 36.33125 112.25313 35.346874Q113.12813 34.346874 113.12813 32.3Q113.12813 30.378124 112.25313 29.39375Q111.37813 28.39375 110.08125 28.39375Q108.75313 28.39375 107.87813 29.39375Q107.01875 30.378124 107.01875 32.3625ZM120.70625 35.971874L120.95625 37.534374Q120.22188 37.690624 119.62813 37.690624Q118.675 37.690624 118.14375 37.39375Q117.62813 37.08125 117.40938 36.596874Q117.19063 36.096874 117.19063 34.51875L117.19063 28.55L115.90938 28.55L115.90938 27.175L117.19063 27.175L117.19063 24.6125L118.94063 23.55L118.94063 27.175L120.70625 27.175L120.70625 28.55L118.94063 28.55L118.94063 34.6125Q118.94063 35.3625 119.03438 35.58125Q119.12813 35.784374 119.33125 35.925Q119.55 36.05 119.94063 36.05Q120.22188 36.05 120.70625 35.971874ZM129.64375 36.26875Q128.65938 37.096874 127.75313 37.440624Q126.84688 37.784374 125.81563 37.784374Q124.1125 37.784374 123.19063 36.95625Q122.26875 36.1125 122.26875 34.815624Q122.26875 34.05 122.6125 33.425Q122.97188 32.8 123.53438 32.425Q124.09688 32.034374 124.8 31.83125Q125.31563 31.70625 126.3625 31.565624Q128.4875 31.315624 129.4875 30.971874Q129.50313 30.6125 129.50313 30.503124Q129.50313 29.440624 129.00313 28.9875Q128.33125 28.39375 127.00313 28.39375Q125.75313 28.39375 125.15938 28.83125Q124.58125 29.26875 124.3 30.378124L122.58125 30.14375Q122.81563 29.034374 123.34688 28.3625Q123.87813 27.675 124.89375 27.315624Q125.90938 26.940624 127.25313 26.940624Q128.58125 26.940624 129.40938 27.253124Q130.2375 27.565624 130.62813 28.05Q131.01875 28.51875 131.175 29.2375Q131.26875 29.690624 131.26875 30.8625L131.26875 33.20625Q131.26875 35.659374 131.37813 36.315624Q131.4875 36.95625 131.83125 37.55L129.9875 37.55Q129.72188 37.003124 129.64375 36.26875ZM129.4875 32.346874Q128.53438 32.7375 126.6125 33.003124Q125.53438 33.159374 125.08125 33.3625Q124.64375 33.55 124.39375 33.925Q124.14375 34.3 124.14375 34.76875Q124.14375 35.471874 124.675 35.940624Q125.20625 36.409374 126.2375 36.409374Q127.25313 36.409374 128.03438 35.971874Q128.83125 35.51875 129.20625 34.753124Q129.4875 34.14375 129.4875 32.9875L129.4875 32.346874ZM133.83125 37.55L133.83125 23.2375L135.58125 23.2375L135.58125 37.55L133.83125 37.55ZM143.8625 41.51875L143.8625 27.175L145.47188 27.175L145.47188 28.51875Q146.03438 27.7375 146.7375 27.346874Q147.45625 26.940624 148.47188 26.940624Q149.8 26.940624 150.81563 27.628124Q151.83125 28.315624 152.34688 29.565624Q152.87813 30.8 152.87813 32.284374Q152.87813 33.878124 152.3 35.159374Q151.7375 36.425 150.64375 37.1125Q149.55 37.784374 148.34688 37.784374Q147.47188 37.784374 146.76875 37.409374Q146.08125 37.034374 145.62813 36.471874L145.62813 41.51875L143.8625 41.51875ZM145.45625 32.425Q145.45625 34.425 146.26875 35.378124Q147.08125 36.33125 148.2375 36.33125Q149.40938 36.33125 150.2375 35.346874Q151.08125 34.3625 151.08125 32.26875Q151.08125 30.3 150.25313 29.315624Q149.44063 28.315624 148.31563 28.315624Q147.19063 28.315624 146.31563 29.378124Q145.45625 30.425 145.45625 32.425ZM154.22188 32.3625Q154.22188 29.4875 155.81563 28.096874Q157.15938 26.940624 159.08125 26.940624Q161.22188 26.940624 162.56563 28.346874Q163.925 29.753124 163.925 32.221874Q163.925 34.221874 163.33125 35.378124Q162.7375 36.51875 161.58125 37.159374Q160.44063 37.784374 159.08125 37.784374Q156.89375 37.784374 155.55 36.39375Q154.22188 34.9875 154.22188 32.3625ZM156.01875 32.3625Q156.01875 34.3625 156.87813 35.346874Q157.75313 36.33125 159.08125 36.33125Q160.39375 36.33125 161.25313 35.346874Q162.12813 34.346874 162.12813 32.3Q162.12813 30.378124 161.25313 29.39375Q160.37813 28.39375 159.08125 28.39375Q157.75313 28.39375 156.87813 29.39375Q156.01875 30.378124 156.01875 32.3625ZM165.84688 37.55L165.84688 27.175L167.425 27.175L167.425 28.753124Q168.03438 27.64375 168.55 27.3Q169.06563 26.940624 169.675 26.940624Q170.56563 26.940624 171.4875 27.503124L170.87813 29.14375Q170.2375 28.753124 169.59688 28.753124Q169.01875 28.753124 168.55 29.1125Q168.09688 29.45625 167.89375 30.065624Q167.6125 31.003124 167.6125 32.1125L167.6125 37.55L165.84688 37.55ZM185.64375 36.26875Q184.65938 37.096874 183.75313 37.440624Q182.84688 37.784374 181.81563 37.784374Q180.1125 37.784374 179.19063 36.95625Q178.26875 36.1125 178.26875 34.815624Q178.26875 34.05 178.6125 33.425Q178.97188 32.8 179.53438 32.425Q180.09688 32.034374 180.8 31.83125Q181.31563 31.70625 182.3625 31.565624Q184.4875 31.315624 185.4875 30.971874Q185.50313 30.6125 185.50313 30.503124Q185.50313 29.440624 185.00313 28.9875Q184.33125 28.39375 183.00313 28.39375Q181.75313 28.39375 181.15938 28.83125Q180.58125 29.26875 180.3 30.378124L178.58125 30.14375Q178.81563 29.034374 179.34688 28.3625Q179.87813 27.675 180.89375 27.315624Q181.90938 26.940624 183.25313 26.940624Q184.58125 26.940624 185.40938 27.253124Q186.2375 27.565624 186.62813 28.05Q187.01875 28.51875 187.175 29.2375Q187.26875 29.690624 187.26875 30.8625L187.26875 33.20625Q187.26875 35.659374 187.37813 36.315624Q187.4875 36.95625 187.83125 37.55L185.9875 37.55Q185.72188 37.003124 185.64375 36.26875ZM185.4875 32.346874Q184.53438 32.7375 182.6125 33.003124Q181.53438 33.159374 181.08125 33.3625Q180.64375 33.55 180.39375 33.925Q180.14375 34.3 180.14375 34.76875Q180.14375 35.471874 180.675 35.940624Q181.20625 36.409374 182.2375 36.409374Q183.25313 36.409374 184.03438 35.971874Q184.83125 35.51875 185.20625 34.753124Q185.4875 34.14375 185.4875 32.9875L185.4875 32.346874ZM189.8625 37.55L189.8625 27.175L191.45625 27.175L191.45625 28.659374Q192.59688 26.940624 194.75313 26.940624Q195.69063 26.940624 196.47188 27.284374Q197.26875 27.6125 197.65938 28.159374Q198.05 28.70625 198.20625 29.45625Q198.3 29.95625 198.3 31.175L198.3 37.55L196.53438 37.55L196.53438 31.2375Q196.53438 30.159374 196.33125 29.628124Q196.12813 29.096874 195.59688 28.784374Q195.08125 28.471874 194.37813 28.471874Q193.25313 28.471874 192.44063 29.190624Q191.62813 29.89375 191.62813 31.878124L191.62813 37.55L189.8625 37.55ZM199.22188 32.3625Q199.22188 29.4875 200.81563 28.096874Q202.15938 26.940624 204.08125 26.940624Q206.22188 26.940624 207.56563 28.346874Q208.925 29.753124 208.925 32.221874Q208.925 34.221874 208.33125 35.378124Q207.7375 36.51875 206.58125 37.159374Q205.44063 37.784374 204.08125 37.784374Q201.89375 37.784374 200.55 36.39375Q199.22188 34.9875 199.22188 32.3625ZM201.01875 32.3625Q201.01875 34.3625 201.87813 35.346874Q202.75313 36.33125 204.08125 36.33125Q205.39375 36.33125 206.25313 35.346874Q207.12813 34.346874 207.12813 32.3Q207.12813 30.378124 206.25313 29.39375Q205.37813 28.39375 204.08125 28.39375Q202.75313 28.39375 201.87813 29.39375Q201.01875 30.378124 201.01875 32.3625ZM220.22188 41.753124Q218.76875 39.925 217.76875 37.471874Q216.76875 35.003124 216.76875 32.3625Q216.76875 30.034374 217.51875 27.909374Q218.39375 25.440624 220.22188 22.9875L221.4875 22.9875Q220.3 25.01875 219.925 25.89375Q219.33125 27.2375 218.9875 28.70625Q218.56563 30.534374 218.56563 32.378124Q218.56563 37.065624 221.4875 41.753124L220.22188 41.753124ZM232.6125 35.8625L232.6125 37.55L223.15938 37.55Q223.14375 36.909374 223.3625 36.33125Q223.72188 35.3625 224.51875 34.425Q225.31563 33.4875 226.81563 32.253124Q229.15938 30.346874 229.97188 29.2375Q230.8 28.1125 230.8 27.1125Q230.8 26.065624 230.05 25.346874Q229.3 24.628124 228.09688 24.628124Q226.83125 24.628124 226.06563 25.39375Q225.3 26.159374 225.3 27.503124L223.4875 27.315624Q223.675 25.3 224.87813 24.2375Q226.09688 23.175 228.14375 23.175Q230.19063 23.175 231.39375 24.315624Q232.59688 25.45625 232.59688 27.14375Q232.59688 28.003124 232.2375 28.846874Q231.89375 29.675 231.08125 30.596874Q230.26875 31.503124 228.37813 33.1125Q226.78438 34.440624 226.33125 34.909374Q225.89375 35.378124 225.59688 35.8625L232.6125 35.8625ZM234.37813 30.4875Q234.37813 27.95625 234.89375 26.409374Q235.425 24.846874 236.45625 24.01875Q237.4875 23.175 239.05 23.175Q240.20625 23.175 241.06563 23.64375Q241.94063 24.096874 242.50313 24.971874Q243.06563 25.846874 243.39375 27.1125Q243.72188 28.3625 243.72188 30.4875Q243.72188 33.003124 243.19063 34.55Q242.675 36.096874 241.64375 36.95625Q240.62813 37.8 239.05 37.8Q236.97188 37.8 235.8 36.315624Q234.37813 34.51875 234.37813 30.4875ZM236.19063 30.4875Q236.19063 34.01875 237.00313 35.190624Q237.83125 36.346874 239.05 36.346874Q240.25313 36.346874 241.08125 35.175Q241.90938 34.003124 241.90938 30.4875Q241.90938 26.95625 241.08125 25.8Q240.25313 24.628124 239.03438 24.628124Q237.81563 24.628124 237.09688 25.659374Q236.19063 26.95625 236.19063 30.4875ZM252.00313 37.55L250.2375 37.55L250.2375 26.346874Q249.6125 26.95625 248.58125 27.565624Q247.55 28.159374 246.72188 28.471874L246.72188 26.76875Q248.20625 26.08125 249.3 25.096874Q250.40938 24.096874 250.8625 23.175L252.00313 23.175L252.00313 37.55ZM263.0031 37.55L261.2375 37.55L261.2375 26.346874Q260.6125 26.95625 259.58124 27.565624Q258.55 28.159374 257.72186 28.471874L257.72186 26.76875Q259.20624 26.08125 260.3 25.096874Q261.40936 24.096874 261.8625 23.175L263.0031 23.175L263.0031 37.55ZM267.1906 33.253124L267.1906 31.4875L272.58124 31.4875L272.58124 33.253124L267.1906 33.253124ZM283.6125 35.8625L283.6125 37.55L274.15936 37.55Q274.14374 36.909374 274.3625 36.33125Q274.72186 35.3625 275.51874 34.425Q276.3156 33.4875 277.8156 32.253124Q280.15936 30.346874 280.97186 29.2375Q281.8 28.1125 281.8 27.1125Q281.8 26.065624 281.05 25.346874Q280.3 24.628124 279.09686 24.628124Q277.83124 24.628124 277.0656 25.39375Q276.3 26.159374 276.3 27.503124L274.4875 27.315624Q274.675 25.3 275.8781 24.2375Q277.09686 23.175 279.14374 23.175Q281.1906 23.175 282.39374 24.315624Q283.59686 25.45625 283.59686 27.14375Q283.59686 28.003124 283.2375 28.846874Q282.89374 29.675 282.08124 30.596874Q281.26874 31.503124 279.3781 33.1125Q277.78436 34.440624 277.33124 34.909374Q276.89374 35.378124 276.59686 35.8625L283.6125 35.8625ZM285.3781 30.4875Q285.3781 27.95625 285.89374 26.409374Q286.425 24.846874 287.45624 24.01875Q288.4875 23.175 290.05 23.175Q291.20624 23.175 292.0656 23.64375Q292.9406 24.096874 293.5031 24.971874Q294.0656 25.846874 294.39374 27.1125Q294.72186 28.3625 294.72186 30.4875Q294.72186 33.003124 294.1906 34.55Q293.675 36.096874 292.64374 36.95625Q291.6281 37.8 290.05 37.8Q287.97186 37.8 286.8 36.315624Q285.3781 34.51875 285.3781 30.4875ZM287.1906 30.4875Q287.1906 34.01875 288.0031 35.190624Q288.83124 36.346874 290.05 36.346874Q291.2531 36.346874 292.08124 35.175Q292.90936 34.003124 292.90936 30.4875Q292.90936 26.95625 292.08124 25.8Q291.2531 24.628124 290.03436 24.628124Q288.8156 24.628124 288.09686 25.659374Q287.1906 26.95625 287.1906 30.4875ZM305.6125 35.8625L305.6125 37.55L296.15936 37.55Q296.14374 36.909374 296.3625 36.33125Q296.72186 35.3625 297.51874 34.425Q298.3156 33.4875 299.8156 32.253124Q302.15936 30.346874 302.97186 29.2375Q303.8 28.1125 303.8 27.1125Q303.8 26.065624 303.05 25.346874Q302.3 24.628124 301.09686 24.628124Q299.83124 24.628124 299.0656 25.39375Q298.3 26.159374 298.3 27.503124L296.4875 27.315624Q296.675 25.3 297.8781 24.2375Q299.09686 23.175 301.14374 23.175Q303.1906 23.175 304.39374 24.315624Q305.59686 25.45625 305.59686 27.14375Q305.59686 28.003124 305.2375 28.846874Q304.89374 29.675 304.08124 30.596874Q303.26874 31.503124 301.3781 33.1125Q299.78436 34.440624 299.33124 34.909374Q298.89374 35.378124 298.59686 35.8625L305.6125 35.8625ZM314.0031 37.55L312.2375 37.55L312.2375 26.346874Q311.6125 26.95625 310.58124 27.565624Q309.55 28.159374 308.72186 28.471874L308.72186 26.76875Q310.20624 26.08125 311.3 25.096874Q312.40936 24.096874 312.8625 23.175L314.0031 23.175L314.0031 37.55ZM320.01874 41.753124L318.76874 41.753124Q321.675 37.065624 321.675 32.378124Q321.675 30.534374 321.26874 28.7375Q320.925 27.26875 320.33124 25.925Q319.95624 25.034374 318.76874 22.9875L320.01874 22.9875Q321.8625 25.440624 322.7375 27.909374Q323.4875 30.034374 323.4875 32.3625Q323.4875 35.003124 322.47186 37.471874Q321.47186 39.925 320.01874 41.753124Z" fill-rule="nonzero"/></svg>