<svg version="1.1" viewBox="0.0 0.0 600.0 371.0" fill="none" stroke="none" stroke-linecap="square" stroke-miterlimit="10" width="600" height="371" xmlns:xlink="http://www.w3.org/1999/xlink" xmlns="http://www.w3.org/2000/svg"><path fill="#ffffff" d="M0 0L600.0 0L600.0 371.0L0 371.0L0 0Z" fill-rule="nonzero"/><path stroke="#cccccc" stroke-width="1.0" stroke-linecap="butt" d="M142.5 61.5L142.5 300.5" fill-rule="nonzero"/><path stroke="#cccccc" stroke-width="1.0" stroke-linecap="butt" d="M238.5 61.5L238.5 300.5" fill-rule="nonzero"/><path stroke="#cccccc" stroke-width="1.0" stroke-linecap="butt" d="M334.5 61.5L334.5 300.5" fill-rule="nonzero"/><path stroke="#cccccc" stroke-width="1.0" stroke-linecap="butt" d="M430.5 61.5L430.5 300.5" fill-rule="nonzero"/><path stroke="#cccccc" stroke-width="1.0" stroke-linecap="butt" d="M526.5 61.5L526.5 300.5" fill-rule="nonzero"/><path stroke="#333333" stroke-width="1.0" stroke-linecap="butt" d="M87.5 300.5L581.5 300.5" fill-rule="nonzero"/><path stroke="#cccccc" stroke-width="1.0" stroke-linecap="butt" d="M87.5 220.5L581.5 220.5" fill-rule="nonzero"/><path stroke="#cccccc" stroke-width="1.0" stroke-linecap="butt" d="M87.5 141.5L581.5 141.5" fill-rule="nonzero"/><path stroke="#cccccc" stroke-width="1.0" stroke-linecap="butt" d="M87.5 61.5L581.5 61.5" fill-rule="nonzero"/><clipPath id="id_0"><path d="M87.55 61.916668L581.45 61.916668L581.45 300.45L87.55 300.45L87.55 61.916668Z" clip-rule="nonzero"/></clipPath><path fill="#4285f4" clip-path="url(#id_0)" d="M98.85705 181.77863C98.85705 184.2639 96.84233 186.27863 94.35705 186.27863C91.871765 186.27863 89.85705 184.2639 89.85705 181.77863C89.85705 179.29333 91.871765 177.27863 94.35705 177.27863C96.84233 177.27863 98.85705 179.29333 98.85705 181.77863Z" fill-rule="nonzero"/><path fill="#4285f4" clip-path="url(#id_0)" d="M146.88564 94.085884C146.88564 96.57117 144.87093 98.585884 142.38564 98.585884C139.90036 98.585884 137.88564 96.57117 137.88564 94.085884C137.88564 91.6006 139.90036 89.585884 142.38564 89.585884C144.87093 89.585884 146.88564 91.6006 146.88564 94.085884Z" fill-rule="nonzero"/><path fill="#4285f4" clip-path="url(#id_0)" d="M194.91423 75.41261C194.91423 77.897896 192.8995 79.91261 190.41423 79.91261C187.92896 79.91261 185.91423 77.897896 185.91423 75.41261C185.91423 72.92733 187.92896 70.91261 190.41423 70.91261C192.8995 70.91261 194.91423 72.92733 194.91423 75.41261Z" fill-rule="nonzero"/><path fill="#4285f4" clip-path="url(#id_0)" d="M242.94283 173.44217C242.94283 175.92744 240.9281 177.94217 238.44283 177.94217C235.95753 177.94217 233.94283 175.92744 233.94283 173.44217C233.94283 170.95688 235.95753 168.94217 238.44283 168.94217C240.9281 168.94217 242.94283 170.95688 242.94283 173.44217Z" fill-rule="nonzero"/><path fill="#4285f4" clip-path="url(#id_0)" d="M290.9714 135.35973C290.9714 137.845 288.9567 139.85973 286.4714 139.85973C283.9861 139.85973 281.9714 137.845 281.9714 135.35973C281.9714 132.87444 283.9861 130.85973 286.4714 130.85973C288.9567 130.85973 290.9714 132.87444 290.9714 135.35973Z" fill-rule="nonzero"/><path fill="#4285f4" clip-path="url(#id_0)" d="M339.0 150.01146C339.0 152.49675 336.9853 154.51146 334.5 154.51146C332.0147 154.51146 330.0 152.49675 330.0 150.01146C330.0 147.52618 332.0147 145.51146 334.5 145.51146C336.9853 145.51146 339.0 147.52618 339.0 150.01146Z" fill-rule="nonzero"/><path fill="#4285f4" clip-path="url(#id_0)" d="M387.0286 123.22341C387.0286 125.70869 385.0139 127.72341 382.5286 127.72341C380.0433 127.72341 378.0286 125.70869 378.0286 123.22341C378.0286 120.73813 380.0433 118.72341 382.5286 118.72341C385.0139 118.72341 387.0286 120.73813 387.0286 123.22341Z" fill-rule="nonzero"/><path fill="#4285f4" clip-path="url(#id_0)" d="M435.0572 149.8672C435.0572 152.35248 433.04245 154.3672 430.5572 154.3672C428.0719 154.3672 426.0572 152.35248 426.0572 149.8672C426.0572 147.38191 428.0719 145.3672 430.5572 145.3672C433.04245 145.3672 435.0572 147.38191 435.0572 149.8672Z" fill-rule="nonzero"/><path fill="#4285f4" clip-path="url(#id_0)" d="M483.0858 158.23393C483.0858 160.71922 481.07104 162.73393 478.5858 162.73393C476.1005 162.73393 474.0858 160.71922 474.0858 158.23393C474.0858 155.74866 476.1005 153.73393 478.5858 153.73393C481.07104 153.73393 483.0858 155.74866 483.0858 158.23393Z" fill-rule="nonzero"/><path fill="#4285f4" clip-path="url(#id_0)" d="M531.1144 170.91164C531.1144 173.39691 529.0997 175.41164 526.6144 175.41164C524.1291 175.41164 522.1144 173.39691 522.1144 170.91164C522.1144 168.42635 524.1291 166.41164 526.6144 166.41164C529.0997 166.41164 531.1144 168.42635 531.1144 170.91164Z" fill-rule="nonzero"/><path fill="#4285f4" clip-path="url(#id_0)" d="M579.14294 129.00696C579.14294 131.49223 577.12823 133.50696 574.64294 133.50696C572.15765 133.50696 570.14294 131.49223 570.14294 129.00696C570.14294 126.521675 572.15765 124.50696 574.64294 124.50696C577.12823 124.50696 579.14294 126.521675 579.14294 129.00696Z" fill-rule="nonzero"/><path fill="#000000" d="M323.98438 349.45L327.28125 340.85626L328.5 340.85626L332.01562 349.45L330.73438 349.45L329.71875 346.84064L326.14062 346.84064L325.1875 349.45L323.98438 349.45ZM326.46875 345.91876L329.375 345.91876L328.48438 343.54376Q328.0625 342.46564 327.875 341.7625Q327.70312 342.59064 327.40625 343.40314L326.46875 345.91876ZM331.79688 349.45L331.79688 343.23126L332.73438 343.23126L332.73438 344.10626Q333.42188 343.09064 334.71875 343.09064Q335.28125 343.09064 335.75 343.29376Q336.23438 343.4969 336.46875 343.825Q336.70312 344.15314 336.79688 344.59064Q336.84375 344.8875 336.84375 345.6219L336.84375 349.45L335.79688 349.45L335.79688 345.66876Q335.79688 345.0125 335.67188 344.7Q335.54688 344.3875 335.23438 344.2Q334.92188 343.9969 334.5 343.9969Q333.82812 343.9969 333.32812 344.4344Q332.84375 344.85626 332.84375 346.04376L332.84375 349.45L331.79688 349.45ZM338.40625 346.34064Q338.40625 344.60626 339.35938 343.77814Q340.15625 343.09064 341.3125 343.09064Q342.59375 343.09064 343.40625 343.9344Q344.23438 344.7625 344.23438 346.2469Q344.23438 347.45 343.875 348.1375Q343.51562 348.825 342.8125 349.21564Q342.125 349.59064 341.3125 349.59064Q340.01562 349.59064 339.20312 348.7625Q338.40625 347.91876 338.40625 346.34064ZM339.48438 346.34064Q339.48438 347.52814 340.0 348.1219Q340.53125 348.71564 341.3125 348.71564Q342.10938 348.71564 342.625 348.1219Q343.14062 347.52814 343.14062 346.3094Q343.14062 345.15314 342.60938 344.5594Q342.09375 343.96564 341.3125 343.96564Q340.53125 343.96564 340.0 344.5594Q339.48438 345.1375 339.48438 346.34064Z" fill-rule="nonzero"/><path fill="#000000" d="M29.550013 196.05833L20.956263 196.05833L20.956263 194.93333L29.550013 194.93333L29.550013 196.05833ZM28.628138 186.74583Q29.175013 185.94896 29.425013 185.29271L30.221888 185.62083Q29.878138 186.54271 29.159388 187.46458Q29.690638 188.41771 29.690638 189.57396Q29.690638 190.74583 29.128138 191.69896Q28.565638 192.63646 27.550013 193.15208Q26.534388 193.66771 25.253138 193.66771Q23.987513 193.66771 22.940638 193.15208Q21.893763 192.63646 21.346888 191.68333Q20.800013 190.73021 20.800013 189.55833Q20.800013 188.37083 21.378138 187.41771Q21.940638 186.44896 22.956263 185.94896Q23.971888 185.44896 25.253138 185.44896Q26.315638 185.44896 27.159388 185.77708Q28.003138 186.08958 28.628138 186.74583ZM27.175013 189.24583Q27.456263 188.26146 28.003138 187.62083Q27.081263 186.62083 25.253138 186.62083Q24.206263 186.62083 23.425013 186.98021Q22.643763 187.33958 22.221888 188.02708Q21.784388 188.69896 21.784388 189.54271Q21.784388 190.82396 22.659388 191.66771Q23.518763 192.49583 25.253138 192.49583Q26.925013 192.49583 27.831263 191.66771Q28.721888 190.83958 28.721888 189.54271Q28.721888 188.93333 28.487513 188.40208Q28.143763 188.93333 28.003138 189.52708L27.175013 189.24583ZM29.550013 185.19896L20.956263 181.90208L20.956263 180.68333L29.550013 177.16771L29.550013 178.44896L26.940638 179.46458L26.940638 183.04271L29.550013 183.99583L29.550013 185.19896ZM26.018763 182.71458L26.018763 179.80833L23.643763 180.69896Q22.565638 181.12083 21.862513 181.30833Q22.690638 181.48021 23.503138 181.77708L26.018763 182.71458Z" fill-rule="nonzero"/><path fill="#000000" d="M58.05 300.21564Q58.05 298.6844 58.3625 297.7625Q58.675 296.825 59.284374 296.325Q59.909374 295.825 60.846874 295.825Q61.534374 295.825 62.05 296.10626Q62.58125 296.3875 62.925 296.91876Q63.26875 297.4344 63.45625 298.1844Q63.64375 298.9344 63.64375 300.21564Q63.64375 301.73126 63.33125 302.65314Q63.034374 303.575 62.409374 304.09064Q61.8 304.59064 60.846874 304.59064Q59.6125 304.59064 58.89375 303.7Q58.05 302.6375 58.05 300.21564ZM59.128124 300.21564Q59.128124 302.325 59.628124 303.02814Q60.128124 303.73126 60.846874 303.73126Q61.58125 303.73126 62.065624 303.02814Q62.565624 302.325 62.565624 300.21564Q62.565624 298.09064 62.065624 297.40314Q61.58125 296.7 60.83125 296.7Q60.1125 296.7 59.675 297.3094Q59.128124 298.09064 59.128124 300.21564ZM65.6125 304.45L65.6125 303.2469L66.81563 303.2469L66.81563 304.45Q66.81563 305.10626 66.58125 305.5125Q66.34688 305.9344 65.84688 306.15314L65.55 305.7Q65.87813 305.5594 66.03438 305.2625Q66.19063 304.98126 66.22188 304.45L65.6125 304.45ZM68.05 300.21564Q68.05 298.6844 68.3625 297.7625Q68.675 296.825 69.28438 296.325Q69.90938 295.825 70.84688 295.825Q71.53438 295.825 72.05 296.10626Q72.58125 296.3875 72.925 296.91876Q73.26875 297.4344 73.45625 298.1844Q73.64375 298.9344 73.64375 300.21564Q73.64375 301.73126 73.33125 302.65314Q73.03438 303.575 72.40938 304.09064Q71.8 304.59064 70.84688 304.59064Q69.6125 304.59064 68.89375 303.7Q68.05 302.6375 68.05 300.21564ZM69.12813 300.21564Q69.12813 302.325 69.62813 303.02814Q70.12813 303.73126 70.84688 303.73126Q71.58125 303.73126 72.06563 303.02814Q72.56563 302.325 72.56563 300.21564Q72.56563 298.09064 72.06563 297.40314Q71.58125 296.7 70.83125 296.7Q70.1125 296.7 69.675 297.3094Q69.12813 298.09064 69.12813 300.21564ZM75.05 300.21564Q75.05 298.6844 75.3625 297.7625Q75.675 296.825 76.28438 296.325Q76.90938 295.825 77.84688 295.825Q78.53438 295.825 79.05 296.10626Q79.58125 296.3875 79.925 296.91876Q80.26875 297.4344 80.45625 298.1844Q80.64375 298.9344 80.64375 300.21564Q80.64375 301.73126 80.33125 302.65314Q80.03438 303.575 79.40938 304.09064Q78.8 304.59064 77.84688 304.59064Q76.6125 304.59064 75.89375 303.7Q75.05 302.6375 75.05 300.21564ZM76.12813 300.21564Q76.12813 302.325 76.62813 303.02814Q77.12813 303.73126 77.84688 303.73126Q78.58125 303.73126 79.06563 303.02814Q79.56563 302.325 79.56563 300.21564Q79.56563 298.09064 79.06563 297.40314Q78.58125 296.7 77.83125 296.7Q77.1125 296.7 76.675 297.3094Q76.12813 298.09064 76.12813 300.21564Z" fill-rule="nonzero"/><path fill="#000000" d="M55.01875 224.93889L53.971874 224.93889L53.971874 218.22014Q53.58125 218.57951 52.95625 218.95451Q52.346874 219.31389 51.8625 219.48576L51.8625 218.47014Q52.7375 218.04826 53.39375 217.47014Q54.065624 216.87639 54.346874 216.31389L55.01875 216.31389L55.01875 224.93889ZM58.05 220.70451Q58.05 219.17326 58.3625 218.25139Q58.675 217.31389 59.284374 216.81389Q59.909374 216.31389 60.846874 216.31389Q61.534374 216.31389 62.05 216.59514Q62.58125 216.87639 62.925 217.40764Q63.26875 217.92326 63.45625 218.67326Q63.64375 219.42326 63.64375 220.70451Q63.64375 222.22014 63.33125 223.14201Q63.034374 224.06389 62.409374 224.57951Q61.8 225.07951 60.846874 225.07951Q59.6125 225.07951 58.89375 224.18889Q58.05 223.12639 58.05 220.70451ZM59.128124 220.70451Q59.128124 222.81389 59.628124 223.51701Q60.128124 224.22014 60.846874 224.22014Q61.58125 224.22014 62.065624 223.51701Q62.565624 222.81389 62.565624 220.70451Q62.565624 218.57951 62.065624 217.89201Q61.58125 217.18889 60.83125 217.18889Q60.1125 217.18889 59.675 217.79826Q59.128124 218.57951 59.128124 220.70451ZM65.6125 224.93889L65.6125 223.73576L66.81563 223.73576L66.81563 224.93889Q66.81563 225.59514 66.58125 226.00139Q66.34688 226.42326 65.84688 226.64201L65.55 226.18889Q65.87813 226.04826 66.03438 225.75139Q66.19063 225.47014 66.22188 224.93889L65.6125 224.93889ZM68.05 220.70451Q68.05 219.17326 68.3625 218.25139Q68.675 217.31389 69.28438 216.81389Q69.90938 216.31389 70.84688 216.31389Q71.53438 216.31389 72.05 216.59514Q72.58125 216.87639 72.925 217.40764Q73.26875 217.92326 73.45625 218.67326Q73.64375 219.42326 73.64375 220.70451Q73.64375 222.22014 73.33125 223.14201Q73.03438 224.06389 72.40938 224.57951Q71.8 225.07951 70.84688 225.07951Q69.6125 225.07951 68.89375 224.18889Q68.05 223.12639 68.05 220.70451ZM69.12813 220.70451Q69.12813 222.81389 69.62813 223.51701Q70.12813 224.22014 70.84688 224.22014Q71.58125 224.22014 72.06563 223.51701Q72.56563 222.81389 72.56563 220.70451Q72.56563 218.57951 72.06563 217.89201Q71.58125 217.18889 70.83125 217.18889Q70.1125 217.18889 69.675 217.79826Q69.12813 218.57951 69.12813 220.70451ZM75.05 220.70451Q75.05 219.17326 75.3625 218.25139Q75.675 217.31389 76.28438 216.81389Q76.90938 216.31389 77.84688 216.31389Q78.53438 216.31389 79.05 216.59514Q79.58125 216.87639 79.925 217.40764Q80.26875 217.92326 80.45625 218.67326Q80.64375 219.42326 80.64375 220.70451Q80.64375 222.22014 80.33125 223.14201Q80.03438 224.06389 79.40938 224.57951Q78.8 225.07951 77.84688 225.07951Q76.6125 225.07951 75.89375 224.18889Q75.05 223.12639 75.05 220.70451ZM76.12813 220.70451Q76.12813 222.81389 76.62813 223.51701Q77.12813 224.22014 77.84688 224.22014Q78.58125 224.22014 79.06563 223.51701Q79.56563 222.81389 79.56563 220.70451Q79.56563 218.57951 79.06563 217.89201Q78.58125 217.18889 77.83125 217.18889Q77.1125 217.18889 76.675 217.79826Q76.12813 218.57951 76.12813 220.70451Z" fill-rule="nonzero"/><path fill="#000000" d="M56.596874 144.41216L56.596874 145.42778L50.909374 145.42778Q50.909374 145.05278 51.034374 144.6934Q51.253124 144.11528 51.721874 143.55278Q52.20625 142.99028 53.1125 142.2559Q54.51875 141.09966 55.003124 140.42778Q55.503124 139.7559 55.503124 139.16216Q55.503124 138.53716 55.05 138.11528Q54.596874 137.67778 53.878124 137.67778Q53.1125 137.67778 52.659374 138.1309Q52.20625 138.58403 52.190624 139.39653L51.1125 139.28716Q51.221874 138.0684 51.940624 137.4434Q52.675 136.80278 53.909374 136.80278Q55.14375 136.80278 55.8625 137.49028Q56.58125 138.17778 56.58125 139.1934Q56.58125 139.70903 56.3625 140.20903Q56.159374 140.6934 55.659374 141.2559Q55.175 141.80278 54.05 142.7559Q53.096874 143.55278 52.815624 143.84966Q52.55 144.1309 52.378124 144.41216L56.596874 144.41216ZM58.05 141.1934Q58.05 139.66216 58.3625 138.74028Q58.675 137.80278 59.284374 137.30278Q59.909374 136.80278 60.846874 136.80278Q61.534374 136.80278 62.05 137.08403Q62.58125 137.36528 62.925 137.89653Q63.26875 138.41216 63.45625 139.16216Q63.64375 139.91216 63.64375 141.1934Q63.64375 142.70903 63.33125 143.6309Q63.034374 144.55278 62.409374 145.0684Q61.8 145.5684 60.846874 145.5684Q59.6125 145.5684 58.89375 144.67778Q58.05 143.61528 58.05 141.1934ZM59.128124 141.1934Q59.128124 143.30278 59.628124 144.0059Q60.128124 144.70903 60.846874 144.70903Q61.58125 144.70903 62.065624 144.0059Q62.565624 143.30278 62.565624 141.1934Q62.565624 139.0684 62.065624 138.3809Q61.58125 137.67778 60.83125 137.67778Q60.1125 137.67778 59.675 138.28716Q59.128124 139.0684 59.128124 141.1934ZM65.6125 145.42778L65.6125 144.22466L66.81563 144.22466L66.81563 145.42778Q66.81563 146.08403 66.58125 146.49028Q66.34688 146.91216 65.84688 147.1309L65.55 146.67778Q65.87813 146.53716 66.03438 146.24028Q66.19063 145.95903 66.22188 145.42778L65.6125 145.42778ZM68.05 141.1934Q68.05 139.66216 68.3625 138.74028Q68.675 137.80278 69.28438 137.30278Q69.90938 136.80278 70.84688 136.80278Q71.53438 136.80278 72.05 137.08403Q72.58125 137.36528 72.925 137.89653Q73.26875 138.41216 73.45625 139.16216Q73.64375 139.91216 73.64375 141.1934Q73.64375 142.70903 73.33125 143.6309Q73.03438 144.55278 72.40938 145.0684Q71.8 145.5684 70.84688 145.5684Q69.6125 145.5684 68.89375 144.67778Q68.05 143.61528 68.05 141.1934ZM69.12813 141.1934Q69.12813 143.30278 69.62813 144.0059Q70.12813 144.70903 70.84688 144.70903Q71.58125 144.70903 72.06563 144.0059Q72.56563 143.30278 72.56563 141.1934Q72.56563 139.0684 72.06563 138.3809Q71.58125 137.67778 70.83125 137.67778Q70.1125 137.67778 69.675 138.28716Q69.12813 139.0684 69.12813 141.1934ZM75.05 141.1934Q75.05 139.66216 75.3625 138.74028Q75.675 137.80278 76.28438 137.30278Q76.90938 136.80278 77.84688 136.80278Q78.53438 136.80278 79.05 137.08403Q79.58125 137.36528 79.925 137.89653Q80.26875 138.41216 80.45625 139.16216Q80.64375 139.91216 80.64375 141.1934Q80.64375 142.70903 80.33125 143.6309Q80.03438 144.55278 79.40938 145.0684Q78.8 145.5684 77.84688 145.5684Q76.6125 145.5684 75.89375 144.67778Q75.05 143.61528 75.05 141.1934ZM76.12813 141.1934Q76.12813 143.30278 76.62813 144.0059Q77.12813 144.70903 77.84688 144.70903Q78.58125 144.70903 79.06563 144.0059Q79.56563 143.30278 79.56563 141.1934Q79.56563 139.0684 79.06563 138.3809Q78.58125 137.67778 77.83125 137.67778Q77.1125 137.67778 76.675 138.28716Q76.12813 139.0684 76.12813 141.1934Z" fill-rule="nonzero"/><path fill="#000000" d="M51.05 63.65104L52.1125 63.510414Q52.284374 64.40104 52.721874 64.80729Q53.159374 65.197914 53.784374 65.197914Q54.534374 65.197914 55.05 64.68229Q55.565624 64.166664 55.565624 63.40104Q55.565624 62.68229 55.08125 62.21354Q54.6125 61.729164 53.878124 61.729164Q53.58125 61.729164 53.128124 61.854164L53.253124 60.916664Q53.3625 60.93229 53.425 60.93229Q54.096874 60.93229 54.628124 60.58854Q55.175 60.229164 55.175 59.49479Q55.175 58.916664 54.784374 58.541664Q54.39375 58.15104 53.76875 58.15104Q53.159374 58.15104 52.7375 58.541664Q52.33125 58.93229 52.221874 59.697914L51.159374 59.510414Q51.346874 58.46354 52.034374 57.885414Q52.721874 57.291664 53.7375 57.291664Q54.440624 57.291664 55.034374 57.604164Q55.628124 57.90104 55.940624 58.416664Q56.253124 58.93229 56.253124 59.52604Q56.253124 60.072914 55.95625 60.541664Q55.659374 60.99479 55.08125 61.260414Q55.83125 61.43229 56.253124 61.99479Q56.675 62.541664 56.675 63.385414Q56.675 64.510414 55.846874 65.291664Q55.034374 66.072914 53.784374 66.072914Q52.659374 66.072914 51.909374 65.40104Q51.159374 64.71354 51.05 63.65104ZM58.05 61.68229Q58.05 60.15104 58.3625 59.229164Q58.675 58.291664 59.284374 57.791664Q59.909374 57.291664 60.846874 57.291664Q61.534374 57.291664 62.05 57.572914Q62.58125 57.854164 62.925 58.385414Q63.26875 58.90104 63.45625 59.65104Q63.64375 60.40104 63.64375 61.68229Q63.64375 63.197914 63.33125 64.11979Q63.034374 65.041664 62.409374 65.55729Q61.8 66.05729 60.846874 66.05729Q59.6125 66.05729 58.89375 65.166664Q58.05 64.104164 58.05 61.68229ZM59.128124 61.68229Q59.128124 63.791664 59.628124 64.49479Q60.128124 65.197914 60.846874 65.197914Q61.58125 65.197914 62.065624 64.49479Q62.565624 63.791664 62.565624 61.68229Q62.565624 59.55729 62.065624 58.86979Q61.58125 58.166664 60.83125 58.166664Q60.1125 58.166664 59.675 58.77604Q59.128124 59.55729 59.128124 61.68229ZM65.6125 65.916664L65.6125 64.71354L66.81563 64.71354L66.81563 65.916664Q66.81563 66.572914 66.58125 66.979164Q66.34688 67.40104 65.84688 67.61979L65.55 67.166664Q65.87813 67.02604 66.03438 66.729164Q66.19063 66.447914 66.22188 65.916664L65.6125 65.916664ZM68.05 61.68229Q68.05 60.15104 68.3625 59.229164Q68.675 58.291664 69.28438 57.791664Q69.90938 57.291664 70.84688 57.291664Q71.53438 57.291664 72.05 57.572914Q72.58125 57.854164 72.925 58.385414Q73.26875 58.90104 73.45625 59.65104Q73.64375 60.40104 73.64375 61.68229Q73.64375 63.197914 73.33125 64.11979Q73.03438 65.041664 72.40938 65.55729Q71.8 66.05729 70.84688 66.05729Q69.6125 66.05729 68.89375 65.166664Q68.05 64.104164 68.05 61.68229ZM69.12813 61.68229Q69.12813 63.791664 69.62813 64.49479Q70.12813 65.197914 70.84688 65.197914Q71.58125 65.197914 72.06563 64.49479Q72.56563 63.791664 72.56563 61.68229Q72.56563 59.55729 72.06563 58.86979Q71.58125 58.166664 70.83125 58.166664Q70.1125 58.166664 69.675 58.77604Q69.12813 59.55729 69.12813 61.68229ZM75.05 61.68229Q75.05 60.15104 75.3625 59.229164Q75.675 58.291664 76.28438 57.791664Q76.90938 57.291664 77.84688 57.291664Q78.53438 57.291664 79.05 57.572914Q79.58125 57.854164 79.925 58.385414Q80.26875 58.90104 80.45625 59.65104Q80.64375 60.40104 80.64375 61.68229Q80.64375 63.197914 80.33125 64.11979Q80.03438 65.041664 79.40938 65.55729Q78.8 66.05729 77.84688 66.05729Q76.6125 66.05729 75.89375 65.166664Q75.05 64.104164 75.05 61.68229ZM76.12813 61.68229Q76.12813 63.791664 76.62813 64.49479Q77.12813 65.197914 77.84688 65.197914Q78.58125 65.197914 79.06563 64.49479Q79.56563 63.791664 79.56563 61.68229Q79.56563 59.55729 79.06563 58.86979Q78.58125 58.166664 77.83125 58.166664Q77.1125 58.166664 76.675 58.77604Q76.12813 59.55729 76.12813 61.68229Z" fill-rule="nonzero"/><path fill="#000000" d="M134.43251 316.4344L134.43251 317.45L128.74501 317.45Q128.74501 317.075 128.87001 316.71564Q129.08876 316.1375 129.55751 315.575Q130.04189 315.0125 130.94814 314.27814Q132.35439 313.1219 132.83876 312.45Q133.33876 311.77814 133.33876 311.1844Q133.33876 310.5594 132.88564 310.1375Q132.43251 309.7 131.71376 309.7Q130.94814 309.7 130.49501 310.15314Q130.04189 310.60626 130.02626 311.41876L128.94814 311.3094Q129.05751 310.09064 129.77626 309.46564Q130.51064 308.825 131.74501 308.825Q132.97939 308.825 133.69814 309.5125Q134.41689 310.2 134.41689 311.21564Q134.41689 311.73126 134.19814 312.23126Q133.99501 312.71564 133.49501 313.27814Q133.01064 313.825 131.88564 314.77814Q130.93251 315.575 130.65126 315.8719Q130.38564 316.15314 130.21376 316.4344L134.43251 316.4344ZM135.88564 313.21564Q135.88564 311.6844 136.19814 310.7625Q136.51064 309.825 137.12001 309.325Q137.74501 308.825 138.68251 308.825Q139.37001 308.825 139.88564 309.10626Q140.41689 309.3875 140.76064 309.91876Q141.10439 310.4344 141.29189 311.1844Q141.47939 311.9344 141.47939 313.21564Q141.47939 314.73126 141.16689 315.65314Q140.87001 316.575 140.24501 317.09064Q139.63564 317.59064 138.68251 317.59064Q137.44814 317.59064 136.72939 316.7Q135.88564 315.6375 135.88564 313.21564ZM136.96376 313.21564Q136.96376 315.325 137.46376 316.02814Q137.96376 316.73126 138.68251 316.73126Q139.41689 316.73126 139.90126 316.02814Q140.40126 315.325 140.40126 313.21564Q140.40126 311.09064 139.90126 310.40314Q139.41689 309.7 138.66689 309.7Q137.94814 309.7 137.51064 310.3094Q136.96376 311.09064 136.96376 313.21564ZM146.85439 317.45L145.80751 317.45L145.80751 310.73126Q145.41689 311.09064 144.79189 311.46564Q144.18251 311.825 143.69814 311.9969L143.69814 310.98126Q144.57314 310.5594 145.22939 309.98126Q145.90126 309.3875 146.18251 308.825L146.85439 308.825L146.85439 317.45ZM155.43251 316.4344L155.43251 317.45L149.74501 317.45Q149.74501 317.075 149.87001 316.71564Q150.08876 316.1375 150.55751 315.575Q151.04189 315.0125 151.94814 314.27814Q153.35439 313.1219 153.83876 312.45Q154.33876 311.77814 154.33876 311.1844Q154.33876 310.5594 153.88564 310.1375Q153.43251 309.7 152.71376 309.7Q151.94814 309.7 151.49501 310.15314Q151.04189 310.60626 151.02626 311.41876L149.94814 311.3094Q150.05751 310.09064 150.77626 309.46564Q151.51064 308.825 152.74501 308.825Q153.97939 308.825 154.69814 309.5125Q155.41689 310.2 155.41689 311.21564Q155.41689 311.73126 155.19814 312.23126Q154.99501 312.71564 154.49501 313.27814Q154.01064 313.825 152.88564 314.77814Q151.93251 315.575 151.65126 315.8719Q151.38564 316.15314 151.21376 316.4344L155.43251 316.4344Z" fill-rule="nonzero"/><path fill="#000000" d="M230.4897 316.4344L230.4897 317.45L224.8022 317.45Q224.8022 317.075 224.9272 316.71564Q225.14595 316.1375 225.6147 315.575Q226.09908 315.0125 227.00533 314.27814Q228.41158 313.1219 228.89595 312.45Q229.39595 311.77814 229.39595 311.1844Q229.39595 310.5594 228.94283 310.1375Q228.4897 309.7 227.77095 309.7Q227.00533 309.7 226.5522 310.15314Q226.09908 310.60626 226.08345 311.41876L225.00533 311.3094Q225.1147 310.09064 225.83345 309.46564Q226.56783 308.825 227.8022 308.825Q229.03658 308.825 229.75533 309.5125Q230.47408 310.2 230.47408 311.21564Q230.47408 311.73126 230.25533 312.23126Q230.0522 312.71564 229.5522 313.27814Q229.06783 313.825 227.94283 314.77814Q226.9897 315.575 226.70845 315.8719Q226.44283 316.15314 226.27095 316.4344L230.4897 316.4344ZM231.94283 313.21564Q231.94283 311.6844 232.25533 310.7625Q232.56783 309.825 233.1772 309.325Q233.8022 308.825 234.7397 308.825Q235.4272 308.825 235.94283 309.10626Q236.47408 309.3875 236.81783 309.91876Q237.16158 310.4344 237.34908 311.1844Q237.53658 311.9344 237.53658 313.21564Q237.53658 314.73126 237.22408 315.65314Q236.9272 316.575 236.3022 317.09064Q235.69283 317.59064 234.7397 317.59064Q233.50533 317.59064 232.78658 316.7Q231.94283 315.6375 231.94283 313.21564ZM233.02095 313.21564Q233.02095 315.325 233.52095 316.02814Q234.02095 316.73126 234.7397 316.73126Q235.47408 316.73126 235.95845 316.02814Q236.45845 315.325 236.45845 313.21564Q236.45845 311.09064 235.95845 310.40314Q235.47408 309.7 234.72408 309.7Q234.00533 309.7 233.56783 310.3094Q233.02095 311.09064 233.02095 313.21564ZM242.91158 317.45L241.8647 317.45L241.8647 310.73126Q241.47408 311.09064 240.84908 311.46564Q240.2397 311.825 239.75533 311.9969L239.75533 310.98126Q240.63033 310.5594 241.28658 309.98126Q241.95845 309.3875 242.2397 308.825L242.91158 308.825L242.91158 317.45ZM249.31783 317.45L249.31783 315.3875L245.59908 315.3875L245.59908 314.41876L249.52095 308.85626L250.38033 308.85626L250.38033 314.41876L251.53658 314.41876L251.53658 315.3875L250.38033 315.3875L250.38033 317.45L249.31783 317.45ZM249.31783 314.41876L249.31783 310.5594L246.63033 314.41876L249.31783 314.41876Z" fill-rule="nonzero"/><path fill="#000000" d="M326.54688 316.4344L326.54688 317.45L320.85938 317.45Q320.85938 317.075 320.98438 316.71564Q321.20312 316.1375 321.67188 315.575Q322.15625 315.0125 323.0625 314.27814Q324.46875 313.1219 324.95312 312.45Q325.45312 311.77814 325.45312 311.1844Q325.45312 310.5594 325.0 310.1375Q324.54688 309.7 323.82812 309.7Q323.0625 309.7 322.60938 310.15314Q322.15625 310.60626 322.14062 311.41876L321.0625 311.3094Q321.17188 310.09064 321.89062 309.46564Q322.625 308.825 323.85938 308.825Q325.09375 308.825 325.8125 309.5125Q326.53125 310.2 326.53125 311.21564Q326.53125 311.73126 326.3125 312.23126Q326.10938 312.71564 325.60938 313.27814Q325.125 313.825 324.0 314.77814Q323.04688 315.575 322.76562 315.8719Q322.5 316.15314 322.32812 316.4344L326.54688 316.4344ZM328.0 313.21564Q328.0 311.6844 328.3125 310.7625Q328.625 309.825 329.23438 309.325Q329.85938 308.825 330.79688 308.825Q331.48438 308.825 332.0 309.10626Q332.53125 309.3875 332.875 309.91876Q333.21875 310.4344 333.40625 311.1844Q333.59375 311.9344 333.59375 313.21564Q333.59375 314.73126 333.28125 315.65314Q332.98438 316.575 332.35938 317.09064Q331.75 317.59064 330.79688 317.59064Q329.5625 317.59064 328.84375 316.7Q328.0 315.6375 328.0 313.21564ZM329.07812 313.21564Q329.07812 315.325 329.57812 316.02814Q330.07812 316.73126 330.79688 316.73126Q331.53125 316.73126 332.01562 316.02814Q332.51562 315.325 332.51562 313.21564Q332.51562 311.09064 332.01562 310.40314Q331.53125 309.7 330.78125 309.7Q330.0625 309.7 329.625 310.3094Q329.07812 311.09064 329.07812 313.21564ZM338.96875 317.45L337.92188 317.45L337.92188 310.73126Q337.53125 311.09064 336.90625 311.46564Q336.29688 311.825 335.8125 311.9969L335.8125 310.98126Q336.6875 310.5594 337.34375 309.98126Q338.01562 309.3875 338.29688 308.825L338.96875 308.825L338.96875 317.45ZM347.46875 310.96564L346.42188 311.04376Q346.28125 310.41876 346.03125 310.1375Q345.59375 309.6844 344.96875 309.6844Q344.46875 309.6844 344.07812 309.96564Q343.59375 310.34064 343.29688 311.04376Q343.01562 311.73126 343.0 313.0125Q343.375 312.4344 343.92188 312.15314Q344.48438 311.8719 345.09375 311.8719Q346.14062 311.8719 346.875 312.65314Q347.625 313.4344 347.625 314.65314Q347.625 315.46564 347.26562 316.16876Q346.92188 316.85626 346.3125 317.23126Q345.70312 317.59064 344.9375 317.59064Q343.60938 317.59064 342.78125 316.6219Q341.95312 315.65314 341.95312 313.4344Q341.95312 310.9344 342.875 309.8094Q343.67188 308.825 345.03125 308.825Q346.04688 308.825 346.6875 309.40314Q347.34375 309.96564 347.46875 310.96564ZM343.17188 314.66876Q343.17188 315.21564 343.39062 315.71564Q343.625 316.2 344.03125 316.46564Q344.45312 316.73126 344.92188 316.73126Q345.57812 316.73126 346.0625 316.2Q346.54688 315.65314 346.54688 314.73126Q346.54688 313.84064 346.0625 313.325Q345.59375 312.8094 344.875 312.8094Q344.15625 312.8094 343.65625 313.325Q343.17188 313.84064 343.17188 314.66876Z" fill-rule="nonzero"/><path fill="#000000" d="M422.60406 316.4344L422.60406 317.45L416.91656 317.45Q416.91656 317.075 417.04156 316.71564Q417.2603 316.1375 417.72906 315.575Q418.21344 315.0125 419.1197 314.27814Q420.52594 313.1219 421.0103 312.45Q421.5103 311.77814 421.5103 311.1844Q421.5103 310.5594 421.0572 310.1375Q420.60406 309.7 419.8853 309.7Q419.1197 309.7 418.66656 310.15314Q418.21344 310.60626 418.1978 311.41876L417.1197 311.3094Q417.22906 310.09064 417.9478 309.46564Q418.6822 308.825 419.91656 308.825Q421.15094 308.825 421.8697 309.5125Q422.58844 310.2 422.58844 311.21564Q422.58844 311.73126 422.3697 312.23126Q422.16656 312.71564 421.66656 313.27814Q421.1822 313.825 420.0572 314.77814Q419.10406 315.575 418.8228 315.8719Q418.5572 316.15314 418.3853 316.4344L422.60406 316.4344ZM424.0572 313.21564Q424.0572 311.6844 424.3697 310.7625Q424.6822 309.825 425.29156 309.325Q425.91656 308.825 426.85406 308.825Q427.54156 308.825 428.0572 309.10626Q428.58844 309.3875 428.9322 309.91876Q429.27594 310.4344 429.46344 311.1844Q429.65094 311.9344 429.65094 313.21564Q429.65094 314.73126 429.33844 315.65314Q429.04156 316.575 428.41656 317.09064Q427.8072 317.59064 426.85406 317.59064Q425.6197 317.59064 424.90094 316.7Q424.0572 315.6375 424.0572 313.21564ZM425.1353 313.21564Q425.1353 315.325 425.6353 316.02814Q426.1353 316.73126 426.85406 316.73126Q427.58844 316.73126 428.0728 316.02814Q428.5728 315.325 428.5728 313.21564Q428.5728 311.09064 428.0728 310.40314Q427.58844 309.7 426.83844 309.7Q426.1197 309.7 425.6822 310.3094Q425.1353 311.09064 425.1353 313.21564ZM435.02594 317.45L433.97906 317.45L433.97906 310.73126Q433.58844 311.09064 432.96344 311.46564Q432.35406 311.825 431.8697 311.9969L431.8697 310.98126Q432.7447 310.5594 433.40094 309.98126Q434.0728 309.3875 434.35406 308.825L435.02594 308.825L435.02594 317.45ZM439.6822 312.79376Q439.02594 312.54376 438.6978 312.10626Q438.3853 311.65314 438.3853 311.04376Q438.3853 310.10626 439.0572 309.46564Q439.7447 308.825 440.85406 308.825Q441.97906 308.825 442.66656 309.48126Q443.35406 310.1375 443.35406 311.075Q443.35406 311.66876 443.04156 312.10626Q442.72906 312.54376 442.08844 312.79376Q442.8853 313.04376 443.29156 313.6219Q443.6978 314.2 443.6978 314.9969Q443.6978 316.09064 442.91656 316.84064Q442.15094 317.59064 440.8697 317.59064Q439.60406 317.59064 438.8228 316.84064Q438.04156 316.09064 438.04156 314.96564Q438.04156 314.1219 438.46344 313.5594Q438.90094 312.9969 439.6822 312.79376ZM439.46344 310.9969Q439.46344 311.60626 439.85406 311.9969Q440.2603 312.3875 440.8853 312.3875Q441.4947 312.3875 441.8853 312.0125Q442.27594 311.6219 442.27594 311.0594Q442.27594 310.48126 441.8697 310.09064Q441.46344 309.6844 440.8697 309.6844Q440.2603 309.6844 439.85406 310.075Q439.46344 310.46564 439.46344 310.9969ZM439.1353 314.96564Q439.1353 315.41876 439.33844 315.84064Q439.5572 316.2625 439.97906 316.4969Q440.40094 316.73126 440.8853 316.73126Q441.6353 316.73126 442.1197 316.2469Q442.6197 315.7625 442.6197 315.0125Q442.6197 314.2469 442.1197 313.7469Q441.6197 313.2469 440.85406 313.2469Q440.10406 313.2469 439.6197 313.7469Q439.1353 314.23126 439.1353 314.96564Z" fill-rule="nonzero"/><path fill="#000000" d="M518.66125 316.4344L518.66125 317.45L512.97375 317.45Q512.97375 317.075 513.09875 316.71564Q513.3175 316.1375 513.78625 315.575Q514.2706 315.0125 515.1769 314.27814Q516.5831 313.1219 517.0675 312.45Q517.5675 311.77814 517.5675 311.1844Q517.5675 310.5594 517.1144 310.1375Q516.66125 309.7 515.9425 309.7Q515.1769 309.7 514.72375 310.15314Q514.2706 310.60626 514.255 311.41876L513.1769 311.3094Q513.28625 310.09064 514.005 309.46564Q514.7394 308.825 515.97375 308.825Q517.2081 308.825 517.9269 309.5125Q518.6456 310.2 518.6456 311.21564Q518.6456 311.73126 518.4269 312.23126Q518.22375 312.71564 517.72375 313.27814Q517.2394 313.825 516.1144 314.77814Q515.16125 315.575 514.88 315.8719Q514.6144 316.15314 514.4425 316.4344L518.66125 316.4344ZM520.1144 313.21564Q520.1144 311.6844 520.4269 310.7625Q520.7394 309.825 521.34875 309.325Q521.97375 308.825 522.91125 308.825Q523.59875 308.825 524.1144 309.10626Q524.6456 309.3875 524.9894 309.91876Q525.3331 310.4344 525.5206 311.1844Q525.7081 311.9344 525.7081 313.21564Q525.7081 314.73126 525.3956 315.65314Q525.09875 316.575 524.47375 317.09064Q523.8644 317.59064 522.91125 317.59064Q521.6769 317.59064 520.9581 316.7Q520.1144 315.6375 520.1144 313.21564ZM521.1925 313.21564Q521.1925 315.325 521.6925 316.02814Q522.1925 316.73126 522.91125 316.73126Q523.6456 316.73126 524.13 316.02814Q524.63 315.325 524.63 313.21564Q524.63 311.09064 524.13 310.40314Q523.6456 309.7 522.8956 309.7Q522.1769 309.7 521.7394 310.3094Q521.1925 311.09064 521.1925 313.21564ZM532.66125 316.4344L532.66125 317.45L526.97375 317.45Q526.97375 317.075 527.09875 316.71564Q527.3175 316.1375 527.78625 315.575Q528.2706 315.0125 529.1769 314.27814Q530.5831 313.1219 531.0675 312.45Q531.5675 311.77814 531.5675 311.1844Q531.5675 310.5594 531.1144 310.1375Q530.66125 309.7 529.9425 309.7Q529.1769 309.7 528.72375 310.15314Q528.2706 310.60626 528.255 311.41876L527.1769 311.3094Q527.28625 310.09064 528.005 309.46564Q528.7394 308.825 529.97375 308.825Q531.2081 308.825 531.9269 309.5125Q532.6456 310.2 532.6456 311.21564Q532.6456 311.73126 532.4269 312.23126Q532.22375 312.71564 531.72375 313.27814Q531.2394 313.825 530.1144 314.77814Q529.16125 315.575 528.88 315.8719Q528.6144 316.15314 528.4425 316.4344L532.66125 316.4344ZM534.1144 313.21564Q534.1144 311.6844 534.4269 310.7625Q534.7394 309.825 535.34875 309.325Q535.97375 308.825 536.91125 308.825Q537.59875 308.825 538.1144 309.10626Q538.6456 309.3875 538.9894 309.91876Q539.3331 310.4344 539.5206 311.1844Q539.7081 311.9344 539.7081 313.21564Q539.7081 314.73126 539.3956 315.65314Q539.09875 316.575 538.47375 317.09064Q537.8644 317.59064 536.91125 317.59064Q535.6769 317.59064 534.9581 316.7Q534.1144 315.6375 534.1144 313.21564ZM535.1925 313.21564Q535.1925 315.325 535.6925 316.02814Q536.1925 316.73126 536.91125 316.73126Q537.6456 316.73126 538.13 316.02814Q538.63 315.325 538.63 313.21564Q538.63 311.09064 538.13 310.40314Q537.6456 309.7 536.8956 309.7Q536.1769 309.7 535.7394 310.3094Q535.1925 311.09064 535.1925 313.21564Z" fill-rule="nonzero"/><path fill="#757575" d="M20.409374 37.55L20.409374 23.2375L22.315624 23.2375L22.315624 37.55L20.409374 37.55ZM36.940624 36.01875Q38.26875 36.925 39.378124 37.346874L38.815624 38.659374Q37.26875 38.1125 35.7375 36.909374Q34.14375 37.8 32.221874 37.8Q30.284374 37.8 28.690624 36.8625Q27.1125 35.925 26.253124 34.221874Q25.409374 32.51875 25.409374 30.39375Q25.409374 28.26875 26.26875 26.534374Q27.128124 24.8 28.70625 23.89375Q30.3 22.971874 32.26875 22.971874Q34.253124 22.971874 35.83125 23.925Q37.425 24.8625 38.253124 26.565624Q39.096874 28.253124 39.096874 30.378124Q39.096874 32.14375 38.565624 33.565624Q38.034374 34.971874 36.940624 36.01875ZM32.76875 33.596874Q34.409374 34.05 35.471874 34.95625Q37.14375 33.440624 37.14375 30.378124Q37.14375 28.64375 36.55 27.346874Q35.971874 26.05 34.83125 25.33125Q33.690624 24.6125 32.26875 24.6125Q30.159374 24.6125 28.753124 26.065624Q27.3625 27.503124 27.3625 30.39375Q27.3625 33.190624 28.7375 34.690624Q30.128124 36.175 32.26875 36.175Q33.284374 36.175 34.190624 35.784374Q33.3 35.221874 32.315624 34.971874L32.76875 33.596874ZM40.51875 37.55L46.01875 23.2375L48.065624 23.2375L53.925 37.55L51.76875 37.55L50.096874 33.20625L44.1125 33.20625L42.534374 37.55L40.51875 37.55ZM44.659374 31.675L49.503124 31.675L48.01875 27.70625Q47.33125 25.89375 47.003124 24.7375Q46.721874 26.1125 46.221874 27.471874L44.659374 31.675ZM60.8625 37.55L60.8625 23.2375L62.628124 23.2375L62.628124 28.3625Q63.8625 26.940624 65.7375 26.940624Q66.87813 26.940624 67.72188 27.39375Q68.58125 27.846874 68.94063 28.659374Q69.31563 29.45625 69.31563 30.971874L69.31563 37.55L67.56563 37.55L67.56563 30.971874Q67.56563 29.659374 66.9875 29.065624Q66.40938 28.45625 65.37813 28.45625Q64.59688 28.45625 63.89375 28.8625Q63.20625 29.26875 62.909374 29.971874Q62.628124 30.659374 62.628124 31.878124L62.628124 37.55L60.8625 37.55ZM70.87813 25.253124L70.87813 23.2375L72.64375 23.2375L72.64375 25.253124L70.87813 25.253124ZM70.87813 37.55L70.87813 27.175L72.64375 27.175L72.64375 37.55L70.87813 37.55ZM74.15938 34.45625L75.90938 34.175Q76.05 35.221874 76.72188 35.784374Q77.39375 36.33125 78.59688 36.33125Q79.8 36.33125 80.37813 35.846874Q80.97188 35.346874 80.97188 34.690624Q80.97188 34.096874 80.45625 33.753124Q80.09688 33.51875 78.65938 33.159374Q76.72188 32.659374 75.97188 32.315624Q75.2375 31.95625 74.84688 31.33125Q74.45625 30.690624 74.45625 29.925Q74.45625 29.2375 74.76875 28.64375Q75.09688 28.05 75.64375 27.659374Q76.05 27.3625 76.75313 27.159374Q77.47188 26.940624 78.28438 26.940624Q79.50313 26.940624 80.425 27.3Q81.34688 27.64375 81.78438 28.253124Q82.22188 28.846874 82.39375 29.846874L80.675 30.08125Q80.55 29.284374 79.9875 28.846874Q79.425 28.39375 78.40938 28.39375Q77.19063 28.39375 76.675 28.8Q76.15938 29.190624 76.15938 29.721874Q76.15938 30.065624 76.37813 30.346874Q76.58125 30.628124 77.05 30.815624Q77.31563 30.909374 78.59688 31.253124Q80.47188 31.753124 81.20625 32.08125Q81.94063 32.39375 82.3625 33.003124Q82.78438 33.596874 82.78438 34.503124Q82.78438 35.378124 82.26875 36.159374Q81.75313 36.940624 80.78438 37.3625Q79.81563 37.784374 78.59688 37.784374Q76.58125 37.784374 75.51875 36.940624Q74.45625 36.096874 74.15938 34.45625ZM88.70625 35.971874L88.95625 37.534374Q88.22188 37.690624 87.62813 37.690624Q86.675 37.690624 86.14375 37.39375Q85.62813 37.08125 85.40938 36.596874Q85.19063 36.096874 85.19063 34.51875L85.19063 28.55L83.90938 28.55L83.90938 27.175L85.19063 27.175L85.19063 24.6125L86.94063 23.55L86.94063 27.175L88.70625 27.175L88.70625 28.55L86.94063 28.55L86.94063 34.6125Q86.94063 35.3625 87.03438 35.58125Q87.12813 35.784374 87.33125 35.925Q87.55 36.05 87.94063 36.05Q88.22188 36.05 88.70625 35.971874ZM90.22188 32.3625Q90.22188 29.4875 91.81563 28.096874Q93.15938 26.940624 95.08125 26.940624Q97.22188 26.940624 98.56563 28.346874Q99.925 29.753124 99.925 32.221874Q99.925 34.221874 99.33125 35.378124Q98.7375 36.51875 97.58125 37.159374Q96.44063 37.784374 95.08125 37.784374Q92.89375 37.784374 91.55 36.39375Q90.22188 34.9875 90.22188 32.3625ZM92.01875 32.3625Q92.01875 34.3625 92.87813 35.346874Q93.75313 36.33125 95.08125 36.33125Q96.39375 36.33125 97.25313 35.346874Q98.12813 34.346874 98.12813 32.3Q98.12813 30.378124 97.25313 29.39375Q96.37813 28.39375 95.08125 28.39375Q93.75313 28.39375 92.87813 29.39375Q92.01875 30.378124 92.01875 32.3625ZM94.1125 25.89375L95.40938 23.159374L97.70625 23.159374L95.56563 25.89375L94.1125 25.89375ZM101.84688 37.55L101.84688 27.175L103.425 27.175L103.425 28.753124Q104.03438 27.64375 104.55 27.3Q105.06563 26.940624 105.675 26.940624Q106.56563 26.940624 107.4875 27.503124L106.87813 29.14375Q106.2375 28.753124 105.59688 28.753124Q105.01875 28.753124 104.55 29.1125Q104.09688 29.45625 103.89375 30.065624Q103.6125 31.003124 103.6125 32.1125L103.6125 37.55L101.84688 37.55ZM108.87813 25.253124L108.87813 23.2375L110.64375 23.2375L110.64375 25.253124L108.87813 25.253124ZM108.87813 37.55L108.87813 27.175L110.64375 27.175L110.64375 37.55L108.87813 37.55ZM119.64375 33.753124L121.3625 33.971874Q121.08125 35.76875 119.90938 36.784374Q118.75313 37.784374 117.05 37.784374Q114.925 37.784374 113.62813 36.39375Q112.33125 35.003124 112.33125 32.409374Q112.33125 30.721874 112.87813 29.471874Q113.44063 28.20625 114.58125 27.58125Q115.72188 26.940624 117.06563 26.940624Q118.75313 26.940624 119.81563 27.8Q120.89375 28.659374 121.20625 30.221874L119.4875 30.4875Q119.25313 29.440624 118.62813 28.925Q118.00313 28.39375 117.12813 28.39375Q115.8 28.39375 114.97188 29.346874Q114.14375 30.3 114.14375 32.346874Q114.14375 34.440624 114.94063 35.39375Q115.7375 36.33125 117.03438 36.33125Q118.06563 36.33125 118.75313 35.70625Q119.45625 35.065624 119.64375 33.753124ZM122.22188 32.3625Q122.22188 29.4875 123.81563 28.096874Q125.15938 26.940624 127.08125 26.940624Q129.22188 26.940624 130.56563 28.346874Q131.925 29.753124 131.925 32.221874Q131.925 34.221874 131.33125 35.378124Q130.7375 36.51875 129.58125 37.159374Q128.44063 37.784374 127.08125 37.784374Q124.89375 37.784374 123.55 36.39375Q122.22188 34.9875 122.22188 32.3625ZM124.01875 32.3625Q124.01875 34.3625 124.87813 35.346874Q125.75313 36.33125 127.08125 36.33125Q128.39375 36.33125 129.25313 35.346874Q130.12813 34.346874 130.12813 32.3Q130.12813 30.378124 129.25313 29.39375Q128.37813 28.39375 127.08125 28.39375Q125.75313 28.39375 124.87813 29.39375Q124.01875 30.378124 124.01875 32.3625ZM143.22188 41.753124Q141.76875 39.925 140.76875 37.471874Q139.76875 35.003124 139.76875 32.3625Q139.76875 30.034374 140.51875 27.909374Q141.39375 25.440624 143.22188 22.9875L144.4875 22.9875Q143.3 25.01875 142.925 25.89375Q142.33125 27.2375 141.9875 28.70625Q141.56563 30.534374 141.56563 32.378124Q141.56563 37.065624 144.4875 41.753124L143.22188 41.753124ZM155.6125 35.8625L155.6125 37.55L146.15938 37.55Q146.14375 36.909374 146.3625 36.33125Q146.72188 35.3625 147.51875 34.425Q148.31563 33.4875 149.81563 32.253124Q152.15938 30.346874 152.97188 29.2375Q153.8 28.1125 153.8 27.1125Q153.8 26.065624 153.05 25.346874Q152.3 24.628124 151.09688 24.628124Q149.83125 24.628124 149.06563 25.39375Q148.3 26.159374 148.3 27.503124L146.4875 27.315624Q146.675 25.3 147.87813 24.2375Q149.09688 23.175 151.14375 23.175Q153.19063 23.175 154.39375 24.315624Q155.59688 25.45625 155.59688 27.14375Q155.59688 28.003124 155.2375 28.846874Q154.89375 29.675 154.08125 30.596874Q153.26875 31.503124 151.37813 33.1125Q149.78438 34.440624 149.33125 34.909374Q148.89375 35.378124 148.59688 35.8625L155.6125 35.8625ZM157.37813 30.4875Q157.37813 27.95625 157.89375 26.409374Q158.425 24.846874 159.45625 24.01875Q160.4875 23.175 162.05 23.175Q163.20625 23.175 164.06563 23.64375Q164.94063 24.096874 165.50313 24.971874Q166.06563 25.846874 166.39375 27.1125Q166.72188 28.3625 166.72188 30.4875Q166.72188 33.003124 166.19063 34.55Q165.675 36.096874 164.64375 36.95625Q163.62813 37.8 162.05 37.8Q159.97188 37.8 158.8 36.315624Q157.37813 34.51875 157.37813 30.4875ZM159.19063 30.4875Q159.19063 34.01875 160.00313 35.190624Q160.83125 36.346874 162.05 36.346874Q163.25313 36.346874 164.08125 35.175Q164.90938 34.003124 164.90938 30.4875Q164.90938 26.95625 164.08125 25.8Q163.25313 24.628124 162.03438 24.628124Q160.81563 24.628124 160.09688 25.659374Q159.19063 26.95625 159.19063 30.4875ZM175.00313 37.55L173.2375 37.55L173.2375 26.346874Q172.6125 26.95625 171.58125 27.565624Q170.55 28.159374 169.72188 28.471874L169.72188 26.76875Q171.20625 26.08125 172.3 25.096874Q173.40938 24.096874 173.8625 23.175L175.00313 23.175L175.00313 37.55ZM186.00313 37.55L184.2375 37.55L184.2375 26.346874Q183.6125 26.95625 182.58125 27.565624Q181.55 28.159374 180.72188 28.471874L180.72188 26.76875Q182.20625 26.08125 183.3 25.096874Q184.40938 24.096874 184.8625 23.175L186.00313 23.175L186.00313 37.55ZM190.19063 33.253124L190.19063 31.4875L195.58125 31.4875L195.58125 33.253124L190.19063 33.253124ZM206.6125 35.8625L206.6125 37.55L197.15938 37.55Q197.14375 36.909374 197.3625 36.33125Q197.72188 35.3625 198.51875 34.425Q199.31563 33.4875 200.81563 32.253124Q203.15938 30.346874 203.97188 29.2375Q204.8 28.1125 204.8 27.1125Q204.8 26.065624 204.05 25.346874Q203.3 24.628124 202.09688 24.628124Q200.83125 24.628124 200.06563 25.39375Q199.3 26.159374 199.3 27.503124L197.4875 27.315624Q197.675 25.3 198.87813 24.2375Q200.09688 23.175 202.14375 23.175Q204.19063 23.175 205.39375 24.315624Q206.59688 25.45625 206.59688 27.14375Q206.59688 28.003124 206.2375 28.846874Q205.89375 29.675 205.08125 30.596874Q204.26875 31.503124 202.37813 33.1125Q200.78438 34.440624 200.33125 34.909374Q199.89375 35.378124 199.59688 35.8625L206.6125 35.8625ZM208.37813 30.4875Q208.37813 27.95625 208.89375 26.409374Q209.425 24.846874 210.45625 24.01875Q211.4875 23.175 213.05 23.175Q214.20625 23.175 215.06563 23.64375Q215.94063 24.096874 216.50313 24.971874Q217.06563 25.846874 217.39375 27.1125Q217.72188 28.3625 217.72188 30.4875Q217.72188 33.003124 217.19063 34.55Q216.675 36.096874 215.64375 36.95625Q214.62813 37.8 213.05 37.8Q210.97188 37.8 209.8 36.315624Q208.37813 34.51875 208.37813 30.4875ZM210.19063 30.4875Q210.19063 34.01875 211.00313 35.190624Q211.83125 36.346874 213.05 36.346874Q214.25313 36.346874 215.08125 35.175Q215.90938 34.003124 215.90938 30.4875Q215.90938 26.95625 215.08125 25.8Q214.25313 24.628124 213.03438 24.628124Q211.81563 24.628124 211.09688 25.659374Q210.19063 26.95625 210.19063 30.4875ZM228.6125 35.8625L228.6125 37.55L219.15938 37.55Q219.14375 36.909374 219.3625 36.33125Q219.72188 35.3625 220.51875 34.425Q221.31563 33.4875 222.81563 32.253124Q225.15938 30.346874 225.97188 29.2375Q226.8 28.1125 226.8 27.1125Q226.8 26.065624 226.05 25.346874Q225.3 24.628124 224.09688 24.628124Q222.83125 24.628124 222.06563 25.39375Q221.3 26.159374 221.3 27.503124L219.4875 27.315624Q219.675 25.3 220.87813 24.2375Q222.09688 23.175 224.14375 23.175Q226.19063 23.175 227.39375 24.315624Q228.59688 25.45625 228.59688 27.14375Q228.59688 28.003124 228.2375 28.846874Q227.89375 29.675 227.08125 30.596874Q226.26875 31.503124 224.37813 33.1125Q222.78438 34.440624 222.33125 34.909374Q221.89375 35.378124 221.59688 35.8625L228.6125 35.8625ZM237.00313 37.55L235.2375 37.55L235.2375 26.346874Q234.6125 26.95625 233.58125 27.565624Q232.55 28.159374 231.72188 28.471874L231.72188 26.76875Q233.20625 26.08125 234.3 25.096874Q235.40938 24.096874 235.8625 23.175L237.00313 23.175L237.00313 37.55ZM243.01875 41.753124L241.76875 41.753124Q244.675 37.065624 244.675 32.378124Q244.675 30.534374 244.26875 28.7375Q243.925 27.26875 243.33125 25.925Q242.95625 25.034374 241.76875 22.9875L243.01875 22.9875Q244.8625 25.440624 245.7375 27.909374Q246.4875 30.034374 246.4875 32.3625Q246.4875 35.003124 245.47188 37.471874Q244.47188 39.925 243.01875 41.753124Z" fill-rule="nonzero"/></svg>