<svg version="1.1" viewBox="0.0 0.0 600.0 371.0" fill="none" stroke="none" stroke-linecap="square" stroke-miterlimit="10" width="600" height="371" xmlns:xlink="http://www.w3.org/1999/xlink" xmlns="http://www.w3.org/2000/svg"><path fill="#ffffff" d="M0 0L600.0 0L600.0 371.0L0 371.0L0 0Z" fill-rule="nonzero"/><path stroke="#cccccc" stroke-width="1.0" stroke-linecap="butt" d="M133.5 61.5L133.5 300.5" fill-rule="nonzero"/><path stroke="#cccccc" stroke-width="1.0" stroke-linecap="butt" d="M231.5 61.5L231.5 300.5" fill-rule="nonzero"/><path stroke="#cccccc" stroke-width="1.0" stroke-linecap="butt" d="M329.5 61.5L329.5 300.5" fill-rule="nonzero"/><path stroke="#cccccc" stroke-width="1.0" stroke-linecap="butt" d="M427.5 61.5L427.5 300.5" fill-rule="nonzero"/><path stroke="#cccccc" stroke-width="1.0" stroke-linecap="butt" d="M525.5 61.5L525.5 300.5" fill-rule="nonzero"/><path stroke="#333333" stroke-width="1.0" stroke-linecap="butt" d="M77.5 300.5L581.5 300.5" fill-rule="nonzero"/><path stroke="#cccccc" stroke-width="1.0" stroke-linecap="butt" d="M77.5 252.5L581.5 252.5" fill-rule="nonzero"/><path stroke="#cccccc" stroke-width="1.0" stroke-linecap="butt" d="M77.5 205.5L581.5 205.5" fill-rule="nonzero"/><path stroke="#cccccc" stroke-width="1.0" stroke-linecap="butt" d="M77.5 157.5L581.5 157.5" fill-rule="nonzero"/><path stroke="#cccccc" stroke-width="1.0" stroke-linecap="butt" d="M77.5 109.5L581.5 109.5" fill-rule="nonzero"/><path stroke="#cccccc" stroke-width="1.0" stroke-linecap="butt" d="M77.5 61.5L581.5 61.5" fill-rule="nonzero"/><clipPath id="id_0"><path d="M77.55 61.916668L581.45 61.916668L581.45 300.45L77.55 300.45L77.55 61.916668Z" clip-rule="nonzero"/></clipPath><path fill="#4285f4" clip-path="url(#id_0)" d="M88.86077 192.58522C88.86077 195.07051 86.846054 197.08522 84.36077 197.08522C81.875496 197.08522 79.86077 195.07051 79.86077 192.58522C79.86077 190.09995 81.875496 188.08522 84.36077 188.08522C86.846054 188.08522 88.86077 190.09995 88.86077 192.58522Z" fill-rule="nonzero"/><path fill="#4285f4" clip-path="url(#id_0)" d="M137.88863 207.85136C137.88863 210.33664 135.8739 212.35136 133.38863 212.35136C130.90334 212.35136 128.88863 210.33664 128.88863 207.85136C128.88863 205.36607 130.90334 203.35136 133.38863 203.35136C135.8739 203.35136 137.88863 205.36607 137.88863 207.85136Z" fill-rule="nonzero"/><path fill="#4285f4" clip-path="url(#id_0)" d="M186.91646 201.6972C186.91646 204.18248 184.90175 206.1972 182.41646 206.1972C179.93118 206.1972 177.91646 204.18248 177.91646 201.6972C177.91646 199.21191 179.93118 197.1972 182.41646 197.1972C184.90175 197.1972 186.91646 199.21191 186.91646 201.6972Z" fill-rule="nonzero"/><path fill="#4285f4" clip-path="url(#id_0)" d="M235.9443 192.15587C235.9443 194.64114 233.9296 196.65587 231.4443 196.65587C228.95903 196.65587 226.9443 194.64114 226.9443 192.15587C226.9443 189.67058 228.95903 187.65587 231.4443 187.65587C233.9296 187.65587 235.9443 189.67058 235.9443 192.15587Z" fill-rule="nonzero"/><path fill="#4285f4" clip-path="url(#id_0)" d="M284.97217 255.79655C284.97217 258.28183 282.95743 260.29657 280.47217 260.29657C277.98688 260.29657 275.97217 258.28183 275.97217 255.79655C275.97217 253.31128 277.98688 251.29655 280.47217 251.29655C282.95743 251.29655 284.97217 253.31128 284.97217 255.79655Z" fill-rule="nonzero"/><path fill="#4285f4" clip-path="url(#id_0)" d="M334.0 185.47693C334.0 187.96222 331.9853 189.97693 329.5 189.97693C327.0147 189.97693 325.0 187.96222 325.0 185.47693C325.0 182.99165 327.0147 180.97693 329.5 180.97693C331.9853 180.97693 334.0 182.99165 334.0 185.47693Z" fill-rule="nonzero"/><path fill="#4285f4" clip-path="url(#id_0)" d="M383.02783 98.17374C383.02783 100.65901 381.01312 102.67374 378.52783 102.67374C376.04257 102.67374 374.02783 100.65901 374.02783 98.17374C374.02783 95.68845 376.04257 93.67374 378.52783 93.67374C381.01312 93.67374 383.02783 95.68845 383.02783 98.17374Z" fill-rule="nonzero"/><path fill="#4285f4" clip-path="url(#id_0)" d="M432.0557 161.14653C432.0557 163.63182 430.041 165.64653 427.5557 165.64653C425.0704 165.64653 423.0557 163.63182 423.0557 161.14653C423.0557 158.66125 425.0704 156.64653 427.5557 156.64653C430.041 156.64653 432.0557 158.66125 432.0557 161.14653Z" fill-rule="nonzero"/><path fill="#4285f4" clip-path="url(#id_0)" d="M481.08353 244.15613C481.08353 246.64142 479.06882 248.65613 476.58353 248.65613C474.09827 248.65613 472.08353 246.64142 472.08353 244.15613C472.08353 241.67085 474.09827 239.65613 476.58353 239.65613C479.06882 239.65613 481.08353 241.67085 481.08353 244.15613Z" fill-rule="nonzero"/><path fill="#4285f4" clip-path="url(#id_0)" d="M530.1114 208.32843C530.1114 210.8137 528.0967 212.82843 525.6114 212.82843C523.1261 212.82843 521.1114 210.8137 521.1114 208.32843C521.1114 205.84314 523.1261 203.82843 525.6114 203.82843C528.0967 203.82843 530.1114 205.84314 530.1114 208.32843Z" fill-rule="nonzero"/><path fill="#4285f4" clip-path="url(#id_0)" d="M579.1392 296.44263C579.1392 298.92792 577.1245 300.94263 574.6392 300.94263C572.15393 300.94263 570.1392 298.92792 570.1392 296.44263C570.1392 293.95737 572.15393 291.94263 574.6392 291.94263C577.1245 291.94263 579.1392 293.95737 579.1392 296.44263Z" fill-rule="nonzero"/><path fill="#000000" d="M318.98438 349.45L322.28125 340.85626L323.5 340.85626L327.01562 349.45L325.73438 349.45L324.71875 346.84064L321.14062 346.84064L320.1875 349.45L318.98438 349.45ZM321.46875 345.91876L324.375 345.91876L323.48438 343.54376Q323.0625 342.46564 322.875 341.7625Q322.70312 342.59064 322.40625 343.40314L321.46875 345.91876ZM326.79688 349.45L326.79688 343.23126L327.73438 343.23126L327.73438 344.10626Q328.42188 343.09064 329.71875 343.09064Q330.28125 343.09064 330.75 343.29376Q331.23438 343.4969 331.46875 343.825Q331.70312 344.15314 331.79688 344.59064Q331.84375 344.8875 331.84375 345.6219L331.84375 349.45L330.79688 349.45L330.79688 345.66876Q330.79688 345.0125 330.67188 344.7Q330.54688 344.3875 330.23438 344.2Q329.92188 343.9969 329.5 343.9969Q328.82812 343.9969 328.32812 344.4344Q327.84375 344.85626 327.84375 346.04376L327.84375 349.45L326.79688 349.45ZM333.40625 346.34064Q333.40625 344.60626 334.35938 343.77814Q335.15625 343.09064 336.3125 343.09064Q337.59375 343.09064 338.40625 343.9344Q339.23438 344.7625 339.23438 346.2469Q339.23438 347.45 338.875 348.1375Q338.51562 348.825 337.8125 349.21564Q337.125 349.59064 336.3125 349.59064Q335.01562 349.59064 334.20312 348.7625Q333.40625 347.91876 333.40625 346.34064ZM334.48438 346.34064Q334.48438 347.52814 335.0 348.1219Q335.53125 348.71564 336.3125 348.71564Q337.10938 348.71564 337.625 348.1219Q338.14062 347.52814 338.14062 346.3094Q338.14062 345.15314 337.60938 344.5594Q337.09375 343.96564 336.3125 343.96564Q335.53125 343.96564 335.0 344.5594Q334.48438 345.1375 334.48438 346.34064Z" fill-rule="nonzero"/><path fill="#000000" d="M29.550013 215.26146L20.956263 215.26146L20.956263 214.10521L27.706263 209.58958L20.956263 209.58958L20.956263 208.49583L29.550013 208.49583L29.550013 209.66771L22.800013 214.18333L29.550013 214.18333L29.550013 215.26146ZM22.175013 206.38646L20.956263 206.38646L20.956263 205.32396L22.175013 205.32396L22.175013 206.38646ZM29.550013 206.38646L23.331263 206.38646L23.331263 205.32396L29.550013 205.32396L29.550013 206.38646ZM28.612513 201.08958L29.534388 200.93333Q29.628138 201.38646 29.628138 201.73021Q29.628138 202.30833 29.456263 202.62083Q29.268763 202.93333 28.971888 203.07396Q28.675013 203.19896 27.721888 203.19896L24.143763 203.19896L24.143763 203.96458L23.331263 203.96458L23.331263 203.19896L21.784388 203.19896L21.159388 202.15208L23.331263 202.15208L23.331263 201.08958L24.143763 201.08958L24.143763 202.15208L27.784388 202.15208Q28.237513 202.15208 28.362513 202.10521Q28.487513 202.04271 28.565638 201.91771Q28.643763 201.79271 28.643763 201.55833Q28.643763 201.37083 28.612513 201.08958ZM29.550013 200.40208L23.331263 200.40208L23.331263 199.44896L24.268763 199.44896Q23.612513 199.08958 23.409388 198.79271Q23.190638 198.48021 23.190638 198.10521Q23.190638 197.57396 23.518763 197.02708L24.503138 197.38646Q24.268763 197.77708 24.268763 198.15208Q24.268763 198.51146 24.487513 198.79271Q24.690638 199.05833 25.065638 199.16771Q25.628138 199.35521 26.284388 199.35521L29.550013 199.35521L29.550013 200.40208ZM26.440638 196.77708Q24.706263 196.77708 23.878138 195.82396Q23.190638 195.02708 23.190638 193.87083Q23.190638 192.58958 24.034388 191.77708Q24.862513 190.94896 26.346888 190.94896Q27.550013 190.94896 28.237513 191.30833Q28.925013 191.66771 29.315638 192.37083Q29.690638 193.05833 29.690638 193.87083Q29.690638 195.16771 28.862513 195.98021Q28.018763 196.77708 26.440638 196.77708ZM26.440638 195.69896Q27.628138 195.69896 28.221888 195.18333Q28.815638 194.65208 28.815638 193.87083Q28.815638 193.07396 28.221888 192.55833Q27.628138 192.04271 26.409388 192.04271Q25.253138 192.04271 24.659388 192.57396Q24.065638 193.08958 24.065638 193.87083Q24.065638 194.65208 24.659388 195.18333Q25.237513 195.69896 26.440638 195.69896ZM30.065638 189.58958L30.221888 188.55833Q30.690638 188.49583 30.909388 188.19896Q31.206263 187.80833 31.206263 187.13646Q31.206263 186.40208 30.909388 186.01146Q30.612513 185.60521 30.096888 185.46458Q29.768763 185.37083 28.737513 185.38646Q29.550013 186.07396 29.550013 187.10521Q29.550013 188.38646 28.628138 189.08958Q27.690638 189.79271 26.409388 189.79271Q25.518763 189.79271 24.768763 189.48021Q24.003138 189.15208 23.596888 188.54271Q23.190638 187.93333 23.190638 187.10521Q23.190638 185.99583 24.081263 185.27708L23.331263 185.27708L23.331263 184.30833L28.706263 184.30833Q30.159388 184.30833 30.768763 184.60521Q31.378138 184.90208 31.721888 185.54271Q32.08126 186.18333 32.08126 187.12083Q32.08126 188.23021 31.581263 188.91771Q31.081263 189.60521 30.065638 189.58958ZM26.331263 188.71458Q27.550013 188.71458 28.112513 188.23021Q28.675013 187.74583 28.675013 187.01146Q28.675013 186.27708 28.112513 185.79271Q27.550013 185.29271 26.362513 185.29271Q25.221888 185.29271 24.643763 185.80833Q24.065638 186.30833 24.065638 187.02708Q24.065638 187.73021 24.643763 188.23021Q25.206263 188.71458 26.331263 188.71458ZM27.550013 178.13646L27.675013 177.04271Q28.628138 177.29271 29.159388 177.99583Q29.690638 178.69896 29.690638 179.77708Q29.690638 181.13646 28.846888 181.94896Q28.003138 182.74583 26.487513 182.74583Q24.925013 182.74583 24.065638 181.93333Q23.190638 181.12083 23.190638 179.83958Q23.190638 178.58958 24.034388 177.80833Q24.878138 177.01146 26.425013 177.01146Q26.518763 177.01146 26.706263 177.01146L26.706263 181.65208Q27.737513 181.58958 28.284388 181.07396Q28.815638 180.55833 28.815638 179.77708Q28.815638 179.19896 28.518763 178.79271Q28.206263 178.37083 27.550013 178.13646ZM25.846888 181.58958L25.846888 178.12083Q25.050013 178.18333 24.659388 178.51146Q24.050013 179.02708 24.050013 179.82396Q24.050013 180.55833 24.534388 181.05833Q25.018763 181.54271 25.846888 181.58958ZM21.550013 179.85521L22.550013 180.51146L22.550013 181.73021L20.909388 180.46458L20.909388 179.33958L22.550013 178.01146L22.550013 179.21458L21.550013 179.85521ZM29.550013 175.38646L23.331263 175.38646L23.331263 174.44896L24.206263 174.44896Q23.190638 173.76146 23.190638 172.46458Q23.190638 171.90208 23.393763 171.43333Q23.596888 170.94896 23.925013 170.71458Q24.253138 170.48021 24.690638 170.38646Q24.987513 170.33958 25.721888 170.33958L29.550013 170.33958L29.550013 171.38646L25.768763 171.38646Q25.112513 171.38646 24.800013 171.51146Q24.487513 171.63646 24.300013 171.94896Q24.096888 172.26146 24.096888 172.68333Q24.096888 173.35521 24.534388 173.85521Q24.956263 174.33958 26.143763 174.33958L29.550013 174.33958L29.550013 175.38646ZM22.175013 168.38646L20.956263 168.38646L20.956263 167.32396L22.175013 167.32396L22.175013 168.38646ZM29.550013 168.38646L23.331263 168.38646L23.331263 167.32396L29.550013 167.32396L29.550013 168.38646ZM26.440638 165.77708Q24.706263 165.77708 23.878138 164.82396Q23.190638 164.02708 23.190638 162.87083Q23.190638 161.58958 24.034388 160.77708Q24.862513 159.94896 26.346888 159.94896Q27.550013 159.94896 28.237513 160.30833Q28.925013 160.66771 29.315638 161.37083Q29.690638 162.05833 29.690638 162.87083Q29.690638 164.16771 28.862513 164.98021Q28.018763 165.77708 26.440638 165.77708ZM26.440638 164.69896Q27.628138 164.69896 28.221888 164.18333Q28.815638 163.65208 28.815638 162.87083Q28.815638 162.07396 28.221888 161.55833Q27.628138 161.04271 26.409388 161.04271Q25.253138 161.04271 24.659388 161.57396Q24.065638 162.08958 24.065638 162.87083Q24.065638 163.65208 24.659388 164.18333Q25.237513 164.69896 26.440638 164.69896Z" fill-rule="nonzero"/><path fill="#000000" d="M65.05 300.21564Q65.05 298.6844 65.3625 297.7625Q65.675 296.825 66.28438 296.325Q66.90938 295.825 67.84688 295.825Q68.53438 295.825 69.05 296.10626Q69.58125 296.3875 69.925 296.91876Q70.26875 297.4344 70.45625 298.1844Q70.64375 298.9344 70.64375 300.21564Q70.64375 301.73126 70.33125 302.65314Q70.03438 303.575 69.40938 304.09064Q68.8 304.59064 67.84688 304.59064Q66.6125 304.59064 65.89375 303.7Q65.05 302.6375 65.05 300.21564ZM66.12813 300.21564Q66.12813 302.325 66.62813 303.02814Q67.12813 303.73126 67.84688 303.73126Q68.58125 303.73126 69.06563 303.02814Q69.56563 302.325 69.56563 300.21564Q69.56563 298.09064 69.06563 297.40314Q68.58125 296.7 67.83125 296.7Q67.1125 296.7 66.675 297.3094Q66.12813 298.09064 66.12813 300.21564Z" fill-rule="nonzero"/><path fill="#000000" d="M62.01875 256.74335L60.971874 256.74335L60.971874 250.0246Q60.58125 250.38397 59.95625 250.75897Q59.346874 251.11835 58.8625 251.29022L58.8625 250.2746Q59.7375 249.85272 60.39375 249.2746Q61.065624 248.68085 61.346874 248.11835L62.01875 248.11835L62.01875 256.74335ZM65.05 252.50897Q65.05 250.97772 65.3625 250.05585Q65.675 249.11835 66.28438 248.61835Q66.90938 248.11835 67.84688 248.11835Q68.53438 248.11835 69.05 248.3996Q69.58125 248.68085 69.925 249.2121Q70.26875 249.72772 70.45625 250.47772Q70.64375 251.22772 70.64375 252.50897Q70.64375 254.0246 70.33125 254.94647Q70.03438 255.86835 69.40938 256.38397Q68.8 256.88397 67.84688 256.88397Q66.6125 256.88397 65.89375 255.99335Q65.05 254.93085 65.05 252.50897ZM66.12813 252.50897Q66.12813 254.61835 66.62813 255.32147Q67.12813 256.0246 67.84688 256.0246Q68.58125 256.0246 69.06563 255.32147Q69.56563 254.61835 69.56563 252.50897Q69.56563 250.38397 69.06563 249.69647Q68.58125 248.99335 67.83125 248.99335Q67.1125 248.99335 66.675 249.60272Q66.12813 250.38397 66.12813 252.50897Z" fill-rule="nonzero"/><path fill="#000000" d="M63.596874 208.02104L63.596874 209.03667L57.909374 209.03667Q57.909374 208.66167 58.034374 208.30229Q58.253124 207.72417 58.721874 207.16167Q59.20625 206.59917 60.1125 205.86479Q61.51875 204.70854 62.003124 204.03667Q62.503124 203.36479 62.503124 202.77104Q62.503124 202.14604 62.05 201.72417Q61.596874 201.28667 60.878124 201.28667Q60.1125 201.28667 59.659374 201.73979Q59.20625 202.19292 59.190624 203.00542L58.1125 202.89604Q58.221874 201.67729 58.940624 201.05229Q59.675 200.41167 60.909374 200.41167Q62.14375 200.41167 62.8625 201.09917Q63.58125 201.78667 63.58125 202.80229Q63.58125 203.31792 63.3625 203.81792Q63.159374 204.30229 62.659374 204.86479Q62.175 205.41167 61.05 206.36479Q60.096874 207.16167 59.815624 207.45854Q59.55 207.73979 59.378124 208.02104L63.596874 208.02104ZM65.05 204.80229Q65.05 203.27104 65.3625 202.34917Q65.675 201.41167 66.28438 200.91167Q66.90938 200.41167 67.84688 200.41167Q68.53438 200.41167 69.05 200.69292Q69.58125 200.97417 69.925 201.50542Q70.26875 202.02104 70.45625 202.77104Q70.64375 203.52104 70.64375 204.80229Q70.64375 206.31792 70.33125 207.23979Q70.03438 208.16167 69.40938 208.67729Q68.8 209.17729 67.84688 209.17729Q66.6125 209.17729 65.89375 208.28667Q65.05 207.22417 65.05 204.80229ZM66.12813 204.80229Q66.12813 206.91167 66.62813 207.61479Q67.12813 208.31792 67.84688 208.31792Q68.58125 208.31792 69.06563 207.61479Q69.56563 206.91167 69.56563 204.80229Q69.56563 202.67729 69.06563 201.98979Q68.58125 201.28667 67.83125 201.28667Q67.1125 201.28667 66.675 201.89604Q66.12813 202.67729 66.12813 204.80229Z" fill-rule="nonzero"/><path fill="#000000" d="M58.05 159.06438L59.1125 158.92375Q59.284374 159.81438 59.721874 160.22063Q60.159374 160.61125 60.784374 160.61125Q61.534374 160.61125 62.05 160.09563Q62.565624 159.58 62.565624 158.81438Q62.565624 158.09563 62.08125 157.62688Q61.6125 157.1425 60.878124 157.1425Q60.58125 157.1425 60.128124 157.2675L60.253124 156.33Q60.3625 156.34563 60.425 156.34563Q61.096874 156.34563 61.628124 156.00188Q62.175 155.6425 62.175 154.90813Q62.175 154.33 61.784374 153.955Q61.39375 153.56438 60.76875 153.56438Q60.159374 153.56438 59.7375 153.955Q59.33125 154.34563 59.221874 155.11125L58.159374 154.92375Q58.346874 153.87688 59.034374 153.29875Q59.721874 152.705 60.7375 152.705Q61.440624 152.705 62.034374 153.0175Q62.628124 153.31438 62.940624 153.83Q63.253124 154.34563 63.253124 154.93938Q63.253124 155.48625 62.95625 155.955Q62.659374 156.40813 62.08125 156.67375Q62.83125 156.84563 63.253124 157.40813Q63.675 157.955 63.675 158.79875Q63.675 159.92375 62.846874 160.705Q62.034374 161.48625 60.784374 161.48625Q59.659374 161.48625 58.909374 160.81438Q58.159374 160.12688 58.05 159.06438ZM65.05 157.09563Q65.05 155.56438 65.3625 154.6425Q65.675 153.705 66.28438 153.205Q66.90938 152.705 67.84688 152.705Q68.53438 152.705 69.05 152.98625Q69.58125 153.2675 69.925 153.79875Q70.26875 154.31438 70.45625 155.06438Q70.64375 155.81438 70.64375 157.09563Q70.64375 158.61125 70.33125 159.53313Q70.03438 160.455 69.40938 160.97063Q68.8 161.47063 67.84688 161.47063Q66.6125 161.47063 65.89375 160.58Q65.05 159.5175 65.05 157.09563ZM66.12813 157.09563Q66.12813 159.205 66.62813 159.90813Q67.12813 160.61125 67.84688 160.61125Q68.58125 160.61125 69.06563 159.90813Q69.56563 159.205 69.56563 157.09563Q69.56563 154.97063 69.06563 154.28313Q68.58125 153.58 67.83125 153.58Q67.1125 153.58 66.675 154.18938Q66.12813 154.97063 66.12813 157.09563Z" fill-rule="nonzero"/><path fill="#000000" d="M61.425 113.62334L61.425 111.56084L57.70625 111.56084L57.70625 110.59209L61.628124 105.02959L62.4875 105.02959L62.4875 110.59209L63.64375 110.59209L63.64375 111.56084L62.4875 111.56084L62.4875 113.62334L61.425 113.62334ZM61.425 110.59209L61.425 106.73271L58.7375 110.59209L61.425 110.59209ZM65.05 109.38896Q65.05 107.85771 65.3625 106.93584Q65.675 105.99834 66.28438 105.49834Q66.90938 104.99834 67.84688 104.99834Q68.53438 104.99834 69.05 105.27959Q69.58125 105.56084 69.925 106.09209Q70.26875 106.60771 70.45625 107.35771Q70.64375 108.10771 70.64375 109.38896Q70.64375 110.90459 70.33125 111.82646Q70.03438 112.74834 69.40938 113.26396Q68.8 113.76396 67.84688 113.76396Q66.6125 113.76396 65.89375 112.87334Q65.05 111.81084 65.05 109.38896ZM66.12813 109.38896Q66.12813 111.49834 66.62813 112.20146Q67.12813 112.90459 67.84688 112.90459Q68.58125 112.90459 69.06563 112.20146Q69.56563 111.49834 69.56563 109.38896Q69.56563 107.26396 69.06563 106.57646Q68.58125 105.87334 67.83125 105.87334Q67.1125 105.87334 66.675 106.48271Q66.12813 107.26396 66.12813 109.38896Z" fill-rule="nonzero"/><path fill="#000000" d="M58.05 63.666664L59.159374 63.572914Q59.284374 64.385414 59.721874 64.791664Q60.175 65.197914 60.815624 65.197914Q61.565624 65.197914 62.096874 64.61979Q62.628124 64.041664 62.628124 63.104164Q62.628124 62.197914 62.1125 61.68229Q61.6125 61.15104 60.784374 61.15104Q60.284374 61.15104 59.8625 61.385414Q59.45625 61.61979 59.221874 61.979164L58.2375 61.854164L59.065624 57.447914L63.346874 57.447914L63.346874 58.447914L59.909374 58.447914L59.45625 60.760414Q60.221874 60.21354 61.065624 60.21354Q62.190624 60.21354 62.95625 60.99479Q63.7375 61.77604 63.7375 63.010414Q63.7375 64.166664 63.065624 65.02604Q62.2375 66.05729 60.815624 66.05729Q59.64375 66.05729 58.89375 65.40104Q58.159374 64.74479 58.05 63.666664ZM65.05 61.68229Q65.05 60.15104 65.3625 59.229164Q65.675 58.291664 66.28438 57.791664Q66.90938 57.291664 67.84688 57.291664Q68.53438 57.291664 69.05 57.572914Q69.58125 57.854164 69.925 58.385414Q70.26875 58.90104 70.45625 59.65104Q70.64375 60.40104 70.64375 61.68229Q70.64375 63.197914 70.33125 64.11979Q70.03438 65.041664 69.40938 65.55729Q68.8 66.05729 67.84688 66.05729Q66.6125 66.05729 65.89375 65.166664Q65.05 64.104164 65.05 61.68229ZM66.12813 61.68229Q66.12813 63.791664 66.62813 64.49479Q67.12813 65.197914 67.84688 65.197914Q68.58125 65.197914 69.06563 64.49479Q69.56563 63.791664 69.56563 61.68229Q69.56563 59.55729 69.06563 58.86979Q68.58125 58.166664 67.83125 58.166664Q67.1125 58.166664 66.675 58.77604Q66.12813 59.55729 66.12813 61.68229Z" fill-rule="nonzero"/><path fill="#000000" d="M125.43549 316.4344L125.43549 317.45L119.74799 317.45Q119.74799 317.075 119.87299 316.71564Q120.09174 316.1375 120.56049 315.575Q121.04487 315.0125 121.95112 314.27814Q123.35737 313.1219 123.84174 312.45Q124.34174 311.77814 124.34174 311.1844Q124.34174 310.5594 123.88862 310.1375Q123.43549 309.7 122.71674 309.7Q121.95112 309.7 121.49799 310.15314Q121.04487 310.60626 121.02924 311.41876L119.95112 311.3094Q120.06049 310.09064 120.77924 309.46564Q121.51362 308.825 122.74799 308.825Q123.98237 308.825 124.70112 309.5125Q125.41987 310.2 125.41987 311.21564Q125.41987 311.73126 125.20112 312.23126Q124.99799 312.71564 124.49799 313.27814Q124.01362 313.825 122.88862 314.77814Q121.93549 315.575 121.65424 315.8719Q121.38862 316.15314 121.21674 316.4344L125.43549 316.4344ZM126.88862 313.21564Q126.88862 311.6844 127.20112 310.7625Q127.51362 309.825 128.12299 309.325Q128.74799 308.825 129.68549 308.825Q130.37299 308.825 130.88861 309.10626Q131.41986 309.3875 131.76361 309.91876Q132.10736 310.4344 132.29486 311.1844Q132.48236 311.9344 132.48236 313.21564Q132.48236 314.73126 132.16986 315.65314Q131.87299 316.575 131.24799 317.09064Q130.63861 317.59064 129.68549 317.59064Q128.45111 317.59064 127.73237 316.7Q126.88862 315.6375 126.88862 313.21564ZM127.96674 313.21564Q127.96674 315.325 128.46674 316.02814Q128.96674 316.73126 129.68549 316.73126Q130.41986 316.73126 130.90424 316.02814Q131.40424 315.325 131.40424 313.21564Q131.40424 311.09064 130.90424 310.40314Q130.41986 309.7 129.66986 309.7Q128.95111 309.7 128.51361 310.3094Q127.96674 311.09064 127.96674 313.21564ZM137.85736 317.45L136.81049 317.45L136.81049 310.73126Q136.41986 311.09064 135.79486 311.46564Q135.18549 311.825 134.70111 311.9969L134.70111 310.98126Q135.57611 310.5594 136.23236 309.98126Q136.90424 309.3875 137.18549 308.825L137.85736 308.825L137.85736 317.45ZM146.43549 316.4344L146.43549 317.45L140.74799 317.45Q140.74799 317.075 140.87299 316.71564Q141.09174 316.1375 141.56049 315.575Q142.04486 315.0125 142.95111 314.27814Q144.35736 313.1219 144.84174 312.45Q145.34174 311.77814 145.34174 311.1844Q145.34174 310.5594 144.88861 310.1375Q144.43549 309.7 143.71674 309.7Q142.95111 309.7 142.49799 310.15314Q142.04486 310.60626 142.02924 311.41876L140.95111 311.3094Q141.06049 310.09064 141.77924 309.46564Q142.51361 308.825 143.74799 308.825Q144.98236 308.825 145.70111 309.5125Q146.41986 310.2 146.41986 311.21564Q146.41986 311.73126 146.20111 312.23126Q145.99799 312.71564 145.49799 313.27814Q145.01361 313.825 143.88861 314.77814Q142.93549 315.575 142.65424 315.8719Q142.38861 316.15314 142.21674 316.4344L146.43549 316.4344Z" fill-rule="nonzero"/><path fill="#000000" d="M223.49118 316.4344L223.49118 317.45L217.80368 317.45Q217.80368 317.075 217.92868 316.71564Q218.14743 316.1375 218.61618 315.575Q219.10056 315.0125 220.0068 314.27814Q221.41306 313.1219 221.89743 312.45Q222.39743 311.77814 222.39743 311.1844Q222.39743 310.5594 221.9443 310.1375Q221.49118 309.7 220.77243 309.7Q220.0068 309.7 219.55368 310.15314Q219.10056 310.60626 219.08493 311.41876L218.0068 311.3094Q218.11618 310.09064 218.83493 309.46564Q219.5693 308.825 220.80368 308.825Q222.03806 308.825 222.7568 309.5125Q223.47556 310.2 223.47556 311.21564Q223.47556 311.73126 223.2568 312.23126Q223.05368 312.71564 222.55368 313.27814Q222.0693 313.825 220.9443 314.77814Q219.99118 315.575 219.70993 315.8719Q219.4443 316.15314 219.27243 316.4344L223.49118 316.4344ZM224.9443 313.21564Q224.9443 311.6844 225.2568 310.7625Q225.5693 309.825 226.17868 309.325Q226.80368 308.825 227.74118 308.825Q228.42868 308.825 228.9443 309.10626Q229.47556 309.3875 229.8193 309.91876Q230.16306 310.4344 230.35056 311.1844Q230.53806 311.9344 230.53806 313.21564Q230.53806 314.73126 230.22556 315.65314Q229.92868 316.575 229.30368 317.09064Q228.6943 317.59064 227.74118 317.59064Q226.5068 317.59064 225.78806 316.7Q224.9443 315.6375 224.9443 313.21564ZM226.02243 313.21564Q226.02243 315.325 226.52243 316.02814Q227.02243 316.73126 227.74118 316.73126Q228.47556 316.73126 228.95993 316.02814Q229.45993 315.325 229.45993 313.21564Q229.45993 311.09064 228.95993 310.40314Q228.47556 309.7 227.72556 309.7Q227.0068 309.7 226.5693 310.3094Q226.02243 311.09064 226.02243 313.21564ZM235.91306 317.45L234.86618 317.45L234.86618 310.73126Q234.47556 311.09064 233.85056 311.46564Q233.24118 311.825 232.7568 311.9969L232.7568 310.98126Q233.6318 310.5594 234.28806 309.98126Q234.95993 309.3875 235.24118 308.825L235.91306 308.825L235.91306 317.45ZM242.3193 317.45L242.3193 315.3875L238.60056 315.3875L238.60056 314.41876L242.52243 308.85626L243.3818 308.85626L243.3818 314.41876L244.53806 314.41876L244.53806 315.3875L243.3818 315.3875L243.3818 317.45L242.3193 317.45ZM242.3193 314.41876L242.3193 310.5594L239.6318 314.41876L242.3193 314.41876Z" fill-rule="nonzero"/><path fill="#000000" d="M321.54688 316.4344L321.54688 317.45L315.85938 317.45Q315.85938 317.075 315.98438 316.71564Q316.20312 316.1375 316.67188 315.575Q317.15625 315.0125 318.0625 314.27814Q319.46875 313.1219 319.95312 312.45Q320.45312 311.77814 320.45312 311.1844Q320.45312 310.5594 320.0 310.1375Q319.54688 309.7 318.82812 309.7Q318.0625 309.7 317.60938 310.15314Q317.15625 310.60626 317.14062 311.41876L316.0625 311.3094Q316.17188 310.09064 316.89062 309.46564Q317.625 308.825 318.85938 308.825Q320.09375 308.825 320.8125 309.5125Q321.53125 310.2 321.53125 311.21564Q321.53125 311.73126 321.3125 312.23126Q321.10938 312.71564 320.60938 313.27814Q320.125 313.825 319.0 314.77814Q318.04688 315.575 317.76562 315.8719Q317.5 316.15314 317.32812 316.4344L321.54688 316.4344ZM323.0 313.21564Q323.0 311.6844 323.3125 310.7625Q323.625 309.825 324.23438 309.325Q324.85938 308.825 325.79688 308.825Q326.48438 308.825 327.0 309.10626Q327.53125 309.3875 327.875 309.91876Q328.21875 310.4344 328.40625 311.1844Q328.59375 311.9344 328.59375 313.21564Q328.59375 314.73126 328.28125 315.65314Q327.98438 316.575 327.35938 317.09064Q326.75 317.59064 325.79688 317.59064Q324.5625 317.59064 323.84375 316.7Q323.0 315.6375 323.0 313.21564ZM324.07812 313.21564Q324.07812 315.325 324.57812 316.02814Q325.07812 316.73126 325.79688 316.73126Q326.53125 316.73126 327.01562 316.02814Q327.51562 315.325 327.51562 313.21564Q327.51562 311.09064 327.01562 310.40314Q326.53125 309.7 325.78125 309.7Q325.0625 309.7 324.625 310.3094Q324.07812 311.09064 324.07812 313.21564ZM333.96875 317.45L332.92188 317.45L332.92188 310.73126Q332.53125 311.09064 331.90625 311.46564Q331.29688 311.825 330.8125 311.9969L330.8125 310.98126Q331.6875 310.5594 332.34375 309.98126Q333.01562 309.3875 333.29688 308.825L333.96875 308.825L333.96875 317.45ZM342.46875 310.96564L341.42188 311.04376Q341.28125 310.41876 341.03125 310.1375Q340.59375 309.6844 339.96875 309.6844Q339.46875 309.6844 339.07812 309.96564Q338.59375 310.34064 338.29688 311.04376Q338.01562 311.73126 338.0 313.0125Q338.375 312.4344 338.92188 312.15314Q339.48438 311.8719 340.09375 311.8719Q341.14062 311.8719 341.875 312.65314Q342.625 313.4344 342.625 314.65314Q342.625 315.46564 342.26562 316.16876Q341.92188 316.85626 341.3125 317.23126Q340.70312 317.59064 339.9375 317.59064Q338.60938 317.59064 337.78125 316.6219Q336.95312 315.65314 336.95312 313.4344Q336.95312 310.9344 337.875 309.8094Q338.67188 308.825 340.03125 308.825Q341.04688 308.825 341.6875 309.40314Q342.34375 309.96564 342.46875 310.96564ZM338.17188 314.66876Q338.17188 315.21564 338.39062 315.71564Q338.625 316.2 339.03125 316.46564Q339.45312 316.73126 339.92188 316.73126Q340.57812 316.73126 341.0625 316.2Q341.54688 315.65314 341.54688 314.73126Q341.54688 313.84064 341.0625 313.325Q340.59375 312.8094 339.875 312.8094Q339.15625 312.8094 338.65625 313.325Q338.17188 313.84064 338.17188 314.66876Z" fill-rule="nonzero"/><path fill="#000000" d="M419.60257 316.4344L419.60257 317.45L413.91507 317.45Q413.91507 317.075 414.04007 316.71564Q414.25882 316.1375 414.72757 315.575Q415.21194 315.0125 416.1182 314.27814Q417.52444 313.1219 418.00882 312.45Q418.50882 311.77814 418.50882 311.1844Q418.50882 310.5594 418.0557 310.1375Q417.60257 309.7 416.88382 309.7Q416.1182 309.7 415.66507 310.15314Q415.21194 310.60626 415.19632 311.41876L414.1182 311.3094Q414.22757 310.09064 414.94632 309.46564Q415.6807 308.825 416.91507 308.825Q418.14944 308.825 418.8682 309.5125Q419.58694 310.2 419.58694 311.21564Q419.58694 311.73126 419.3682 312.23126Q419.16507 312.71564 418.66507 313.27814Q418.1807 313.825 417.0557 314.77814Q416.10257 315.575 415.82132 315.8719Q415.5557 316.15314 415.38382 316.4344L419.60257 316.4344ZM421.0557 313.21564Q421.0557 311.6844 421.3682 310.7625Q421.6807 309.825 422.29007 309.325Q422.91507 308.825 423.85257 308.825Q424.54007 308.825 425.0557 309.10626Q425.58694 309.3875 425.9307 309.91876Q426.27444 310.4344 426.46194 311.1844Q426.64944 311.9344 426.64944 313.21564Q426.64944 314.73126 426.33694 315.65314Q426.04007 316.575 425.41507 317.09064Q424.8057 317.59064 423.85257 317.59064Q422.6182 317.59064 421.89944 316.7Q421.0557 315.6375 421.0557 313.21564ZM422.13382 313.21564Q422.13382 315.325 422.63382 316.02814Q423.13382 316.73126 423.85257 316.73126Q424.58694 316.73126 425.07132 316.02814Q425.57132 315.325 425.57132 313.21564Q425.57132 311.09064 425.07132 310.40314Q424.58694 309.7 423.83694 309.7Q423.1182 309.7 422.6807 310.3094Q422.13382 311.09064 422.13382 313.21564ZM432.02444 317.45L430.97757 317.45L430.97757 310.73126Q430.58694 311.09064 429.96194 311.46564Q429.35257 311.825 428.8682 311.9969L428.8682 310.98126Q429.7432 310.5594 430.39944 309.98126Q431.07132 309.3875 431.35257 308.825L432.02444 308.825L432.02444 317.45ZM436.6807 312.79376Q436.02444 312.54376 435.69632 312.10626Q435.38382 311.65314 435.38382 311.04376Q435.38382 310.10626 436.0557 309.46564Q436.7432 308.825 437.85257 308.825Q438.97757 308.825 439.66507 309.48126Q440.35257 310.1375 440.35257 311.075Q440.35257 311.66876 440.04007 312.10626Q439.72757 312.54376 439.08694 312.79376Q439.88382 313.04376 440.29007 313.6219Q440.69632 314.2 440.69632 314.9969Q440.69632 316.09064 439.91507 316.84064Q439.14944 317.59064 437.8682 317.59064Q436.60257 317.59064 435.82132 316.84064Q435.04007 316.09064 435.04007 314.96564Q435.04007 314.1219 435.46194 313.5594Q435.89944 312.9969 436.6807 312.79376ZM436.46194 310.9969Q436.46194 311.60626 436.85257 311.9969Q437.25882 312.3875 437.88382 312.3875Q438.4932 312.3875 438.88382 312.0125Q439.27444 311.6219 439.27444 311.0594Q439.27444 310.48126 438.8682 310.09064Q438.46194 309.6844 437.8682 309.6844Q437.25882 309.6844 436.85257 310.075Q436.46194 310.46564 436.46194 310.9969ZM436.13382 314.96564Q436.13382 315.41876 436.33694 315.84064Q436.5557 316.2625 436.97757 316.4969Q437.39944 316.73126 437.88382 316.73126Q438.63382 316.73126 439.1182 316.2469Q439.6182 315.7625 439.6182 315.0125Q439.6182 314.2469 439.1182 313.7469Q438.6182 313.2469 437.85257 313.2469Q437.10257 313.2469 436.6182 313.7469Q436.13382 314.23126 436.13382 314.96564Z" fill-rule="nonzero"/><path fill="#000000" d="M517.65826 316.4344L517.65826 317.45L511.97076 317.45Q511.97076 317.075 512.09576 316.71564Q512.3145 316.1375 512.78326 315.575Q513.26764 315.0125 514.1739 314.27814Q515.58014 313.1219 516.0645 312.45Q516.5645 311.77814 516.5645 311.1844Q516.5645 310.5594 516.1114 310.1375Q515.65826 309.7 514.9395 309.7Q514.1739 309.7 513.72076 310.15314Q513.26764 310.60626 513.252 311.41876L512.1739 311.3094Q512.28326 310.09064 513.002 309.46564Q513.7364 308.825 514.97076 308.825Q516.20514 308.825 516.9239 309.5125Q517.64264 310.2 517.64264 311.21564Q517.64264 311.73126 517.4239 312.23126Q517.22076 312.71564 516.72076 313.27814Q516.2364 313.825 515.1114 314.77814Q514.15826 315.575 513.877 315.8719Q513.6114 316.15314 513.4395 316.4344L517.65826 316.4344ZM519.1114 313.21564Q519.1114 311.6844 519.4239 310.7625Q519.7364 309.825 520.34576 309.325Q520.97076 308.825 521.90826 308.825Q522.59576 308.825 523.1114 309.10626Q523.64264 309.3875 523.9864 309.91876Q524.33014 310.4344 524.51764 311.1844Q524.70514 311.9344 524.70514 313.21564Q524.70514 314.73126 524.39264 315.65314Q524.09576 316.575 523.47076 317.09064Q522.8614 317.59064 521.90826 317.59064Q520.6739 317.59064 519.95514 316.7Q519.1114 315.6375 519.1114 313.21564ZM520.1895 313.21564Q520.1895 315.325 520.6895 316.02814Q521.1895 316.73126 521.90826 316.73126Q522.64264 316.73126 523.127 316.02814Q523.627 315.325 523.627 313.21564Q523.627 311.09064 523.127 310.40314Q522.64264 309.7 521.89264 309.7Q521.1739 309.7 520.7364 310.3094Q520.1895 311.09064 520.1895 313.21564ZM531.65826 316.4344L531.65826 317.45L525.97076 317.45Q525.97076 317.075 526.09576 316.71564Q526.3145 316.1375 526.78326 315.575Q527.26764 315.0125 528.1739 314.27814Q529.58014 313.1219 530.0645 312.45Q530.5645 311.77814 530.5645 311.1844Q530.5645 310.5594 530.1114 310.1375Q529.65826 309.7 528.9395 309.7Q528.1739 309.7 527.72076 310.15314Q527.26764 310.60626 527.252 311.41876L526.1739 311.3094Q526.28326 310.09064 527.002 309.46564Q527.7364 308.825 528.97076 308.825Q530.20514 308.825 530.9239 309.5125Q531.64264 310.2 531.64264 311.21564Q531.64264 311.73126 531.4239 312.23126Q531.22076 312.71564 530.72076 313.27814Q530.2364 313.825 529.1114 314.77814Q528.15826 315.575 527.877 315.8719Q527.6114 316.15314 527.4395 316.4344L531.65826 316.4344ZM533.1114 313.21564Q533.1114 311.6844 533.4239 310.7625Q533.7364 309.825 534.34576 309.325Q534.97076 308.825 535.90826 308.825Q536.59576 308.825 537.1114 309.10626Q537.64264 309.3875 537.9864 309.91876Q538.33014 310.4344 538.51764 311.1844Q538.70514 311.9344 538.70514 313.21564Q538.70514 314.73126 538.39264 315.65314Q538.09576 316.575 537.47076 317.09064Q536.8614 317.59064 535.90826 317.59064Q534.6739 317.59064 533.95514 316.7Q533.1114 315.6375 533.1114 313.21564ZM534.1895 313.21564Q534.1895 315.325 534.6895 316.02814Q535.1895 316.73126 535.90826 316.73126Q536.64264 316.73126 537.127 316.02814Q537.627 315.325 537.627 313.21564Q537.627 311.09064 537.127 310.40314Q536.64264 309.7 535.89264 309.7Q535.1739 309.7 534.7364 310.3094Q534.1895 311.09064 534.1895 313.21564Z" fill-rule="nonzero"/><path fill="#757575" d="M20.08125 37.55L20.08125 23.2375L22.01875 23.2375L29.534374 34.471874L29.534374 23.2375L31.346874 23.2375L31.346874 37.55L29.409374 37.55L21.89375 26.3L21.89375 37.55L20.08125 37.55ZM32.878124 25.253124L32.878124 23.2375L34.64375 23.2375L34.64375 25.253124L32.878124 25.253124ZM32.878124 37.55L32.878124 27.175L34.64375 27.175L34.64375 37.55L32.878124 37.55ZM40.70625 35.971874L40.95625 37.534374Q40.221874 37.690624 39.628124 37.690624Q38.675 37.690624 38.14375 37.39375Q37.628124 37.08125 37.409374 36.596874Q37.190624 36.096874 37.190624 34.51875L37.190624 28.55L35.909374 28.55L35.909374 27.175L37.190624 27.175L37.190624 24.6125L38.940624 23.55L38.940624 27.175L40.70625 27.175L40.70625 28.55L38.940624 28.55L38.940624 34.6125Q38.940624 35.3625 39.034374 35.58125Q39.128124 35.784374 39.33125 35.925Q39.55 36.05 39.940624 36.05Q40.221874 36.05 40.70625 35.971874ZM42.846874 37.55L42.846874 27.175L44.425 27.175L44.425 28.753124Q45.034374 27.64375 45.55 27.3Q46.065624 26.940624 46.675 26.940624Q47.565624 26.940624 48.4875 27.503124L47.878124 29.14375Q47.2375 28.753124 46.596874 28.753124Q46.01875 28.753124 45.55 29.1125Q45.096874 29.45625 44.89375 30.065624Q44.6125 31.003124 44.6125 32.1125L44.6125 37.55L42.846874 37.55ZM49.221874 32.3625Q49.221874 29.4875 50.815624 28.096874Q52.159374 26.940624 54.08125 26.940624Q56.221874 26.940624 57.565624 28.346874Q58.925 29.753124 58.925 32.221874Q58.925 34.221874 58.33125 35.378124Q57.7375 36.51875 56.58125 37.159374Q55.440624 37.784374 54.08125 37.784374Q51.89375 37.784374 50.55 36.39375Q49.221874 34.9875 49.221874 32.3625ZM51.01875 32.3625Q51.01875 34.3625 51.878124 35.346874Q52.753124 36.33125 54.08125 36.33125Q55.39375 36.33125 56.253124 35.346874Q57.128124 34.346874 57.128124 32.3Q57.128124 30.378124 56.253124 29.39375Q55.378124 28.39375 54.08125 28.39375Q52.753124 28.39375 51.878124 29.39375Q51.01875 30.378124 51.01875 32.3625ZM60.55 38.409374L62.253124 38.659374Q62.3625 39.45625 62.846874 39.815624Q63.503124 40.3 64.64375 40.3Q65.8625 40.3 66.51875 39.815624Q67.19063 39.33125 67.425 38.45625Q67.56563 37.909374 67.55 36.190624Q66.39375 37.55 64.675 37.55Q62.534374 37.55 61.3625 36.003124Q60.190624 34.45625 60.190624 32.3Q60.190624 30.815624 60.721874 29.565624Q61.26875 28.315624 62.284374 27.628124Q63.315624 26.940624 64.69063 26.940624Q66.51875 26.940624 67.72188 28.425L67.72188 27.175L69.33125 27.175L69.33125 36.14375Q69.33125 38.565624 68.83125 39.565624Q68.34688 40.58125 67.26875 41.159374Q66.20625 41.753124 64.64375 41.753124Q62.8 41.753124 61.64375 40.925Q60.503124 40.096874 60.55 38.409374ZM62.003124 32.175Q62.003124 34.221874 62.815624 35.159374Q63.628124 36.096874 64.84688 36.096874Q66.05 36.096874 66.8625 35.159374Q67.69063 34.221874 67.69063 32.2375Q67.69063 30.33125 66.84688 29.3625Q66.00313 28.39375 64.81563 28.39375Q63.64375 28.39375 62.815624 29.346874Q62.003124 30.3 62.003124 32.175ZM78.97188 34.20625L80.78438 34.440624Q80.3625 36.01875 79.19063 36.909374Q78.03438 37.784374 76.22188 37.784374Q73.95625 37.784374 72.6125 36.39375Q71.28438 34.9875 71.28438 32.45625Q71.28438 29.83125 72.62813 28.39375Q73.97188 26.940624 76.12813 26.940624Q78.20625 26.940624 79.51875 28.3625Q80.84688 29.76875 80.84688 32.346874Q80.84688 32.503124 80.83125 32.815624L73.09688 32.815624Q73.19063 34.51875 74.06563 35.425Q74.94063 36.33125 76.2375 36.33125Q77.20625 36.33125 77.87813 35.83125Q78.56563 35.315624 78.97188 34.20625ZM73.19063 31.3625L78.9875 31.3625Q78.87813 30.065624 78.33125 29.409374Q77.4875 28.39375 76.14375 28.39375Q74.94063 28.39375 74.1125 29.20625Q73.28438 30.003124 73.19063 31.3625ZM76.08125 24.221874L74.97188 25.89375L72.97188 25.89375L75.08125 23.159374L76.95625 23.159374L79.14375 25.89375L77.15938 25.89375L76.08125 24.221874ZM82.8625 37.55L82.8625 27.175L84.45625 27.175L84.45625 28.659374Q85.59688 26.940624 87.75313 26.940624Q88.69063 26.940624 89.47188 27.284374Q90.26875 27.6125 90.65938 28.159374Q91.05 28.70625 91.20625 29.45625Q91.3 29.95625 91.3 31.175L91.3 37.55L89.53438 37.55L89.53438 31.2375Q89.53438 30.159374 89.33125 29.628124Q89.12813 29.096874 88.59688 28.784374Q88.08125 28.471874 87.37813 28.471874Q86.25313 28.471874 85.44063 29.190624Q84.62813 29.89375 84.62813 31.878124L84.62813 37.55L82.8625 37.55ZM92.87813 25.253124L92.87813 23.2375L94.64375 23.2375L94.64375 25.253124L92.87813 25.253124ZM92.87813 37.55L92.87813 27.175L94.64375 27.175L94.64375 37.55L92.87813 37.55ZM96.22188 32.3625Q96.22188 29.4875 97.81563 28.096874Q99.15938 26.940624 101.08125 26.940624Q103.22188 26.940624 104.56563 28.346874Q105.925 29.753124 105.925 32.221874Q105.925 34.221874 105.33125 35.378124Q104.7375 36.51875 103.58125 37.159374Q102.44063 37.784374 101.08125 37.784374Q98.89375 37.784374 97.55 36.39375Q96.22188 34.9875 96.22188 32.3625ZM98.01875 32.3625Q98.01875 34.3625 98.87813 35.346874Q99.75313 36.33125 101.08125 36.33125Q102.39375 36.33125 103.25313 35.346874Q104.12813 34.346874 104.12813 32.3Q104.12813 30.378124 103.25313 29.39375Q102.37813 28.39375 101.08125 28.39375Q99.75313 28.39375 98.87813 29.39375Q98.01875 30.378124 98.01875 32.3625ZM113.8625 41.51875L113.8625 27.175L115.47188 27.175L115.47188 28.51875Q116.03438 27.7375 116.7375 27.346874Q117.45625 26.940624 118.47188 26.940624Q119.8 26.940624 120.81563 27.628124Q121.83125 28.315624 122.34688 29.565624Q122.87813 30.8 122.87813 32.284374Q122.87813 33.878124 122.3 35.159374Q121.7375 36.425 120.64375 37.1125Q119.55 37.784374 118.34688 37.784374Q117.47188 37.784374 116.76875 37.409374Q116.08125 37.034374 115.62813 36.471874L115.62813 41.51875L113.8625 41.51875ZM115.45625 32.425Q115.45625 34.425 116.26875 35.378124Q117.08125 36.33125 118.2375 36.33125Q119.40938 36.33125 120.2375 35.346874Q121.08125 34.3625 121.08125 32.26875Q121.08125 30.3 120.25313 29.315624Q119.44063 28.315624 118.31563 28.315624Q117.19063 28.315624 116.31563 29.378124Q115.45625 30.425 115.45625 32.425ZM124.22188 32.3625Q124.22188 29.4875 125.81563 28.096874Q127.15938 26.940624 129.08125 26.940624Q131.22188 26.940624 132.56563 28.346874Q133.925 29.753124 133.925 32.221874Q133.925 34.221874 133.33125 35.378124Q132.7375 36.51875 131.58125 37.159374Q130.44063 37.784374 129.08125 37.784374Q126.89375 37.784374 125.55 36.39375Q124.22188 34.9875 124.22188 32.3625ZM126.01875 32.3625Q126.01875 34.3625 126.87813 35.346874Q127.75313 36.33125 129.08125 36.33125Q130.39375 36.33125 131.25313 35.346874Q132.12813 34.346874 132.12813 32.3Q132.12813 30.378124 131.25313 29.39375Q130.37813 28.39375 129.08125 28.39375Q127.75313 28.39375 126.87813 29.39375Q126.01875 30.378124 126.01875 32.3625ZM135.84688 37.55L135.84688 27.175L137.425 27.175L137.425 28.753124Q138.03438 27.64375 138.55 27.3Q139.06563 26.940624 139.675 26.940624Q140.56563 26.940624 141.4875 27.503124L140.87813 29.14375Q140.2375 28.753124 139.59688 28.753124Q139.01875 28.753124 138.55 29.1125Q138.09688 29.45625 137.89375 30.065624Q137.6125 31.003124 137.6125 32.1125L137.6125 37.55L135.84688 37.55ZM155.64375 36.26875Q154.65938 37.096874 153.75313 37.440624Q152.84688 37.784374 151.81563 37.784374Q150.1125 37.784374 149.19063 36.95625Q148.26875 36.1125 148.26875 34.815624Q148.26875 34.05 148.6125 33.425Q148.97188 32.8 149.53438 32.425Q150.09688 32.034374 150.8 31.83125Q151.31563 31.70625 152.3625 31.565624Q154.4875 31.315624 155.4875 30.971874Q155.50313 30.6125 155.50313 30.503124Q155.50313 29.440624 155.00313 28.9875Q154.33125 28.39375 153.00313 28.39375Q151.75313 28.39375 151.15938 28.83125Q150.58125 29.26875 150.3 30.378124L148.58125 30.14375Q148.81563 29.034374 149.34688 28.3625Q149.87813 27.675 150.89375 27.315624Q151.90938 26.940624 153.25313 26.940624Q154.58125 26.940624 155.40938 27.253124Q156.2375 27.565624 156.62813 28.05Q157.01875 28.51875 157.175 29.2375Q157.26875 29.690624 157.26875 30.8625L157.26875 33.20625Q157.26875 35.659374 157.37813 36.315624Q157.4875 36.95625 157.83125 37.55L155.9875 37.55Q155.72188 37.003124 155.64375 36.26875ZM155.4875 32.346874Q154.53438 32.7375 152.6125 33.003124Q151.53438 33.159374 151.08125 33.3625Q150.64375 33.55 150.39375 33.925Q150.14375 34.3 150.14375 34.76875Q150.14375 35.471874 150.675 35.940624Q151.20625 36.409374 152.2375 36.409374Q153.25313 36.409374 154.03438 35.971874Q154.83125 35.51875 155.20625 34.753124Q155.4875 34.14375 155.4875 32.9875L155.4875 32.346874ZM159.8625 37.55L159.8625 27.175L161.45625 27.175L161.45625 28.659374Q162.59688 26.940624 164.75313 26.940624Q165.69063 26.940624 166.47188 27.284374Q167.26875 27.6125 167.65938 28.159374Q168.05 28.70625 168.20625 29.45625Q168.3 29.95625 168.3 31.175L168.3 37.55L166.53438 37.55L166.53438 31.2375Q166.53438 30.159374 166.33125 29.628124Q166.12813 29.096874 165.59688 28.784374Q165.08125 28.471874 164.37813 28.471874Q163.25313 28.471874 162.44063 29.190624Q161.62813 29.89375 161.62813 31.878124L161.62813 37.55L159.8625 37.55ZM169.22188 32.3625Q169.22188 29.4875 170.81563 28.096874Q172.15938 26.940624 174.08125 26.940624Q176.22188 26.940624 177.56563 28.346874Q178.925 29.753124 178.925 32.221874Q178.925 34.221874 178.33125 35.378124Q177.7375 36.51875 176.58125 37.159374Q175.44063 37.784374 174.08125 37.784374Q171.89375 37.784374 170.55 36.39375Q169.22188 34.9875 169.22188 32.3625ZM171.01875 32.3625Q171.01875 34.3625 171.87813 35.346874Q172.75313 36.33125 174.08125 36.33125Q175.39375 36.33125 176.25313 35.346874Q177.12813 34.346874 177.12813 32.3Q177.12813 30.378124 176.25313 29.39375Q175.37813 28.39375 174.08125 28.39375Q172.75313 28.39375 171.87813 29.39375Q171.01875 30.378124 171.01875 32.3625ZM190.22188 41.753124Q188.76875 39.925 187.76875 37.471874Q186.76875 35.003124 186.76875 32.3625Q186.76875 30.034374 187.51875 27.909374Q188.39375 25.440624 190.22188 22.9875L191.4875 22.9875Q190.3 25.01875 189.925 25.89375Q189.33125 27.2375 188.9875 28.70625Q188.56563 30.534374 188.56563 32.378124Q188.56563 37.065624 191.4875 41.753124L190.22188 41.753124ZM202.6125 35.8625L202.6125 37.55L193.15938 37.55Q193.14375 36.909374 193.3625 36.33125Q193.72188 35.3625 194.51875 34.425Q195.31563 33.4875 196.81563 32.253124Q199.15938 30.346874 199.97188 29.2375Q200.8 28.1125 200.8 27.1125Q200.8 26.065624 200.05 25.346874Q199.3 24.628124 198.09688 24.628124Q196.83125 24.628124 196.06563 25.39375Q195.3 26.159374 195.3 27.503124L193.4875 27.315624Q193.675 25.3 194.87813 24.2375Q196.09688 23.175 198.14375 23.175Q200.19063 23.175 201.39375 24.315624Q202.59688 25.45625 202.59688 27.14375Q202.59688 28.003124 202.2375 28.846874Q201.89375 29.675 201.08125 30.596874Q200.26875 31.503124 198.37813 33.1125Q196.78438 34.440624 196.33125 34.909374Q195.89375 35.378124 195.59688 35.8625L202.6125 35.8625ZM204.37813 30.4875Q204.37813 27.95625 204.89375 26.409374Q205.425 24.846874 206.45625 24.01875Q207.4875 23.175 209.05 23.175Q210.20625 23.175 211.06563 23.64375Q211.94063 24.096874 212.50313 24.971874Q213.06563 25.846874 213.39375 27.1125Q213.72188 28.3625 213.72188 30.4875Q213.72188 33.003124 213.19063 34.55Q212.675 36.096874 211.64375 36.95625Q210.62813 37.8 209.05 37.8Q206.97188 37.8 205.8 36.315624Q204.37813 34.51875 204.37813 30.4875ZM206.19063 30.4875Q206.19063 34.01875 207.00313 35.190624Q207.83125 36.346874 209.05 36.346874Q210.25313 36.346874 211.08125 35.175Q211.90938 34.003124 211.90938 30.4875Q211.90938 26.95625 211.08125 25.8Q210.25313 24.628124 209.03438 24.628124Q207.81563 24.628124 207.09688 25.659374Q206.19063 26.95625 206.19063 30.4875ZM222.00313 37.55L220.2375 37.55L220.2375 26.346874Q219.6125 26.95625 218.58125 27.565624Q217.55 28.159374 216.72188 28.471874L216.72188 26.76875Q218.20625 26.08125 219.3 25.096874Q220.40938 24.096874 220.8625 23.175L222.00313 23.175L222.00313 37.55ZM233.00313 37.55L231.2375 37.55L231.2375 26.346874Q230.6125 26.95625 229.58125 27.565624Q228.55 28.159374 227.72188 28.471874L227.72188 26.76875Q229.20625 26.08125 230.3 25.096874Q231.40938 24.096874 231.8625 23.175L233.00313 23.175L233.00313 37.55ZM237.19063 33.253124L237.19063 31.4875L242.58125 31.4875L242.58125 33.253124L237.19063 33.253124ZM253.6125 35.8625L253.6125 37.55L244.15938 37.55Q244.14375 36.909374 244.3625 36.33125Q244.72188 35.3625 245.51875 34.425Q246.31563 33.4875 247.81563 32.253124Q250.15938 30.346874 250.97188 29.2375Q251.8 28.1125 251.8 27.1125Q251.8 26.065624 251.05 25.346874Q250.3 24.628124 249.09688 24.628124Q247.83125 24.628124 247.06563 25.39375Q246.3 26.159374 246.3 27.503124L244.4875 27.315624Q244.675 25.3 245.87813 24.2375Q247.09688 23.175 249.14375 23.175Q251.19063 23.175 252.39375 24.315624Q253.59688 25.45625 253.59688 27.14375Q253.59688 28.003124 253.2375 28.846874Q252.89375 29.675 252.08125 30.596874Q251.26875 31.503124 249.37813 33.1125Q247.78438 34.440624 247.33125 34.909374Q246.89375 35.378124 246.59688 35.8625L253.6125 35.8625ZM255.37813 30.4875Q255.37813 27.95625 255.89375 26.409374Q256.425 24.846874 257.45624 24.01875Q258.4875 23.175 260.05 23.175Q261.20624 23.175 262.0656 23.64375Q262.9406 24.096874 263.5031 24.971874Q264.0656 25.846874 264.39374 27.1125Q264.72186 28.3625 264.72186 30.4875Q264.72186 33.003124 264.1906 34.55Q263.675 36.096874 262.64374 36.95625Q261.6281 37.8 260.05 37.8Q257.97186 37.8 256.8 36.315624Q255.37813 34.51875 255.37813 30.4875ZM257.1906 30.4875Q257.1906 34.01875 258.0031 35.190624Q258.83124 36.346874 260.05 36.346874Q261.2531 36.346874 262.08124 35.175Q262.90936 34.003124 262.90936 30.4875Q262.90936 26.95625 262.08124 25.8Q261.2531 24.628124 260.03436 24.628124Q258.8156 24.628124 258.09686 25.659374Q257.1906 26.95625 257.1906 30.4875ZM275.6125 35.8625L275.6125 37.55L266.15936 37.55Q266.14374 36.909374 266.3625 36.33125Q266.72186 35.3625 267.51874 34.425Q268.3156 33.4875 269.8156 32.253124Q272.15936 30.346874 272.97186 29.2375Q273.8 28.1125 273.8 27.1125Q273.8 26.065624 273.05 25.346874Q272.3 24.628124 271.09686 24.628124Q269.83124 24.628124 269.0656 25.39375Q268.3 26.159374 268.3 27.503124L266.4875 27.315624Q266.675 25.3 267.8781 24.2375Q269.09686 23.175 271.14374 23.175Q273.1906 23.175 274.39374 24.315624Q275.59686 25.45625 275.59686 27.14375Q275.59686 28.003124 275.2375 28.846874Q274.89374 29.675 274.08124 30.596874Q273.26874 31.503124 271.3781 33.1125Q269.78436 34.440624 269.33124 34.909374Q268.89374 35.378124 268.59686 35.8625L275.6125 35.8625ZM284.0031 37.55L282.2375 37.55L282.2375 26.346874Q281.6125 26.95625 280.58124 27.565624Q279.55 28.159374 278.72186 28.471874L278.72186 26.76875Q280.20624 26.08125 281.3 25.096874Q282.40936 24.096874 282.8625 23.175L284.0031 23.175L284.0031 37.55ZM290.01874 41.753124L288.76874 41.753124Q291.675 37.065624 291.675 32.378124Q291.675 30.534374 291.26874 28.7375Q290.925 27.26875 290.33124 25.925Q289.95624 25.034374 288.76874 22.9875L290.01874 22.9875Q291.8625 25.440624 292.7375 27.909374Q293.4875 30.034374 293.4875 32.3625Q293.4875 35.003124 292.47186 37.471874Q291.47186 39.925 290.01874 41.753124Z" fill-rule="nonzero"/></svg>