<svg version="1.1" viewBox="0.0 0.0 600.0 371.0" fill="none" stroke="none" stroke-linecap="square" stroke-miterlimit="10" width="600" height="371" xmlns:xlink="http://www.w3.org/1999/xlink" xmlns="http://www.w3.org/2000/svg"><path fill="#ffffff" d="M0 0L600.0 0L600.0 371.0L0 371.0L0 0Z" fill-rule="nonzero"/><path stroke="#cccccc" stroke-width="1.0" stroke-linecap="butt" d="M133.5 61.5L133.5 300.5" fill-rule="nonzero"/><path stroke="#cccccc" stroke-width="1.0" stroke-linecap="butt" d="M231.5 61.5L231.5 300.5" fill-rule="nonzero"/><path stroke="#cccccc" stroke-width="1.0" stroke-linecap="butt" d="M329.5 61.5L329.5 300.5" fill-rule="nonzero"/><path stroke="#cccccc" stroke-width="1.0" stroke-linecap="butt" d="M427.5 61.5L427.5 300.5" fill-rule="nonzero"/><path stroke="#cccccc" stroke-width="1.0" stroke-linecap="butt" d="M525.5 61.5L525.5 300.5" fill-rule="nonzero"/><path stroke="#cccccc" stroke-width="1.0" stroke-linecap="butt" d="M77.5 300.5L581.5 300.5" fill-rule="nonzero"/><path stroke="#cccccc" stroke-width="1.0" stroke-linecap="butt" d="M77.5 252.5L581.5 252.5" fill-rule="nonzero"/><path stroke="#cccccc" stroke-width="1.0" stroke-linecap="butt" d="M77.5 205.5L581.5 205.5" fill-rule="nonzero"/><path stroke="#cccccc" stroke-width="1.0" stroke-linecap="butt" d="M77.5 157.5L581.5 157.5" fill-rule="nonzero"/><path stroke="#cccccc" stroke-width="1.0" stroke-linecap="butt" d="M77.5 109.5L581.5 109.5" fill-rule="nonzero"/><path stroke="#cccccc" stroke-width="1.0" stroke-linecap="butt" d="M77.5 61.5L581.5 61.5" fill-rule="nonzero"/><clipPath id="id_0"><path d="M77.55 61.916668L581.45 61.916668L581.45 300.45L77.55 300.45L77.55 61.916668Z" clip-rule="nonzero"/></clipPath><path fill="#fbbc04" clip-path="url(#id_0)" d="M88.86077 176.41267C88.86077 178.89795 86.846054 180.91267 84.36077 180.91267C81.875496 180.91267 79.86077 178.89795 79.86077 176.41267C79.86077 173.92738 81.875496 171.91267 84.36077 171.91267C86.846054 171.91267 88.86077 173.92738 88.86077 176.41267Z" fill-rule="nonzero"/><path fill="#fbbc04" clip-path="url(#id_0)" d="M137.88863 176.41267C137.88863 178.89795 135.8739 180.91267 133.38863 180.91267C130.90334 180.91267 128.88863 178.89795 128.88863 176.41267C128.88863 173.92738 130.90334 171.91267 133.38863 171.91267C135.8739 171.91267 137.88863 173.92738 137.88863 176.41267Z" fill-rule="nonzero"/><path fill="#fbbc04" clip-path="url(#id_0)" d="M186.91646 184.28427C186.91646 186.76955 184.90175 188.78427 182.41646 188.78427C179.93118 188.78427 177.91646 186.76955 177.91646 184.28427C177.91646 181.79898 179.93118 179.78427 182.41646 179.78427C184.90175 179.78427 186.91646 181.79898 186.91646 184.28427Z" fill-rule="nonzero"/><path fill="#fbbc04" clip-path="url(#id_0)" d="M235.9443 176.88974C235.9443 179.37502 233.9296 181.38974 231.4443 181.38974C228.95903 181.38974 226.9443 179.37502 226.9443 176.88974C226.9443 174.40445 228.95903 172.38974 231.4443 172.38974C233.9296 172.38974 235.9443 174.40445 235.9443 176.88974Z" fill-rule="nonzero"/><path fill="#fbbc04" clip-path="url(#id_0)" d="M284.97217 176.6512C284.97217 179.13647 282.95743 181.1512 280.47217 181.1512C277.98688 181.1512 275.97217 179.13647 275.97217 176.6512C275.97217 174.16592 277.98688 172.1512 280.47217 172.1512C282.95743 172.1512 284.97217 174.16592 284.97217 176.6512Z" fill-rule="nonzero"/><path fill="#fbbc04" clip-path="url(#id_0)" d="M334.0 180.2292C334.0 182.71448 331.9853 184.7292 329.5 184.7292C327.0147 184.7292 325.0 182.71448 325.0 180.2292C325.0 177.74391 327.0147 175.7292 329.5 175.7292C331.9853 175.7292 334.0 177.74391 334.0 180.2292Z" fill-rule="nonzero"/><path fill="#fbbc04" clip-path="url(#id_0)" d="M383.02783 181.18333C383.02783 183.66861 381.01312 185.68333 378.52783 185.68333C376.04257 185.68333 374.02783 183.66861 374.02783 181.18333C374.02783 178.69806 376.04257 176.68333 378.52783 176.68333C381.01312 176.68333 383.02783 178.69806 383.02783 181.18333Z" fill-rule="nonzero"/><path fill="#fbbc04" clip-path="url(#id_0)" d="M432.0557 180.46773C432.0557 182.95302 430.041 184.96773 427.5557 184.96773C425.0704 184.96773 423.0557 182.95302 423.0557 180.46773C423.0557 177.98245 425.0704 175.96773 427.5557 175.96773C430.041 175.96773 432.0557 177.98245 432.0557 180.46773Z" fill-rule="nonzero"/><path fill="#fbbc04" clip-path="url(#id_0)" d="M481.08353 181.89893C481.08353 184.38422 479.06882 186.39893 476.58353 186.39893C474.09827 186.39893 472.08353 184.38422 472.08353 181.89893C472.08353 179.41365 474.09827 177.39893 476.58353 177.39893C479.06882 177.39893 481.08353 179.41365 481.08353 181.89893Z" fill-rule="nonzero"/><path fill="#fbbc04" clip-path="url(#id_0)" d="M530.1114 178.798C530.1114 181.28328 528.0967 183.298 525.6114 183.298C523.1261 183.298 521.1114 181.28328 521.1114 178.798C521.1114 176.31271 523.1261 174.298 525.6114 174.298C528.0967 174.298 530.1114 176.31271 530.1114 178.798Z" fill-rule="nonzero"/><path fill="#fbbc04" clip-path="url(#id_0)" d="M579.1392 205.03667C579.1392 207.52194 577.1245 209.53667 574.6392 209.53667C572.15393 209.53667 570.1392 207.52194 570.1392 205.03667C570.1392 202.55139 572.15393 200.53667 574.6392 200.53667C577.1245 200.53667 579.1392 202.55139 579.1392 205.03667Z" fill-rule="nonzero"/><path fill="#000000" d="M318.98438 349.45L322.28125 340.85626L323.5 340.85626L327.01562 349.45L325.73438 349.45L324.71875 346.84064L321.14062 346.84064L320.1875 349.45L318.98438 349.45ZM321.46875 345.91876L324.375 345.91876L323.48438 343.54376Q323.0625 342.46564 322.875 341.7625Q322.70312 342.59064 322.40625 343.40314L321.46875 345.91876ZM326.79688 349.45L326.79688 343.23126L327.73438 343.23126L327.73438 344.10626Q328.42188 343.09064 329.71875 343.09064Q330.28125 343.09064 330.75 343.29376Q331.23438 343.4969 331.46875 343.825Q331.70312 344.15314 331.79688 344.59064Q331.84375 344.8875 331.84375 345.6219L331.84375 349.45L330.79688 349.45L330.79688 345.66876Q330.79688 345.0125 330.67188 344.7Q330.54688 344.3875 330.23438 344.2Q329.92188 343.9969 329.5 343.9969Q328.82812 343.9969 328.32812 344.4344Q327.84375 344.85626 327.84375 346.04376L327.84375 349.45L326.79688 349.45ZM333.40625 346.34064Q333.40625 344.60626 334.35938 343.77814Q335.15625 343.09064 336.3125 343.09064Q337.59375 343.09064 338.40625 343.9344Q339.23438 344.7625 339.23438 346.2469Q339.23438 347.45 338.875 348.1375Q338.51562 348.825 337.8125 349.21564Q337.125 349.59064 336.3125 349.59064Q335.01562 349.59064 334.20312 348.7625Q333.40625 347.91876 333.40625 346.34064ZM334.48438 346.34064Q334.48438 347.52814 335.0 348.1219Q335.53125 348.71564 336.3125 348.71564Q337.10938 348.71564 337.625 348.1219Q338.14062 347.52814 338.14062 346.3094Q338.14062 345.15314 337.60938 344.5594Q337.09375 343.96564 336.3125 343.96564Q335.53125 343.96564 335.0 344.5594Q334.48438 345.1375 334.48438 346.34064Z" fill-rule="nonzero"/><path fill="#000000" d="M31.940638 194.88646L23.331263 194.88646L23.331263 193.93333L24.128138 193.93333Q23.659388 193.58958 23.425013 193.16771Q23.190638 192.73021 23.190638 192.12083Q23.190638 191.32396 23.596888 190.71458Q24.003138 190.10521 24.753138 189.80833Q25.503138 189.49583 26.393763 189.49583Q27.346888 189.49583 28.112513 189.83958Q28.878138 190.16771 29.284388 190.82396Q29.690638 191.48021 29.690638 192.19896Q29.690638 192.73021 29.471888 193.15208Q29.237513 193.57396 28.909388 193.83958L31.940638 193.83958L31.940638 194.88646ZM26.471888 193.93333Q27.675013 193.93333 28.253138 193.44896Q28.815638 192.96458 28.815638 192.27708Q28.815638 191.57396 28.221888 191.07396Q27.628138 190.57396 26.378138 190.57396Q25.190638 190.57396 24.612513 191.05833Q24.018763 191.54271 24.018763 192.23021Q24.018763 192.90208 24.643763 193.41771Q25.268763 193.93333 26.471888 193.93333ZM29.550013 187.71458L20.956263 187.71458L20.956263 186.58958L24.487513 186.58958L24.487513 182.12083L20.956263 182.12083L20.956263 180.98021L29.550013 180.98021L29.550013 182.12083L25.503138 182.12083L25.503138 186.58958L29.550013 186.58958L29.550013 187.71458Z" fill-rule="nonzero"/><path fill="#000000" d="M70.59688 303.4344L70.59688 304.45L64.90938 304.45Q64.90938 304.075 65.03438 303.71564Q65.25313 303.1375 65.72188 302.575Q66.20625 302.0125 67.1125 301.27814Q68.51875 300.1219 69.00313 299.45Q69.50313 298.77814 69.50313 298.1844Q69.50313 297.5594 69.05 297.1375Q68.59688 296.7 67.87813 296.7Q67.1125 296.7 66.65938 297.15314Q66.20625 297.60626 66.19063 298.41876L65.1125 298.3094Q65.22188 297.09064 65.94063 296.46564Q66.675 295.825 67.90938 295.825Q69.14375 295.825 69.8625 296.5125Q70.58125 297.2 70.58125 298.21564Q70.58125 298.73126 70.3625 299.23126Q70.15938 299.71564 69.65938 300.27814Q69.175 300.825 68.05 301.77814Q67.09688 302.575 66.81563 302.8719Q66.55 303.15314 66.37813 303.4344L70.59688 303.4344Z" fill-rule="nonzero"/><path fill="#000000" d="M68.425 256.74335L68.425 254.68085L64.70625 254.68085L64.70625 253.7121L68.62813 248.1496L69.4875 248.1496L69.4875 253.7121L70.64375 253.7121L70.64375 254.68085L69.4875 254.68085L69.4875 256.74335L68.425 256.74335ZM68.425 253.7121L68.425 249.85272L65.7375 253.7121L68.425 253.7121Z" fill-rule="nonzero"/><path fill="#000000" d="M70.51875 202.55229L69.47188 202.63042Q69.33125 202.00542 69.08125 201.72417Q68.64375 201.27104 68.01875 201.27104Q67.51875 201.27104 67.12813 201.55229Q66.64375 201.92729 66.34688 202.63042Q66.06563 203.31792 66.05 204.59917Q66.425 204.02104 66.97188 203.73979Q67.53438 203.45854 68.14375 203.45854Q69.19063 203.45854 69.925 204.23979Q70.675 205.02104 70.675 206.23979Q70.675 207.05229 70.31563 207.75542Q69.97188 208.44292 69.3625 208.81792Q68.75313 209.17729 67.9875 209.17729Q66.65938 209.17729 65.83125 208.20854Q65.00313 207.23979 65.00313 205.02104Q65.00313 202.52104 65.925 201.39604Q66.72188 200.41167 68.08125 200.41167Q69.09688 200.41167 69.7375 200.98979Q70.39375 201.55229 70.51875 202.55229ZM66.22188 206.25542Q66.22188 206.80229 66.44063 207.30229Q66.675 207.78667 67.08125 208.05229Q67.50313 208.31792 67.97188 208.31792Q68.62813 208.31792 69.1125 207.78667Q69.59688 207.23979 69.59688 206.31792Q69.59688 205.42729 69.1125 204.91167Q68.64375 204.39604 67.925 204.39604Q67.20625 204.39604 66.70625 204.91167Q66.22188 205.42729 66.22188 206.25542Z" fill-rule="nonzero"/><path fill="#000000" d="M66.675 156.67375Q66.01875 156.42375 65.69063 155.98625Q65.37813 155.53313 65.37813 154.92375Q65.37813 153.98625 66.05 153.34563Q66.7375 152.705 67.84688 152.705Q68.97188 152.705 69.65938 153.36125Q70.34688 154.0175 70.34688 154.955Q70.34688 155.54875 70.03438 155.98625Q69.72188 156.42375 69.08125 156.67375Q69.87813 156.92375 70.28438 157.50188Q70.69063 158.08 70.69063 158.87688Q70.69063 159.97063 69.90938 160.72063Q69.14375 161.47063 67.8625 161.47063Q66.59688 161.47063 65.81563 160.72063Q65.03438 159.97063 65.03438 158.84563Q65.03438 158.00188 65.45625 157.43938Q65.89375 156.87688 66.675 156.67375ZM66.45625 154.87688Q66.45625 155.48625 66.84688 155.87688Q67.25313 156.2675 67.87813 156.2675Q68.4875 156.2675 68.87813 155.8925Q69.26875 155.50188 69.26875 154.93938Q69.26875 154.36125 68.8625 153.97063Q68.45625 153.56438 67.8625 153.56438Q67.25313 153.56438 66.84688 153.955Q66.45625 154.34563 66.45625 154.87688ZM66.12813 158.84563Q66.12813 159.29875 66.33125 159.72063Q66.55 160.1425 66.97188 160.37688Q67.39375 160.61125 67.87813 160.61125Q68.62813 160.61125 69.1125 160.12688Q69.6125 159.6425 69.6125 158.8925Q69.6125 158.12688 69.1125 157.62688Q68.6125 157.12688 67.84688 157.12688Q67.09688 157.12688 66.6125 157.62688Q66.12813 158.11125 66.12813 158.84563Z" fill-rule="nonzero"/><path fill="#000000" d="M62.01875 113.62334L60.971874 113.62334L60.971874 106.90459Q60.58125 107.26396 59.95625 107.63896Q59.346874 107.99834 58.8625 108.17021L58.8625 107.15459Q59.7375 106.73271 60.39375 106.15459Q61.065624 105.56084 61.346874 104.99834L62.01875 104.99834L62.01875 113.62334ZM65.05 109.38896Q65.05 107.85771 65.3625 106.93584Q65.675 105.99834 66.28438 105.49834Q66.90938 104.99834 67.84688 104.99834Q68.53438 104.99834 69.05 105.27959Q69.58125 105.56084 69.925 106.09209Q70.26875 106.60771 70.45625 107.35771Q70.64375 108.10771 70.64375 109.38896Q70.64375 110.90459 70.33125 111.82646Q70.03438 112.74834 69.40938 113.26396Q68.8 113.76396 67.84688 113.76396Q66.6125 113.76396 65.89375 112.87334Q65.05 111.81084 65.05 109.38896ZM66.12813 109.38896Q66.12813 111.49834 66.62813 112.20146Q67.12813 112.90459 67.84688 112.90459Q68.58125 112.90459 69.06563 112.20146Q69.56563 111.49834 69.56563 109.38896Q69.56563 107.26396 69.06563 106.57646Q68.58125 105.87334 67.83125 105.87334Q67.1125 105.87334 66.675 106.48271Q66.12813 107.26396 66.12813 109.38896Z" fill-rule="nonzero"/><path fill="#000000" d="M62.01875 65.916664L60.971874 65.916664L60.971874 59.197914Q60.58125 59.55729 59.95625 59.93229Q59.346874 60.291664 58.8625 60.46354L58.8625 59.447914Q59.7375 59.02604 60.39375 58.447914Q61.065624 57.854164 61.346874 57.291664L62.01875 57.291664L62.01875 65.916664ZM70.59688 64.90104L70.59688 65.916664L64.90938 65.916664Q64.90938 65.541664 65.03438 65.18229Q65.25313 64.604164 65.72188 64.041664Q66.20625 63.479164 67.1125 62.74479Q68.51875 61.58854 69.00313 60.916664Q69.50313 60.24479 69.50313 59.65104Q69.50313 59.02604 69.05 58.604164Q68.59688 58.166664 67.87813 58.166664Q67.1125 58.166664 66.65938 58.61979Q66.20625 59.072914 66.19063 59.885414L65.1125 59.77604Q65.22188 58.55729 65.94063 57.93229Q66.675 57.291664 67.90938 57.291664Q69.14375 57.291664 69.8625 57.979164Q70.58125 58.666664 70.58125 59.68229Q70.58125 60.197914 70.3625 60.697914Q70.15938 61.18229 69.65938 61.74479Q69.175 62.291664 68.05 63.24479Q67.09688 64.041664 66.81563 64.33854Q66.55 64.61979 66.37813 64.90104L70.59688 64.90104Z" fill-rule="nonzero"/><path fill="#000000" d="M125.43549 316.4344L125.43549 317.45L119.74799 317.45Q119.74799 317.075 119.87299 316.71564Q120.09174 316.1375 120.56049 315.575Q121.04487 315.0125 121.95112 314.27814Q123.35737 313.1219 123.84174 312.45Q124.34174 311.77814 124.34174 311.1844Q124.34174 310.5594 123.88862 310.1375Q123.43549 309.7 122.71674 309.7Q121.95112 309.7 121.49799 310.15314Q121.04487 310.60626 121.02924 311.41876L119.95112 311.3094Q120.06049 310.09064 120.77924 309.46564Q121.51362 308.825 122.74799 308.825Q123.98237 308.825 124.70112 309.5125Q125.41987 310.2 125.41987 311.21564Q125.41987 311.73126 125.20112 312.23126Q124.99799 312.71564 124.49799 313.27814Q124.01362 313.825 122.88862 314.77814Q121.93549 315.575 121.65424 315.8719Q121.38862 316.15314 121.21674 316.4344L125.43549 316.4344ZM126.88862 313.21564Q126.88862 311.6844 127.20112 310.7625Q127.51362 309.825 128.12299 309.325Q128.74799 308.825 129.68549 308.825Q130.37299 308.825 130.88861 309.10626Q131.41986 309.3875 131.76361 309.91876Q132.10736 310.4344 132.29486 311.1844Q132.48236 311.9344 132.48236 313.21564Q132.48236 314.73126 132.16986 315.65314Q131.87299 316.575 131.24799 317.09064Q130.63861 317.59064 129.68549 317.59064Q128.45111 317.59064 127.73237 316.7Q126.88862 315.6375 126.88862 313.21564ZM127.96674 313.21564Q127.96674 315.325 128.46674 316.02814Q128.96674 316.73126 129.68549 316.73126Q130.41986 316.73126 130.90424 316.02814Q131.40424 315.325 131.40424 313.21564Q131.40424 311.09064 130.90424 310.40314Q130.41986 309.7 129.66986 309.7Q128.95111 309.7 128.51361 310.3094Q127.96674 311.09064 127.96674 313.21564ZM137.85736 317.45L136.81049 317.45L136.81049 310.73126Q136.41986 311.09064 135.79486 311.46564Q135.18549 311.825 134.70111 311.9969L134.70111 310.98126Q135.57611 310.5594 136.23236 309.98126Q136.90424 309.3875 137.18549 308.825L137.85736 308.825L137.85736 317.45ZM146.43549 316.4344L146.43549 317.45L140.74799 317.45Q140.74799 317.075 140.87299 316.71564Q141.09174 316.1375 141.56049 315.575Q142.04486 315.0125 142.95111 314.27814Q144.35736 313.1219 144.84174 312.45Q145.34174 311.77814 145.34174 311.1844Q145.34174 310.5594 144.88861 310.1375Q144.43549 309.7 143.71674 309.7Q142.95111 309.7 142.49799 310.15314Q142.04486 310.60626 142.02924 311.41876L140.95111 311.3094Q141.06049 310.09064 141.77924 309.46564Q142.51361 308.825 143.74799 308.825Q144.98236 308.825 145.70111 309.5125Q146.41986 310.2 146.41986 311.21564Q146.41986 311.73126 146.20111 312.23126Q145.99799 312.71564 145.49799 313.27814Q145.01361 313.825 143.88861 314.77814Q142.93549 315.575 142.65424 315.8719Q142.38861 316.15314 142.21674 316.4344L146.43549 316.4344Z" fill-rule="nonzero"/><path fill="#000000" d="M223.49118 316.4344L223.49118 317.45L217.80368 317.45Q217.80368 317.075 217.92868 316.71564Q218.14743 316.1375 218.61618 315.575Q219.10056 315.0125 220.0068 314.27814Q221.41306 313.1219 221.89743 312.45Q222.39743 311.77814 222.39743 311.1844Q222.39743 310.5594 221.9443 310.1375Q221.49118 309.7 220.77243 309.7Q220.0068 309.7 219.55368 310.15314Q219.10056 310.60626 219.08493 311.41876L218.0068 311.3094Q218.11618 310.09064 218.83493 309.46564Q219.5693 308.825 220.80368 308.825Q222.03806 308.825 222.7568 309.5125Q223.47556 310.2 223.47556 311.21564Q223.47556 311.73126 223.2568 312.23126Q223.05368 312.71564 222.55368 313.27814Q222.0693 313.825 220.9443 314.77814Q219.99118 315.575 219.70993 315.8719Q219.4443 316.15314 219.27243 316.4344L223.49118 316.4344ZM224.9443 313.21564Q224.9443 311.6844 225.2568 310.7625Q225.5693 309.825 226.17868 309.325Q226.80368 308.825 227.74118 308.825Q228.42868 308.825 228.9443 309.10626Q229.47556 309.3875 229.8193 309.91876Q230.16306 310.4344 230.35056 311.1844Q230.53806 311.9344 230.53806 313.21564Q230.53806 314.73126 230.22556 315.65314Q229.92868 316.575 229.30368 317.09064Q228.6943 317.59064 227.74118 317.59064Q226.5068 317.59064 225.78806 316.7Q224.9443 315.6375 224.9443 313.21564ZM226.02243 313.21564Q226.02243 315.325 226.52243 316.02814Q227.02243 316.73126 227.74118 316.73126Q228.47556 316.73126 228.95993 316.02814Q229.45993 315.325 229.45993 313.21564Q229.45993 311.09064 228.95993 310.40314Q228.47556 309.7 227.72556 309.7Q227.0068 309.7 226.5693 310.3094Q226.02243 311.09064 226.02243 313.21564ZM235.91306 317.45L234.86618 317.45L234.86618 310.73126Q234.47556 311.09064 233.85056 311.46564Q233.24118 311.825 232.7568 311.9969L232.7568 310.98126Q233.6318 310.5594 234.28806 309.98126Q234.95993 309.3875 235.24118 308.825L235.91306 308.825L235.91306 317.45ZM242.3193 317.45L242.3193 315.3875L238.60056 315.3875L238.60056 314.41876L242.52243 308.85626L243.3818 308.85626L243.3818 314.41876L244.53806 314.41876L244.53806 315.3875L243.3818 315.3875L243.3818 317.45L242.3193 317.45ZM242.3193 314.41876L242.3193 310.5594L239.6318 314.41876L242.3193 314.41876Z" fill-rule="nonzero"/><path fill="#000000" d="M321.54688 316.4344L321.54688 317.45L315.85938 317.45Q315.85938 317.075 315.98438 316.71564Q316.20312 316.1375 316.67188 315.575Q317.15625 315.0125 318.0625 314.27814Q319.46875 313.1219 319.95312 312.45Q320.45312 311.77814 320.45312 311.1844Q320.45312 310.5594 320.0 310.1375Q319.54688 309.7 318.82812 309.7Q318.0625 309.7 317.60938 310.15314Q317.15625 310.60626 317.14062 311.41876L316.0625 311.3094Q316.17188 310.09064 316.89062 309.46564Q317.625 308.825 318.85938 308.825Q320.09375 308.825 320.8125 309.5125Q321.53125 310.2 321.53125 311.21564Q321.53125 311.73126 321.3125 312.23126Q321.10938 312.71564 320.60938 313.27814Q320.125 313.825 319.0 314.77814Q318.04688 315.575 317.76562 315.8719Q317.5 316.15314 317.32812 316.4344L321.54688 316.4344ZM323.0 313.21564Q323.0 311.6844 323.3125 310.7625Q323.625 309.825 324.23438 309.325Q324.85938 308.825 325.79688 308.825Q326.48438 308.825 327.0 309.10626Q327.53125 309.3875 327.875 309.91876Q328.21875 310.4344 328.40625 311.1844Q328.59375 311.9344 328.59375 313.21564Q328.59375 314.73126 328.28125 315.65314Q327.98438 316.575 327.35938 317.09064Q326.75 317.59064 325.79688 317.59064Q324.5625 317.59064 323.84375 316.7Q323.0 315.6375 323.0 313.21564ZM324.07812 313.21564Q324.07812 315.325 324.57812 316.02814Q325.07812 316.73126 325.79688 316.73126Q326.53125 316.73126 327.01562 316.02814Q327.51562 315.325 327.51562 313.21564Q327.51562 311.09064 327.01562 310.40314Q326.53125 309.7 325.78125 309.7Q325.0625 309.7 324.625 310.3094Q324.07812 311.09064 324.07812 313.21564ZM333.96875 317.45L332.92188 317.45L332.92188 310.73126Q332.53125 311.09064 331.90625 311.46564Q331.29688 311.825 330.8125 311.9969L330.8125 310.98126Q331.6875 310.5594 332.34375 309.98126Q333.01562 309.3875 333.29688 308.825L333.96875 308.825L333.96875 317.45ZM342.46875 310.96564L341.42188 311.04376Q341.28125 310.41876 341.03125 310.1375Q340.59375 309.6844 339.96875 309.6844Q339.46875 309.6844 339.07812 309.96564Q338.59375 310.34064 338.29688 311.04376Q338.01562 311.73126 338.0 313.0125Q338.375 312.4344 338.92188 312.15314Q339.48438 311.8719 340.09375 311.8719Q341.14062 311.8719 341.875 312.65314Q342.625 313.4344 342.625 314.65314Q342.625 315.46564 342.26562 316.16876Q341.92188 316.85626 341.3125 317.23126Q340.70312 317.59064 339.9375 317.59064Q338.60938 317.59064 337.78125 316.6219Q336.95312 315.65314 336.95312 313.4344Q336.95312 310.9344 337.875 309.8094Q338.67188 308.825 340.03125 308.825Q341.04688 308.825 341.6875 309.40314Q342.34375 309.96564 342.46875 310.96564ZM338.17188 314.66876Q338.17188 315.21564 338.39062 315.71564Q338.625 316.2 339.03125 316.46564Q339.45312 316.73126 339.92188 316.73126Q340.57812 316.73126 341.0625 316.2Q341.54688 315.65314 341.54688 314.73126Q341.54688 313.84064 341.0625 313.325Q340.59375 312.8094 339.875 312.8094Q339.15625 312.8094 338.65625 313.325Q338.17188 313.84064 338.17188 314.66876Z" fill-rule="nonzero"/><path fill="#000000" d="M419.60257 316.4344L419.60257 317.45L413.91507 317.45Q413.91507 317.075 414.04007 316.71564Q414.25882 316.1375 414.72757 315.575Q415.21194 315.0125 416.1182 314.27814Q417.52444 313.1219 418.00882 312.45Q418.50882 311.77814 418.50882 311.1844Q418.50882 310.5594 418.0557 310.1375Q417.60257 309.7 416.88382 309.7Q416.1182 309.7 415.66507 310.15314Q415.21194 310.60626 415.19632 311.41876L414.1182 311.3094Q414.22757 310.09064 414.94632 309.46564Q415.6807 308.825 416.91507 308.825Q418.14944 308.825 418.8682 309.5125Q419.58694 310.2 419.58694 311.21564Q419.58694 311.73126 419.3682 312.23126Q419.16507 312.71564 418.66507 313.27814Q418.1807 313.825 417.0557 314.77814Q416.10257 315.575 415.82132 315.8719Q415.5557 316.15314 415.38382 316.4344L419.60257 316.4344ZM421.0557 313.21564Q421.0557 311.6844 421.3682 310.7625Q421.6807 309.825 422.29007 309.325Q422.91507 308.825 423.85257 308.825Q424.54007 308.825 425.0557 309.10626Q425.58694 309.3875 425.9307 309.91876Q426.27444 310.4344 426.46194 311.1844Q426.64944 311.9344 426.64944 313.21564Q426.64944 314.73126 426.33694 315.65314Q426.04007 316.575 425.41507 317.09064Q424.8057 317.59064 423.85257 317.59064Q422.6182 317.59064 421.89944 316.7Q421.0557 315.6375 421.0557 313.21564ZM422.13382 313.21564Q422.13382 315.325 422.63382 316.02814Q423.13382 316.73126 423.85257 316.73126Q424.58694 316.73126 425.07132 316.02814Q425.57132 315.325 425.57132 313.21564Q425.57132 311.09064 425.07132 310.40314Q424.58694 309.7 423.83694 309.7Q423.1182 309.7 422.6807 310.3094Q422.13382 311.09064 422.13382 313.21564ZM432.02444 317.45L430.97757 317.45L430.97757 310.73126Q430.58694 311.09064 429.96194 311.46564Q429.35257 311.825 428.8682 311.9969L428.8682 310.98126Q429.7432 310.5594 430.39944 309.98126Q431.07132 309.3875 431.35257 308.825L432.02444 308.825L432.02444 317.45ZM436.6807 312.79376Q436.02444 312.54376 435.69632 312.10626Q435.38382 311.65314 435.38382 311.04376Q435.38382 310.10626 436.0557 309.46564Q436.7432 308.825 437.85257 308.825Q438.97757 308.825 439.66507 309.48126Q440.35257 310.1375 440.35257 311.075Q440.35257 311.66876 440.04007 312.10626Q439.72757 312.54376 439.08694 312.79376Q439.88382 313.04376 440.29007 313.6219Q440.69632 314.2 440.69632 314.9969Q440.69632 316.09064 439.91507 316.84064Q439.14944 317.59064 437.8682 317.59064Q436.60257 317.59064 435.82132 316.84064Q435.04007 316.09064 435.04007 314.96564Q435.04007 314.1219 435.46194 313.5594Q435.89944 312.9969 436.6807 312.79376ZM436.46194 310.9969Q436.46194 311.60626 436.85257 311.9969Q437.25882 312.3875 437.88382 312.3875Q438.4932 312.3875 438.88382 312.0125Q439.27444 311.6219 439.27444 311.0594Q439.27444 310.48126 438.8682 310.09064Q438.46194 309.6844 437.8682 309.6844Q437.25882 309.6844 436.85257 310.075Q436.46194 310.46564 436.46194 310.9969ZM436.13382 314.96564Q436.13382 315.41876 436.33694 315.84064Q436.5557 316.2625 436.97757 316.4969Q437.39944 316.73126 437.88382 316.73126Q438.63382 316.73126 439.1182 316.2469Q439.6182 315.7625 439.6182 315.0125Q439.6182 314.2469 439.1182 313.7469Q438.6182 313.2469 437.85257 313.2469Q437.10257 313.2469 436.6182 313.7469Q436.13382 314.23126 436.13382 314.96564Z" fill-rule="nonzero"/><path fill="#000000" d="M517.65826 316.4344L517.65826 317.45L511.97076 317.45Q511.97076 317.075 512.09576 316.71564Q512.3145 316.1375 512.78326 315.575Q513.26764 315.0125 514.1739 314.27814Q515.58014 313.1219 516.0645 312.45Q516.5645 311.77814 516.5645 311.1844Q516.5645 310.5594 516.1114 310.1375Q515.65826 309.7 514.9395 309.7Q514.1739 309.7 513.72076 310.15314Q513.26764 310.60626 513.252 311.41876L512.1739 311.3094Q512.28326 310.09064 513.002 309.46564Q513.7364 308.825 514.97076 308.825Q516.20514 308.825 516.9239 309.5125Q517.64264 310.2 517.64264 311.21564Q517.64264 311.73126 517.4239 312.23126Q517.22076 312.71564 516.72076 313.27814Q516.2364 313.825 515.1114 314.77814Q514.15826 315.575 513.877 315.8719Q513.6114 316.15314 513.4395 316.4344L517.65826 316.4344ZM519.1114 313.21564Q519.1114 311.6844 519.4239 310.7625Q519.7364 309.825 520.34576 309.325Q520.97076 308.825 521.90826 308.825Q522.59576 308.825 523.1114 309.10626Q523.64264 309.3875 523.9864 309.91876Q524.33014 310.4344 524.51764 311.1844Q524.70514 311.9344 524.70514 313.21564Q524.70514 314.73126 524.39264 315.65314Q524.09576 316.575 523.47076 317.09064Q522.8614 317.59064 521.90826 317.59064Q520.6739 317.59064 519.95514 316.7Q519.1114 315.6375 519.1114 313.21564ZM520.1895 313.21564Q520.1895 315.325 520.6895 316.02814Q521.1895 316.73126 521.90826 316.73126Q522.64264 316.73126 523.127 316.02814Q523.627 315.325 523.627 313.21564Q523.627 311.09064 523.127 310.40314Q522.64264 309.7 521.89264 309.7Q521.1739 309.7 520.7364 310.3094Q520.1895 311.09064 520.1895 313.21564ZM531.65826 316.4344L531.65826 317.45L525.97076 317.45Q525.97076 317.075 526.09576 316.71564Q526.3145 316.1375 526.78326 315.575Q527.26764 315.0125 528.1739 314.27814Q529.58014 313.1219 530.0645 312.45Q530.5645 311.77814 530.5645 311.1844Q530.5645 310.5594 530.1114 310.1375Q529.65826 309.7 528.9395 309.7Q528.1739 309.7 527.72076 310.15314Q527.26764 310.60626 527.252 311.41876L526.1739 311.3094Q526.28326 310.09064 527.002 309.46564Q527.7364 308.825 528.97076 308.825Q530.20514 308.825 530.9239 309.5125Q531.64264 310.2 531.64264 311.21564Q531.64264 311.73126 531.4239 312.23126Q531.22076 312.71564 530.72076 313.27814Q530.2364 313.825 529.1114 314.77814Q528.15826 315.575 527.877 315.8719Q527.6114 316.15314 527.4395 316.4344L531.65826 316.4344ZM533.1114 313.21564Q533.1114 311.6844 533.4239 310.7625Q533.7364 309.825 534.34576 309.325Q534.97076 308.825 535.90826 308.825Q536.59576 308.825 537.1114 309.10626Q537.64264 309.3875 537.9864 309.91876Q538.33014 310.4344 538.51764 311.1844Q538.70514 311.9344 538.70514 313.21564Q538.70514 314.73126 538.39264 315.65314Q538.09576 316.575 537.47076 317.09064Q536.8614 317.59064 535.90826 317.59064Q534.6739 317.59064 533.95514 316.7Q533.1114 315.6375 533.1114 313.21564ZM534.1895 313.21564Q534.1895 315.325 534.6895 316.02814Q535.1895 316.73126 535.90826 316.73126Q536.64264 316.73126 537.127 316.02814Q537.627 315.325 537.627 313.21564Q537.627 311.09064 537.127 310.40314Q536.64264 309.7 535.89264 309.7Q535.1739 309.7 534.7364 310.3094Q534.1895 311.09064 534.1895 313.21564Z" fill-rule="nonzero"/><path fill="#757575" d="M19.8625 41.51875L19.8625 27.175L21.471874 27.175L21.471874 28.51875Q22.034374 27.7375 22.7375 27.346874Q23.45625 26.940624 24.471874 26.940624Q25.8 26.940624 26.815624 27.628124Q27.83125 28.315624 28.346874 29.565624Q28.878124 30.8 28.878124 32.284374Q28.878124 33.878124 28.3 35.159374Q27.7375 36.425 26.64375 37.1125Q25.55 37.784374 24.346874 37.784374Q23.471874 37.784374 22.76875 37.409374Q22.08125 37.034374 21.628124 36.471874L21.628124 41.51875L19.8625 41.51875ZM21.45625 32.425Q21.45625 34.425 22.26875 35.378124Q23.08125 36.33125 24.2375 36.33125Q25.409374 36.33125 26.2375 35.346874Q27.08125 34.3625 27.08125 32.26875Q27.08125 30.3 26.253124 29.315624Q25.440624 28.315624 24.315624 28.315624Q23.190624 28.315624 22.315624 29.378124Q21.45625 30.425 21.45625 32.425ZM31.159374 37.55L31.159374 23.2375L33.05 23.2375L33.05 29.1125L40.4875 29.1125L40.4875 23.2375L42.378124 23.2375L42.378124 37.55L40.4875 37.55L40.4875 30.8L33.05 30.8L33.05 37.55L31.159374 37.55ZM49.8625 41.51875L49.8625 27.175L51.471874 27.175L51.471874 28.51875Q52.034374 27.7375 52.7375 27.346874Q53.45625 26.940624 54.471874 26.940624Q55.8 26.940624 56.815624 27.628124Q57.83125 28.315624 58.346874 29.565624Q58.878124 30.8 58.878124 32.284374Q58.878124 33.878124 58.3 35.159374Q57.7375 36.425 56.64375 37.1125Q55.55 37.784374 54.346874 37.784374Q53.471874 37.784374 52.76875 37.409374Q52.08125 37.034374 51.628124 36.471874L51.628124 41.51875L49.8625 41.51875ZM51.45625 32.425Q51.45625 34.425 52.26875 35.378124Q53.08125 36.33125 54.2375 36.33125Q55.409374 36.33125 56.2375 35.346874Q57.08125 34.3625 57.08125 32.26875Q57.08125 30.3 56.253124 29.315624Q55.440624 28.315624 54.315624 28.315624Q53.190624 28.315624 52.315624 29.378124Q51.45625 30.425 51.45625 32.425ZM60.221874 32.3625Q60.221874 29.4875 61.815624 28.096874Q63.159374 26.940624 65.08125 26.940624Q67.22188 26.940624 68.56563 28.346874Q69.925 29.753124 69.925 32.221874Q69.925 34.221874 69.33125 35.378124Q68.7375 36.51875 67.58125 37.159374Q66.44063 37.784374 65.08125 37.784374Q62.89375 37.784374 61.55 36.39375Q60.221874 34.9875 60.221874 32.3625ZM62.01875 32.3625Q62.01875 34.3625 62.878124 35.346874Q63.753124 36.33125 65.08125 36.33125Q66.39375 36.33125 67.25313 35.346874Q68.12813 34.346874 68.12813 32.3Q68.12813 30.378124 67.25313 29.39375Q66.37813 28.39375 65.08125 28.39375Q63.753124 28.39375 62.878124 29.39375Q62.01875 30.378124 62.01875 32.3625ZM71.84688 37.55L71.84688 27.175L73.425 27.175L73.425 28.753124Q74.03438 27.64375 74.55 27.3Q75.06563 26.940624 75.675 26.940624Q76.56563 26.940624 77.4875 27.503124L76.87813 29.14375Q76.2375 28.753124 75.59688 28.753124Q75.01875 28.753124 74.55 29.1125Q74.09688 29.45625 73.89375 30.065624Q73.6125 31.003124 73.6125 32.1125L73.6125 37.55L71.84688 37.55ZM91.64375 36.26875Q90.65938 37.096874 89.75313 37.440624Q88.84688 37.784374 87.81563 37.784374Q86.1125 37.784374 85.19063 36.95625Q84.26875 36.1125 84.26875 34.815624Q84.26875 34.05 84.6125 33.425Q84.97188 32.8 85.53438 32.425Q86.09688 32.034374 86.8 31.83125Q87.31563 31.70625 88.3625 31.565624Q90.4875 31.315624 91.4875 30.971874Q91.50313 30.6125 91.50313 30.503124Q91.50313 29.440624 91.00313 28.9875Q90.33125 28.39375 89.00313 28.39375Q87.75313 28.39375 87.15938 28.83125Q86.58125 29.26875 86.3 30.378124L84.58125 30.14375Q84.81563 29.034374 85.34688 28.3625Q85.87813 27.675 86.89375 27.315624Q87.90938 26.940624 89.25313 26.940624Q90.58125 26.940624 91.40938 27.253124Q92.2375 27.565624 92.62813 28.05Q93.01875 28.51875 93.175 29.2375Q93.26875 29.690624 93.26875 30.8625L93.26875 33.20625Q93.26875 35.659374 93.37813 36.315624Q93.4875 36.95625 93.83125 37.55L91.9875 37.55Q91.72188 37.003124 91.64375 36.26875ZM91.4875 32.346874Q90.53438 32.7375 88.6125 33.003124Q87.53438 33.159374 87.08125 33.3625Q86.64375 33.55 86.39375 33.925Q86.14375 34.3 86.14375 34.76875Q86.14375 35.471874 86.675 35.940624Q87.20625 36.409374 88.2375 36.409374Q89.25313 36.409374 90.03438 35.971874Q90.83125 35.51875 91.20625 34.753124Q91.4875 34.14375 91.4875 32.9875L91.4875 32.346874ZM95.8625 37.55L95.8625 27.175L97.45625 27.175L97.45625 28.659374Q98.59688 26.940624 100.75313 26.940624Q101.69063 26.940624 102.47188 27.284374Q103.26875 27.6125 103.65938 28.159374Q104.05 28.70625 104.20625 29.45625Q104.3 29.95625 104.3 31.175L104.3 37.55L102.53438 37.55L102.53438 31.2375Q102.53438 30.159374 102.33125 29.628124Q102.12813 29.096874 101.59688 28.784374Q101.08125 28.471874 100.37813 28.471874Q99.25313 28.471874 98.44063 29.190624Q97.62813 29.89375 97.62813 31.878124L97.62813 37.55L95.8625 37.55ZM105.22188 32.3625Q105.22188 29.4875 106.81563 28.096874Q108.15938 26.940624 110.08125 26.940624Q112.22188 26.940624 113.56563 28.346874Q114.925 29.753124 114.925 32.221874Q114.925 34.221874 114.33125 35.378124Q113.7375 36.51875 112.58125 37.159374Q111.44063 37.784374 110.08125 37.784374Q107.89375 37.784374 106.55 36.39375Q105.22188 34.9875 105.22188 32.3625ZM107.01875 32.3625Q107.01875 34.3625 107.87813 35.346874Q108.75313 36.33125 110.08125 36.33125Q111.39375 36.33125 112.25313 35.346874Q113.12813 34.346874 113.12813 32.3Q113.12813 30.378124 112.25313 29.39375Q111.37813 28.39375 110.08125 28.39375Q108.75313 28.39375 107.87813 29.39375Q107.01875 30.378124 107.01875 32.3625ZM126.22188 41.753124Q124.76875 39.925 123.76875 37.471874Q122.76875 35.003124 122.76875 32.3625Q122.76875 30.034374 123.51875 27.909374Q124.39375 25.440624 126.22188 22.9875L127.4875 22.9875Q126.3 25.01875 125.925 25.89375Q125.33125 27.2375 124.9875 28.70625Q124.56563 30.534374 124.56563 32.378124Q124.56563 37.065624 127.4875 41.753124L126.22188 41.753124ZM138.6125 35.8625L138.6125 37.55L129.15938 37.55Q129.14375 36.909374 129.3625 36.33125Q129.72188 35.3625 130.51875 34.425Q131.31563 33.4875 132.81563 32.253124Q135.15938 30.346874 135.97188 29.2375Q136.8 28.1125 136.8 27.1125Q136.8 26.065624 136.05 25.346874Q135.3 24.628124 134.09688 24.628124Q132.83125 24.628124 132.06563 25.39375Q131.3 26.159374 131.3 27.503124L129.4875 27.315624Q129.675 25.3 130.87813 24.2375Q132.09688 23.175 134.14375 23.175Q136.19063 23.175 137.39375 24.315624Q138.59688 25.45625 138.59688 27.14375Q138.59688 28.003124 138.2375 28.846874Q137.89375 29.675 137.08125 30.596874Q136.26875 31.503124 134.37813 33.1125Q132.78438 34.440624 132.33125 34.909374Q131.89375 35.378124 131.59688 35.8625L138.6125 35.8625ZM140.37813 30.4875Q140.37813 27.95625 140.89375 26.409374Q141.425 24.846874 142.45625 24.01875Q143.4875 23.175 145.05 23.175Q146.20625 23.175 147.06563 23.64375Q147.94063 24.096874 148.50313 24.971874Q149.06563 25.846874 149.39375 27.1125Q149.72188 28.3625 149.72188 30.4875Q149.72188 33.003124 149.19063 34.55Q148.675 36.096874 147.64375 36.95625Q146.62813 37.8 145.05 37.8Q142.97188 37.8 141.8 36.315624Q140.37813 34.51875 140.37813 30.4875ZM142.19063 30.4875Q142.19063 34.01875 143.00313 35.190624Q143.83125 36.346874 145.05 36.346874Q146.25313 36.346874 147.08125 35.175Q147.90938 34.003124 147.90938 30.4875Q147.90938 26.95625 147.08125 25.8Q146.25313 24.628124 145.03438 24.628124Q143.81563 24.628124 143.09688 25.659374Q142.19063 26.95625 142.19063 30.4875ZM158.00313 37.55L156.2375 37.55L156.2375 26.346874Q155.6125 26.95625 154.58125 27.565624Q153.55 28.159374 152.72188 28.471874L152.72188 26.76875Q154.20625 26.08125 155.3 25.096874Q156.40938 24.096874 156.8625 23.175L158.00313 23.175L158.00313 37.55ZM169.00313 37.55L167.2375 37.55L167.2375 26.346874Q166.6125 26.95625 165.58125 27.565624Q164.55 28.159374 163.72188 28.471874L163.72188 26.76875Q165.20625 26.08125 166.3 25.096874Q167.40938 24.096874 167.8625 23.175L169.00313 23.175L169.00313 37.55ZM173.19063 33.253124L173.19063 31.4875L178.58125 31.4875L178.58125 33.253124L173.19063 33.253124ZM189.6125 35.8625L189.6125 37.55L180.15938 37.55Q180.14375 36.909374 180.3625 36.33125Q180.72188 35.3625 181.51875 34.425Q182.31563 33.4875 183.81563 32.253124Q186.15938 30.346874 186.97188 29.2375Q187.8 28.1125 187.8 27.1125Q187.8 26.065624 187.05 25.346874Q186.3 24.628124 185.09688 24.628124Q183.83125 24.628124 183.06563 25.39375Q182.3 26.159374 182.3 27.503124L180.4875 27.315624Q180.675 25.3 181.87813 24.2375Q183.09688 23.175 185.14375 23.175Q187.19063 23.175 188.39375 24.315624Q189.59688 25.45625 189.59688 27.14375Q189.59688 28.003124 189.2375 28.846874Q188.89375 29.675 188.08125 30.596874Q187.26875 31.503124 185.37813 33.1125Q183.78438 34.440624 183.33125 34.909374Q182.89375 35.378124 182.59688 35.8625L189.6125 35.8625ZM191.37813 30.4875Q191.37813 27.95625 191.89375 26.409374Q192.425 24.846874 193.45625 24.01875Q194.4875 23.175 196.05 23.175Q197.20625 23.175 198.06563 23.64375Q198.94063 24.096874 199.50313 24.971874Q200.06563 25.846874 200.39375 27.1125Q200.72188 28.3625 200.72188 30.4875Q200.72188 33.003124 200.19063 34.55Q199.675 36.096874 198.64375 36.95625Q197.62813 37.8 196.05 37.8Q193.97188 37.8 192.8 36.315624Q191.37813 34.51875 191.37813 30.4875ZM193.19063 30.4875Q193.19063 34.01875 194.00313 35.190624Q194.83125 36.346874 196.05 36.346874Q197.25313 36.346874 198.08125 35.175Q198.90938 34.003124 198.90938 30.4875Q198.90938 26.95625 198.08125 25.8Q197.25313 24.628124 196.03438 24.628124Q194.81563 24.628124 194.09688 25.659374Q193.19063 26.95625 193.19063 30.4875ZM211.6125 35.8625L211.6125 37.55L202.15938 37.55Q202.14375 36.909374 202.3625 36.33125Q202.72188 35.3625 203.51875 34.425Q204.31563 33.4875 205.81563 32.253124Q208.15938 30.346874 208.97188 29.2375Q209.8 28.1125 209.8 27.1125Q209.8 26.065624 209.05 25.346874Q208.3 24.628124 207.09688 24.628124Q205.83125 24.628124 205.06563 25.39375Q204.3 26.159374 204.3 27.503124L202.4875 27.315624Q202.675 25.3 203.87813 24.2375Q205.09688 23.175 207.14375 23.175Q209.19063 23.175 210.39375 24.315624Q211.59688 25.45625 211.59688 27.14375Q211.59688 28.003124 211.2375 28.846874Q210.89375 29.675 210.08125 30.596874Q209.26875 31.503124 207.37813 33.1125Q205.78438 34.440624 205.33125 34.909374Q204.89375 35.378124 204.59688 35.8625L211.6125 35.8625ZM220.00313 37.55L218.2375 37.55L218.2375 26.346874Q217.6125 26.95625 216.58125 27.565624Q215.55 28.159374 214.72188 28.471874L214.72188 26.76875Q216.20625 26.08125 217.3 25.096874Q218.40938 24.096874 218.8625 23.175L220.00313 23.175L220.00313 37.55ZM226.01875 41.753124L224.76875 41.753124Q227.675 37.065624 227.675 32.378124Q227.675 30.534374 227.26875 28.7375Q226.925 27.26875 226.33125 25.925Q225.95625 25.034374 224.76875 22.9875L226.01875 22.9875Q227.8625 25.440624 228.7375 27.909374Q229.4875 30.034374 229.4875 32.3625Q229.4875 35.003124 228.47188 37.471874Q227.47188 39.925 226.01875 41.753124Z" fill-rule="nonzero"/></svg>