<svg version="1.1" viewBox="0.0 0.0 600.0 371.0" fill="none" stroke="none" stroke-linecap="square" stroke-miterlimit="10" width="600" height="371" xmlns:xlink="http://www.w3.org/1999/xlink" xmlns="http://www.w3.org/2000/svg"><path fill="#ffffff" d="M0 0L600.0 0L600.0 371.0L0 371.0L0 0Z" fill-rule="nonzero"/><path stroke="#cccccc" stroke-width="1.0" stroke-linecap="butt" d="M139.5 61.5L139.5 300.5" fill-rule="nonzero"/><path stroke="#cccccc" stroke-width="1.0" stroke-linecap="butt" d="M236.5 61.5L236.5 300.5" fill-rule="nonzero"/><path stroke="#cccccc" stroke-width="1.0" stroke-linecap="butt" d="M333.5 61.5L333.5 300.5" fill-rule="nonzero"/><path stroke="#cccccc" stroke-width="1.0" stroke-linecap="butt" d="M429.5 61.5L429.5 300.5" fill-rule="nonzero"/><path stroke="#cccccc" stroke-width="1.0" stroke-linecap="butt" d="M526.5 61.5L526.5 300.5" fill-rule="nonzero"/><path stroke="#333333" stroke-width="1.0" stroke-linecap="butt" d="M84.5 300.5L581.5 300.5" fill-rule="nonzero"/><path stroke="#cccccc" stroke-width="1.0" stroke-linecap="butt" d="M84.5 252.5L581.5 252.5" fill-rule="nonzero"/><path stroke="#cccccc" stroke-width="1.0" stroke-linecap="butt" d="M84.5 205.5L581.5 205.5" fill-rule="nonzero"/><path stroke="#cccccc" stroke-width="1.0" stroke-linecap="butt" d="M84.5 157.5L581.5 157.5" fill-rule="nonzero"/><path stroke="#cccccc" stroke-width="1.0" stroke-linecap="butt" d="M84.5 109.5L581.5 109.5" fill-rule="nonzero"/><path stroke="#cccccc" stroke-width="1.0" stroke-linecap="butt" d="M84.5 61.5L581.5 61.5" fill-rule="nonzero"/><clipPath id="id_0"><path d="M84.55 61.916668L581.45 61.916668L581.45 300.45L84.55 300.45L84.55 61.916668Z" clip-rule="nonzero"/></clipPath><path fill="#4285f4" clip-path="url(#id_0)" d="M95.858185 240.91208C95.858185 243.39735 93.84346 245.41208 91.358185 245.41208C88.8729 245.41208 86.858185 243.39735 86.858185 240.91208C86.858185 238.4268 88.8729 236.41208 91.358185 236.41208C93.84346 236.41208 95.858185 238.4268 95.858185 240.91208Z" fill-rule="nonzero"/><path fill="#4285f4" clip-path="url(#id_0)" d="M144.18654 250.45341C144.18654 252.93869 142.17183 254.95341 139.68654 254.95341C137.20126 254.95341 135.18654 252.93869 135.18654 250.45341C135.18654 247.96812 137.20126 245.95341 139.68654 245.95341C142.17183 245.95341 144.18654 247.96812 144.18654 250.45341Z" fill-rule="nonzero"/><path fill="#4285f4" clip-path="url(#id_0)" d="M192.51491 260.3764C192.51491 262.8617 190.50018 264.8764 188.01491 264.8764C185.52963 264.8764 183.51491 262.8617 183.51491 260.3764C183.51491 257.8911 185.52963 255.8764 188.01491 255.8764C190.50018 255.8764 192.51491 257.8911 192.51491 260.3764Z" fill-rule="nonzero"/><path fill="#4285f4" clip-path="url(#id_0)" d="M240.84328 238.62216C240.84328 241.10744 238.82855 243.12216 236.34328 243.12216C233.85799 243.12216 231.84328 241.10744 231.84328 238.62216C231.84328 236.13687 233.85799 234.12216 236.34328 234.12216C238.82855 234.12216 240.84328 236.13687 240.84328 238.62216Z" fill-rule="nonzero"/><path fill="#4285f4" clip-path="url(#id_0)" d="M289.17163 256.94153C289.17163 259.4268 287.15692 261.44153 284.67163 261.44153C282.18634 261.44153 280.17163 259.4268 280.17163 256.94153C280.17163 254.45624 282.18634 252.44151 284.67163 252.44151C287.15692 252.44151 289.17163 254.45624 289.17163 256.94153Z" fill-rule="nonzero"/><path fill="#4285f4" clip-path="url(#id_0)" d="M337.5 256.94153C337.5 259.4268 335.4853 261.44153 333.0 261.44153C330.5147 261.44153 328.5 259.4268 328.5 256.94153C328.5 254.45624 330.5147 252.44151 333.0 252.44151C335.4853 252.44151 337.5 254.45624 337.5 256.94153Z" fill-rule="nonzero"/><path fill="#4285f4" clip-path="url(#id_0)" d="M385.82837 263.42963C385.82837 265.91492 383.81366 267.92963 381.32837 267.92963C378.84308 267.92963 376.82837 265.91492 376.82837 263.42963C376.82837 260.94434 378.84308 258.92963 381.32837 258.92963C383.81366 258.92963 385.82837 260.94434 385.82837 263.42963Z" fill-rule="nonzero"/><path fill="#4285f4" clip-path="url(#id_0)" d="M434.15674 258.46814C434.15674 260.9534 432.142 262.96814 429.65674 262.96814C427.17145 262.96814 425.15674 260.9534 425.15674 258.46814C425.15674 255.98285 427.17145 253.96814 429.65674 253.96814C432.142 253.96814 434.15674 255.98285 434.15674 258.46814Z" fill-rule="nonzero"/><path fill="#4285f4" clip-path="url(#id_0)" d="M482.48508 251.21672C482.48508 253.702 480.47037 255.71672 477.98508 255.71672C475.49982 255.71672 473.48508 253.702 473.48508 251.21672C473.48508 248.73145 475.49982 246.71672 477.98508 246.71672C480.47037 246.71672 482.48508 248.73145 482.48508 251.21672Z" fill-rule="nonzero"/><path fill="#4285f4" clip-path="url(#id_0)" d="M530.8135 251.21672C530.8135 253.702 528.7987 255.71672 526.3135 255.71672C523.8282 255.71672 521.8135 253.702 521.8135 251.21672C521.8135 248.73145 523.8282 246.71672 526.3135 246.71672C528.7987 246.71672 530.8135 248.73145 530.8135 251.21672Z" fill-rule="nonzero"/><path fill="#4285f4" clip-path="url(#id_0)" d="M579.14185 98.746216C579.14185 101.23149 577.1271 103.246216 574.64185 103.246216C572.15656 103.246216 570.14185 101.23149 570.14185 98.746216C570.14185 96.26093 572.15656 94.246216 574.64185 94.246216C577.1271 94.246216 579.14185 96.26093 579.14185 98.746216Z" fill-rule="nonzero"/><path fill="#000000" d="M322.48438 349.45L325.78125 340.85626L327.0 340.85626L330.51562 349.45L329.23438 349.45L328.21875 346.84064L324.64062 346.84064L323.6875 349.45L322.48438 349.45ZM324.96875 345.91876L327.875 345.91876L326.98438 343.54376Q326.5625 342.46564 326.375 341.7625Q326.20312 342.59064 325.90625 343.40314L324.96875 345.91876ZM330.29688 349.45L330.29688 343.23126L331.23438 343.23126L331.23438 344.10626Q331.92188 343.09064 333.21875 343.09064Q333.78125 343.09064 334.25 343.29376Q334.73438 343.4969 334.96875 343.825Q335.20312 344.15314 335.29688 344.59064Q335.34375 344.8875 335.34375 345.6219L335.34375 349.45L334.29688 349.45L334.29688 345.66876Q334.29688 345.0125 334.17188 344.7Q334.04688 344.3875 333.73438 344.2Q333.42188 343.9969 333.0 343.9969Q332.32812 343.9969 331.82812 344.4344Q331.34375 344.85626 331.34375 346.04376L331.34375 349.45L330.29688 349.45ZM336.90625 346.34064Q336.90625 344.60626 337.85938 343.77814Q338.65625 343.09064 339.8125 343.09064Q341.09375 343.09064 341.90625 343.9344Q342.73438 344.7625 342.73438 346.2469Q342.73438 347.45 342.375 348.1375Q342.01562 348.825 341.3125 349.21564Q340.625 349.59064 339.8125 349.59064Q338.51562 349.59064 337.70312 348.7625Q336.90625 347.91876 336.90625 346.34064ZM337.98438 346.34064Q337.98438 347.52814 338.5 348.1219Q339.03125 348.71564 339.8125 348.71564Q340.60938 348.71564 341.125 348.1219Q341.64062 347.52814 341.64062 346.3094Q341.64062 345.15314 341.10938 344.5594Q340.59375 343.96564 339.8125 343.96564Q339.03125 343.96564 338.5 344.5594Q337.98438 345.1375 337.98438 346.34064Z" fill-rule="nonzero"/><path fill="#000000" d="M26.784388 224.63646L26.690638 223.57396Q27.346888 223.49583 27.753138 223.21458Q28.159388 222.93333 28.425013 222.35521Q28.675013 221.76146 28.675013 221.02708Q28.675013 220.38646 28.487513 219.88646Q28.284388 219.38646 27.956263 219.15208Q27.612513 218.90208 27.221888 218.90208Q26.815638 218.90208 26.518763 219.13646Q26.206263 219.37083 26.003138 219.90208Q25.862513 220.26146 25.581263 221.44896Q25.300013 222.62083 25.050013 223.08958Q24.721888 223.71458 24.253138 224.01146Q23.768763 224.30833 23.175013 224.30833Q22.534388 224.30833 21.971888 223.94896Q21.393763 223.57396 21.112513 222.87083Q20.815638 222.15208 20.815638 221.29271Q20.815638 220.33958 21.128138 219.60521Q21.425013 218.87083 22.034388 218.48021Q22.628138 218.08958 23.378138 218.05833L23.456263 219.15208Q22.643763 219.24583 22.237513 219.76146Q21.815638 220.26146 21.815638 221.24583Q21.815638 222.27708 22.190638 222.74583Q22.565638 223.21458 23.096888 223.21458Q23.565638 223.21458 23.862513 222.88646Q24.159388 222.55833 24.471888 221.18333Q24.784388 219.79271 25.018763 219.27708Q25.378138 218.52708 25.909388 218.16771Q26.425013 217.80833 27.128138 217.80833Q27.815638 217.80833 28.425013 218.19896Q29.018763 218.58958 29.362513 219.32396Q29.690638 220.05833 29.690638 220.98021Q29.690638 222.15208 29.362513 222.94896Q29.018763 223.73021 28.331263 224.18333Q27.643763 224.62083 26.784388 224.63646ZM26.440638 216.77708Q24.706263 216.77708 23.878138 215.82396Q23.190638 215.02708 23.190638 213.87083Q23.190638 212.58958 24.034388 211.77708Q24.862513 210.94896 26.346888 210.94896Q27.550013 210.94896 28.237513 211.30833Q28.925013 211.66771 29.315638 212.37083Q29.690638 213.05833 29.690638 213.87083Q29.690638 215.16771 28.862513 215.98021Q28.018763 216.77708 26.440638 216.77708ZM26.440638 215.69896Q27.628138 215.69896 28.221888 215.18333Q28.815638 214.65208 28.815638 213.87083Q28.815638 213.07396 28.221888 212.55833Q27.628138 212.04271 26.409388 212.04271Q25.253138 212.04271 24.659388 212.57396Q24.065638 213.08958 24.065638 213.87083Q24.065638 214.65208 24.659388 215.18333Q25.237513 215.69896 26.440638 215.69896ZM22.550013 214.44896L20.909388 213.66771L20.909388 212.27708L22.550013 213.57396L22.550013 214.44896ZM29.550013 209.41771L20.956263 209.41771L20.956263 208.35521L29.550013 208.35521L29.550013 209.41771ZM22.175013 206.38646L20.956263 206.38646L20.956263 205.32396L22.175013 205.32396L22.175013 206.38646ZM29.550013 206.38646L23.331263 206.38646L23.331263 205.32396L29.550013 205.32396L29.550013 206.38646ZM29.550013 199.35521L28.768763 199.35521Q29.690638 199.94896 29.690638 201.08958Q29.690638 201.83958 29.284388 202.46458Q28.862513 203.08958 28.128138 203.43333Q27.393763 203.77708 26.440638 203.77708Q25.518763 203.77708 24.753138 203.46458Q23.987513 203.15208 23.596888 202.52708Q23.190638 201.90208 23.190638 201.13646Q23.190638 200.57396 23.425013 200.13646Q23.659388 199.69896 24.034388 199.41771L20.956263 199.41771L20.956263 198.37083L29.550013 198.37083L29.550013 199.35521ZM26.440638 202.68333Q27.643763 202.68333 28.237513 202.18333Q28.815638 201.68333 28.815638 200.99583Q28.815638 200.30833 28.253138 199.82396Q27.690638 199.33958 26.534388 199.33958Q25.253138 199.33958 24.659388 199.83958Q24.065638 200.32396 24.065638 201.04271Q24.065638 201.74583 24.643763 202.21458Q25.206263 202.68333 26.440638 202.68333ZM26.440638 196.77708Q24.706263 196.77708 23.878138 195.82396Q23.190638 195.02708 23.190638 193.87083Q23.190638 192.58958 24.034388 191.77708Q24.862513 190.94896 26.346888 190.94896Q27.550013 190.94896 28.237513 191.30833Q28.925013 191.66771 29.315638 192.37083Q29.690638 193.05833 29.690638 193.87083Q29.690638 195.16771 28.862513 195.98021Q28.018763 196.77708 26.440638 196.77708ZM26.440638 195.69896Q27.628138 195.69896 28.221888 195.18333Q28.815638 194.65208 28.815638 193.87083Q28.815638 193.07396 28.221888 192.55833Q27.628138 192.04271 26.409388 192.04271Q25.253138 192.04271 24.659388 192.57396Q24.065638 193.08958 24.065638 193.87083Q24.065638 194.65208 24.659388 195.18333Q25.237513 195.69896 26.440638 195.69896ZM27.690638 189.80833L27.534388 188.77708Q28.159388 188.68333 28.487513 188.29271Q28.815638 187.88646 28.815638 187.15208Q28.815638 186.43333 28.534388 186.08958Q28.237513 185.73021 27.831263 185.73021Q27.471888 185.73021 27.268763 186.04271Q27.128138 186.26146 26.909388 187.12083Q26.612513 188.27708 26.409388 188.73021Q26.190638 189.16771 25.815638 189.40208Q25.440638 189.63646 24.971888 189.63646Q24.565638 189.63646 24.206263 189.44896Q23.846888 189.26146 23.612513 188.93333Q23.440638 188.68333 23.315638 188.26146Q23.190638 187.83958 23.190638 187.33958Q23.190638 186.62083 23.409388 186.07396Q23.612513 185.51146 23.971888 185.24583Q24.331263 184.98021 24.925013 184.88646L25.065638 185.91771Q24.596888 185.98021 24.331263 186.32396Q24.050013 186.65208 24.050013 187.27708Q24.050013 187.99583 24.300013 188.30833Q24.534388 188.62083 24.862513 188.62083Q25.065638 188.62083 25.221888 188.49583Q25.393763 188.35521 25.503138 188.08958Q25.565638 187.93333 25.768763 187.15208Q26.081263 186.02708 26.268763 185.58958Q26.456263 185.15208 26.815638 184.90208Q27.175013 184.65208 27.721888 184.65208Q28.253138 184.65208 28.721888 184.96458Q29.175013 185.26146 29.440638 185.83958Q29.690638 186.41771 29.690638 187.15208Q29.690638 188.37083 29.190638 189.01146Q28.675013 189.63646 27.690638 189.80833ZM28.612513 177.08958L29.534388 176.93333Q29.628138 177.38646 29.628138 177.73021Q29.628138 178.30833 29.456263 178.62083Q29.268763 178.93333 28.971888 179.07396Q28.675013 179.19896 27.721888 179.19896L24.143763 179.19896L24.143763 179.96458L23.331263 179.96458L23.331263 179.19896L21.784388 179.19896L21.159388 178.15208L23.331263 178.15208L23.331263 177.08958L24.143763 177.08958L24.143763 178.15208L27.784388 178.15208Q28.237513 178.15208 28.362513 178.10521Q28.487513 178.04271 28.565638 177.91771Q28.643763 177.79271 28.643763 177.55833Q28.643763 177.37083 28.612513 177.08958ZM26.440638 176.77708Q24.706263 176.77708 23.878138 175.82396Q23.190638 175.02708 23.190638 173.87083Q23.190638 172.58958 24.034388 171.77708Q24.862513 170.94896 26.346888 170.94896Q27.550013 170.94896 28.237513 171.30833Q28.925013 171.66771 29.315638 172.37083Q29.690638 173.05833 29.690638 173.87083Q29.690638 175.16771 28.862513 175.98021Q28.018763 176.77708 26.440638 176.77708ZM26.440638 175.69896Q27.628138 175.69896 28.221888 175.18333Q28.815638 174.65208 28.815638 173.87083Q28.815638 173.07396 28.221888 172.55833Q27.628138 172.04271 26.409388 172.04271Q25.253138 172.04271 24.659388 172.57396Q24.065638 173.08958 24.065638 173.87083Q24.065638 174.65208 24.659388 175.18333Q25.237513 175.69896 26.440638 175.69896ZM28.612513 167.08958L29.534388 166.93333Q29.628138 167.38646 29.628138 167.73021Q29.628138 168.30833 29.456263 168.62083Q29.268763 168.93333 28.971888 169.07396Q28.675013 169.19896 27.721888 169.19896L24.143763 169.19896L24.143763 169.96458L23.331263 169.96458L23.331263 169.19896L21.784388 169.19896L21.159388 168.15208L23.331263 168.15208L23.331263 167.08958L24.143763 167.08958L24.143763 168.15208L27.784388 168.15208Q28.237513 168.15208 28.362513 168.10521Q28.487513 168.04271 28.565638 167.91771Q28.643763 167.79271 28.643763 167.55833Q28.643763 167.37083 28.612513 167.08958ZM28.784388 162.32396Q29.284388 162.91771 29.487513 163.46458Q29.690638 163.99583 29.690638 164.62083Q29.690638 165.65208 29.190638 166.19896Q28.690638 166.74583 27.909388 166.74583Q27.456263 166.74583 27.081263 166.54271Q26.690638 166.33958 26.471888 165.99583Q26.237513 165.65208 26.128138 165.23021Q26.034388 164.93333 25.956263 164.29271Q25.815638 163.02708 25.596888 162.41771Q25.378138 162.41771 25.331263 162.41771Q24.675013 162.41771 24.409388 162.71458Q24.065638 163.12083 24.065638 163.91771Q24.065638 164.65208 24.331263 165.01146Q24.581263 165.37083 25.237513 165.54271L25.096888 166.57396Q24.440638 166.43333 24.034388 166.10521Q23.628138 165.77708 23.409388 165.16771Q23.190638 164.55833 23.190638 163.76146Q23.190638 162.96458 23.378138 162.46458Q23.565638 161.96458 23.846888 161.73021Q24.128138 161.49583 24.565638 161.40208Q24.831263 161.35521 25.534388 161.35521L26.940638 161.35521Q28.409388 161.35521 28.800013 161.29271Q29.190638 161.21458 29.550013 161.01146L29.550013 162.12083Q29.221888 162.27708 28.784388 162.32396ZM26.425013 162.41771Q26.659388 162.99583 26.831263 164.13646Q26.925013 164.79271 27.050013 165.05833Q27.159388 165.32396 27.378138 165.48021Q27.596888 165.62083 27.878138 165.62083Q28.300013 165.62083 28.581263 165.30833Q28.862513 164.98021 28.862513 164.37083Q28.862513 163.76146 28.596888 163.29271Q28.331263 162.80833 27.862513 162.58958Q27.503138 162.41771 26.815638 162.41771L26.425013 162.41771ZM22.175013 159.38646L20.956263 159.38646L20.956263 158.32396L22.175013 158.32396L22.175013 159.38646ZM29.550013 159.38646L23.331263 159.38646L23.331263 158.32396L29.550013 158.32396L29.550013 159.38646ZM27.690638 156.80833L27.534388 155.77708Q28.159388 155.68333 28.487513 155.29271Q28.815638 154.88646 28.815638 154.15208Q28.815638 153.43333 28.534388 153.08958Q28.237513 152.73021 27.831263 152.73021Q27.471888 152.73021 27.268763 153.04271Q27.128138 153.26146 26.909388 154.12083Q26.612513 155.27708 26.409388 155.73021Q26.190638 156.16771 25.815638 156.40208Q25.440638 156.63646 24.971888 156.63646Q24.565638 156.63646 24.206263 156.44896Q23.846888 156.26146 23.612513 155.93333Q23.440638 155.68333 23.315638 155.26146Q23.190638 154.83958 23.190638 154.33958Q23.190638 153.62083 23.409388 153.07396Q23.612513 152.51146 23.971888 152.24583Q24.331263 151.98021 24.925013 151.88646L25.065638 152.91771Q24.596888 152.98021 24.331263 153.32396Q24.050013 153.65208 24.050013 154.27708Q24.050013 154.99583 24.300013 155.30833Q24.534388 155.62083 24.862513 155.62083Q25.065638 155.62083 25.221888 155.49583Q25.393763 155.35521 25.503138 155.08958Q25.565638 154.93333 25.768763 154.15208Q26.081263 153.02708 26.268763 152.58958Q26.456263 152.15208 26.815638 151.90208Q27.175013 151.65208 27.721888 151.65208Q28.253138 151.65208 28.721888 151.96458Q29.175013 152.26146 29.440638 152.83958Q29.690638 153.41771 29.690638 154.15208Q29.690638 155.37083 29.190638 156.01146Q28.675013 156.63646 27.690638 156.80833Z" fill-rule="nonzero"/><path fill="#000000" d="M72.05 300.21564Q72.05 298.6844 72.3625 297.7625Q72.675 296.825 73.28438 296.325Q73.90938 295.825 74.84688 295.825Q75.53438 295.825 76.05 296.10626Q76.58125 296.3875 76.925 296.91876Q77.26875 297.4344 77.45625 298.1844Q77.64375 298.9344 77.64375 300.21564Q77.64375 301.73126 77.33125 302.65314Q77.03438 303.575 76.40938 304.09064Q75.8 304.59064 74.84688 304.59064Q73.6125 304.59064 72.89375 303.7Q72.05 302.6375 72.05 300.21564ZM73.12813 300.21564Q73.12813 302.325 73.62813 303.02814Q74.12813 303.73126 74.84688 303.73126Q75.58125 303.73126 76.06563 303.02814Q76.56563 302.325 76.56563 300.21564Q76.56563 298.09064 76.06563 297.40314Q75.58125 296.7 74.83125 296.7Q74.1125 296.7 73.675 297.3094Q73.12813 298.09064 73.12813 300.21564Z" fill-rule="nonzero"/><path fill="#000000" d="M63.596874 255.72772L63.596874 256.74335L57.909374 256.74335Q57.909374 256.36835 58.034374 256.00897Q58.253124 255.43085 58.721874 254.86835Q59.20625 254.30585 60.1125 253.57147Q61.51875 252.41522 62.003124 251.74335Q62.503124 251.07147 62.503124 250.47772Q62.503124 249.85272 62.05 249.43085Q61.596874 248.99335 60.878124 248.99335Q60.1125 248.99335 59.659374 249.44647Q59.20625 249.8996 59.190624 250.7121L58.1125 250.60272Q58.221874 249.38397 58.940624 248.75897Q59.675 248.11835 60.909374 248.11835Q62.14375 248.11835 62.8625 248.80585Q63.58125 249.49335 63.58125 250.50897Q63.58125 251.0246 63.3625 251.5246Q63.159374 252.00897 62.659374 252.57147Q62.175 253.11835 61.05 254.07147Q60.096874 254.86835 59.815624 255.16522Q59.55 255.44647 59.378124 255.72772L63.596874 255.72772ZM65.05 254.49335L66.15938 254.3996Q66.28438 255.2121 66.72188 255.61835Q67.175 256.0246 67.81563 256.0246Q68.56563 256.0246 69.09688 255.44647Q69.62813 254.86835 69.62813 253.93085Q69.62813 253.0246 69.1125 252.50897Q68.6125 251.97772 67.78438 251.97772Q67.28438 251.97772 66.8625 252.2121Q66.45625 252.44647 66.22188 252.80585L65.2375 252.68085L66.06563 248.2746L70.34688 248.2746L70.34688 249.2746L66.90938 249.2746L66.45625 251.5871Q67.22188 251.04022 68.06563 251.04022Q69.19063 251.04022 69.95625 251.82147Q70.7375 252.60272 70.7375 253.8371Q70.7375 254.99335 70.06563 255.85272Q69.2375 256.88397 67.81563 256.88397Q66.64375 256.88397 65.89375 256.22772Q65.15938 255.57147 65.05 254.49335ZM72.05 252.50897Q72.05 250.97772 72.3625 250.05585Q72.675 249.11835 73.28438 248.61835Q73.90938 248.11835 74.84688 248.11835Q75.53438 248.11835 76.05 248.3996Q76.58125 248.68085 76.925 249.2121Q77.26875 249.72772 77.45625 250.47772Q77.64375 251.22772 77.64375 252.50897Q77.64375 254.0246 77.33125 254.94647Q77.03438 255.86835 76.40938 256.38397Q75.8 256.88397 74.84688 256.88397Q73.6125 256.88397 72.89375 255.99335Q72.05 254.93085 72.05 252.50897ZM73.12813 252.50897Q73.12813 254.61835 73.62813 255.32147Q74.12813 256.0246 74.84688 256.0246Q75.58125 256.0246 76.06563 255.32147Q76.56563 254.61835 76.56563 252.50897Q76.56563 250.38397 76.06563 249.69647Q75.58125 248.99335 74.83125 248.99335Q74.1125 248.99335 73.675 249.60272Q73.12813 250.38397 73.12813 252.50897Z" fill-rule="nonzero"/><path fill="#000000" d="M58.05 206.78667L59.159374 206.69292Q59.284374 207.50542 59.721874 207.91167Q60.175 208.31792 60.815624 208.31792Q61.565624 208.31792 62.096874 207.73979Q62.628124 207.16167 62.628124 206.22417Q62.628124 205.31792 62.1125 204.80229Q61.6125 204.27104 60.784374 204.27104Q60.284374 204.27104 59.8625 204.50542Q59.45625 204.73979 59.221874 205.09917L58.2375 204.97417L59.065624 200.56792L63.346874 200.56792L63.346874 201.56792L59.909374 201.56792L59.45625 203.88042Q60.221874 203.33354 61.065624 203.33354Q62.190624 203.33354 62.95625 204.11479Q63.7375 204.89604 63.7375 206.13042Q63.7375 207.28667 63.065624 208.14604Q62.2375 209.17729 60.815624 209.17729Q59.64375 209.17729 58.89375 208.52104Q58.159374 207.86479 58.05 206.78667ZM65.05 204.80229Q65.05 203.27104 65.3625 202.34917Q65.675 201.41167 66.28438 200.91167Q66.90938 200.41167 67.84688 200.41167Q68.53438 200.41167 69.05 200.69292Q69.58125 200.97417 69.925 201.50542Q70.26875 202.02104 70.45625 202.77104Q70.64375 203.52104 70.64375 204.80229Q70.64375 206.31792 70.33125 207.23979Q70.03438 208.16167 69.40938 208.67729Q68.8 209.17729 67.84688 209.17729Q66.6125 209.17729 65.89375 208.28667Q65.05 207.22417 65.05 204.80229ZM66.12813 204.80229Q66.12813 206.91167 66.62813 207.61479Q67.12813 208.31792 67.84688 208.31792Q68.58125 208.31792 69.06563 207.61479Q69.56563 206.91167 69.56563 204.80229Q69.56563 202.67729 69.06563 201.98979Q68.58125 201.28667 67.83125 201.28667Q67.1125 201.28667 66.675 201.89604Q66.12813 202.67729 66.12813 204.80229ZM72.05 204.80229Q72.05 203.27104 72.3625 202.34917Q72.675 201.41167 73.28438 200.91167Q73.90938 200.41167 74.84688 200.41167Q75.53438 200.41167 76.05 200.69292Q76.58125 200.97417 76.925 201.50542Q77.26875 202.02104 77.45625 202.77104Q77.64375 203.52104 77.64375 204.80229Q77.64375 206.31792 77.33125 207.23979Q77.03438 208.16167 76.40938 208.67729Q75.8 209.17729 74.84688 209.17729Q73.6125 209.17729 72.89375 208.28667Q72.05 207.22417 72.05 204.80229ZM73.12813 204.80229Q73.12813 206.91167 73.62813 207.61479Q74.12813 208.31792 74.84688 208.31792Q75.58125 208.31792 76.06563 207.61479Q76.56563 206.91167 76.56563 204.80229Q76.56563 202.67729 76.06563 201.98979Q75.58125 201.28667 74.83125 201.28667Q74.1125 201.28667 73.675 201.89604Q73.12813 202.67729 73.12813 204.80229Z" fill-rule="nonzero"/><path fill="#000000" d="M58.1125 153.86125L58.1125 152.84563L63.675 152.84563L63.675 153.67375Q62.8625 154.54875 62.05 156.00188Q61.253124 157.43938 60.815624 158.97063Q60.4875 160.04875 60.409374 161.33L59.315624 161.33Q59.33125 160.31438 59.70625 158.87688Q60.096874 157.43938 60.8 156.11125Q61.51875 154.78313 62.33125 153.86125L58.1125 153.86125ZM65.05 159.08L66.15938 158.98625Q66.28438 159.79875 66.72188 160.205Q67.175 160.61125 67.81563 160.61125Q68.56563 160.61125 69.09688 160.03313Q69.62813 159.455 69.62813 158.5175Q69.62813 157.61125 69.1125 157.09563Q68.6125 156.56438 67.78438 156.56438Q67.28438 156.56438 66.8625 156.79875Q66.45625 157.03313 66.22188 157.3925L65.2375 157.2675L66.06563 152.86125L70.34688 152.86125L70.34688 153.86125L66.90938 153.86125L66.45625 156.17375Q67.22188 155.62688 68.06563 155.62688Q69.19063 155.62688 69.95625 156.40813Q70.7375 157.18938 70.7375 158.42375Q70.7375 159.58 70.06563 160.43938Q69.2375 161.47063 67.81563 161.47063Q66.64375 161.47063 65.89375 160.81438Q65.15938 160.15813 65.05 159.08ZM72.05 157.09563Q72.05 155.56438 72.3625 154.6425Q72.675 153.705 73.28438 153.205Q73.90938 152.705 74.84688 152.705Q75.53438 152.705 76.05 152.98625Q76.58125 153.2675 76.925 153.79875Q77.26875 154.31438 77.45625 155.06438Q77.64375 155.81438 77.64375 157.09563Q77.64375 158.61125 77.33125 159.53313Q77.03438 160.455 76.40938 160.97063Q75.8 161.47063 74.84688 161.47063Q73.6125 161.47063 72.89375 160.58Q72.05 159.5175 72.05 157.09563ZM73.12813 157.09563Q73.12813 159.205 73.62813 159.90813Q74.12813 160.61125 74.84688 160.61125Q75.58125 160.61125 76.06563 159.90813Q76.56563 159.205 76.56563 157.09563Q76.56563 154.97063 76.06563 154.28313Q75.58125 153.58 74.83125 153.58Q74.1125 153.58 73.675 154.18938Q73.12813 154.97063 73.12813 157.09563Z" fill-rule="nonzero"/><path fill="#000000" d="M55.01875 113.62334L53.971874 113.62334L53.971874 106.90459Q53.58125 107.26396 52.95625 107.63896Q52.346874 107.99834 51.8625 108.17021L51.8625 107.15459Q52.7375 106.73271 53.39375 106.15459Q54.065624 105.56084 54.346874 104.99834L55.01875 104.99834L55.01875 113.62334ZM58.05 109.38896Q58.05 107.85771 58.3625 106.93584Q58.675 105.99834 59.284374 105.49834Q59.909374 104.99834 60.846874 104.99834Q61.534374 104.99834 62.05 105.27959Q62.58125 105.56084 62.925 106.09209Q63.26875 106.60771 63.45625 107.35771Q63.64375 108.10771 63.64375 109.38896Q63.64375 110.90459 63.33125 111.82646Q63.034374 112.74834 62.409374 113.26396Q61.8 113.76396 60.846874 113.76396Q59.6125 113.76396 58.89375 112.87334Q58.05 111.81084 58.05 109.38896ZM59.128124 109.38896Q59.128124 111.49834 59.628124 112.20146Q60.128124 112.90459 60.846874 112.90459Q61.58125 112.90459 62.065624 112.20146Q62.565624 111.49834 62.565624 109.38896Q62.565624 107.26396 62.065624 106.57646Q61.58125 105.87334 60.83125 105.87334Q60.1125 105.87334 59.675 106.48271Q59.128124 107.26396 59.128124 109.38896ZM65.05 109.38896Q65.05 107.85771 65.3625 106.93584Q65.675 105.99834 66.28438 105.49834Q66.90938 104.99834 67.84688 104.99834Q68.53438 104.99834 69.05 105.27959Q69.58125 105.56084 69.925 106.09209Q70.26875 106.60771 70.45625 107.35771Q70.64375 108.10771 70.64375 109.38896Q70.64375 110.90459 70.33125 111.82646Q70.03438 112.74834 69.40938 113.26396Q68.8 113.76396 67.84688 113.76396Q66.6125 113.76396 65.89375 112.87334Q65.05 111.81084 65.05 109.38896ZM66.12813 109.38896Q66.12813 111.49834 66.62813 112.20146Q67.12813 112.90459 67.84688 112.90459Q68.58125 112.90459 69.06563 112.20146Q69.56563 111.49834 69.56563 109.38896Q69.56563 107.26396 69.06563 106.57646Q68.58125 105.87334 67.83125 105.87334Q67.1125 105.87334 66.675 106.48271Q66.12813 107.26396 66.12813 109.38896ZM72.05 109.38896Q72.05 107.85771 72.3625 106.93584Q72.675 105.99834 73.28438 105.49834Q73.90938 104.99834 74.84688 104.99834Q75.53438 104.99834 76.05 105.27959Q76.58125 105.56084 76.925 106.09209Q77.26875 106.60771 77.45625 107.35771Q77.64375 108.10771 77.64375 109.38896Q77.64375 110.90459 77.33125 111.82646Q77.03438 112.74834 76.40938 113.26396Q75.8 113.76396 74.84688 113.76396Q73.6125 113.76396 72.89375 112.87334Q72.05 111.81084 72.05 109.38896ZM73.12813 109.38896Q73.12813 111.49834 73.62813 112.20146Q74.12813 112.90459 74.84688 112.90459Q75.58125 112.90459 76.06563 112.20146Q76.56563 111.49834 76.56563 109.38896Q76.56563 107.26396 76.06563 106.57646Q75.58125 105.87334 74.83125 105.87334Q74.1125 105.87334 73.675 106.48271Q73.12813 107.26396 73.12813 109.38896Z" fill-rule="nonzero"/><path fill="#000000" d="M55.01875 65.916664L53.971874 65.916664L53.971874 59.197914Q53.58125 59.55729 52.95625 59.93229Q52.346874 60.291664 51.8625 60.46354L51.8625 59.447914Q52.7375 59.02604 53.39375 58.447914Q54.065624 57.854164 54.346874 57.291664L55.01875 57.291664L55.01875 65.916664ZM63.596874 64.90104L63.596874 65.916664L57.909374 65.916664Q57.909374 65.541664 58.034374 65.18229Q58.253124 64.604164 58.721874 64.041664Q59.20625 63.479164 60.1125 62.74479Q61.51875 61.58854 62.003124 60.916664Q62.503124 60.24479 62.503124 59.65104Q62.503124 59.02604 62.05 58.604164Q61.596874 58.166664 60.878124 58.166664Q60.1125 58.166664 59.659374 58.61979Q59.20625 59.072914 59.190624 59.885414L58.1125 59.77604Q58.221874 58.55729 58.940624 57.93229Q59.675 57.291664 60.909374 57.291664Q62.14375 57.291664 62.8625 57.979164Q63.58125 58.666664 63.58125 59.68229Q63.58125 60.197914 63.3625 60.697914Q63.159374 61.18229 62.659374 61.74479Q62.175 62.291664 61.05 63.24479Q60.096874 64.041664 59.815624 64.33854Q59.55 64.61979 59.378124 64.90104L63.596874 64.90104ZM65.05 63.666664L66.15938 63.572914Q66.28438 64.385414 66.72188 64.791664Q67.175 65.197914 67.81563 65.197914Q68.56563 65.197914 69.09688 64.61979Q69.62813 64.041664 69.62813 63.104164Q69.62813 62.197914 69.1125 61.68229Q68.6125 61.15104 67.78438 61.15104Q67.28438 61.15104 66.8625 61.385414Q66.45625 61.61979 66.22188 61.979164L65.2375 61.854164L66.06563 57.447914L70.34688 57.447914L70.34688 58.447914L66.90938 58.447914L66.45625 60.760414Q67.22188 60.21354 68.06563 60.21354Q69.19063 60.21354 69.95625 60.99479Q70.7375 61.77604 70.7375 63.010414Q70.7375 64.166664 70.06563 65.02604Q69.2375 66.05729 67.81563 66.05729Q66.64375 66.05729 65.89375 65.40104Q65.15938 64.74479 65.05 63.666664ZM72.05 61.68229Q72.05 60.15104 72.3625 59.229164Q72.675 58.291664 73.28438 57.791664Q73.90938 57.291664 74.84688 57.291664Q75.53438 57.291664 76.05 57.572914Q76.58125 57.854164 76.925 58.385414Q77.26875 58.90104 77.45625 59.65104Q77.64375 60.40104 77.64375 61.68229Q77.64375 63.197914 77.33125 64.11979Q77.03438 65.041664 76.40938 65.55729Q75.8 66.05729 74.84688 66.05729Q73.6125 66.05729 72.89375 65.166664Q72.05 64.104164 72.05 61.68229ZM73.12813 61.68229Q73.12813 63.791664 73.62813 64.49479Q74.12813 65.197914 74.84688 65.197914Q75.58125 65.197914 76.06563 64.49479Q76.56563 63.791664 76.56563 61.68229Q76.56563 59.55729 76.06563 58.86979Q75.58125 58.166664 74.83125 58.166664Q74.1125 58.166664 73.675 58.77604Q73.12813 59.55729 73.12813 61.68229Z" fill-rule="nonzero"/><path fill="#000000" d="M131.73343 316.4344L131.73343 317.45L126.04592 317.45Q126.04592 317.075 126.17092 316.71564Q126.38967 316.1375 126.85842 315.575Q127.3428 315.0125 128.24905 314.27814Q129.6553 313.1219 130.13968 312.45Q130.63968 311.77814 130.63968 311.1844Q130.63968 310.5594 130.18655 310.1375Q129.73343 309.7 129.01468 309.7Q128.24905 309.7 127.79592 310.15314Q127.3428 310.60626 127.32717 311.41876L126.24905 311.3094Q126.35842 310.09064 127.07717 309.46564Q127.81155 308.825 129.04593 308.825Q130.2803 308.825 130.99905 309.5125Q131.7178 310.2 131.7178 311.21564Q131.7178 311.73126 131.49905 312.23126Q131.29593 312.71564 130.79593 313.27814Q130.31155 313.825 129.18655 314.77814Q128.23343 315.575 127.95217 315.8719Q127.68655 316.15314 127.51467 316.4344L131.73343 316.4344ZM133.18655 313.21564Q133.18655 311.6844 133.49905 310.7625Q133.81155 309.825 134.42093 309.325Q135.04593 308.825 135.98343 308.825Q136.67093 308.825 137.18655 309.10626Q137.7178 309.3875 138.06155 309.91876Q138.4053 310.4344 138.5928 311.1844Q138.7803 311.9344 138.7803 313.21564Q138.7803 314.73126 138.4678 315.65314Q138.17093 316.575 137.54593 317.09064Q136.93655 317.59064 135.98343 317.59064Q134.74905 317.59064 134.0303 316.7Q133.18655 315.6375 133.18655 313.21564ZM134.26468 313.21564Q134.26468 315.325 134.76468 316.02814Q135.26468 316.73126 135.98343 316.73126Q136.7178 316.73126 137.20218 316.02814Q137.70218 315.325 137.70218 313.21564Q137.70218 311.09064 137.20218 310.40314Q136.7178 309.7 135.9678 309.7Q135.24905 309.7 134.81155 310.3094Q134.26468 311.09064 134.26468 313.21564ZM144.1553 317.45L143.10843 317.45L143.10843 310.73126Q142.7178 311.09064 142.0928 311.46564Q141.48343 311.825 140.99905 311.9969L140.99905 310.98126Q141.87405 310.5594 142.5303 309.98126Q143.20218 309.3875 143.48343 308.825L144.1553 308.825L144.1553 317.45ZM152.73343 316.4344L152.73343 317.45L147.04593 317.45Q147.04593 317.075 147.17093 316.71564Q147.38968 316.1375 147.85843 315.575Q148.3428 315.0125 149.24905 314.27814Q150.6553 313.1219 151.13968 312.45Q151.63968 311.77814 151.63968 311.1844Q151.63968 310.5594 151.18655 310.1375Q150.73343 309.7 150.01468 309.7Q149.24905 309.7 148.79593 310.15314Q148.3428 310.60626 148.32718 311.41876L147.24905 311.3094Q147.35843 310.09064 148.07718 309.46564Q148.81155 308.825 150.04593 308.825Q151.2803 308.825 151.99905 309.5125Q152.7178 310.2 152.7178 311.21564Q152.7178 311.73126 152.49905 312.23126Q152.29593 312.71564 151.79593 313.27814Q151.31155 313.825 150.18655 314.77814Q149.23343 315.575 148.95218 315.8719Q148.68655 316.15314 148.51468 316.4344L152.73343 316.4344Z" fill-rule="nonzero"/><path fill="#000000" d="M228.39015 316.4344L228.39015 317.45L222.70265 317.45Q222.70265 317.075 222.82765 316.71564Q223.0464 316.1375 223.51515 315.575Q223.99953 315.0125 224.90578 314.27814Q226.31203 313.1219 226.7964 312.45Q227.2964 311.77814 227.2964 311.1844Q227.2964 310.5594 226.84328 310.1375Q226.39015 309.7 225.6714 309.7Q224.90578 309.7 224.45265 310.15314Q223.99953 310.60626 223.9839 311.41876L222.90578 311.3094Q223.01515 310.09064 223.7339 309.46564Q224.46828 308.825 225.70265 308.825Q226.93703 308.825 227.65578 309.5125Q228.37453 310.2 228.37453 311.21564Q228.37453 311.73126 228.15578 312.23126Q227.95265 312.71564 227.45265 313.27814Q226.96828 313.825 225.84328 314.77814Q224.89015 315.575 224.6089 315.8719Q224.34328 316.15314 224.1714 316.4344L228.39015 316.4344ZM229.84328 313.21564Q229.84328 311.6844 230.15578 310.7625Q230.46828 309.825 231.07765 309.325Q231.70265 308.825 232.64015 308.825Q233.32765 308.825 233.84328 309.10626Q234.37453 309.3875 234.71828 309.91876Q235.06203 310.4344 235.24953 311.1844Q235.43703 311.9344 235.43703 313.21564Q235.43703 314.73126 235.12453 315.65314Q234.82765 316.575 234.20265 317.09064Q233.59328 317.59064 232.64015 317.59064Q231.40578 317.59064 230.68703 316.7Q229.84328 315.6375 229.84328 313.21564ZM230.9214 313.21564Q230.9214 315.325 231.4214 316.02814Q231.9214 316.73126 232.64015 316.73126Q233.37453 316.73126 233.8589 316.02814Q234.3589 315.325 234.3589 313.21564Q234.3589 311.09064 233.8589 310.40314Q233.37453 309.7 232.62453 309.7Q231.90578 309.7 231.46828 310.3094Q230.9214 311.09064 230.9214 313.21564ZM240.81203 317.45L239.76515 317.45L239.76515 310.73126Q239.37453 311.09064 238.74953 311.46564Q238.14015 311.825 237.65578 311.9969L237.65578 310.98126Q238.53078 310.5594 239.18703 309.98126Q239.8589 309.3875 240.14015 308.825L240.81203 308.825L240.81203 317.45ZM247.21828 317.45L247.21828 315.3875L243.49953 315.3875L243.49953 314.41876L247.4214 308.85626L248.28078 308.85626L248.28078 314.41876L249.43703 314.41876L249.43703 315.3875L248.28078 315.3875L248.28078 317.45L247.21828 317.45ZM247.21828 314.41876L247.21828 310.5594L244.53078 314.41876L247.21828 314.41876Z" fill-rule="nonzero"/><path fill="#000000" d="M325.04688 316.4344L325.04688 317.45L319.35938 317.45Q319.35938 317.075 319.48438 316.71564Q319.70312 316.1375 320.17188 315.575Q320.65625 315.0125 321.5625 314.27814Q322.96875 313.1219 323.45312 312.45Q323.95312 311.77814 323.95312 311.1844Q323.95312 310.5594 323.5 310.1375Q323.04688 309.7 322.32812 309.7Q321.5625 309.7 321.10938 310.15314Q320.65625 310.60626 320.64062 311.41876L319.5625 311.3094Q319.67188 310.09064 320.39062 309.46564Q321.125 308.825 322.35938 308.825Q323.59375 308.825 324.3125 309.5125Q325.03125 310.2 325.03125 311.21564Q325.03125 311.73126 324.8125 312.23126Q324.60938 312.71564 324.10938 313.27814Q323.625 313.825 322.5 314.77814Q321.54688 315.575 321.26562 315.8719Q321.0 316.15314 320.82812 316.4344L325.04688 316.4344ZM326.5 313.21564Q326.5 311.6844 326.8125 310.7625Q327.125 309.825 327.73438 309.325Q328.35938 308.825 329.29688 308.825Q329.98438 308.825 330.5 309.10626Q331.03125 309.3875 331.375 309.91876Q331.71875 310.4344 331.90625 311.1844Q332.09375 311.9344 332.09375 313.21564Q332.09375 314.73126 331.78125 315.65314Q331.48438 316.575 330.85938 317.09064Q330.25 317.59064 329.29688 317.59064Q328.0625 317.59064 327.34375 316.7Q326.5 315.6375 326.5 313.21564ZM327.57812 313.21564Q327.57812 315.325 328.07812 316.02814Q328.57812 316.73126 329.29688 316.73126Q330.03125 316.73126 330.51562 316.02814Q331.01562 315.325 331.01562 313.21564Q331.01562 311.09064 330.51562 310.40314Q330.03125 309.7 329.28125 309.7Q328.5625 309.7 328.125 310.3094Q327.57812 311.09064 327.57812 313.21564ZM337.46875 317.45L336.42188 317.45L336.42188 310.73126Q336.03125 311.09064 335.40625 311.46564Q334.79688 311.825 334.3125 311.9969L334.3125 310.98126Q335.1875 310.5594 335.84375 309.98126Q336.51562 309.3875 336.79688 308.825L337.46875 308.825L337.46875 317.45ZM345.96875 310.96564L344.92188 311.04376Q344.78125 310.41876 344.53125 310.1375Q344.09375 309.6844 343.46875 309.6844Q342.96875 309.6844 342.57812 309.96564Q342.09375 310.34064 341.79688 311.04376Q341.51562 311.73126 341.5 313.0125Q341.875 312.4344 342.42188 312.15314Q342.98438 311.8719 343.59375 311.8719Q344.64062 311.8719 345.375 312.65314Q346.125 313.4344 346.125 314.65314Q346.125 315.46564 345.76562 316.16876Q345.42188 316.85626 344.8125 317.23126Q344.20312 317.59064 343.4375 317.59064Q342.10938 317.59064 341.28125 316.6219Q340.45312 315.65314 340.45312 313.4344Q340.45312 310.9344 341.375 309.8094Q342.17188 308.825 343.53125 308.825Q344.54688 308.825 345.1875 309.40314Q345.84375 309.96564 345.96875 310.96564ZM341.67188 314.66876Q341.67188 315.21564 341.89062 315.71564Q342.125 316.2 342.53125 316.46564Q342.95312 316.73126 343.42188 316.73126Q344.07812 316.73126 344.5625 316.2Q345.04688 315.65314 345.04688 314.73126Q345.04688 313.84064 344.5625 313.325Q344.09375 312.8094 343.375 312.8094Q342.65625 312.8094 342.15625 313.325Q341.67188 313.84064 341.67188 314.66876Z" fill-rule="nonzero"/><path fill="#000000" d="M421.7036 316.4344L421.7036 317.45L416.0161 317.45Q416.0161 317.075 416.1411 316.71564Q416.35986 316.1375 416.8286 315.575Q417.313 315.0125 418.21924 314.27814Q419.6255 313.1219 420.10986 312.45Q420.60986 311.77814 420.60986 311.1844Q420.60986 310.5594 420.15674 310.1375Q419.7036 309.7 418.98486 309.7Q418.21924 309.7 417.7661 310.15314Q417.313 310.60626 417.29736 311.41876L416.21924 311.3094Q416.3286 310.09064 417.04736 309.46564Q417.78174 308.825 419.0161 308.825Q420.2505 308.825 420.96924 309.5125Q421.688 310.2 421.688 311.21564Q421.688 311.73126 421.46924 312.23126Q421.2661 312.71564 420.7661 313.27814Q420.28174 313.825 419.15674 314.77814Q418.2036 315.575 417.92236 315.8719Q417.65674 316.15314 417.48486 316.4344L421.7036 316.4344ZM423.15674 313.21564Q423.15674 311.6844 423.46924 310.7625Q423.78174 309.825 424.3911 309.325Q425.0161 308.825 425.9536 308.825Q426.6411 308.825 427.15674 309.10626Q427.688 309.3875 428.03174 309.91876Q428.3755 310.4344 428.563 311.1844Q428.7505 311.9344 428.7505 313.21564Q428.7505 314.73126 428.438 315.65314Q428.1411 316.575 427.5161 317.09064Q426.90674 317.59064 425.9536 317.59064Q424.71924 317.59064 424.0005 316.7Q423.15674 315.6375 423.15674 313.21564ZM424.23486 313.21564Q424.23486 315.325 424.73486 316.02814Q425.23486 316.73126 425.9536 316.73126Q426.688 316.73126 427.17236 316.02814Q427.67236 315.325 427.67236 313.21564Q427.67236 311.09064 427.17236 310.40314Q426.688 309.7 425.938 309.7Q425.21924 309.7 424.78174 310.3094Q424.23486 311.09064 424.23486 313.21564ZM434.1255 317.45L433.0786 317.45L433.0786 310.73126Q432.688 311.09064 432.063 311.46564Q431.4536 311.825 430.96924 311.9969L430.96924 310.98126Q431.84424 310.5594 432.5005 309.98126Q433.17236 309.3875 433.4536 308.825L434.1255 308.825L434.1255 317.45ZM438.78174 312.79376Q438.1255 312.54376 437.79736 312.10626Q437.48486 311.65314 437.48486 311.04376Q437.48486 310.10626 438.15674 309.46564Q438.84424 308.825 439.9536 308.825Q441.0786 308.825 441.7661 309.48126Q442.4536 310.1375 442.4536 311.075Q442.4536 311.66876 442.1411 312.10626Q441.8286 312.54376 441.188 312.79376Q441.98486 313.04376 442.3911 313.6219Q442.79736 314.2 442.79736 314.9969Q442.79736 316.09064 442.0161 316.84064Q441.2505 317.59064 439.96924 317.59064Q438.7036 317.59064 437.92236 316.84064Q437.1411 316.09064 437.1411 314.96564Q437.1411 314.1219 437.563 313.5594Q438.0005 312.9969 438.78174 312.79376ZM438.563 310.9969Q438.563 311.60626 438.9536 311.9969Q439.35986 312.3875 439.98486 312.3875Q440.59424 312.3875 440.98486 312.0125Q441.3755 311.6219 441.3755 311.0594Q441.3755 310.48126 440.96924 310.09064Q440.563 309.6844 439.96924 309.6844Q439.35986 309.6844 438.9536 310.075Q438.563 310.46564 438.563 310.9969ZM438.23486 314.96564Q438.23486 315.41876 438.438 315.84064Q438.65674 316.2625 439.0786 316.4969Q439.5005 316.73126 439.98486 316.73126Q440.73486 316.73126 441.21924 316.2469Q441.71924 315.7625 441.71924 315.0125Q441.71924 314.2469 441.21924 313.7469Q440.71924 313.2469 439.9536 313.2469Q439.2036 313.2469 438.71924 313.7469Q438.23486 314.23126 438.23486 314.96564Z" fill-rule="nonzero"/><path fill="#000000" d="M518.36035 316.4344L518.36035 317.45L512.67285 317.45Q512.67285 317.075 512.79785 316.71564Q513.0166 316.1375 513.48535 315.575Q513.9697 315.0125 514.876 314.27814Q516.2822 313.1219 516.7666 312.45Q517.2666 311.77814 517.2666 311.1844Q517.2666 310.5594 516.8135 310.1375Q516.36035 309.7 515.6416 309.7Q514.876 309.7 514.42285 310.15314Q513.9697 310.60626 513.9541 311.41876L512.876 311.3094Q512.98535 310.09064 513.7041 309.46564Q514.4385 308.825 515.67285 308.825Q516.9072 308.825 517.626 309.5125Q518.3447 310.2 518.3447 311.21564Q518.3447 311.73126 518.126 312.23126Q517.92285 312.71564 517.42285 313.27814Q516.9385 313.825 515.8135 314.77814Q514.86035 315.575 514.5791 315.8719Q514.3135 316.15314 514.1416 316.4344L518.36035 316.4344ZM519.8135 313.21564Q519.8135 311.6844 520.126 310.7625Q520.4385 309.825 521.04785 309.325Q521.67285 308.825 522.61035 308.825Q523.29785 308.825 523.8135 309.10626Q524.3447 309.3875 524.6885 309.91876Q525.0322 310.4344 525.2197 311.1844Q525.4072 311.9344 525.4072 313.21564Q525.4072 314.73126 525.0947 315.65314Q524.79785 316.575 524.17285 317.09064Q523.5635 317.59064 522.61035 317.59064Q521.376 317.59064 520.6572 316.7Q519.8135 315.6375 519.8135 313.21564ZM520.8916 313.21564Q520.8916 315.325 521.3916 316.02814Q521.8916 316.73126 522.61035 316.73126Q523.3447 316.73126 523.8291 316.02814Q524.3291 315.325 524.3291 313.21564Q524.3291 311.09064 523.8291 310.40314Q523.3447 309.7 522.5947 309.7Q521.876 309.7 521.4385 310.3094Q520.8916 311.09064 520.8916 313.21564ZM532.36035 316.4344L532.36035 317.45L526.67285 317.45Q526.67285 317.075 526.79785 316.71564Q527.0166 316.1375 527.48535 315.575Q527.9697 315.0125 528.876 314.27814Q530.2822 313.1219 530.7666 312.45Q531.2666 311.77814 531.2666 311.1844Q531.2666 310.5594 530.8135 310.1375Q530.36035 309.7 529.6416 309.7Q528.876 309.7 528.42285 310.15314Q527.9697 310.60626 527.9541 311.41876L526.876 311.3094Q526.98535 310.09064 527.7041 309.46564Q528.4385 308.825 529.67285 308.825Q530.9072 308.825 531.626 309.5125Q532.3447 310.2 532.3447 311.21564Q532.3447 311.73126 532.126 312.23126Q531.92285 312.71564 531.42285 313.27814Q530.9385 313.825 529.8135 314.77814Q528.86035 315.575 528.5791 315.8719Q528.3135 316.15314 528.1416 316.4344L532.36035 316.4344ZM533.8135 313.21564Q533.8135 311.6844 534.126 310.7625Q534.4385 309.825 535.04785 309.325Q535.67285 308.825 536.61035 308.825Q537.29785 308.825 537.8135 309.10626Q538.3447 309.3875 538.6885 309.91876Q539.0322 310.4344 539.2197 311.1844Q539.4072 311.9344 539.4072 313.21564Q539.4072 314.73126 539.0947 315.65314Q538.79785 316.575 538.17285 317.09064Q537.5635 317.59064 536.61035 317.59064Q535.376 317.59064 534.6572 316.7Q533.8135 315.6375 533.8135 313.21564ZM534.8916 313.21564Q534.8916 315.325 535.3916 316.02814Q535.8916 316.73126 536.61035 316.73126Q537.3447 316.73126 537.8291 316.02814Q538.3291 315.325 538.3291 313.21564Q538.3291 311.09064 537.8291 310.40314Q537.3447 309.7 536.5947 309.7Q535.876 309.7 535.4385 310.3094Q534.8916 311.09064 534.8916 313.21564Z" fill-rule="nonzero"/><path fill="#757575" d="M19.45625 32.95625L21.2375 32.8Q21.3625 33.8625 21.815624 34.55Q22.284374 35.2375 23.253124 35.675Q24.2375 36.096874 25.471874 36.096874Q26.55 36.096874 27.378124 35.784374Q28.20625 35.45625 28.6125 34.89375Q29.01875 34.33125 29.01875 33.659374Q29.01875 32.9875 28.628124 32.4875Q28.2375 31.9875 27.346874 31.64375Q26.76875 31.409374 24.784374 30.940624Q22.815624 30.471874 22.034374 30.05Q21.003124 29.51875 20.503124 28.721874Q20.003124 27.925 20.003124 26.940624Q20.003124 25.846874 20.6125 24.909374Q21.221874 23.971874 22.409374 23.4875Q23.596874 22.9875 25.034374 22.9875Q26.628124 22.9875 27.846874 23.503124Q29.065624 24.01875 29.70625 25.01875Q30.3625 26.003124 30.409374 27.26875L28.596874 27.409374Q28.45625 26.05 27.6125 25.3625Q26.76875 24.659374 25.1125 24.659374Q23.39375 24.659374 22.596874 25.3Q21.815624 25.925 21.815624 26.8Q21.815624 27.58125 22.378124 28.08125Q22.925 28.58125 25.2375 29.096874Q27.55 29.6125 28.409374 30.003124Q29.659374 30.58125 30.253124 31.471874Q30.846874 32.346874 30.846874 33.503124Q30.846874 34.64375 30.190624 35.659374Q29.534374 36.675 28.3 37.2375Q27.08125 37.8 25.55 37.8Q23.6125 37.8 22.3 37.2375Q20.9875 36.659374 20.2375 35.51875Q19.4875 34.378124 19.45625 32.95625ZM32.221874 32.3625Q32.221874 29.4875 33.815624 28.096874Q35.159374 26.940624 37.08125 26.940624Q39.221874 26.940624 40.565624 28.346874Q41.925 29.753124 41.925 32.221874Q41.925 34.221874 41.33125 35.378124Q40.7375 36.51875 39.58125 37.159374Q38.440624 37.784374 37.08125 37.784374Q34.89375 37.784374 33.55 36.39375Q32.221874 34.9875 32.221874 32.3625ZM34.01875 32.3625Q34.01875 34.3625 34.878124 35.346874Q35.753124 36.33125 37.08125 36.33125Q38.39375 36.33125 39.253124 35.346874Q40.128124 34.346874 40.128124 32.3Q40.128124 30.378124 39.253124 29.39375Q38.378124 28.39375 37.08125 28.39375Q35.753124 28.39375 34.878124 29.39375Q34.01875 30.378124 34.01875 32.3625ZM36.1125 25.89375L37.409374 23.159374L39.70625 23.159374L37.565624 25.89375L36.1125 25.89375ZM43.83125 37.55L43.83125 23.2375L45.58125 23.2375L45.58125 37.55L43.83125 37.55ZM47.878124 25.253124L47.878124 23.2375L49.64375 23.2375L49.64375 25.253124L47.878124 25.253124ZM47.878124 37.55L47.878124 27.175L49.64375 27.175L49.64375 37.55L47.878124 37.55ZM58.596874 37.55L58.596874 36.2375Q57.6125 37.784374 55.690624 37.784374Q54.45625 37.784374 53.409374 37.096874Q52.378124 36.409374 51.8 35.190624Q51.2375 33.971874 51.2375 32.378124Q51.2375 30.815624 51.753124 29.55Q52.26875 28.284374 53.3 27.6125Q54.346874 26.940624 55.6125 26.940624Q56.55 26.940624 57.284374 27.346874Q58.01875 27.7375 58.4875 28.3625L58.4875 23.2375L60.221874 23.2375L60.221874 37.55L58.596874 37.55ZM53.034374 32.378124Q53.034374 34.3625 53.878124 35.346874Q54.721874 36.33125 55.8625 36.33125Q57.01875 36.33125 57.815624 35.39375Q58.628124 34.45625 58.628124 32.51875Q58.628124 30.39375 57.8 29.39375Q56.9875 28.39375 55.784374 28.39375Q54.6125 28.39375 53.815624 29.3625Q53.034374 30.315624 53.034374 32.378124ZM62.221874 32.3625Q62.221874 29.4875 63.815624 28.096874Q65.15938 26.940624 67.08125 26.940624Q69.22188 26.940624 70.56563 28.346874Q71.925 29.753124 71.925 32.221874Q71.925 34.221874 71.33125 35.378124Q70.7375 36.51875 69.58125 37.159374Q68.44063 37.784374 67.08125 37.784374Q64.89375 37.784374 63.55 36.39375Q62.221874 34.9875 62.221874 32.3625ZM64.01875 32.3625Q64.01875 34.3625 64.87813 35.346874Q65.75313 36.33125 67.08125 36.33125Q68.39375 36.33125 69.25313 35.346874Q70.12813 34.346874 70.12813 32.3Q70.12813 30.378124 69.25313 29.39375Q68.37813 28.39375 67.08125 28.39375Q65.75313 28.39375 64.87813 29.39375Q64.01875 30.378124 64.01875 32.3625ZM73.15938 34.45625L74.90938 34.175Q75.05 35.221874 75.72188 35.784374Q76.39375 36.33125 77.59688 36.33125Q78.8 36.33125 79.37813 35.846874Q79.97188 35.346874 79.97188 34.690624Q79.97188 34.096874 79.45625 33.753124Q79.09688 33.51875 77.65938 33.159374Q75.72188 32.659374 74.97188 32.315624Q74.2375 31.95625 73.84688 31.33125Q73.45625 30.690624 73.45625 29.925Q73.45625 29.2375 73.76875 28.64375Q74.09688 28.05 74.64375 27.659374Q75.05 27.3625 75.75313 27.159374Q76.47188 26.940624 77.28438 26.940624Q78.50313 26.940624 79.425 27.3Q80.34688 27.64375 80.78438 28.253124Q81.22188 28.846874 81.39375 29.846874L79.675 30.08125Q79.55 29.284374 78.9875 28.846874Q78.425 28.39375 77.40938 28.39375Q76.19063 28.39375 75.675 28.8Q75.15938 29.190624 75.15938 29.721874Q75.15938 30.065624 75.37813 30.346874Q75.58125 30.628124 76.05 30.815624Q76.31563 30.909374 77.59688 31.253124Q79.47188 31.753124 80.20625 32.08125Q80.94063 32.39375 81.3625 33.003124Q81.78438 33.596874 81.78438 34.503124Q81.78438 35.378124 81.26875 36.159374Q80.75313 36.940624 79.78438 37.3625Q78.81563 37.784374 77.59688 37.784374Q75.58125 37.784374 74.51875 36.940624Q73.45625 36.096874 73.15938 34.45625ZM93.70625 35.971874L93.95625 37.534374Q93.22188 37.690624 92.62813 37.690624Q91.675 37.690624 91.14375 37.39375Q90.62813 37.08125 90.40938 36.596874Q90.19063 36.096874 90.19063 34.51875L90.19063 28.55L88.90938 28.55L88.90938 27.175L90.19063 27.175L90.19063 24.6125L91.94063 23.55L91.94063 27.175L93.70625 27.175L93.70625 28.55L91.94063 28.55L91.94063 34.6125Q91.94063 35.3625 92.03438 35.58125Q92.12813 35.784374 92.33125 35.925Q92.55 36.05 92.94063 36.05Q93.22188 36.05 93.70625 35.971874ZM95.22188 32.3625Q95.22188 29.4875 96.81563 28.096874Q98.15938 26.940624 100.08125 26.940624Q102.22188 26.940624 103.56563 28.346874Q104.925 29.753124 104.925 32.221874Q104.925 34.221874 104.33125 35.378124Q103.7375 36.51875 102.58125 37.159374Q101.44063 37.784374 100.08125 37.784374Q97.89375 37.784374 96.55 36.39375Q95.22188 34.9875 95.22188 32.3625ZM97.01875 32.3625Q97.01875 34.3625 97.87813 35.346874Q98.75313 36.33125 100.08125 36.33125Q101.39375 36.33125 102.25313 35.346874Q103.12813 34.346874 103.12813 32.3Q103.12813 30.378124 102.25313 29.39375Q101.37813 28.39375 100.08125 28.39375Q98.75313 28.39375 97.87813 29.39375Q97.01875 30.378124 97.01875 32.3625ZM110.70625 35.971874L110.95625 37.534374Q110.22188 37.690624 109.62813 37.690624Q108.675 37.690624 108.14375 37.39375Q107.62813 37.08125 107.40938 36.596874Q107.19063 36.096874 107.19063 34.51875L107.19063 28.55L105.90938 28.55L105.90938 27.175L107.19063 27.175L107.19063 24.6125L108.94063 23.55L108.94063 27.175L110.70625 27.175L110.70625 28.55L108.94063 28.55L108.94063 34.6125Q108.94063 35.3625 109.03438 35.58125Q109.12813 35.784374 109.33125 35.925Q109.55 36.05 109.94063 36.05Q110.22188 36.05 110.70625 35.971874ZM119.64375 36.26875Q118.65938 37.096874 117.75313 37.440624Q116.84688 37.784374 115.81563 37.784374Q114.1125 37.784374 113.19063 36.95625Q112.26875 36.1125 112.26875 34.815624Q112.26875 34.05 112.6125 33.425Q112.97188 32.8 113.53438 32.425Q114.09688 32.034374 114.8 31.83125Q115.31563 31.70625 116.3625 31.565624Q118.4875 31.315624 119.4875 30.971874Q119.50313 30.6125 119.50313 30.503124Q119.50313 29.440624 119.00313 28.9875Q118.33125 28.39375 117.00313 28.39375Q115.75313 28.39375 115.15938 28.83125Q114.58125 29.26875 114.3 30.378124L112.58125 30.14375Q112.81563 29.034374 113.34688 28.3625Q113.87813 27.675 114.89375 27.315624Q115.90938 26.940624 117.25313 26.940624Q118.58125 26.940624 119.40938 27.253124Q120.2375 27.565624 120.62813 28.05Q121.01875 28.51875 121.175 29.2375Q121.26875 29.690624 121.26875 30.8625L121.26875 33.20625Q121.26875 35.659374 121.37813 36.315624Q121.4875 36.95625 121.83125 37.55L119.9875 37.55Q119.72188 37.003124 119.64375 36.26875ZM119.4875 32.346874Q118.53438 32.7375 116.6125 33.003124Q115.53438 33.159374 115.08125 33.3625Q114.64375 33.55 114.39375 33.925Q114.14375 34.3 114.14375 34.76875Q114.14375 35.471874 114.675 35.940624Q115.20625 36.409374 116.2375 36.409374Q117.25313 36.409374 118.03438 35.971874Q118.83125 35.51875 119.20625 34.753124Q119.4875 34.14375 119.4875 32.9875L119.4875 32.346874ZM123.87813 25.253124L123.87813 23.2375L125.64375 23.2375L125.64375 25.253124L123.87813 25.253124ZM123.87813 37.55L123.87813 27.175L125.64375 27.175L125.64375 37.55L123.87813 37.55ZM127.15938 34.45625L128.90938 34.175Q129.05 35.221874 129.72188 35.784374Q130.39375 36.33125 131.59688 36.33125Q132.8 36.33125 133.37813 35.846874Q133.97188 35.346874 133.97188 34.690624Q133.97188 34.096874 133.45625 33.753124Q133.09688 33.51875 131.65938 33.159374Q129.72188 32.659374 128.97188 32.315624Q128.2375 31.95625 127.84688 31.33125Q127.45625 30.690624 127.45625 29.925Q127.45625 29.2375 127.76875 28.64375Q128.09688 28.05 128.64375 27.659374Q129.05 27.3625 129.75313 27.159374Q130.47188 26.940624 131.28438 26.940624Q132.50313 26.940624 133.425 27.3Q134.34688 27.64375 134.78438 28.253124Q135.22188 28.846874 135.39375 29.846874L133.675 30.08125Q133.55 29.284374 132.9875 28.846874Q132.425 28.39375 131.40938 28.39375Q130.19063 28.39375 129.675 28.8Q129.15938 29.190624 129.15938 29.721874Q129.15938 30.065624 129.37813 30.346874Q129.58125 30.628124 130.05 30.815624Q130.31563 30.909374 131.59688 31.253124Q133.47188 31.753124 134.20625 32.08125Q134.94063 32.39375 135.3625 33.003124Q135.78438 33.596874 135.78438 34.503124Q135.78438 35.378124 135.26875 36.159374Q134.75313 36.940624 133.78438 37.3625Q132.81563 37.784374 131.59688 37.784374Q129.58125 37.784374 128.51875 36.940624Q127.45625 36.096874 127.15938 34.45625ZM143.8625 41.51875L143.8625 27.175L145.47188 27.175L145.47188 28.51875Q146.03438 27.7375 146.7375 27.346874Q147.45625 26.940624 148.47188 26.940624Q149.8 26.940624 150.81563 27.628124Q151.83125 28.315624 152.34688 29.565624Q152.87813 30.8 152.87813 32.284374Q152.87813 33.878124 152.3 35.159374Q151.7375 36.425 150.64375 37.1125Q149.55 37.784374 148.34688 37.784374Q147.47188 37.784374 146.76875 37.409374Q146.08125 37.034374 145.62813 36.471874L145.62813 41.51875L143.8625 41.51875ZM145.45625 32.425Q145.45625 34.425 146.26875 35.378124Q147.08125 36.33125 148.2375 36.33125Q149.40938 36.33125 150.2375 35.346874Q151.08125 34.3625 151.08125 32.26875Q151.08125 30.3 150.25313 29.315624Q149.44063 28.315624 148.31563 28.315624Q147.19063 28.315624 146.31563 29.378124Q145.45625 30.425 145.45625 32.425ZM154.22188 32.3625Q154.22188 29.4875 155.81563 28.096874Q157.15938 26.940624 159.08125 26.940624Q161.22188 26.940624 162.56563 28.346874Q163.925 29.753124 163.925 32.221874Q163.925 34.221874 163.33125 35.378124Q162.7375 36.51875 161.58125 37.159374Q160.44063 37.784374 159.08125 37.784374Q156.89375 37.784374 155.55 36.39375Q154.22188 34.9875 154.22188 32.3625ZM156.01875 32.3625Q156.01875 34.3625 156.87813 35.346874Q157.75313 36.33125 159.08125 36.33125Q160.39375 36.33125 161.25313 35.346874Q162.12813 34.346874 162.12813 32.3Q162.12813 30.378124 161.25313 29.39375Q160.37813 28.39375 159.08125 28.39375Q157.75313 28.39375 156.87813 29.39375Q156.01875 30.378124 156.01875 32.3625ZM165.84688 37.55L165.84688 27.175L167.425 27.175L167.425 28.753124Q168.03438 27.64375 168.55 27.3Q169.06563 26.940624 169.675 26.940624Q170.56563 26.940624 171.4875 27.503124L170.87813 29.14375Q170.2375 28.753124 169.59688 28.753124Q169.01875 28.753124 168.55 29.1125Q168.09688 29.45625 167.89375 30.065624Q167.6125 31.003124 167.6125 32.1125L167.6125 37.55L165.84688 37.55ZM185.64375 36.26875Q184.65938 37.096874 183.75313 37.440624Q182.84688 37.784374 181.81563 37.784374Q180.1125 37.784374 179.19063 36.95625Q178.26875 36.1125 178.26875 34.815624Q178.26875 34.05 178.6125 33.425Q178.97188 32.8 179.53438 32.425Q180.09688 32.034374 180.8 31.83125Q181.31563 31.70625 182.3625 31.565624Q184.4875 31.315624 185.4875 30.971874Q185.50313 30.6125 185.50313 30.503124Q185.50313 29.440624 185.00313 28.9875Q184.33125 28.39375 183.00313 28.39375Q181.75313 28.39375 181.15938 28.83125Q180.58125 29.26875 180.3 30.378124L178.58125 30.14375Q178.81563 29.034374 179.34688 28.3625Q179.87813 27.675 180.89375 27.315624Q181.90938 26.940624 183.25313 26.940624Q184.58125 26.940624 185.40938 27.253124Q186.2375 27.565624 186.62813 28.05Q187.01875 28.51875 187.175 29.2375Q187.26875 29.690624 187.26875 30.8625L187.26875 33.20625Q187.26875 35.659374 187.37813 36.315624Q187.4875 36.95625 187.83125 37.55L185.9875 37.55Q185.72188 37.003124 185.64375 36.26875ZM185.4875 32.346874Q184.53438 32.7375 182.6125 33.003124Q181.53438 33.159374 181.08125 33.3625Q180.64375 33.55 180.39375 33.925Q180.14375 34.3 180.14375 34.76875Q180.14375 35.471874 180.675 35.940624Q181.20625 36.409374 182.2375 36.409374Q183.25313 36.409374 184.03438 35.971874Q184.83125 35.51875 185.20625 34.753124Q185.4875 34.14375 185.4875 32.9875L185.4875 32.346874ZM189.8625 37.55L189.8625 27.175L191.45625 27.175L191.45625 28.659374Q192.59688 26.940624 194.75313 26.940624Q195.69063 26.940624 196.47188 27.284374Q197.26875 27.6125 197.65938 28.159374Q198.05 28.70625 198.20625 29.45625Q198.3 29.95625 198.3 31.175L198.3 37.55L196.53438 37.55L196.53438 31.2375Q196.53438 30.159374 196.33125 29.628124Q196.12813 29.096874 195.59688 28.784374Q195.08125 28.471874 194.37813 28.471874Q193.25313 28.471874 192.44063 29.190624Q191.62813 29.89375 191.62813 31.878124L191.62813 37.55L189.8625 37.55ZM199.22188 32.3625Q199.22188 29.4875 200.81563 28.096874Q202.15938 26.940624 204.08125 26.940624Q206.22188 26.940624 207.56563 28.346874Q208.925 29.753124 208.925 32.221874Q208.925 34.221874 208.33125 35.378124Q207.7375 36.51875 206.58125 37.159374Q205.44063 37.784374 204.08125 37.784374Q201.89375 37.784374 200.55 36.39375Q199.22188 34.9875 199.22188 32.3625ZM201.01875 32.3625Q201.01875 34.3625 201.87813 35.346874Q202.75313 36.33125 204.08125 36.33125Q205.39375 36.33125 206.25313 35.346874Q207.12813 34.346874 207.12813 32.3Q207.12813 30.378124 206.25313 29.39375Q205.37813 28.39375 204.08125 28.39375Q202.75313 28.39375 201.87813 29.39375Q201.01875 30.378124 201.01875 32.3625ZM220.22188 41.753124Q218.76875 39.925 217.76875 37.471874Q216.76875 35.003124 216.76875 32.3625Q216.76875 30.034374 217.51875 27.909374Q218.39375 25.440624 220.22188 22.9875L221.4875 22.9875Q220.3 25.01875 219.925 25.89375Q219.33125 27.2375 218.9875 28.70625Q218.56563 30.534374 218.56563 32.378124Q218.56563 37.065624 221.4875 41.753124L220.22188 41.753124ZM232.6125 35.8625L232.6125 37.55L223.15938 37.55Q223.14375 36.909374 223.3625 36.33125Q223.72188 35.3625 224.51875 34.425Q225.31563 33.4875 226.81563 32.253124Q229.15938 30.346874 229.97188 29.2375Q230.8 28.1125 230.8 27.1125Q230.8 26.065624 230.05 25.346874Q229.3 24.628124 228.09688 24.628124Q226.83125 24.628124 226.06563 25.39375Q225.3 26.159374 225.3 27.503124L223.4875 27.315624Q223.675 25.3 224.87813 24.2375Q226.09688 23.175 228.14375 23.175Q230.19063 23.175 231.39375 24.315624Q232.59688 25.45625 232.59688 27.14375Q232.59688 28.003124 232.2375 28.846874Q231.89375 29.675 231.08125 30.596874Q230.26875 31.503124 228.37813 33.1125Q226.78438 34.440624 226.33125 34.909374Q225.89375 35.378124 225.59688 35.8625L232.6125 35.8625ZM234.37813 30.4875Q234.37813 27.95625 234.89375 26.409374Q235.425 24.846874 236.45625 24.01875Q237.4875 23.175 239.05 23.175Q240.20625 23.175 241.06563 23.64375Q241.94063 24.096874 242.50313 24.971874Q243.06563 25.846874 243.39375 27.1125Q243.72188 28.3625 243.72188 30.4875Q243.72188 33.003124 243.19063 34.55Q242.675 36.096874 241.64375 36.95625Q240.62813 37.8 239.05 37.8Q236.97188 37.8 235.8 36.315624Q234.37813 34.51875 234.37813 30.4875ZM236.19063 30.4875Q236.19063 34.01875 237.00313 35.190624Q237.83125 36.346874 239.05 36.346874Q240.25313 36.346874 241.08125 35.175Q241.90938 34.003124 241.90938 30.4875Q241.90938 26.95625 241.08125 25.8Q240.25313 24.628124 239.03438 24.628124Q237.81563 24.628124 237.09688 25.659374Q236.19063 26.95625 236.19063 30.4875ZM252.00313 37.55L250.2375 37.55L250.2375 26.346874Q249.6125 26.95625 248.58125 27.565624Q247.55 28.159374 246.72188 28.471874L246.72188 26.76875Q248.20625 26.08125 249.3 25.096874Q250.40938 24.096874 250.8625 23.175L252.00313 23.175L252.00313 37.55ZM263.0031 37.55L261.2375 37.55L261.2375 26.346874Q260.6125 26.95625 259.58124 27.565624Q258.55 28.159374 257.72186 28.471874L257.72186 26.76875Q259.20624 26.08125 260.3 25.096874Q261.40936 24.096874 261.8625 23.175L263.0031 23.175L263.0031 37.55ZM267.1906 33.253124L267.1906 31.4875L272.58124 31.4875L272.58124 33.253124L267.1906 33.253124ZM283.6125 35.8625L283.6125 37.55L274.15936 37.55Q274.14374 36.909374 274.3625 36.33125Q274.72186 35.3625 275.51874 34.425Q276.3156 33.4875 277.8156 32.253124Q280.15936 30.346874 280.97186 29.2375Q281.8 28.1125 281.8 27.1125Q281.8 26.065624 281.05 25.346874Q280.3 24.628124 279.09686 24.628124Q277.83124 24.628124 277.0656 25.39375Q276.3 26.159374 276.3 27.503124L274.4875 27.315624Q274.675 25.3 275.8781 24.2375Q277.09686 23.175 279.14374 23.175Q281.1906 23.175 282.39374 24.315624Q283.59686 25.45625 283.59686 27.14375Q283.59686 28.003124 283.2375 28.846874Q282.89374 29.675 282.08124 30.596874Q281.26874 31.503124 279.3781 33.1125Q277.78436 34.440624 277.33124 34.909374Q276.89374 35.378124 276.59686 35.8625L283.6125 35.8625ZM285.3781 30.4875Q285.3781 27.95625 285.89374 26.409374Q286.425 24.846874 287.45624 24.01875Q288.4875 23.175 290.05 23.175Q291.20624 23.175 292.0656 23.64375Q292.9406 24.096874 293.5031 24.971874Q294.0656 25.846874 294.39374 27.1125Q294.72186 28.3625 294.72186 30.4875Q294.72186 33.003124 294.1906 34.55Q293.675 36.096874 292.64374 36.95625Q291.6281 37.8 290.05 37.8Q287.97186 37.8 286.8 36.315624Q285.3781 34.51875 285.3781 30.4875ZM287.1906 30.4875Q287.1906 34.01875 288.0031 35.190624Q288.83124 36.346874 290.05 36.346874Q291.2531 36.346874 292.08124 35.175Q292.90936 34.003124 292.90936 30.4875Q292.90936 26.95625 292.08124 25.8Q291.2531 24.628124 290.03436 24.628124Q288.8156 24.628124 288.09686 25.659374Q287.1906 26.95625 287.1906 30.4875ZM305.6125 35.8625L305.6125 37.55L296.15936 37.55Q296.14374 36.909374 296.3625 36.33125Q296.72186 35.3625 297.51874 34.425Q298.3156 33.4875 299.8156 32.253124Q302.15936 30.346874 302.97186 29.2375Q303.8 28.1125 303.8 27.1125Q303.8 26.065624 303.05 25.346874Q302.3 24.628124 301.09686 24.628124Q299.83124 24.628124 299.0656 25.39375Q298.3 26.159374 298.3 27.503124L296.4875 27.315624Q296.675 25.3 297.8781 24.2375Q299.09686 23.175 301.14374 23.175Q303.1906 23.175 304.39374 24.315624Q305.59686 25.45625 305.59686 27.14375Q305.59686 28.003124 305.2375 28.846874Q304.89374 29.675 304.08124 30.596874Q303.26874 31.503124 301.3781 33.1125Q299.78436 34.440624 299.33124 34.909374Q298.89374 35.378124 298.59686 35.8625L305.6125 35.8625ZM314.0031 37.55L312.2375 37.55L312.2375 26.346874Q311.6125 26.95625 310.58124 27.565624Q309.55 28.159374 308.72186 28.471874L308.72186 26.76875Q310.20624 26.08125 311.3 25.096874Q312.40936 24.096874 312.8625 23.175L314.0031 23.175L314.0031 37.55ZM320.01874 41.753124L318.76874 41.753124Q321.675 37.065624 321.675 32.378124Q321.675 30.534374 321.26874 28.7375Q320.925 27.26875 320.33124 25.925Q319.95624 25.034374 318.76874 22.9875L320.01874 22.9875Q321.8625 25.440624 322.7375 27.909374Q323.4875 30.034374 323.4875 32.3625Q323.4875 35.003124 322.47186 37.471874Q321.47186 39.925 320.01874 41.753124Z" fill-rule="nonzero"/></svg>