<svg version="1.1" viewBox="0.0 0.0 600.0 371.0" fill="none" stroke="none" stroke-linecap="square" stroke-miterlimit="10" width="600" height="371" xmlns:xlink="http://www.w3.org/1999/xlink" xmlns="http://www.w3.org/2000/svg"><path fill="#ffffff" d="M0 0L600.0 0L600.0 371.0L0 371.0L0 0Z" fill-rule="nonzero"/><path stroke="#cccccc" stroke-width="1.0" stroke-linecap="butt" d="M133.5 61.5L133.5 300.5" fill-rule="nonzero"/><path stroke="#cccccc" stroke-width="1.0" stroke-linecap="butt" d="M231.5 61.5L231.5 300.5" fill-rule="nonzero"/><path stroke="#cccccc" stroke-width="1.0" stroke-linecap="butt" d="M329.5 61.5L329.5 300.5" fill-rule="nonzero"/><path stroke="#cccccc" stroke-width="1.0" stroke-linecap="butt" d="M427.5 61.5L427.5 300.5" fill-rule="nonzero"/><path stroke="#cccccc" stroke-width="1.0" stroke-linecap="butt" d="M525.5 61.5L525.5 300.5" fill-rule="nonzero"/><path stroke="#333333" stroke-width="1.0" stroke-linecap="butt" d="M77.5 300.5L581.5 300.5" fill-rule="nonzero"/><path stroke="#cccccc" stroke-width="1.0" stroke-linecap="butt" d="M77.5 220.5L581.5 220.5" fill-rule="nonzero"/><path stroke="#cccccc" stroke-width="1.0" stroke-linecap="butt" d="M77.5 141.5L581.5 141.5" fill-rule="nonzero"/><path stroke="#cccccc" stroke-width="1.0" stroke-linecap="butt" d="M77.5 61.5L581.5 61.5" fill-rule="nonzero"/><clipPath id="id_0"><path d="M77.55 61.916668L581.45 61.916668L581.45 300.45L77.55 300.45L77.55 61.916668Z" clip-rule="nonzero"/></clipPath><path fill="#4285f4" clip-path="url(#id_0)" d="M88.86077 169.25667C88.86077 171.74194 86.846054 173.75667 84.36077 173.75667C81.875496 173.75667 79.86077 171.74194 79.86077 169.25667C79.86077 166.7714 81.875496 164.75667 84.36077 164.75667C86.846054 164.75667 88.86077 166.7714 88.86077 169.25667Z" fill-rule="nonzero"/><path fill="#4285f4" clip-path="url(#id_0)" d="M137.88863 161.30556C137.88863 163.79083 135.8739 165.80556 133.38863 165.80556C130.90334 165.80556 128.88863 163.79083 128.88863 161.30556C128.88863 158.82027 130.90334 156.80556 133.38863 156.80556C135.8739 156.80556 137.88863 158.82027 137.88863 161.30556Z" fill-rule="nonzero"/><path fill="#4285f4" clip-path="url(#id_0)" d="M186.91646 205.43422C186.91646 207.91951 184.90175 209.93422 182.41646 209.93422C179.93118 209.93422 177.91646 207.91951 177.91646 205.43422C177.91646 202.94894 179.93118 200.93422 182.41646 200.93422C184.90175 200.93422 186.91646 202.94894 186.91646 205.43422Z" fill-rule="nonzero"/><path fill="#4285f4" clip-path="url(#id_0)" d="M235.9443 165.28111C235.9443 167.76639 233.9296 169.78111 231.4443 169.78111C228.95903 169.78111 226.9443 167.76639 226.9443 165.28111C226.9443 162.79582 228.95903 160.78111 231.4443 160.78111C233.9296 160.78111 235.9443 162.79582 235.9443 165.28111Z" fill-rule="nonzero"/><path fill="#4285f4" clip-path="url(#id_0)" d="M284.97217 248.76778C284.97217 251.25305 282.95743 253.26778 280.47217 253.26778C277.98688 253.26778 275.97217 251.25305 275.97217 248.76778C275.97217 246.2825 277.98688 244.26778 280.47217 244.26778C282.95743 244.26778 284.97217 246.2825 284.97217 248.76778Z" fill-rule="nonzero"/><path fill="#4285f4" clip-path="url(#id_0)" d="M334.0 293.69156C334.0 296.17685 331.9853 298.19156 329.5 298.19156C327.0147 298.19156 325.0 296.17685 325.0 293.69156C325.0 291.20627 327.0147 289.19156 329.5 289.19156C331.9853 289.19156 334.0 291.20627 334.0 293.69156Z" fill-rule="nonzero"/><path fill="#4285f4" clip-path="url(#id_0)" d="M383.02783 227.29977C383.02783 229.78506 381.01312 231.79977 378.52783 231.79977C376.04257 231.79977 374.02783 229.78506 374.02783 227.29977C374.02783 224.8145 376.04257 222.79977 378.52783 222.79977C381.01312 222.79977 383.02783 224.8145 383.02783 227.29977Z" fill-rule="nonzero"/><path fill="#4285f4" clip-path="url(#id_0)" d="M432.0557 236.84111C432.0557 239.32639 430.041 241.34111 427.5557 241.34111C425.0704 241.34111 423.0557 239.32639 423.0557 236.84111C423.0557 234.35583 425.0704 232.34111 427.5557 232.34111C430.041 232.34111 432.0557 234.35583 432.0557 236.84111Z" fill-rule="nonzero"/><path fill="#4285f4" clip-path="url(#id_0)" d="M481.08353 296.47446C481.08353 298.95972 479.06882 300.97446 476.58353 300.97446C474.09827 300.97446 472.08353 298.95972 472.08353 296.47446C472.08353 293.98917 474.09827 291.97446 476.58353 291.97446C479.06882 291.97446 481.08353 293.98917 481.08353 296.47446Z" fill-rule="nonzero"/><path fill="#4285f4" clip-path="url(#id_0)" d="M530.1114 77.818886C530.1114 80.30417 528.0967 82.318886 525.6114 82.318886C523.1261 82.318886 521.1114 80.30417 521.1114 77.818886C521.1114 75.33361 523.1261 73.318886 525.6114 73.318886C528.0967 73.318886 530.1114 75.33361 530.1114 77.818886Z" fill-rule="nonzero"/><path fill="#000000" d="M318.98438 349.45L322.28125 340.85626L323.5 340.85626L327.01562 349.45L325.73438 349.45L324.71875 346.84064L321.14062 346.84064L320.1875 349.45L318.98438 349.45ZM321.46875 345.91876L324.375 345.91876L323.48438 343.54376Q323.0625 342.46564 322.875 341.7625Q322.70312 342.59064 322.40625 343.40314L321.46875 345.91876ZM326.79688 349.45L326.79688 343.23126L327.73438 343.23126L327.73438 344.10626Q328.42188 343.09064 329.71875 343.09064Q330.28125 343.09064 330.75 343.29376Q331.23438 343.4969 331.46875 343.825Q331.70312 344.15314 331.79688 344.59064Q331.84375 344.8875 331.84375 345.6219L331.84375 349.45L330.79688 349.45L330.79688 345.66876Q330.79688 345.0125 330.67188 344.7Q330.54688 344.3875 330.23438 344.2Q329.92188 343.9969 329.5 343.9969Q328.82812 343.9969 328.32812 344.4344Q327.84375 344.85626 327.84375 346.04376L327.84375 349.45L326.79688 349.45ZM333.40625 346.34064Q333.40625 344.60626 334.35938 343.77814Q335.15625 343.09064 336.3125 343.09064Q337.59375 343.09064 338.40625 343.9344Q339.23438 344.7625 339.23438 346.2469Q339.23438 347.45 338.875 348.1375Q338.51562 348.825 337.8125 349.21564Q337.125 349.59064 336.3125 349.59064Q335.01562 349.59064 334.20312 348.7625Q333.40625 347.91876 333.40625 346.34064ZM334.48438 346.34064Q334.48438 347.52814 335.0 348.1219Q335.53125 348.71564 336.3125 348.71564Q337.10938 348.71564 337.625 348.1219Q338.14062 347.52814 338.14062 346.3094Q338.14062 345.15314 337.60938 344.5594Q337.09375 343.96564 336.3125 343.96564Q335.53125 343.96564 335.0 344.5594Q334.48438 345.1375 334.48438 346.34064Z" fill-rule="nonzero"/><path fill="#000000" d="M29.550013 220.07396L21.971888 220.07396L21.971888 222.90208L20.956263 222.90208L20.956263 216.08958L21.971888 216.08958L21.971888 218.93333L29.550013 218.93333L29.550013 220.07396ZM27.550013 211.13646L27.675013 210.04271Q28.628138 210.29271 29.159388 210.99583Q29.690638 211.69896 29.690638 212.77708Q29.690638 214.13646 28.846888 214.94896Q28.003138 215.74583 26.487513 215.74583Q24.925013 215.74583 24.065638 214.93333Q23.190638 214.12083 23.190638 212.83958Q23.190638 211.58958 24.034388 210.80833Q24.878138 210.01146 26.425013 210.01146Q26.518763 210.01146 26.706263 210.01146L26.706263 214.65208Q27.737513 214.58958 28.284388 214.07396Q28.815638 213.55833 28.815638 212.77708Q28.815638 212.19896 28.518763 211.79271Q28.206263 211.37083 27.550013 211.13646ZM25.846888 214.58958L25.846888 211.12083Q25.050013 211.18333 24.659388 211.51146Q24.050013 212.02708 24.050013 212.82396Q24.050013 213.55833 24.534388 214.05833Q25.018763 214.54271 25.846888 214.58958ZM29.550013 208.38646L23.331263 208.38646L23.331263 207.44896L24.206263 207.44896Q23.737513 207.15208 23.471888 206.66771Q23.190638 206.18333 23.190638 205.55833Q23.190638 204.87083 23.471888 204.43333Q23.753138 203.98021 24.268763 203.80833Q23.190638 203.05833 23.190638 201.88646Q23.190638 200.94896 23.706263 200.46458Q24.206263 199.96458 25.284388 199.96458L29.550013 199.96458L29.550013 201.01146L25.628138 201.01146Q25.003138 201.01146 24.721888 201.12083Q24.440638 201.21458 24.268763 201.48021Q24.096888 201.74583 24.096888 202.12083Q24.096888 202.77708 24.534388 203.21458Q24.971888 203.63646 25.940638 203.63646L29.550013 203.63646L29.550013 204.69896L25.503138 204.69896Q24.800013 204.69896 24.456263 204.96458Q24.096888 205.21458 24.096888 205.79271Q24.096888 206.24583 24.331263 206.62083Q24.565638 206.99583 25.018763 207.16771Q25.471888 207.33958 26.315638 207.33958L29.550013 207.33958L29.550013 208.38646ZM31.940638 197.38646L23.331263 197.38646L23.331263 196.43333L24.128138 196.43333Q23.659388 196.08958 23.425013 195.66771Q23.190638 195.23021 23.190638 194.62083Q23.190638 193.82396 23.596888 193.21458Q24.003138 192.60521 24.753138 192.30833Q25.503138 191.99583 26.393763 191.99583Q27.346888 191.99583 28.112513 192.33958Q28.878138 192.66771 29.284388 193.32396Q29.690638 193.98021 29.690638 194.69896Q29.690638 195.23021 29.471888 195.65208Q29.237513 196.07396 28.909388 196.33958L31.940638 196.33958L31.940638 197.38646ZM26.471888 196.43333Q27.675013 196.43333 28.253138 195.94896Q28.815638 195.46458 28.815638 194.77708Q28.815638 194.07396 28.221888 193.57396Q27.628138 193.07396 26.378138 193.07396Q25.190638 193.07396 24.612513 193.55833Q24.018763 194.04271 24.018763 194.73021Q24.018763 195.40208 24.643763 195.91771Q25.268763 196.43333 26.471888 196.43333ZM27.550013 186.13646L27.675013 185.04271Q28.628138 185.29271 29.159388 185.99583Q29.690638 186.69896 29.690638 187.77708Q29.690638 189.13646 28.846888 189.94896Q28.003138 190.74583 26.487513 190.74583Q24.925013 190.74583 24.065638 189.93333Q23.190638 189.12083 23.190638 187.83958Q23.190638 186.58958 24.034388 185.80833Q24.878138 185.01146 26.425013 185.01146Q26.518763 185.01146 26.706263 185.01146L26.706263 189.65208Q27.737513 189.58958 28.284388 189.07396Q28.815638 188.55833 28.815638 187.77708Q28.815638 187.19896 28.518763 186.79271Q28.206263 186.37083 27.550013 186.13646ZM25.846888 189.58958L25.846888 186.12083Q25.050013 186.18333 24.659388 186.51146Q24.050013 187.02708 24.050013 187.82396Q24.050013 188.55833 24.534388 189.05833Q25.018763 189.54271 25.846888 189.58958ZM29.550013 183.40208L23.331263 183.40208L23.331263 182.44896L24.268763 182.44896Q23.612513 182.08958 23.409388 181.79271Q23.190638 181.48021 23.190638 181.10521Q23.190638 180.57396 23.518763 180.02708L24.503138 180.38646Q24.268763 180.77708 24.268763 181.15208Q24.268763 181.51146 24.487513 181.79271Q24.690638 182.05833 25.065638 182.16771Q25.628138 182.35521 26.284388 182.35521L29.550013 182.35521L29.550013 183.40208ZM28.784388 175.32396Q29.284388 175.91771 29.487513 176.46458Q29.690638 176.99583 29.690638 177.62083Q29.690638 178.65208 29.190638 179.19896Q28.690638 179.74583 27.909388 179.74583Q27.456263 179.74583 27.081263 179.54271Q26.690638 179.33958 26.471888 178.99583Q26.237513 178.65208 26.128138 178.23021Q26.034388 177.93333 25.956263 177.29271Q25.815638 176.02708 25.596888 175.41771Q25.378138 175.41771 25.331263 175.41771Q24.675013 175.41771 24.409388 175.71458Q24.065638 176.12083 24.065638 176.91771Q24.065638 177.65208 24.331263 178.01146Q24.581263 178.37083 25.237513 178.54271L25.096888 179.57396Q24.440638 179.43333 24.034388 179.10521Q23.628138 178.77708 23.409388 178.16771Q23.190638 177.55833 23.190638 176.76146Q23.190638 175.96458 23.378138 175.46458Q23.565638 174.96458 23.846888 174.73021Q24.128138 174.49583 24.565638 174.40208Q24.831263 174.35521 25.534388 174.35521L26.940638 174.35521Q28.409388 174.35521 28.800013 174.29271Q29.190638 174.21458 29.550013 174.01146L29.550013 175.12083Q29.221888 175.27708 28.784388 175.32396ZM26.425013 175.41771Q26.659388 175.99583 26.831263 177.13646Q26.925013 177.79271 27.050013 178.05833Q27.159388 178.32396 27.378138 178.48021Q27.596888 178.62083 27.878138 178.62083Q28.300013 178.62083 28.581263 178.30833Q28.862513 177.98021 28.862513 177.37083Q28.862513 176.76146 28.596888 176.29271Q28.331263 175.80833 27.862513 175.58958Q27.503138 175.41771 26.815638 175.41771L26.425013 175.41771ZM28.612513 170.08958L29.534388 169.93333Q29.628138 170.38646 29.628138 170.73021Q29.628138 171.30833 29.456263 171.62083Q29.268763 171.93333 28.971888 172.07396Q28.675013 172.19896 27.721888 172.19896L24.143763 172.19896L24.143763 172.96458L23.331263 172.96458L23.331263 172.19896L21.784388 172.19896L21.159388 171.15208L23.331263 171.15208L23.331263 170.08958L24.143763 170.08958L24.143763 171.15208L27.784388 171.15208Q28.237513 171.15208 28.362513 171.10521Q28.487513 171.04271 28.565638 170.91771Q28.643763 170.79271 28.643763 170.55833Q28.643763 170.37083 28.612513 170.08958ZM29.550013 165.30833L28.628138 165.30833Q29.690638 166.04271 29.690638 167.29271Q29.690638 167.83958 29.487513 168.32396Q29.268763 168.79271 28.956263 169.02708Q28.628138 169.26146 28.159388 169.35521Q27.862513 169.41771 27.175013 169.41771L23.331263 169.41771L23.331263 168.35521L26.784388 168.35521Q27.596888 168.35521 27.893763 168.29271Q28.300013 168.19896 28.550013 167.88646Q28.784388 167.55833 28.784388 167.07396Q28.784388 166.60521 28.550013 166.19896Q28.300013 165.77708 27.878138 165.60521Q27.456263 165.41771 26.659388 165.41771L23.331263 165.41771L23.331263 164.37083L29.550013 164.37083L29.550013 165.30833ZM29.550013 162.40208L23.331263 162.40208L23.331263 161.44896L24.268763 161.44896Q23.612513 161.08958 23.409388 160.79271Q23.190638 160.48021 23.190638 160.10521Q23.190638 159.57396 23.518763 159.02708L24.503138 159.38646Q24.268763 159.77708 24.268763 160.15208Q24.268763 160.51146 24.487513 160.79271Q24.690638 161.05833 25.065638 161.16771Q25.628138 161.35521 26.284388 161.35521L29.550013 161.35521L29.550013 162.40208ZM28.784388 154.32396Q29.284388 154.91771 29.487513 155.46458Q29.690638 155.99583 29.690638 156.62083Q29.690638 157.65208 29.190638 158.19896Q28.690638 158.74583 27.909388 158.74583Q27.456263 158.74583 27.081263 158.54271Q26.690638 158.33958 26.471888 157.99583Q26.237513 157.65208 26.128138 157.23021Q26.034388 156.93333 25.956263 156.29271Q25.815638 155.02708 25.596888 154.41771Q25.378138 154.41771 25.331263 154.41771Q24.675013 154.41771 24.409388 154.71458Q24.065638 155.12083 24.065638 155.91771Q24.065638 156.65208 24.331263 157.01146Q24.581263 157.37083 25.237513 157.54271L25.096888 158.57396Q24.440638 158.43333 24.034388 158.10521Q23.628138 157.77708 23.409388 157.16771Q23.190638 156.55833 23.190638 155.76146Q23.190638 154.96458 23.378138 154.46458Q23.565638 153.96458 23.846888 153.73021Q24.128138 153.49583 24.565638 153.40208Q24.831263 153.35521 25.534388 153.35521L26.940638 153.35521Q28.409388 153.35521 28.800013 153.29271Q29.190638 153.21458 29.550013 153.01146L29.550013 154.12083Q29.221888 154.27708 28.784388 154.32396ZM26.425013 154.41771Q26.659388 154.99583 26.831263 156.13646Q26.925013 156.79271 27.050013 157.05833Q27.159388 157.32396 27.378138 157.48021Q27.596888 157.62083 27.878138 157.62083Q28.300013 157.62083 28.581263 157.30833Q28.862513 156.98021 28.862513 156.37083Q28.862513 155.76146 28.596888 155.29271Q28.331263 154.80833 27.862513 154.58958Q27.503138 154.41771 26.815638 154.41771L26.425013 154.41771Z" fill-rule="nonzero"/><path fill="#000000" d="M65.05 300.21564Q65.05 298.6844 65.3625 297.7625Q65.675 296.825 66.28438 296.325Q66.90938 295.825 67.84688 295.825Q68.53438 295.825 69.05 296.10626Q69.58125 296.3875 69.925 296.91876Q70.26875 297.4344 70.45625 298.1844Q70.64375 298.9344 70.64375 300.21564Q70.64375 301.73126 70.33125 302.65314Q70.03438 303.575 69.40938 304.09064Q68.8 304.59064 67.84688 304.59064Q66.6125 304.59064 65.89375 303.7Q65.05 302.6375 65.05 300.21564ZM66.12813 300.21564Q66.12813 302.325 66.62813 303.02814Q67.12813 303.73126 67.84688 303.73126Q68.58125 303.73126 69.06563 303.02814Q69.56563 302.325 69.56563 300.21564Q69.56563 298.09064 69.06563 297.40314Q68.58125 296.7 67.83125 296.7Q67.1125 296.7 66.675 297.3094Q66.12813 298.09064 66.12813 300.21564Z" fill-rule="nonzero"/><path fill="#000000" d="M70.59688 223.92326L70.59688 224.93889L64.90938 224.93889Q64.90938 224.56389 65.03438 224.20451Q65.25313 223.62639 65.72188 223.06389Q66.20625 222.50139 67.1125 221.76701Q68.51875 220.61076 69.00313 219.93889Q69.50313 219.26701 69.50313 218.67326Q69.50313 218.04826 69.05 217.62639Q68.59688 217.18889 67.87813 217.18889Q67.1125 217.18889 66.65938 217.64201Q66.20625 218.09514 66.19063 218.90764L65.1125 218.79826Q65.22188 217.57951 65.94063 216.95451Q66.675 216.31389 67.90938 216.31389Q69.14375 216.31389 69.8625 217.00139Q70.58125 217.68889 70.58125 218.70451Q70.58125 219.22014 70.3625 219.72014Q70.15938 220.20451 69.65938 220.76701Q69.175 221.31389 68.05 222.26701Q67.09688 223.06389 66.81563 223.36076Q66.55 223.64201 66.37813 223.92326L70.59688 223.92326Z" fill-rule="nonzero"/><path fill="#000000" d="M68.425 145.42778L68.425 143.36528L64.70625 143.36528L64.70625 142.39653L68.62813 136.83403L69.4875 136.83403L69.4875 142.39653L70.64375 142.39653L70.64375 143.36528L69.4875 143.36528L69.4875 145.42778L68.425 145.42778ZM68.425 142.39653L68.425 138.53716L65.7375 142.39653L68.425 142.39653Z" fill-rule="nonzero"/><path fill="#000000" d="M70.51875 59.43229L69.47188 59.510414Q69.33125 58.885414 69.08125 58.604164Q68.64375 58.15104 68.01875 58.15104Q67.51875 58.15104 67.12813 58.43229Q66.64375 58.80729 66.34688 59.510414Q66.06563 60.197914 66.05 61.479164Q66.425 60.90104 66.97188 60.61979Q67.53438 60.33854 68.14375 60.33854Q69.19063 60.33854 69.925 61.11979Q70.675 61.90104 70.675 63.11979Q70.675 63.93229 70.31563 64.635414Q69.97188 65.322914 69.3625 65.697914Q68.75313 66.05729 67.9875 66.05729Q66.65938 66.05729 65.83125 65.08854Q65.00313 64.11979 65.00313 61.90104Q65.00313 59.40104 65.925 58.27604Q66.72188 57.291664 68.08125 57.291664Q69.09688 57.291664 69.7375 57.86979Q70.39375 58.43229 70.51875 59.43229ZM66.22188 63.135414Q66.22188 63.68229 66.44063 64.18229Q66.675 64.666664 67.08125 64.93229Q67.50313 65.197914 67.97188 65.197914Q68.62813 65.197914 69.1125 64.666664Q69.59688 64.11979 69.59688 63.197914Q69.59688 62.30729 69.1125 61.791664Q68.64375 61.27604 67.925 61.27604Q67.20625 61.27604 66.70625 61.791664Q66.22188 62.30729 66.22188 63.135414Z" fill-rule="nonzero"/><path fill="#000000" d="M125.43549 316.4344L125.43549 317.45L119.74799 317.45Q119.74799 317.075 119.87299 316.71564Q120.09174 316.1375 120.56049 315.575Q121.04487 315.0125 121.95112 314.27814Q123.35737 313.1219 123.84174 312.45Q124.34174 311.77814 124.34174 311.1844Q124.34174 310.5594 123.88862 310.1375Q123.43549 309.7 122.71674 309.7Q121.95112 309.7 121.49799 310.15314Q121.04487 310.60626 121.02924 311.41876L119.95112 311.3094Q120.06049 310.09064 120.77924 309.46564Q121.51362 308.825 122.74799 308.825Q123.98237 308.825 124.70112 309.5125Q125.41987 310.2 125.41987 311.21564Q125.41987 311.73126 125.20112 312.23126Q124.99799 312.71564 124.49799 313.27814Q124.01362 313.825 122.88862 314.77814Q121.93549 315.575 121.65424 315.8719Q121.38862 316.15314 121.21674 316.4344L125.43549 316.4344ZM126.88862 313.21564Q126.88862 311.6844 127.20112 310.7625Q127.51362 309.825 128.12299 309.325Q128.74799 308.825 129.68549 308.825Q130.37299 308.825 130.88861 309.10626Q131.41986 309.3875 131.76361 309.91876Q132.10736 310.4344 132.29486 311.1844Q132.48236 311.9344 132.48236 313.21564Q132.48236 314.73126 132.16986 315.65314Q131.87299 316.575 131.24799 317.09064Q130.63861 317.59064 129.68549 317.59064Q128.45111 317.59064 127.73237 316.7Q126.88862 315.6375 126.88862 313.21564ZM127.96674 313.21564Q127.96674 315.325 128.46674 316.02814Q128.96674 316.73126 129.68549 316.73126Q130.41986 316.73126 130.90424 316.02814Q131.40424 315.325 131.40424 313.21564Q131.40424 311.09064 130.90424 310.40314Q130.41986 309.7 129.66986 309.7Q128.95111 309.7 128.51361 310.3094Q127.96674 311.09064 127.96674 313.21564ZM137.85736 317.45L136.81049 317.45L136.81049 310.73126Q136.41986 311.09064 135.79486 311.46564Q135.18549 311.825 134.70111 311.9969L134.70111 310.98126Q135.57611 310.5594 136.23236 309.98126Q136.90424 309.3875 137.18549 308.825L137.85736 308.825L137.85736 317.45ZM146.43549 316.4344L146.43549 317.45L140.74799 317.45Q140.74799 317.075 140.87299 316.71564Q141.09174 316.1375 141.56049 315.575Q142.04486 315.0125 142.95111 314.27814Q144.35736 313.1219 144.84174 312.45Q145.34174 311.77814 145.34174 311.1844Q145.34174 310.5594 144.88861 310.1375Q144.43549 309.7 143.71674 309.7Q142.95111 309.7 142.49799 310.15314Q142.04486 310.60626 142.02924 311.41876L140.95111 311.3094Q141.06049 310.09064 141.77924 309.46564Q142.51361 308.825 143.74799 308.825Q144.98236 308.825 145.70111 309.5125Q146.41986 310.2 146.41986 311.21564Q146.41986 311.73126 146.20111 312.23126Q145.99799 312.71564 145.49799 313.27814Q145.01361 313.825 143.88861 314.77814Q142.93549 315.575 142.65424 315.8719Q142.38861 316.15314 142.21674 316.4344L146.43549 316.4344Z" fill-rule="nonzero"/><path fill="#000000" d="M223.49118 316.4344L223.49118 317.45L217.80368 317.45Q217.80368 317.075 217.92868 316.71564Q218.14743 316.1375 218.61618 315.575Q219.10056 315.0125 220.0068 314.27814Q221.41306 313.1219 221.89743 312.45Q222.39743 311.77814 222.39743 311.1844Q222.39743 310.5594 221.9443 310.1375Q221.49118 309.7 220.77243 309.7Q220.0068 309.7 219.55368 310.15314Q219.10056 310.60626 219.08493 311.41876L218.0068 311.3094Q218.11618 310.09064 218.83493 309.46564Q219.5693 308.825 220.80368 308.825Q222.03806 308.825 222.7568 309.5125Q223.47556 310.2 223.47556 311.21564Q223.47556 311.73126 223.2568 312.23126Q223.05368 312.71564 222.55368 313.27814Q222.0693 313.825 220.9443 314.77814Q219.99118 315.575 219.70993 315.8719Q219.4443 316.15314 219.27243 316.4344L223.49118 316.4344ZM224.9443 313.21564Q224.9443 311.6844 225.2568 310.7625Q225.5693 309.825 226.17868 309.325Q226.80368 308.825 227.74118 308.825Q228.42868 308.825 228.9443 309.10626Q229.47556 309.3875 229.8193 309.91876Q230.16306 310.4344 230.35056 311.1844Q230.53806 311.9344 230.53806 313.21564Q230.53806 314.73126 230.22556 315.65314Q229.92868 316.575 229.30368 317.09064Q228.6943 317.59064 227.74118 317.59064Q226.5068 317.59064 225.78806 316.7Q224.9443 315.6375 224.9443 313.21564ZM226.02243 313.21564Q226.02243 315.325 226.52243 316.02814Q227.02243 316.73126 227.74118 316.73126Q228.47556 316.73126 228.95993 316.02814Q229.45993 315.325 229.45993 313.21564Q229.45993 311.09064 228.95993 310.40314Q228.47556 309.7 227.72556 309.7Q227.0068 309.7 226.5693 310.3094Q226.02243 311.09064 226.02243 313.21564ZM235.91306 317.45L234.86618 317.45L234.86618 310.73126Q234.47556 311.09064 233.85056 311.46564Q233.24118 311.825 232.7568 311.9969L232.7568 310.98126Q233.6318 310.5594 234.28806 309.98126Q234.95993 309.3875 235.24118 308.825L235.91306 308.825L235.91306 317.45ZM242.3193 317.45L242.3193 315.3875L238.60056 315.3875L238.60056 314.41876L242.52243 308.85626L243.3818 308.85626L243.3818 314.41876L244.53806 314.41876L244.53806 315.3875L243.3818 315.3875L243.3818 317.45L242.3193 317.45ZM242.3193 314.41876L242.3193 310.5594L239.6318 314.41876L242.3193 314.41876Z" fill-rule="nonzero"/><path fill="#000000" d="M321.54688 316.4344L321.54688 317.45L315.85938 317.45Q315.85938 317.075 315.98438 316.71564Q316.20312 316.1375 316.67188 315.575Q317.15625 315.0125 318.0625 314.27814Q319.46875 313.1219 319.95312 312.45Q320.45312 311.77814 320.45312 311.1844Q320.45312 310.5594 320.0 310.1375Q319.54688 309.7 318.82812 309.7Q318.0625 309.7 317.60938 310.15314Q317.15625 310.60626 317.14062 311.41876L316.0625 311.3094Q316.17188 310.09064 316.89062 309.46564Q317.625 308.825 318.85938 308.825Q320.09375 308.825 320.8125 309.5125Q321.53125 310.2 321.53125 311.21564Q321.53125 311.73126 321.3125 312.23126Q321.10938 312.71564 320.60938 313.27814Q320.125 313.825 319.0 314.77814Q318.04688 315.575 317.76562 315.8719Q317.5 316.15314 317.32812 316.4344L321.54688 316.4344ZM323.0 313.21564Q323.0 311.6844 323.3125 310.7625Q323.625 309.825 324.23438 309.325Q324.85938 308.825 325.79688 308.825Q326.48438 308.825 327.0 309.10626Q327.53125 309.3875 327.875 309.91876Q328.21875 310.4344 328.40625 311.1844Q328.59375 311.9344 328.59375 313.21564Q328.59375 314.73126 328.28125 315.65314Q327.98438 316.575 327.35938 317.09064Q326.75 317.59064 325.79688 317.59064Q324.5625 317.59064 323.84375 316.7Q323.0 315.6375 323.0 313.21564ZM324.07812 313.21564Q324.07812 315.325 324.57812 316.02814Q325.07812 316.73126 325.79688 316.73126Q326.53125 316.73126 327.01562 316.02814Q327.51562 315.325 327.51562 313.21564Q327.51562 311.09064 327.01562 310.40314Q326.53125 309.7 325.78125 309.7Q325.0625 309.7 324.625 310.3094Q324.07812 311.09064 324.07812 313.21564ZM333.96875 317.45L332.92188 317.45L332.92188 310.73126Q332.53125 311.09064 331.90625 311.46564Q331.29688 311.825 330.8125 311.9969L330.8125 310.98126Q331.6875 310.5594 332.34375 309.98126Q333.01562 309.3875 333.29688 308.825L333.96875 308.825L333.96875 317.45ZM342.46875 310.96564L341.42188 311.04376Q341.28125 310.41876 341.03125 310.1375Q340.59375 309.6844 339.96875 309.6844Q339.46875 309.6844 339.07812 309.96564Q338.59375 310.34064 338.29688 311.04376Q338.01562 311.73126 338.0 313.0125Q338.375 312.4344 338.92188 312.15314Q339.48438 311.8719 340.09375 311.8719Q341.14062 311.8719 341.875 312.65314Q342.625 313.4344 342.625 314.65314Q342.625 315.46564 342.26562 316.16876Q341.92188 316.85626 341.3125 317.23126Q340.70312 317.59064 339.9375 317.59064Q338.60938 317.59064 337.78125 316.6219Q336.95312 315.65314 336.95312 313.4344Q336.95312 310.9344 337.875 309.8094Q338.67188 308.825 340.03125 308.825Q341.04688 308.825 341.6875 309.40314Q342.34375 309.96564 342.46875 310.96564ZM338.17188 314.66876Q338.17188 315.21564 338.39062 315.71564Q338.625 316.2 339.03125 316.46564Q339.45312 316.73126 339.92188 316.73126Q340.57812 316.73126 341.0625 316.2Q341.54688 315.65314 341.54688 314.73126Q341.54688 313.84064 341.0625 313.325Q340.59375 312.8094 339.875 312.8094Q339.15625 312.8094 338.65625 313.325Q338.17188 313.84064 338.17188 314.66876Z" fill-rule="nonzero"/><path fill="#000000" d="M419.60257 316.4344L419.60257 317.45L413.91507 317.45Q413.91507 317.075 414.04007 316.71564Q414.25882 316.1375 414.72757 315.575Q415.21194 315.0125 416.1182 314.27814Q417.52444 313.1219 418.00882 312.45Q418.50882 311.77814 418.50882 311.1844Q418.50882 310.5594 418.0557 310.1375Q417.60257 309.7 416.88382 309.7Q416.1182 309.7 415.66507 310.15314Q415.21194 310.60626 415.19632 311.41876L414.1182 311.3094Q414.22757 310.09064 414.94632 309.46564Q415.6807 308.825 416.91507 308.825Q418.14944 308.825 418.8682 309.5125Q419.58694 310.2 419.58694 311.21564Q419.58694 311.73126 419.3682 312.23126Q419.16507 312.71564 418.66507 313.27814Q418.1807 313.825 417.0557 314.77814Q416.10257 315.575 415.82132 315.8719Q415.5557 316.15314 415.38382 316.4344L419.60257 316.4344ZM421.0557 313.21564Q421.0557 311.6844 421.3682 310.7625Q421.6807 309.825 422.29007 309.325Q422.91507 308.825 423.85257 308.825Q424.54007 308.825 425.0557 309.10626Q425.58694 309.3875 425.9307 309.91876Q426.27444 310.4344 426.46194 311.1844Q426.64944 311.9344 426.64944 313.21564Q426.64944 314.73126 426.33694 315.65314Q426.04007 316.575 425.41507 317.09064Q424.8057 317.59064 423.85257 317.59064Q422.6182 317.59064 421.89944 316.7Q421.0557 315.6375 421.0557 313.21564ZM422.13382 313.21564Q422.13382 315.325 422.63382 316.02814Q423.13382 316.73126 423.85257 316.73126Q424.58694 316.73126 425.07132 316.02814Q425.57132 315.325 425.57132 313.21564Q425.57132 311.09064 425.07132 310.40314Q424.58694 309.7 423.83694 309.7Q423.1182 309.7 422.6807 310.3094Q422.13382 311.09064 422.13382 313.21564ZM432.02444 317.45L430.97757 317.45L430.97757 310.73126Q430.58694 311.09064 429.96194 311.46564Q429.35257 311.825 428.8682 311.9969L428.8682 310.98126Q429.7432 310.5594 430.39944 309.98126Q431.07132 309.3875 431.35257 308.825L432.02444 308.825L432.02444 317.45ZM436.6807 312.79376Q436.02444 312.54376 435.69632 312.10626Q435.38382 311.65314 435.38382 311.04376Q435.38382 310.10626 436.0557 309.46564Q436.7432 308.825 437.85257 308.825Q438.97757 308.825 439.66507 309.48126Q440.35257 310.1375 440.35257 311.075Q440.35257 311.66876 440.04007 312.10626Q439.72757 312.54376 439.08694 312.79376Q439.88382 313.04376 440.29007 313.6219Q440.69632 314.2 440.69632 314.9969Q440.69632 316.09064 439.91507 316.84064Q439.14944 317.59064 437.8682 317.59064Q436.60257 317.59064 435.82132 316.84064Q435.04007 316.09064 435.04007 314.96564Q435.04007 314.1219 435.46194 313.5594Q435.89944 312.9969 436.6807 312.79376ZM436.46194 310.9969Q436.46194 311.60626 436.85257 311.9969Q437.25882 312.3875 437.88382 312.3875Q438.4932 312.3875 438.88382 312.0125Q439.27444 311.6219 439.27444 311.0594Q439.27444 310.48126 438.8682 310.09064Q438.46194 309.6844 437.8682 309.6844Q437.25882 309.6844 436.85257 310.075Q436.46194 310.46564 436.46194 310.9969ZM436.13382 314.96564Q436.13382 315.41876 436.33694 315.84064Q436.5557 316.2625 436.97757 316.4969Q437.39944 316.73126 437.88382 316.73126Q438.63382 316.73126 439.1182 316.2469Q439.6182 315.7625 439.6182 315.0125Q439.6182 314.2469 439.1182 313.7469Q438.6182 313.2469 437.85257 313.2469Q437.10257 313.2469 436.6182 313.7469Q436.13382 314.23126 436.13382 314.96564Z" fill-rule="nonzero"/><path fill="#000000" d="M517.65826 316.4344L517.65826 317.45L511.97076 317.45Q511.97076 317.075 512.09576 316.71564Q512.3145 316.1375 512.78326 315.575Q513.26764 315.0125 514.1739 314.27814Q515.58014 313.1219 516.0645 312.45Q516.5645 311.77814 516.5645 311.1844Q516.5645 310.5594 516.1114 310.1375Q515.65826 309.7 514.9395 309.7Q514.1739 309.7 513.72076 310.15314Q513.26764 310.60626 513.252 311.41876L512.1739 311.3094Q512.28326 310.09064 513.002 309.46564Q513.7364 308.825 514.97076 308.825Q516.20514 308.825 516.9239 309.5125Q517.64264 310.2 517.64264 311.21564Q517.64264 311.73126 517.4239 312.23126Q517.22076 312.71564 516.72076 313.27814Q516.2364 313.825 515.1114 314.77814Q514.15826 315.575 513.877 315.8719Q513.6114 316.15314 513.4395 316.4344L517.65826 316.4344ZM519.1114 313.21564Q519.1114 311.6844 519.4239 310.7625Q519.7364 309.825 520.34576 309.325Q520.97076 308.825 521.90826 308.825Q522.59576 308.825 523.1114 309.10626Q523.64264 309.3875 523.9864 309.91876Q524.33014 310.4344 524.51764 311.1844Q524.70514 311.9344 524.70514 313.21564Q524.70514 314.73126 524.39264 315.65314Q524.09576 316.575 523.47076 317.09064Q522.8614 317.59064 521.90826 317.59064Q520.6739 317.59064 519.95514 316.7Q519.1114 315.6375 519.1114 313.21564ZM520.1895 313.21564Q520.1895 315.325 520.6895 316.02814Q521.1895 316.73126 521.90826 316.73126Q522.64264 316.73126 523.127 316.02814Q523.627 315.325 523.627 313.21564Q523.627 311.09064 523.127 310.40314Q522.64264 309.7 521.89264 309.7Q521.1739 309.7 520.7364 310.3094Q520.1895 311.09064 520.1895 313.21564ZM531.65826 316.4344L531.65826 317.45L525.97076 317.45Q525.97076 317.075 526.09576 316.71564Q526.3145 316.1375 526.78326 315.575Q527.26764 315.0125 528.1739 314.27814Q529.58014 313.1219 530.0645 312.45Q530.5645 311.77814 530.5645 311.1844Q530.5645 310.5594 530.1114 310.1375Q529.65826 309.7 528.9395 309.7Q528.1739 309.7 527.72076 310.15314Q527.26764 310.60626 527.252 311.41876L526.1739 311.3094Q526.28326 310.09064 527.002 309.46564Q527.7364 308.825 528.97076 308.825Q530.20514 308.825 530.9239 309.5125Q531.64264 310.2 531.64264 311.21564Q531.64264 311.73126 531.4239 312.23126Q531.22076 312.71564 530.72076 313.27814Q530.2364 313.825 529.1114 314.77814Q528.15826 315.575 527.877 315.8719Q527.6114 316.15314 527.4395 316.4344L531.65826 316.4344ZM533.1114 313.21564Q533.1114 311.6844 533.4239 310.7625Q533.7364 309.825 534.34576 309.325Q534.97076 308.825 535.90826 308.825Q536.59576 308.825 537.1114 309.10626Q537.64264 309.3875 537.9864 309.91876Q538.33014 310.4344 538.51764 311.1844Q538.70514 311.9344 538.70514 313.21564Q538.70514 314.73126 538.39264 315.65314Q538.09576 316.575 537.47076 317.09064Q536.8614 317.59064 535.90826 317.59064Q534.6739 317.59064 533.95514 316.7Q533.1114 315.6375 533.1114 313.21564ZM534.1895 313.21564Q534.1895 315.325 534.6895 316.02814Q535.1895 316.73126 535.90826 316.73126Q536.64264 316.73126 537.127 316.02814Q537.627 315.325 537.627 313.21564Q537.627 311.09064 537.127 310.40314Q536.64264 309.7 535.89264 309.7Q535.1739 309.7 534.7364 310.3094Q534.1895 311.09064 534.1895 313.21564Z" fill-rule="nonzero"/><path fill="#757575" d="M23.7375 37.55L23.7375 24.925L19.01875 24.925L19.01875 23.2375L30.3625 23.2375L30.3625 24.925L25.628124 24.925L25.628124 37.55L23.7375 37.55ZM38.971874 34.20625L40.784374 34.440624Q40.3625 36.01875 39.190624 36.909374Q38.034374 37.784374 36.221874 37.784374Q33.95625 37.784374 32.6125 36.39375Q31.284374 34.9875 31.284374 32.45625Q31.284374 29.83125 32.628124 28.39375Q33.971874 26.940624 36.128124 26.940624Q38.20625 26.940624 39.51875 28.3625Q40.846874 29.76875 40.846874 32.346874Q40.846874 32.503124 40.83125 32.815624L33.096874 32.815624Q33.190624 34.51875 34.065624 35.425Q34.940624 36.33125 36.2375 36.33125Q37.20625 36.33125 37.878124 35.83125Q38.565624 35.315624 38.971874 34.20625ZM33.190624 31.3625L38.9875 31.3625Q38.878124 30.065624 38.33125 29.409374Q37.4875 28.39375 36.14375 28.39375Q34.940624 28.39375 34.1125 29.20625Q33.284374 30.003124 33.190624 31.3625ZM42.8625 37.55L42.8625 27.175L44.440624 27.175L44.440624 28.628124Q44.925 27.878124 45.7375 27.409374Q46.55 26.940624 47.58125 26.940624Q48.7375 26.940624 49.471874 27.425Q50.20625 27.89375 50.51875 28.753124Q51.753124 26.940624 53.721874 26.940624Q55.26875 26.940624 56.096874 27.8Q56.925 28.659374 56.925 30.425L56.925 37.55L55.175 37.55L55.175 31.01875Q55.175 29.95625 55.003124 29.503124Q54.83125 29.034374 54.378124 28.753124Q53.940624 28.471874 53.33125 28.471874Q52.2375 28.471874 51.503124 29.20625Q50.784374 29.925 50.784374 31.51875L50.784374 37.55L49.034374 37.55L49.034374 30.815624Q49.034374 29.64375 48.596874 29.065624Q48.175 28.471874 47.190624 28.471874Q46.45625 28.471874 45.815624 28.8625Q45.190624 29.253124 44.909374 30.003124Q44.628124 30.753124 44.628124 32.175L44.628124 37.55L42.8625 37.55ZM58.8625 41.51875L58.8625 27.175L60.471874 27.175L60.471874 28.51875Q61.034374 27.7375 61.7375 27.346874Q62.45625 26.940624 63.471874 26.940624Q64.8 26.940624 65.81563 27.628124Q66.83125 28.315624 67.34688 29.565624Q67.87813 30.8 67.87813 32.284374Q67.87813 33.878124 67.3 35.159374Q66.7375 36.425 65.64375 37.1125Q64.55 37.784374 63.346874 37.784374Q62.471874 37.784374 61.76875 37.409374Q61.08125 37.034374 60.628124 36.471874L60.628124 41.51875L58.8625 41.51875ZM60.45625 32.425Q60.45625 34.425 61.26875 35.378124Q62.08125 36.33125 63.2375 36.33125Q64.40938 36.33125 65.2375 35.346874Q66.08125 34.3625 66.08125 32.26875Q66.08125 30.3 65.25313 29.315624Q64.44063 28.315624 63.315624 28.315624Q62.190624 28.315624 61.315624 29.378124Q60.45625 30.425 60.45625 32.425ZM76.97188 34.20625L78.78438 34.440624Q78.3625 36.01875 77.19063 36.909374Q76.03438 37.784374 74.22188 37.784374Q71.95625 37.784374 70.6125 36.39375Q69.28438 34.9875 69.28438 32.45625Q69.28438 29.83125 70.62813 28.39375Q71.97188 26.940624 74.12813 26.940624Q76.20625 26.940624 77.51875 28.3625Q78.84688 29.76875 78.84688 32.346874Q78.84688 32.503124 78.83125 32.815624L71.09688 32.815624Q71.19063 34.51875 72.06563 35.425Q72.94063 36.33125 74.2375 36.33125Q75.20625 36.33125 75.87813 35.83125Q76.56563 35.315624 76.97188 34.20625ZM71.19063 31.3625L76.9875 31.3625Q76.87813 30.065624 76.33125 29.409374Q75.4875 28.39375 74.14375 28.39375Q72.94063 28.39375 72.1125 29.20625Q71.28438 30.003124 71.19063 31.3625ZM80.84688 37.55L80.84688 27.175L82.425 27.175L82.425 28.753124Q83.03438 27.64375 83.55 27.3Q84.06563 26.940624 84.675 26.940624Q85.56563 26.940624 86.4875 27.503124L85.87813 29.14375Q85.2375 28.753124 84.59688 28.753124Q84.01875 28.753124 83.55 29.1125Q83.09688 29.45625 82.89375 30.065624Q82.6125 31.003124 82.6125 32.1125L82.6125 37.55L80.84688 37.55ZM94.64375 36.26875Q93.65938 37.096874 92.75313 37.440624Q91.84688 37.784374 90.81563 37.784374Q89.1125 37.784374 88.19063 36.95625Q87.26875 36.1125 87.26875 34.815624Q87.26875 34.05 87.6125 33.425Q87.97188 32.8 88.53438 32.425Q89.09688 32.034374 89.8 31.83125Q90.31563 31.70625 91.3625 31.565624Q93.4875 31.315624 94.4875 30.971874Q94.50313 30.6125 94.50313 30.503124Q94.50313 29.440624 94.00313 28.9875Q93.33125 28.39375 92.00313 28.39375Q90.75313 28.39375 90.15938 28.83125Q89.58125 29.26875 89.3 30.378124L87.58125 30.14375Q87.81563 29.034374 88.34688 28.3625Q88.87813 27.675 89.89375 27.315624Q90.90938 26.940624 92.25313 26.940624Q93.58125 26.940624 94.40938 27.253124Q95.2375 27.565624 95.62813 28.05Q96.01875 28.51875 96.175 29.2375Q96.26875 29.690624 96.26875 30.8625L96.26875 33.20625Q96.26875 35.659374 96.37813 36.315624Q96.4875 36.95625 96.83125 37.55L94.9875 37.55Q94.72188 37.003124 94.64375 36.26875ZM94.4875 32.346874Q93.53438 32.7375 91.6125 33.003124Q90.53438 33.159374 90.08125 33.3625Q89.64375 33.55 89.39375 33.925Q89.14375 34.3 89.14375 34.76875Q89.14375 35.471874 89.675 35.940624Q90.20625 36.409374 91.2375 36.409374Q92.25313 36.409374 93.03438 35.971874Q93.83125 35.51875 94.20625 34.753124Q94.4875 34.14375 94.4875 32.9875L94.4875 32.346874ZM102.70625 35.971874L102.95625 37.534374Q102.22188 37.690624 101.62813 37.690624Q100.675 37.690624 100.14375 37.39375Q99.62813 37.08125 99.40938 36.596874Q99.19063 36.096874 99.19063 34.51875L99.19063 28.55L97.90938 28.55L97.90938 27.175L99.19063 27.175L99.19063 24.6125L100.94063 23.55L100.94063 27.175L102.70625 27.175L102.70625 28.55L100.94063 28.55L100.94063 34.6125Q100.94063 35.3625 101.03438 35.58125Q101.12813 35.784374 101.33125 35.925Q101.55 36.05 101.94063 36.05Q102.22188 36.05 102.70625 35.971874ZM111.65938 37.55L111.65938 36.01875Q110.45625 37.784374 108.37813 37.784374Q107.45625 37.784374 106.65938 37.440624Q105.8625 37.08125 105.47188 36.55Q105.09688 36.01875 104.94063 35.2375Q104.83125 34.721874 104.83125 33.596874L104.83125 27.175L106.58125 27.175L106.58125 32.925Q106.58125 34.3 106.69063 34.784374Q106.8625 35.471874 107.39375 35.878124Q107.94063 36.26875 108.72188 36.26875Q109.51875 36.26875 110.20625 35.8625Q110.90938 35.45625 111.19063 34.76875Q111.4875 34.065624 111.4875 32.7375L111.4875 27.175L113.2375 27.175L113.2375 37.55L111.65938 37.55ZM114.84688 37.55L114.84688 27.175L116.425 27.175L116.425 28.753124Q117.03438 27.64375 117.55 27.3Q118.06563 26.940624 118.675 26.940624Q119.56563 26.940624 120.4875 27.503124L119.87813 29.14375Q119.2375 28.753124 118.59688 28.753124Q118.01875 28.753124 117.55 29.1125Q117.09688 29.45625 116.89375 30.065624Q116.6125 31.003124 116.6125 32.1125L116.6125 37.55L114.84688 37.55ZM128.64375 36.26875Q127.65938 37.096874 126.75313 37.440624Q125.84688 37.784374 124.81563 37.784374Q123.1125 37.784374 122.19063 36.95625Q121.26875 36.1125 121.26875 34.815624Q121.26875 34.05 121.6125 33.425Q121.97188 32.8 122.53438 32.425Q123.09688 32.034374 123.8 31.83125Q124.31563 31.70625 125.3625 31.565624Q127.4875 31.315624 128.4875 30.971874Q128.50313 30.6125 128.50313 30.503124Q128.50313 29.440624 128.00313 28.9875Q127.33125 28.39375 126.00313 28.39375Q124.75313 28.39375 124.15938 28.83125Q123.58125 29.26875 123.3 30.378124L121.58125 30.14375Q121.81563 29.034374 122.34688 28.3625Q122.87813 27.675 123.89375 27.315624Q124.90938 26.940624 126.25313 26.940624Q127.58125 26.940624 128.40938 27.253124Q129.2375 27.565624 129.62813 28.05Q130.01875 28.51875 130.175 29.2375Q130.26875 29.690624 130.26875 30.8625L130.26875 33.20625Q130.26875 35.659374 130.37813 36.315624Q130.4875 36.95625 130.83125 37.55L128.9875 37.55Q128.72188 37.003124 128.64375 36.26875ZM128.4875 32.346874Q127.53438 32.7375 125.6125 33.003124Q124.53438 33.159374 124.08125 33.3625Q123.64375 33.55 123.39375 33.925Q123.14375 34.3 123.14375 34.76875Q123.14375 35.471874 123.675 35.940624Q124.20625 36.409374 125.2375 36.409374Q126.25313 36.409374 127.03438 35.971874Q127.83125 35.51875 128.20625 34.753124Q128.4875 34.14375 128.4875 32.9875L128.4875 32.346874ZM138.8625 41.51875L138.8625 27.175L140.47188 27.175L140.47188 28.51875Q141.03438 27.7375 141.7375 27.346874Q142.45625 26.940624 143.47188 26.940624Q144.8 26.940624 145.81563 27.628124Q146.83125 28.315624 147.34688 29.565624Q147.87813 30.8 147.87813 32.284374Q147.87813 33.878124 147.3 35.159374Q146.7375 36.425 145.64375 37.1125Q144.55 37.784374 143.34688 37.784374Q142.47188 37.784374 141.76875 37.409374Q141.08125 37.034374 140.62813 36.471874L140.62813 41.51875L138.8625 41.51875ZM140.45625 32.425Q140.45625 34.425 141.26875 35.378124Q142.08125 36.33125 143.2375 36.33125Q144.40938 36.33125 145.2375 35.346874Q146.08125 34.3625 146.08125 32.26875Q146.08125 30.3 145.25313 29.315624Q144.44063 28.315624 143.31563 28.315624Q142.19063 28.315624 141.31563 29.378124Q140.45625 30.425 140.45625 32.425ZM149.22188 32.3625Q149.22188 29.4875 150.81563 28.096874Q152.15938 26.940624 154.08125 26.940624Q156.22188 26.940624 157.56563 28.346874Q158.925 29.753124 158.925 32.221874Q158.925 34.221874 158.33125 35.378124Q157.7375 36.51875 156.58125 37.159374Q155.44063 37.784374 154.08125 37.784374Q151.89375 37.784374 150.55 36.39375Q149.22188 34.9875 149.22188 32.3625ZM151.01875 32.3625Q151.01875 34.3625 151.87813 35.346874Q152.75313 36.33125 154.08125 36.33125Q155.39375 36.33125 156.25313 35.346874Q157.12813 34.346874 157.12813 32.3Q157.12813 30.378124 156.25313 29.39375Q155.37813 28.39375 154.08125 28.39375Q152.75313 28.39375 151.87813 29.39375Q151.01875 30.378124 151.01875 32.3625ZM160.84688 37.55L160.84688 27.175L162.425 27.175L162.425 28.753124Q163.03438 27.64375 163.55 27.3Q164.06563 26.940624 164.675 26.940624Q165.56563 26.940624 166.4875 27.503124L165.87813 29.14375Q165.2375 28.753124 164.59688 28.753124Q164.01875 28.753124 163.55 29.1125Q163.09688 29.45625 162.89375 30.065624Q162.6125 31.003124 162.6125 32.1125L162.6125 37.55L160.84688 37.55ZM180.64375 36.26875Q179.65938 37.096874 178.75313 37.440624Q177.84688 37.784374 176.81563 37.784374Q175.1125 37.784374 174.19063 36.95625Q173.26875 36.1125 173.26875 34.815624Q173.26875 34.05 173.6125 33.425Q173.97188 32.8 174.53438 32.425Q175.09688 32.034374 175.8 31.83125Q176.31563 31.70625 177.3625 31.565624Q179.4875 31.315624 180.4875 30.971874Q180.50313 30.6125 180.50313 30.503124Q180.50313 29.440624 180.00313 28.9875Q179.33125 28.39375 178.00313 28.39375Q176.75313 28.39375 176.15938 28.83125Q175.58125 29.26875 175.3 30.378124L173.58125 30.14375Q173.81563 29.034374 174.34688 28.3625Q174.87813 27.675 175.89375 27.315624Q176.90938 26.940624 178.25313 26.940624Q179.58125 26.940624 180.40938 27.253124Q181.2375 27.565624 181.62813 28.05Q182.01875 28.51875 182.175 29.2375Q182.26875 29.690624 182.26875 30.8625L182.26875 33.20625Q182.26875 35.659374 182.37813 36.315624Q182.4875 36.95625 182.83125 37.55L180.9875 37.55Q180.72188 37.003124 180.64375 36.26875ZM180.4875 32.346874Q179.53438 32.7375 177.6125 33.003124Q176.53438 33.159374 176.08125 33.3625Q175.64375 33.55 175.39375 33.925Q175.14375 34.3 175.14375 34.76875Q175.14375 35.471874 175.675 35.940624Q176.20625 36.409374 177.2375 36.409374Q178.25313 36.409374 179.03438 35.971874Q179.83125 35.51875 180.20625 34.753124Q180.4875 34.14375 180.4875 32.9875L180.4875 32.346874ZM184.8625 37.55L184.8625 27.175L186.45625 27.175L186.45625 28.659374Q187.59688 26.940624 189.75313 26.940624Q190.69063 26.940624 191.47188 27.284374Q192.26875 27.6125 192.65938 28.159374Q193.05 28.70625 193.20625 29.45625Q193.3 29.95625 193.3 31.175L193.3 37.55L191.53438 37.55L191.53438 31.2375Q191.53438 30.159374 191.33125 29.628124Q191.12813 29.096874 190.59688 28.784374Q190.08125 28.471874 189.37813 28.471874Q188.25313 28.471874 187.44063 29.190624Q186.62813 29.89375 186.62813 31.878124L186.62813 37.55L184.8625 37.55ZM194.22188 32.3625Q194.22188 29.4875 195.81563 28.096874Q197.15938 26.940624 199.08125 26.940624Q201.22188 26.940624 202.56563 28.346874Q203.925 29.753124 203.925 32.221874Q203.925 34.221874 203.33125 35.378124Q202.7375 36.51875 201.58125 37.159374Q200.44063 37.784374 199.08125 37.784374Q196.89375 37.784374 195.55 36.39375Q194.22188 34.9875 194.22188 32.3625ZM196.01875 32.3625Q196.01875 34.3625 196.87813 35.346874Q197.75313 36.33125 199.08125 36.33125Q200.39375 36.33125 201.25313 35.346874Q202.12813 34.346874 202.12813 32.3Q202.12813 30.378124 201.25313 29.39375Q200.37813 28.39375 199.08125 28.39375Q197.75313 28.39375 196.87813 29.39375Q196.01875 30.378124 196.01875 32.3625ZM215.22188 41.753124Q213.76875 39.925 212.76875 37.471874Q211.76875 35.003124 211.76875 32.3625Q211.76875 30.034374 212.51875 27.909374Q213.39375 25.440624 215.22188 22.9875L216.4875 22.9875Q215.3 25.01875 214.925 25.89375Q214.33125 27.2375 213.9875 28.70625Q213.56563 30.534374 213.56563 32.378124Q213.56563 37.065624 216.4875 41.753124L215.22188 41.753124ZM227.6125 35.8625L227.6125 37.55L218.15938 37.55Q218.14375 36.909374 218.3625 36.33125Q218.72188 35.3625 219.51875 34.425Q220.31563 33.4875 221.81563 32.253124Q224.15938 30.346874 224.97188 29.2375Q225.8 28.1125 225.8 27.1125Q225.8 26.065624 225.05 25.346874Q224.3 24.628124 223.09688 24.628124Q221.83125 24.628124 221.06563 25.39375Q220.3 26.159374 220.3 27.503124L218.4875 27.315624Q218.675 25.3 219.87813 24.2375Q221.09688 23.175 223.14375 23.175Q225.19063 23.175 226.39375 24.315624Q227.59688 25.45625 227.59688 27.14375Q227.59688 28.003124 227.2375 28.846874Q226.89375 29.675 226.08125 30.596874Q225.26875 31.503124 223.37813 33.1125Q221.78438 34.440624 221.33125 34.909374Q220.89375 35.378124 220.59688 35.8625L227.6125 35.8625ZM229.37813 30.4875Q229.37813 27.95625 229.89375 26.409374Q230.425 24.846874 231.45625 24.01875Q232.4875 23.175 234.05 23.175Q235.20625 23.175 236.06563 23.64375Q236.94063 24.096874 237.50313 24.971874Q238.06563 25.846874 238.39375 27.1125Q238.72188 28.3625 238.72188 30.4875Q238.72188 33.003124 238.19063 34.55Q237.675 36.096874 236.64375 36.95625Q235.62813 37.8 234.05 37.8Q231.97188 37.8 230.8 36.315624Q229.37813 34.51875 229.37813 30.4875ZM231.19063 30.4875Q231.19063 34.01875 232.00313 35.190624Q232.83125 36.346874 234.05 36.346874Q235.25313 36.346874 236.08125 35.175Q236.90938 34.003124 236.90938 30.4875Q236.90938 26.95625 236.08125 25.8Q235.25313 24.628124 234.03438 24.628124Q232.81563 24.628124 232.09688 25.659374Q231.19063 26.95625 231.19063 30.4875ZM247.00313 37.55L245.2375 37.55L245.2375 26.346874Q244.6125 26.95625 243.58125 27.565624Q242.55 28.159374 241.72188 28.471874L241.72188 26.76875Q243.20625 26.08125 244.3 25.096874Q245.40938 24.096874 245.8625 23.175L247.00313 23.175L247.00313 37.55ZM258.0031 37.55L256.2375 37.55L256.2375 26.346874Q255.6125 26.95625 254.58125 27.565624Q253.55 28.159374 252.72188 28.471874L252.72188 26.76875Q254.20625 26.08125 255.3 25.096874Q256.40936 24.096874 256.8625 23.175L258.0031 23.175L258.0031 37.55ZM262.1906 33.253124L262.1906 31.4875L267.58124 31.4875L267.58124 33.253124L262.1906 33.253124ZM278.6125 35.8625L278.6125 37.55L269.15936 37.55Q269.14374 36.909374 269.3625 36.33125Q269.72186 35.3625 270.51874 34.425Q271.3156 33.4875 272.8156 32.253124Q275.15936 30.346874 275.97186 29.2375Q276.8 28.1125 276.8 27.1125Q276.8 26.065624 276.05 25.346874Q275.3 24.628124 274.09686 24.628124Q272.83124 24.628124 272.0656 25.39375Q271.3 26.159374 271.3 27.503124L269.4875 27.315624Q269.675 25.3 270.8781 24.2375Q272.09686 23.175 274.14374 23.175Q276.1906 23.175 277.39374 24.315624Q278.59686 25.45625 278.59686 27.14375Q278.59686 28.003124 278.2375 28.846874Q277.89374 29.675 277.08124 30.596874Q276.26874 31.503124 274.3781 33.1125Q272.78436 34.440624 272.33124 34.909374Q271.89374 35.378124 271.59686 35.8625L278.6125 35.8625ZM280.3781 30.4875Q280.3781 27.95625 280.89374 26.409374Q281.425 24.846874 282.45624 24.01875Q283.4875 23.175 285.05 23.175Q286.20624 23.175 287.0656 23.64375Q287.9406 24.096874 288.5031 24.971874Q289.0656 25.846874 289.39374 27.1125Q289.72186 28.3625 289.72186 30.4875Q289.72186 33.003124 289.1906 34.55Q288.675 36.096874 287.64374 36.95625Q286.6281 37.8 285.05 37.8Q282.97186 37.8 281.8 36.315624Q280.3781 34.51875 280.3781 30.4875ZM282.1906 30.4875Q282.1906 34.01875 283.0031 35.190624Q283.83124 36.346874 285.05 36.346874Q286.2531 36.346874 287.08124 35.175Q287.90936 34.003124 287.90936 30.4875Q287.90936 26.95625 287.08124 25.8Q286.2531 24.628124 285.03436 24.628124Q283.8156 24.628124 283.09686 25.659374Q282.1906 26.95625 282.1906 30.4875ZM300.6125 35.8625L300.6125 37.55L291.15936 37.55Q291.14374 36.909374 291.3625 36.33125Q291.72186 35.3625 292.51874 34.425Q293.3156 33.4875 294.8156 32.253124Q297.15936 30.346874 297.97186 29.2375Q298.8 28.1125 298.8 27.1125Q298.8 26.065624 298.05 25.346874Q297.3 24.628124 296.09686 24.628124Q294.83124 24.628124 294.0656 25.39375Q293.3 26.159374 293.3 27.503124L291.4875 27.315624Q291.675 25.3 292.8781 24.2375Q294.09686 23.175 296.14374 23.175Q298.1906 23.175 299.39374 24.315624Q300.59686 25.45625 300.59686 27.14375Q300.59686 28.003124 300.2375 28.846874Q299.89374 29.675 299.08124 30.596874Q298.26874 31.503124 296.3781 33.1125Q294.78436 34.440624 294.33124 34.909374Q293.89374 35.378124 293.59686 35.8625L300.6125 35.8625ZM309.0031 37.55L307.2375 37.55L307.2375 26.346874Q306.6125 26.95625 305.58124 27.565624Q304.55 28.159374 303.72186 28.471874L303.72186 26.76875Q305.20624 26.08125 306.3 25.096874Q307.40936 24.096874 307.8625 23.175L309.0031 23.175L309.0031 37.55ZM315.01874 41.753124L313.76874 41.753124Q316.675 37.065624 316.675 32.378124Q316.675 30.534374 316.26874 28.7375Q315.925 27.26875 315.33124 25.925Q314.95624 25.034374 313.76874 22.9875L315.01874 22.9875Q316.8625 25.440624 317.7375 27.909374Q318.4875 30.034374 318.4875 32.3625Q318.4875 35.003124 317.47186 37.471874Q316.47186 39.925 315.01874 41.753124Z" fill-rule="nonzero"/></svg>