<svg version="1.1" viewBox="0.0 0.0 600.0 371.0" fill="none" stroke="none" stroke-linecap="square" stroke-miterlimit="10" width="600" height="371" xmlns:xlink="http://www.w3.org/1999/xlink" xmlns="http://www.w3.org/2000/svg"><path fill="#ffffff" d="M0 0L600.0 0L600.0 371.0L0 371.0L0 0Z" fill-rule="nonzero"/><path stroke="#cccccc" stroke-width="1.0" stroke-linecap="butt" d="M133.5 61.5L133.5 300.5" fill-rule="nonzero"/><path stroke="#cccccc" stroke-width="1.0" stroke-linecap="butt" d="M231.5 61.5L231.5 300.5" fill-rule="nonzero"/><path stroke="#cccccc" stroke-width="1.0" stroke-linecap="butt" d="M329.5 61.5L329.5 300.5" fill-rule="nonzero"/><path stroke="#cccccc" stroke-width="1.0" stroke-linecap="butt" d="M427.5 61.5L427.5 300.5" fill-rule="nonzero"/><path stroke="#cccccc" stroke-width="1.0" stroke-linecap="butt" d="M525.5 61.5L525.5 300.5" fill-rule="nonzero"/><path stroke="#333333" stroke-width="1.0" stroke-linecap="butt" d="M77.5 300.5L581.5 300.5" fill-rule="nonzero"/><path stroke="#cccccc" stroke-width="1.0" stroke-linecap="butt" d="M77.5 240.5L581.5 240.5" fill-rule="nonzero"/><path stroke="#cccccc" stroke-width="1.0" stroke-linecap="butt" d="M77.5 181.5L581.5 181.5" fill-rule="nonzero"/><path stroke="#cccccc" stroke-width="1.0" stroke-linecap="butt" d="M77.5 121.5L581.5 121.5" fill-rule="nonzero"/><path stroke="#cccccc" stroke-width="1.0" stroke-linecap="butt" d="M77.5 61.5L581.5 61.5" fill-rule="nonzero"/><clipPath id="id_0"><path d="M77.55 61.916668L581.45 61.916668L581.45 300.45L77.55 300.45L77.55 61.916668Z" clip-rule="nonzero"/></clipPath><path fill="#4285f4" clip-path="url(#id_0)" d="M88.86077 94.83427C88.86077 97.31955 86.846054 99.33427 84.36077 99.33427C81.875496 99.33427 79.86077 97.31955 79.86077 94.83427C79.86077 92.34898 81.875496 90.33427 84.36077 90.33427C86.846054 90.33427 88.86077 92.34898 88.86077 94.83427Z" fill-rule="nonzero"/><path fill="#4285f4" clip-path="url(#id_0)" d="M137.88863 86.4856C137.88863 88.97088 135.8739 90.9856 133.38863 90.9856C130.90334 90.9856 128.88863 88.97088 128.88863 86.4856C128.88863 84.00032 130.90334 81.9856 133.38863 81.9856C135.8739 81.9856 137.88863 84.00032 137.88863 86.4856Z" fill-rule="nonzero"/><path fill="#4285f4" clip-path="url(#id_0)" d="M186.91646 265.86267C186.91646 268.34796 184.90175 270.36267 182.41646 270.36267C179.93118 270.36267 177.91646 268.34796 177.91646 265.86267C177.91646 263.37738 179.93118 261.36267 182.41646 261.36267C184.90175 261.36267 186.91646 263.37738 186.91646 265.86267Z" fill-rule="nonzero"/><path fill="#4285f4" clip-path="url(#id_0)" d="M235.9443 203.60547C235.9443 206.09074 233.9296 208.10547 231.4443 208.10547C228.95903 208.10547 226.9443 206.09074 226.9443 203.60547C226.9443 201.12018 228.95903 199.10547 231.4443 199.10547C233.9296 199.10547 235.9443 201.12018 235.9443 203.60547Z" fill-rule="nonzero"/><path fill="#4285f4" clip-path="url(#id_0)" d="M284.97217 213.1468C284.97217 215.63208 282.95743 217.6468 280.47217 217.6468C277.98688 217.6468 275.97217 215.63208 275.97217 213.1468C275.97217 210.66151 277.98688 208.6468 280.47217 208.6468C282.95743 208.6468 284.97217 210.66151 284.97217 213.1468Z" fill-rule="nonzero"/><path fill="#4285f4" clip-path="url(#id_0)" d="M334.0 200.266C334.0 202.75128 331.9853 204.766 329.5 204.766C327.0147 204.766 325.0 202.75128 325.0 200.266C325.0 197.78072 327.0147 195.766 329.5 195.766C331.9853 195.766 334.0 197.78072 334.0 200.266Z" fill-rule="nonzero"/><path fill="#4285f4" clip-path="url(#id_0)" d="M383.02783 166.87134C383.02783 169.35661 381.01312 171.37134 378.52783 171.37134C376.04257 171.37134 374.02783 169.35661 374.02783 166.87134C374.02783 164.38605 376.04257 162.37134 378.52783 162.37134C381.01312 162.37134 383.02783 164.38605 383.02783 166.87134Z" fill-rule="nonzero"/><path fill="#4285f4" clip-path="url(#id_0)" d="M432.0557 219.34866C432.0557 221.83395 430.041 223.84866 427.5557 223.84866C425.0704 223.84866 423.0557 221.83395 423.0557 219.34866C423.0557 216.86339 425.0704 214.84866 427.5557 214.84866C430.041 214.84866 432.0557 216.86339 432.0557 219.34866Z" fill-rule="nonzero"/><path fill="#4285f4" clip-path="url(#id_0)" d="M481.08353 204.79813C481.08353 207.28342 479.06882 209.29813 476.58353 209.29813C474.09827 209.29813 472.08353 207.28342 472.08353 204.79813C472.08353 202.31285 474.09827 200.29813 476.58353 200.29813C479.06882 200.29813 481.08353 202.31285 481.08353 204.79813Z" fill-rule="nonzero"/><path fill="#4285f4" clip-path="url(#id_0)" d="M530.1114 217.20187C530.1114 219.68715 528.0967 221.70187 525.6114 221.70187C523.1261 221.70187 521.1114 219.68715 521.1114 217.20187C521.1114 214.71658 523.1261 212.70187 525.6114 212.70187C528.0967 212.70187 530.1114 214.71658 530.1114 217.20187Z" fill-rule="nonzero"/><path fill="#4285f4" clip-path="url(#id_0)" d="M579.1392 148.50427C579.1392 150.98955 577.1245 153.00427 574.6392 153.00427C572.15393 153.00427 570.1392 150.98955 570.1392 148.50427C570.1392 146.01898 572.15393 144.00427 574.6392 144.00427C577.1245 144.00427 579.1392 146.01898 579.1392 148.50427Z" fill-rule="nonzero"/><path fill="#000000" d="M318.98438 349.45L322.28125 340.85626L323.5 340.85626L327.01562 349.45L325.73438 349.45L324.71875 346.84064L321.14062 346.84064L320.1875 349.45L318.98438 349.45ZM321.46875 345.91876L324.375 345.91876L323.48438 343.54376Q323.0625 342.46564 322.875 341.7625Q322.70312 342.59064 322.40625 343.40314L321.46875 345.91876ZM326.79688 349.45L326.79688 343.23126L327.73438 343.23126L327.73438 344.10626Q328.42188 343.09064 329.71875 343.09064Q330.28125 343.09064 330.75 343.29376Q331.23438 343.4969 331.46875 343.825Q331.70312 344.15314 331.79688 344.59064Q331.84375 344.8875 331.84375 345.6219L331.84375 349.45L330.79688 349.45L330.79688 345.66876Q330.79688 345.0125 330.67188 344.7Q330.54688 344.3875 330.23438 344.2Q329.92188 343.9969 329.5 343.9969Q328.82812 343.9969 328.32812 344.4344Q327.84375 344.85626 327.84375 346.04376L327.84375 349.45L326.79688 349.45ZM333.40625 346.34064Q333.40625 344.60626 334.35938 343.77814Q335.15625 343.09064 336.3125 343.09064Q337.59375 343.09064 338.40625 343.9344Q339.23438 344.7625 339.23438 346.2469Q339.23438 347.45 338.875 348.1375Q338.51562 348.825 337.8125 349.21564Q337.125 349.59064 336.3125 349.59064Q335.01562 349.59064 334.20312 348.7625Q333.40625 347.91876 333.40625 346.34064ZM334.48438 346.34064Q334.48438 347.52814 335.0 348.1219Q335.53125 348.71564 336.3125 348.71564Q337.10938 348.71564 337.625 348.1219Q338.14062 347.52814 338.14062 346.3094Q338.14062 345.15314 337.60938 344.5594Q337.09375 343.96564 336.3125 343.96564Q335.53125 343.96564 335.0 344.5594Q334.48438 345.1375 334.48438 346.34064Z" fill-rule="nonzero"/><path fill="#000000" d="M29.550013 208.07396L21.971888 208.07396L21.971888 210.90208L20.956263 210.90208L20.956263 204.08958L21.971888 204.08958L21.971888 206.93333L29.550013 206.93333L29.550013 208.07396ZM29.550013 199.30833L28.628138 199.30833Q29.690638 200.04271 29.690638 201.29271Q29.690638 201.83958 29.487513 202.32396Q29.268763 202.79271 28.956263 203.02708Q28.628138 203.26146 28.159388 203.35521Q27.862513 203.41771 27.175013 203.41771L23.331263 203.41771L23.331263 202.35521L26.784388 202.35521Q27.596888 202.35521 27.893763 202.29271Q28.300013 202.19896 28.550013 201.88646Q28.784388 201.55833 28.784388 201.07396Q28.784388 200.60521 28.550013 200.19896Q28.300013 199.77708 27.878138 199.60521Q27.456263 199.41771 26.659388 199.41771L23.331263 199.41771L23.331263 198.37083L29.550013 198.37083L29.550013 199.30833ZM29.550013 196.40208L23.331263 196.40208L23.331263 195.44896L24.268763 195.44896Q23.612513 195.08958 23.409388 194.79271Q23.190638 194.48021 23.190638 194.10521Q23.190638 193.57396 23.518763 193.02708L24.503138 193.38646Q24.268763 193.77708 24.268763 194.15208Q24.268763 194.51146 24.487513 194.79271Q24.690638 195.05833 25.065638 195.16771Q25.628138 195.35521 26.284388 195.35521L29.550013 195.35521L29.550013 196.40208ZM29.550013 191.41771L29.550013 192.40208L20.956263 192.40208L20.956263 191.33958L24.018763 191.33958Q23.190638 190.66771 23.190638 189.63646Q23.190638 189.05833 23.425013 188.55833Q23.643763 188.04271 24.065638 187.71458Q24.487513 187.37083 25.081263 187.18333Q25.675013 186.99583 26.346888 186.99583Q27.940638 186.99583 28.815638 187.79271Q29.690638 188.58958 29.690638 189.68333Q29.690638 190.79271 28.768763 191.41771L29.550013 191.41771ZM26.393763 191.43333Q27.503138 191.43333 28.003138 191.12083Q28.815638 190.62083 28.815638 189.77708Q28.815638 189.08958 28.221888 188.58958Q27.628138 188.07396 26.425013 188.07396Q25.206263 188.07396 24.628138 188.55833Q24.050013 189.04271 24.050013 189.73021Q24.050013 190.41771 24.659388 190.93333Q25.253138 191.43333 26.393763 191.43333ZM22.175013 185.38646L20.956263 185.38646L20.956263 184.32396L22.175013 184.32396L22.175013 185.38646ZM29.550013 185.38646L23.331263 185.38646L23.331263 184.32396L29.550013 184.32396L29.550013 185.38646ZM29.550013 178.35521L28.768763 178.35521Q29.690638 178.94896 29.690638 180.08958Q29.690638 180.83958 29.284388 181.46458Q28.862513 182.08958 28.128138 182.43333Q27.393763 182.77708 26.440638 182.77708Q25.518763 182.77708 24.753138 182.46458Q23.987513 182.15208 23.596888 181.52708Q23.190638 180.90208 23.190638 180.13646Q23.190638 179.57396 23.425013 179.13646Q23.659388 178.69896 24.034388 178.41771L20.956263 178.41771L20.956263 177.37083L29.550013 177.37083L29.550013 178.35521ZM26.440638 181.68333Q27.643763 181.68333 28.237513 181.18333Q28.815638 180.68333 28.815638 179.99583Q28.815638 179.30833 28.253138 178.82396Q27.690638 178.33958 26.534388 178.33958Q25.253138 178.33958 24.659388 178.83958Q24.065638 179.32396 24.065638 180.04271Q24.065638 180.74583 24.643763 181.21458Q25.206263 181.68333 26.440638 181.68333ZM27.550013 171.13646L27.675013 170.04271Q28.628138 170.29271 29.159388 170.99583Q29.690638 171.69896 29.690638 172.77708Q29.690638 174.13646 28.846888 174.94896Q28.003138 175.74583 26.487513 175.74583Q24.925013 175.74583 24.065638 174.93333Q23.190638 174.12083 23.190638 172.83958Q23.190638 171.58958 24.034388 170.80833Q24.878138 170.01146 26.425013 170.01146Q26.518763 170.01146 26.706263 170.01146L26.706263 174.65208Q27.737513 174.58958 28.284388 174.07396Q28.815638 173.55833 28.815638 172.77708Q28.815638 172.19896 28.518763 171.79271Q28.206263 171.37083 27.550013 171.13646ZM25.846888 174.58958L25.846888 171.12083Q25.050013 171.18333 24.659388 171.51146Q24.050013 172.02708 24.050013 172.82396Q24.050013 173.55833 24.534388 174.05833Q25.018763 174.54271 25.846888 174.58958ZM29.550013 168.94896L28.690638 168.94896L24.143763 164.98021Q24.175013 165.66771 24.175013 166.18333L24.175013 168.71458L23.331263 168.71458L23.331263 163.62083L24.018763 163.62083L27.971888 166.99583L28.690638 167.65208Q28.643763 166.93333 28.643763 166.32396L28.643763 163.43333L29.550013 163.43333L29.550013 168.94896Z" fill-rule="nonzero"/><path fill="#000000" d="M65.05 300.21564Q65.05 298.6844 65.3625 297.7625Q65.675 296.825 66.28438 296.325Q66.90938 295.825 67.84688 295.825Q68.53438 295.825 69.05 296.10626Q69.58125 296.3875 69.925 296.91876Q70.26875 297.4344 70.45625 298.1844Q70.64375 298.9344 70.64375 300.21564Q70.64375 301.73126 70.33125 302.65314Q70.03438 303.575 69.40938 304.09064Q68.8 304.59064 67.84688 304.59064Q66.6125 304.59064 65.89375 303.7Q65.05 302.6375 65.05 300.21564ZM66.12813 300.21564Q66.12813 302.325 66.62813 303.02814Q67.12813 303.73126 67.84688 303.73126Q68.58125 303.73126 69.06563 303.02814Q69.56563 302.325 69.56563 300.21564Q69.56563 298.09064 69.06563 297.40314Q68.58125 296.7 67.83125 296.7Q67.1125 296.7 66.675 297.3094Q66.12813 298.09064 66.12813 300.21564Z" fill-rule="nonzero"/><path fill="#000000" d="M63.596874 243.80104L63.596874 244.81667L57.909374 244.81667Q57.909374 244.44167 58.034374 244.08229Q58.253124 243.50417 58.721874 242.94167Q59.20625 242.37917 60.1125 241.64479Q61.51875 240.48854 62.003124 239.81667Q62.503124 239.14479 62.503124 238.55104Q62.503124 237.92604 62.05 237.50417Q61.596874 237.06667 60.878124 237.06667Q60.1125 237.06667 59.659374 237.51979Q59.20625 237.97292 59.190624 238.78542L58.1125 238.67604Q58.221874 237.45729 58.940624 236.83229Q59.675 236.19167 60.909374 236.19167Q62.14375 236.19167 62.8625 236.87917Q63.58125 237.56667 63.58125 238.58229Q63.58125 239.09792 63.3625 239.59792Q63.159374 240.08229 62.659374 240.64479Q62.175 241.19167 61.05 242.14479Q60.096874 242.94167 59.815624 243.23854Q59.55 243.51979 59.378124 243.80104L63.596874 243.80104ZM65.05 242.56667L66.15938 242.47292Q66.28438 243.28542 66.72188 243.69167Q67.175 244.09792 67.81563 244.09792Q68.56563 244.09792 69.09688 243.51979Q69.62813 242.94167 69.62813 242.00417Q69.62813 241.09792 69.1125 240.58229Q68.6125 240.05104 67.78438 240.05104Q67.28438 240.05104 66.8625 240.28542Q66.45625 240.51979 66.22188 240.87917L65.2375 240.75417L66.06563 236.34792L70.34688 236.34792L70.34688 237.34792L66.90938 237.34792L66.45625 239.66042Q67.22188 239.11354 68.06563 239.11354Q69.19063 239.11354 69.95625 239.89479Q70.7375 240.67604 70.7375 241.91042Q70.7375 243.06667 70.06563 243.92604Q69.2375 244.95729 67.81563 244.95729Q66.64375 244.95729 65.89375 244.30104Q65.15938 243.64479 65.05 242.56667Z" fill-rule="nonzero"/><path fill="#000000" d="M58.05 182.93333L59.159374 182.83958Q59.284374 183.65208 59.721874 184.05833Q60.175 184.46458 60.815624 184.46458Q61.565624 184.46458 62.096874 183.88646Q62.628124 183.30833 62.628124 182.37083Q62.628124 181.46458 62.1125 180.94896Q61.6125 180.41771 60.784374 180.41771Q60.284374 180.41771 59.8625 180.65208Q59.45625 180.88646 59.221874 181.24583L58.2375 181.12083L59.065624 176.71458L63.346874 176.71458L63.346874 177.71458L59.909374 177.71458L59.45625 180.02708Q60.221874 179.48021 61.065624 179.48021Q62.190624 179.48021 62.95625 180.26146Q63.7375 181.04271 63.7375 182.27708Q63.7375 183.43333 63.065624 184.29271Q62.2375 185.32396 60.815624 185.32396Q59.64375 185.32396 58.89375 184.66771Q58.159374 184.01146 58.05 182.93333ZM65.05 180.94896Q65.05 179.41771 65.3625 178.49583Q65.675 177.55833 66.28438 177.05833Q66.90938 176.55833 67.84688 176.55833Q68.53438 176.55833 69.05 176.83958Q69.58125 177.12083 69.925 177.65208Q70.26875 178.16771 70.45625 178.91771Q70.64375 179.66771 70.64375 180.94896Q70.64375 182.46458 70.33125 183.38646Q70.03438 184.30833 69.40938 184.82396Q68.8 185.32396 67.84688 185.32396Q66.6125 185.32396 65.89375 184.43333Q65.05 183.37083 65.05 180.94896ZM66.12813 180.94896Q66.12813 183.05833 66.62813 183.76146Q67.12813 184.46458 67.84688 184.46458Q68.58125 184.46458 69.06563 183.76146Q69.56563 183.05833 69.56563 180.94896Q69.56563 178.82396 69.06563 178.13646Q68.58125 177.43333 67.83125 177.43333Q67.1125 177.43333 66.675 178.04271Q66.12813 178.82396 66.12813 180.94896Z" fill-rule="nonzero"/><path fill="#000000" d="M58.1125 118.08125L58.1125 117.06563L63.675 117.06563L63.675 117.89375Q62.8625 118.76875 62.05 120.22188Q61.253124 121.65938 60.815624 123.19063Q60.4875 124.26875 60.409374 125.55L59.315624 125.55Q59.33125 124.53438 59.70625 123.09688Q60.096874 121.65938 60.8 120.33125Q61.51875 119.00313 62.33125 118.08125L58.1125 118.08125ZM65.05 123.3L66.15938 123.20625Q66.28438 124.01875 66.72188 124.425Q67.175 124.83125 67.81563 124.83125Q68.56563 124.83125 69.09688 124.25313Q69.62813 123.675 69.62813 122.7375Q69.62813 121.83125 69.1125 121.31563Q68.6125 120.78438 67.78438 120.78438Q67.28438 120.78438 66.8625 121.01875Q66.45625 121.25313 66.22188 121.6125L65.2375 121.4875L66.06563 117.08125L70.34688 117.08125L70.34688 118.08125L66.90938 118.08125L66.45625 120.39375Q67.22188 119.84688 68.06563 119.84688Q69.19063 119.84688 69.95625 120.62813Q70.7375 121.40938 70.7375 122.64375Q70.7375 123.8 70.06563 124.65938Q69.2375 125.69063 67.81563 125.69063Q66.64375 125.69063 65.89375 125.03438Q65.15938 124.37813 65.05 123.3Z" fill-rule="nonzero"/><path fill="#000000" d="M55.01875 65.916664L53.971874 65.916664L53.971874 59.197914Q53.58125 59.55729 52.95625 59.93229Q52.346874 60.291664 51.8625 60.46354L51.8625 59.447914Q52.7375 59.02604 53.39375 58.447914Q54.065624 57.854164 54.346874 57.291664L55.01875 57.291664L55.01875 65.916664ZM58.05 61.68229Q58.05 60.15104 58.3625 59.229164Q58.675 58.291664 59.284374 57.791664Q59.909374 57.291664 60.846874 57.291664Q61.534374 57.291664 62.05 57.572914Q62.58125 57.854164 62.925 58.385414Q63.26875 58.90104 63.45625 59.65104Q63.64375 60.40104 63.64375 61.68229Q63.64375 63.197914 63.33125 64.11979Q63.034374 65.041664 62.409374 65.55729Q61.8 66.05729 60.846874 66.05729Q59.6125 66.05729 58.89375 65.166664Q58.05 64.104164 58.05 61.68229ZM59.128124 61.68229Q59.128124 63.791664 59.628124 64.49479Q60.128124 65.197914 60.846874 65.197914Q61.58125 65.197914 62.065624 64.49479Q62.565624 63.791664 62.565624 61.68229Q62.565624 59.55729 62.065624 58.86979Q61.58125 58.166664 60.83125 58.166664Q60.1125 58.166664 59.675 58.77604Q59.128124 59.55729 59.128124 61.68229ZM65.05 61.68229Q65.05 60.15104 65.3625 59.229164Q65.675 58.291664 66.28438 57.791664Q66.90938 57.291664 67.84688 57.291664Q68.53438 57.291664 69.05 57.572914Q69.58125 57.854164 69.925 58.385414Q70.26875 58.90104 70.45625 59.65104Q70.64375 60.40104 70.64375 61.68229Q70.64375 63.197914 70.33125 64.11979Q70.03438 65.041664 69.40938 65.55729Q68.8 66.05729 67.84688 66.05729Q66.6125 66.05729 65.89375 65.166664Q65.05 64.104164 65.05 61.68229ZM66.12813 61.68229Q66.12813 63.791664 66.62813 64.49479Q67.12813 65.197914 67.84688 65.197914Q68.58125 65.197914 69.06563 64.49479Q69.56563 63.791664 69.56563 61.68229Q69.56563 59.55729 69.06563 58.86979Q68.58125 58.166664 67.83125 58.166664Q67.1125 58.166664 66.675 58.77604Q66.12813 59.55729 66.12813 61.68229Z" fill-rule="nonzero"/><path fill="#000000" d="M125.43549 316.4344L125.43549 317.45L119.74799 317.45Q119.74799 317.075 119.87299 316.71564Q120.09174 316.1375 120.56049 315.575Q121.04487 315.0125 121.95112 314.27814Q123.35737 313.1219 123.84174 312.45Q124.34174 311.77814 124.34174 311.1844Q124.34174 310.5594 123.88862 310.1375Q123.43549 309.7 122.71674 309.7Q121.95112 309.7 121.49799 310.15314Q121.04487 310.60626 121.02924 311.41876L119.95112 311.3094Q120.06049 310.09064 120.77924 309.46564Q121.51362 308.825 122.74799 308.825Q123.98237 308.825 124.70112 309.5125Q125.41987 310.2 125.41987 311.21564Q125.41987 311.73126 125.20112 312.23126Q124.99799 312.71564 124.49799 313.27814Q124.01362 313.825 122.88862 314.77814Q121.93549 315.575 121.65424 315.8719Q121.38862 316.15314 121.21674 316.4344L125.43549 316.4344ZM126.88862 313.21564Q126.88862 311.6844 127.20112 310.7625Q127.51362 309.825 128.12299 309.325Q128.74799 308.825 129.68549 308.825Q130.37299 308.825 130.88861 309.10626Q131.41986 309.3875 131.76361 309.91876Q132.10736 310.4344 132.29486 311.1844Q132.48236 311.9344 132.48236 313.21564Q132.48236 314.73126 132.16986 315.65314Q131.87299 316.575 131.24799 317.09064Q130.63861 317.59064 129.68549 317.59064Q128.45111 317.59064 127.73237 316.7Q126.88862 315.6375 126.88862 313.21564ZM127.96674 313.21564Q127.96674 315.325 128.46674 316.02814Q128.96674 316.73126 129.68549 316.73126Q130.41986 316.73126 130.90424 316.02814Q131.40424 315.325 131.40424 313.21564Q131.40424 311.09064 130.90424 310.40314Q130.41986 309.7 129.66986 309.7Q128.95111 309.7 128.51361 310.3094Q127.96674 311.09064 127.96674 313.21564ZM137.85736 317.45L136.81049 317.45L136.81049 310.73126Q136.41986 311.09064 135.79486 311.46564Q135.18549 311.825 134.70111 311.9969L134.70111 310.98126Q135.57611 310.5594 136.23236 309.98126Q136.90424 309.3875 137.18549 308.825L137.85736 308.825L137.85736 317.45ZM146.43549 316.4344L146.43549 317.45L140.74799 317.45Q140.74799 317.075 140.87299 316.71564Q141.09174 316.1375 141.56049 315.575Q142.04486 315.0125 142.95111 314.27814Q144.35736 313.1219 144.84174 312.45Q145.34174 311.77814 145.34174 311.1844Q145.34174 310.5594 144.88861 310.1375Q144.43549 309.7 143.71674 309.7Q142.95111 309.7 142.49799 310.15314Q142.04486 310.60626 142.02924 311.41876L140.95111 311.3094Q141.06049 310.09064 141.77924 309.46564Q142.51361 308.825 143.74799 308.825Q144.98236 308.825 145.70111 309.5125Q146.41986 310.2 146.41986 311.21564Q146.41986 311.73126 146.20111 312.23126Q145.99799 312.71564 145.49799 313.27814Q145.01361 313.825 143.88861 314.77814Q142.93549 315.575 142.65424 315.8719Q142.38861 316.15314 142.21674 316.4344L146.43549 316.4344Z" fill-rule="nonzero"/><path fill="#000000" d="M223.49118 316.4344L223.49118 317.45L217.80368 317.45Q217.80368 317.075 217.92868 316.71564Q218.14743 316.1375 218.61618 315.575Q219.10056 315.0125 220.0068 314.27814Q221.41306 313.1219 221.89743 312.45Q222.39743 311.77814 222.39743 311.1844Q222.39743 310.5594 221.9443 310.1375Q221.49118 309.7 220.77243 309.7Q220.0068 309.7 219.55368 310.15314Q219.10056 310.60626 219.08493 311.41876L218.0068 311.3094Q218.11618 310.09064 218.83493 309.46564Q219.5693 308.825 220.80368 308.825Q222.03806 308.825 222.7568 309.5125Q223.47556 310.2 223.47556 311.21564Q223.47556 311.73126 223.2568 312.23126Q223.05368 312.71564 222.55368 313.27814Q222.0693 313.825 220.9443 314.77814Q219.99118 315.575 219.70993 315.8719Q219.4443 316.15314 219.27243 316.4344L223.49118 316.4344ZM224.9443 313.21564Q224.9443 311.6844 225.2568 310.7625Q225.5693 309.825 226.17868 309.325Q226.80368 308.825 227.74118 308.825Q228.42868 308.825 228.9443 309.10626Q229.47556 309.3875 229.8193 309.91876Q230.16306 310.4344 230.35056 311.1844Q230.53806 311.9344 230.53806 313.21564Q230.53806 314.73126 230.22556 315.65314Q229.92868 316.575 229.30368 317.09064Q228.6943 317.59064 227.74118 317.59064Q226.5068 317.59064 225.78806 316.7Q224.9443 315.6375 224.9443 313.21564ZM226.02243 313.21564Q226.02243 315.325 226.52243 316.02814Q227.02243 316.73126 227.74118 316.73126Q228.47556 316.73126 228.95993 316.02814Q229.45993 315.325 229.45993 313.21564Q229.45993 311.09064 228.95993 310.40314Q228.47556 309.7 227.72556 309.7Q227.0068 309.7 226.5693 310.3094Q226.02243 311.09064 226.02243 313.21564ZM235.91306 317.45L234.86618 317.45L234.86618 310.73126Q234.47556 311.09064 233.85056 311.46564Q233.24118 311.825 232.7568 311.9969L232.7568 310.98126Q233.6318 310.5594 234.28806 309.98126Q234.95993 309.3875 235.24118 308.825L235.91306 308.825L235.91306 317.45ZM242.3193 317.45L242.3193 315.3875L238.60056 315.3875L238.60056 314.41876L242.52243 308.85626L243.3818 308.85626L243.3818 314.41876L244.53806 314.41876L244.53806 315.3875L243.3818 315.3875L243.3818 317.45L242.3193 317.45ZM242.3193 314.41876L242.3193 310.5594L239.6318 314.41876L242.3193 314.41876Z" fill-rule="nonzero"/><path fill="#000000" d="M321.54688 316.4344L321.54688 317.45L315.85938 317.45Q315.85938 317.075 315.98438 316.71564Q316.20312 316.1375 316.67188 315.575Q317.15625 315.0125 318.0625 314.27814Q319.46875 313.1219 319.95312 312.45Q320.45312 311.77814 320.45312 311.1844Q320.45312 310.5594 320.0 310.1375Q319.54688 309.7 318.82812 309.7Q318.0625 309.7 317.60938 310.15314Q317.15625 310.60626 317.14062 311.41876L316.0625 311.3094Q316.17188 310.09064 316.89062 309.46564Q317.625 308.825 318.85938 308.825Q320.09375 308.825 320.8125 309.5125Q321.53125 310.2 321.53125 311.21564Q321.53125 311.73126 321.3125 312.23126Q321.10938 312.71564 320.60938 313.27814Q320.125 313.825 319.0 314.77814Q318.04688 315.575 317.76562 315.8719Q317.5 316.15314 317.32812 316.4344L321.54688 316.4344ZM323.0 313.21564Q323.0 311.6844 323.3125 310.7625Q323.625 309.825 324.23438 309.325Q324.85938 308.825 325.79688 308.825Q326.48438 308.825 327.0 309.10626Q327.53125 309.3875 327.875 309.91876Q328.21875 310.4344 328.40625 311.1844Q328.59375 311.9344 328.59375 313.21564Q328.59375 314.73126 328.28125 315.65314Q327.98438 316.575 327.35938 317.09064Q326.75 317.59064 325.79688 317.59064Q324.5625 317.59064 323.84375 316.7Q323.0 315.6375 323.0 313.21564ZM324.07812 313.21564Q324.07812 315.325 324.57812 316.02814Q325.07812 316.73126 325.79688 316.73126Q326.53125 316.73126 327.01562 316.02814Q327.51562 315.325 327.51562 313.21564Q327.51562 311.09064 327.01562 310.40314Q326.53125 309.7 325.78125 309.7Q325.0625 309.7 324.625 310.3094Q324.07812 311.09064 324.07812 313.21564ZM333.96875 317.45L332.92188 317.45L332.92188 310.73126Q332.53125 311.09064 331.90625 311.46564Q331.29688 311.825 330.8125 311.9969L330.8125 310.98126Q331.6875 310.5594 332.34375 309.98126Q333.01562 309.3875 333.29688 308.825L333.96875 308.825L333.96875 317.45ZM342.46875 310.96564L341.42188 311.04376Q341.28125 310.41876 341.03125 310.1375Q340.59375 309.6844 339.96875 309.6844Q339.46875 309.6844 339.07812 309.96564Q338.59375 310.34064 338.29688 311.04376Q338.01562 311.73126 338.0 313.0125Q338.375 312.4344 338.92188 312.15314Q339.48438 311.8719 340.09375 311.8719Q341.14062 311.8719 341.875 312.65314Q342.625 313.4344 342.625 314.65314Q342.625 315.46564 342.26562 316.16876Q341.92188 316.85626 341.3125 317.23126Q340.70312 317.59064 339.9375 317.59064Q338.60938 317.59064 337.78125 316.6219Q336.95312 315.65314 336.95312 313.4344Q336.95312 310.9344 337.875 309.8094Q338.67188 308.825 340.03125 308.825Q341.04688 308.825 341.6875 309.40314Q342.34375 309.96564 342.46875 310.96564ZM338.17188 314.66876Q338.17188 315.21564 338.39062 315.71564Q338.625 316.2 339.03125 316.46564Q339.45312 316.73126 339.92188 316.73126Q340.57812 316.73126 341.0625 316.2Q341.54688 315.65314 341.54688 314.73126Q341.54688 313.84064 341.0625 313.325Q340.59375 312.8094 339.875 312.8094Q339.15625 312.8094 338.65625 313.325Q338.17188 313.84064 338.17188 314.66876Z" fill-rule="nonzero"/><path fill="#000000" d="M419.60257 316.4344L419.60257 317.45L413.91507 317.45Q413.91507 317.075 414.04007 316.71564Q414.25882 316.1375 414.72757 315.575Q415.21194 315.0125 416.1182 314.27814Q417.52444 313.1219 418.00882 312.45Q418.50882 311.77814 418.50882 311.1844Q418.50882 310.5594 418.0557 310.1375Q417.60257 309.7 416.88382 309.7Q416.1182 309.7 415.66507 310.15314Q415.21194 310.60626 415.19632 311.41876L414.1182 311.3094Q414.22757 310.09064 414.94632 309.46564Q415.6807 308.825 416.91507 308.825Q418.14944 308.825 418.8682 309.5125Q419.58694 310.2 419.58694 311.21564Q419.58694 311.73126 419.3682 312.23126Q419.16507 312.71564 418.66507 313.27814Q418.1807 313.825 417.0557 314.77814Q416.10257 315.575 415.82132 315.8719Q415.5557 316.15314 415.38382 316.4344L419.60257 316.4344ZM421.0557 313.21564Q421.0557 311.6844 421.3682 310.7625Q421.6807 309.825 422.29007 309.325Q422.91507 308.825 423.85257 308.825Q424.54007 308.825 425.0557 309.10626Q425.58694 309.3875 425.9307 309.91876Q426.27444 310.4344 426.46194 311.1844Q426.64944 311.9344 426.64944 313.21564Q426.64944 314.73126 426.33694 315.65314Q426.04007 316.575 425.41507 317.09064Q424.8057 317.59064 423.85257 317.59064Q422.6182 317.59064 421.89944 316.7Q421.0557 315.6375 421.0557 313.21564ZM422.13382 313.21564Q422.13382 315.325 422.63382 316.02814Q423.13382 316.73126 423.85257 316.73126Q424.58694 316.73126 425.07132 316.02814Q425.57132 315.325 425.57132 313.21564Q425.57132 311.09064 425.07132 310.40314Q424.58694 309.7 423.83694 309.7Q423.1182 309.7 422.6807 310.3094Q422.13382 311.09064 422.13382 313.21564ZM432.02444 317.45L430.97757 317.45L430.97757 310.73126Q430.58694 311.09064 429.96194 311.46564Q429.35257 311.825 428.8682 311.9969L428.8682 310.98126Q429.7432 310.5594 430.39944 309.98126Q431.07132 309.3875 431.35257 308.825L432.02444 308.825L432.02444 317.45ZM436.6807 312.79376Q436.02444 312.54376 435.69632 312.10626Q435.38382 311.65314 435.38382 311.04376Q435.38382 310.10626 436.0557 309.46564Q436.7432 308.825 437.85257 308.825Q438.97757 308.825 439.66507 309.48126Q440.35257 310.1375 440.35257 311.075Q440.35257 311.66876 440.04007 312.10626Q439.72757 312.54376 439.08694 312.79376Q439.88382 313.04376 440.29007 313.6219Q440.69632 314.2 440.69632 314.9969Q440.69632 316.09064 439.91507 316.84064Q439.14944 317.59064 437.8682 317.59064Q436.60257 317.59064 435.82132 316.84064Q435.04007 316.09064 435.04007 314.96564Q435.04007 314.1219 435.46194 313.5594Q435.89944 312.9969 436.6807 312.79376ZM436.46194 310.9969Q436.46194 311.60626 436.85257 311.9969Q437.25882 312.3875 437.88382 312.3875Q438.4932 312.3875 438.88382 312.0125Q439.27444 311.6219 439.27444 311.0594Q439.27444 310.48126 438.8682 310.09064Q438.46194 309.6844 437.8682 309.6844Q437.25882 309.6844 436.85257 310.075Q436.46194 310.46564 436.46194 310.9969ZM436.13382 314.96564Q436.13382 315.41876 436.33694 315.84064Q436.5557 316.2625 436.97757 316.4969Q437.39944 316.73126 437.88382 316.73126Q438.63382 316.73126 439.1182 316.2469Q439.6182 315.7625 439.6182 315.0125Q439.6182 314.2469 439.1182 313.7469Q438.6182 313.2469 437.85257 313.2469Q437.10257 313.2469 436.6182 313.7469Q436.13382 314.23126 436.13382 314.96564Z" fill-rule="nonzero"/><path fill="#000000" d="M517.65826 316.4344L517.65826 317.45L511.97076 317.45Q511.97076 317.075 512.09576 316.71564Q512.3145 316.1375 512.78326 315.575Q513.26764 315.0125 514.1739 314.27814Q515.58014 313.1219 516.0645 312.45Q516.5645 311.77814 516.5645 311.1844Q516.5645 310.5594 516.1114 310.1375Q515.65826 309.7 514.9395 309.7Q514.1739 309.7 513.72076 310.15314Q513.26764 310.60626 513.252 311.41876L512.1739 311.3094Q512.28326 310.09064 513.002 309.46564Q513.7364 308.825 514.97076 308.825Q516.20514 308.825 516.9239 309.5125Q517.64264 310.2 517.64264 311.21564Q517.64264 311.73126 517.4239 312.23126Q517.22076 312.71564 516.72076 313.27814Q516.2364 313.825 515.1114 314.77814Q514.15826 315.575 513.877 315.8719Q513.6114 316.15314 513.4395 316.4344L517.65826 316.4344ZM519.1114 313.21564Q519.1114 311.6844 519.4239 310.7625Q519.7364 309.825 520.34576 309.325Q520.97076 308.825 521.90826 308.825Q522.59576 308.825 523.1114 309.10626Q523.64264 309.3875 523.9864 309.91876Q524.33014 310.4344 524.51764 311.1844Q524.70514 311.9344 524.70514 313.21564Q524.70514 314.73126 524.39264 315.65314Q524.09576 316.575 523.47076 317.09064Q522.8614 317.59064 521.90826 317.59064Q520.6739 317.59064 519.95514 316.7Q519.1114 315.6375 519.1114 313.21564ZM520.1895 313.21564Q520.1895 315.325 520.6895 316.02814Q521.1895 316.73126 521.90826 316.73126Q522.64264 316.73126 523.127 316.02814Q523.627 315.325 523.627 313.21564Q523.627 311.09064 523.127 310.40314Q522.64264 309.7 521.89264 309.7Q521.1739 309.7 520.7364 310.3094Q520.1895 311.09064 520.1895 313.21564ZM531.65826 316.4344L531.65826 317.45L525.97076 317.45Q525.97076 317.075 526.09576 316.71564Q526.3145 316.1375 526.78326 315.575Q527.26764 315.0125 528.1739 314.27814Q529.58014 313.1219 530.0645 312.45Q530.5645 311.77814 530.5645 311.1844Q530.5645 310.5594 530.1114 310.1375Q529.65826 309.7 528.9395 309.7Q528.1739 309.7 527.72076 310.15314Q527.26764 310.60626 527.252 311.41876L526.1739 311.3094Q526.28326 310.09064 527.002 309.46564Q527.7364 308.825 528.97076 308.825Q530.20514 308.825 530.9239 309.5125Q531.64264 310.2 531.64264 311.21564Q531.64264 311.73126 531.4239 312.23126Q531.22076 312.71564 530.72076 313.27814Q530.2364 313.825 529.1114 314.77814Q528.15826 315.575 527.877 315.8719Q527.6114 316.15314 527.4395 316.4344L531.65826 316.4344ZM533.1114 313.21564Q533.1114 311.6844 533.4239 310.7625Q533.7364 309.825 534.34576 309.325Q534.97076 308.825 535.90826 308.825Q536.59576 308.825 537.1114 309.10626Q537.64264 309.3875 537.9864 309.91876Q538.33014 310.4344 538.51764 311.1844Q538.70514 311.9344 538.70514 313.21564Q538.70514 314.73126 538.39264 315.65314Q538.09576 316.575 537.47076 317.09064Q536.8614 317.59064 535.90826 317.59064Q534.6739 317.59064 533.95514 316.7Q533.1114 315.6375 533.1114 313.21564ZM534.1895 313.21564Q534.1895 315.325 534.6895 316.02814Q535.1895 316.73126 535.90826 316.73126Q536.64264 316.73126 537.127 316.02814Q537.627 315.325 537.627 313.21564Q537.627 311.09064 537.127 310.40314Q536.64264 309.7 535.89264 309.7Q535.1739 309.7 534.7364 310.3094Q534.1895 311.09064 534.1895 313.21564Z" fill-rule="nonzero"/><path fill="#757575" d="M23.7375 37.55L23.7375 24.925L19.01875 24.925L19.01875 23.2375L30.3625 23.2375L30.3625 24.925L25.628124 24.925L25.628124 37.55L23.7375 37.55ZM38.659374 37.55L38.659374 36.01875Q37.45625 37.784374 35.378124 37.784374Q34.45625 37.784374 33.659374 37.440624Q32.8625 37.08125 32.471874 36.55Q32.096874 36.01875 31.940624 35.2375Q31.83125 34.721874 31.83125 33.596874L31.83125 27.175L33.58125 27.175L33.58125 32.925Q33.58125 34.3 33.690624 34.784374Q33.8625 35.471874 34.39375 35.878124Q34.940624 36.26875 35.721874 36.26875Q36.51875 36.26875 37.20625 35.8625Q37.909374 35.45625 38.190624 34.76875Q38.4875 34.065624 38.4875 32.7375L38.4875 27.175L40.2375 27.175L40.2375 37.55L38.659374 37.55ZM41.846874 37.55L41.846874 27.175L43.425 27.175L43.425 28.753124Q44.034374 27.64375 44.55 27.3Q45.065624 26.940624 45.675 26.940624Q46.565624 26.940624 47.4875 27.503124L46.878124 29.14375Q46.2375 28.753124 45.596874 28.753124Q45.01875 28.753124 44.55 29.1125Q44.096874 29.45625 43.89375 30.065624Q43.6125 31.003124 43.6125 32.1125L43.6125 37.55L41.846874 37.55ZM50.4875 37.55L48.8625 37.55L48.8625 23.2375L50.6125 23.2375L50.6125 28.346874Q51.7375 26.940624 53.45625 26.940624Q54.409374 26.940624 55.26875 27.33125Q56.128124 27.721874 56.675 28.425Q57.221874 29.1125 57.534374 30.096874Q57.846874 31.08125 57.846874 32.20625Q57.846874 34.878124 56.534374 36.33125Q55.221874 37.784374 53.378124 37.784374Q51.534374 37.784374 50.4875 36.253124L50.4875 37.55ZM50.471874 32.284374Q50.471874 34.14375 50.971874 34.9875Q51.815624 36.33125 53.221874 36.33125Q54.378124 36.33125 55.20625 35.33125Q56.05 34.33125 56.05 32.346874Q56.05 30.315624 55.2375 29.3625Q54.440624 28.39375 53.3 28.39375Q52.14375 28.39375 51.3 29.39375Q50.471874 30.39375 50.471874 32.284374ZM59.878124 25.253124L59.878124 23.2375L61.64375 23.2375L61.64375 25.253124L59.878124 25.253124ZM59.878124 37.55L59.878124 27.175L61.64375 27.175L61.64375 37.55L59.878124 37.55ZM70.59688 37.55L70.59688 36.2375Q69.6125 37.784374 67.69063 37.784374Q66.45625 37.784374 65.40938 37.096874Q64.37813 36.409374 63.8 35.190624Q63.2375 33.971874 63.2375 32.378124Q63.2375 30.815624 63.753124 29.55Q64.26875 28.284374 65.3 27.6125Q66.34688 26.940624 67.6125 26.940624Q68.55 26.940624 69.28438 27.346874Q70.01875 27.7375 70.4875 28.3625L70.4875 23.2375L72.22188 23.2375L72.22188 37.55L70.59688 37.55ZM65.03438 32.378124Q65.03438 34.3625 65.87813 35.346874Q66.72188 36.33125 67.8625 36.33125Q69.01875 36.33125 69.81563 35.39375Q70.62813 34.45625 70.62813 32.51875Q70.62813 30.39375 69.8 29.39375Q68.9875 28.39375 67.78438 28.39375Q66.6125 28.39375 65.81563 29.3625Q65.03438 30.315624 65.03438 32.378124ZM81.97188 34.20625L83.78438 34.440624Q83.3625 36.01875 82.19063 36.909374Q81.03438 37.784374 79.22188 37.784374Q76.95625 37.784374 75.6125 36.39375Q74.28438 34.9875 74.28438 32.45625Q74.28438 29.83125 75.62813 28.39375Q76.97188 26.940624 79.12813 26.940624Q81.20625 26.940624 82.51875 28.3625Q83.84688 29.76875 83.84688 32.346874Q83.84688 32.503124 83.83125 32.815624L76.09688 32.815624Q76.19063 34.51875 77.06563 35.425Q77.94063 36.33125 79.2375 36.33125Q80.20625 36.33125 80.87813 35.83125Q81.56563 35.315624 81.97188 34.20625ZM76.19063 31.3625L81.9875 31.3625Q81.87813 30.065624 81.33125 29.409374Q80.4875 28.39375 79.14375 28.39375Q77.94063 28.39375 77.1125 29.20625Q76.28438 30.003124 76.19063 31.3625ZM84.94063 37.55L84.94063 36.128124L91.55 28.55Q90.425 28.596874 89.56563 28.596874L85.33125 28.596874L85.33125 27.175L93.81563 27.175L93.81563 28.346874L88.19063 34.925L87.1125 36.128124Q88.28438 36.034374 89.33125 36.034374L94.12813 36.034374L94.12813 37.55L84.94063 37.55ZM100.8625 41.51875L100.8625 27.175L102.47188 27.175L102.47188 28.51875Q103.03438 27.7375 103.7375 27.346874Q104.45625 26.940624 105.47188 26.940624Q106.8 26.940624 107.81563 27.628124Q108.83125 28.315624 109.34688 29.565624Q109.87813 30.8 109.87813 32.284374Q109.87813 33.878124 109.3 35.159374Q108.7375 36.425 107.64375 37.1125Q106.55 37.784374 105.34688 37.784374Q104.47188 37.784374 103.76875 37.409374Q103.08125 37.034374 102.62813 36.471874L102.62813 41.51875L100.8625 41.51875ZM102.45625 32.425Q102.45625 34.425 103.26875 35.378124Q104.08125 36.33125 105.2375 36.33125Q106.40938 36.33125 107.2375 35.346874Q108.08125 34.3625 108.08125 32.26875Q108.08125 30.3 107.25313 29.315624Q106.44063 28.315624 105.31563 28.315624Q104.19063 28.315624 103.31563 29.378124Q102.45625 30.425 102.45625 32.425ZM111.22188 32.3625Q111.22188 29.4875 112.81563 28.096874Q114.15938 26.940624 116.08125 26.940624Q118.22188 26.940624 119.56563 28.346874Q120.925 29.753124 120.925 32.221874Q120.925 34.221874 120.33125 35.378124Q119.7375 36.51875 118.58125 37.159374Q117.44063 37.784374 116.08125 37.784374Q113.89375 37.784374 112.55 36.39375Q111.22188 34.9875 111.22188 32.3625ZM113.01875 32.3625Q113.01875 34.3625 113.87813 35.346874Q114.75313 36.33125 116.08125 36.33125Q117.39375 36.33125 118.25313 35.346874Q119.12813 34.346874 119.12813 32.3Q119.12813 30.378124 118.25313 29.39375Q117.37813 28.39375 116.08125 28.39375Q114.75313 28.39375 113.87813 29.39375Q113.01875 30.378124 113.01875 32.3625ZM122.84688 37.55L122.84688 27.175L124.425 27.175L124.425 28.753124Q125.03438 27.64375 125.55 27.3Q126.06563 26.940624 126.675 26.940624Q127.56563 26.940624 128.4875 27.503124L127.87813 29.14375Q127.2375 28.753124 126.59688 28.753124Q126.01875 28.753124 125.55 29.1125Q125.09688 29.45625 124.89375 30.065624Q124.6125 31.003124 124.6125 32.1125L124.6125 37.55L122.84688 37.55ZM142.64375 36.26875Q141.65938 37.096874 140.75313 37.440624Q139.84688 37.784374 138.81563 37.784374Q137.1125 37.784374 136.19063 36.95625Q135.26875 36.1125 135.26875 34.815624Q135.26875 34.05 135.6125 33.425Q135.97188 32.8 136.53438 32.425Q137.09688 32.034374 137.8 31.83125Q138.31563 31.70625 139.3625 31.565624Q141.4875 31.315624 142.4875 30.971874Q142.50313 30.6125 142.50313 30.503124Q142.50313 29.440624 142.00313 28.9875Q141.33125 28.39375 140.00313 28.39375Q138.75313 28.39375 138.15938 28.83125Q137.58125 29.26875 137.3 30.378124L135.58125 30.14375Q135.81563 29.034374 136.34688 28.3625Q136.87813 27.675 137.89375 27.315624Q138.90938 26.940624 140.25313 26.940624Q141.58125 26.940624 142.40938 27.253124Q143.2375 27.565624 143.62813 28.05Q144.01875 28.51875 144.175 29.2375Q144.26875 29.690624 144.26875 30.8625L144.26875 33.20625Q144.26875 35.659374 144.37813 36.315624Q144.4875 36.95625 144.83125 37.55L142.9875 37.55Q142.72188 37.003124 142.64375 36.26875ZM142.4875 32.346874Q141.53438 32.7375 139.6125 33.003124Q138.53438 33.159374 138.08125 33.3625Q137.64375 33.55 137.39375 33.925Q137.14375 34.3 137.14375 34.76875Q137.14375 35.471874 137.675 35.940624Q138.20625 36.409374 139.2375 36.409374Q140.25313 36.409374 141.03438 35.971874Q141.83125 35.51875 142.20625 34.753124Q142.4875 34.14375 142.4875 32.9875L142.4875 32.346874ZM146.8625 37.55L146.8625 27.175L148.45625 27.175L148.45625 28.659374Q149.59688 26.940624 151.75313 26.940624Q152.69063 26.940624 153.47188 27.284374Q154.26875 27.6125 154.65938 28.159374Q155.05 28.70625 155.20625 29.45625Q155.3 29.95625 155.3 31.175L155.3 37.55L153.53438 37.55L153.53438 31.2375Q153.53438 30.159374 153.33125 29.628124Q153.12813 29.096874 152.59688 28.784374Q152.08125 28.471874 151.37813 28.471874Q150.25313 28.471874 149.44063 29.190624Q148.62813 29.89375 148.62813 31.878124L148.62813 37.55L146.8625 37.55ZM156.22188 32.3625Q156.22188 29.4875 157.81563 28.096874Q159.15938 26.940624 161.08125 26.940624Q163.22188 26.940624 164.56563 28.346874Q165.925 29.753124 165.925 32.221874Q165.925 34.221874 165.33125 35.378124Q164.7375 36.51875 163.58125 37.159374Q162.44063 37.784374 161.08125 37.784374Q158.89375 37.784374 157.55 36.39375Q156.22188 34.9875 156.22188 32.3625ZM158.01875 32.3625Q158.01875 34.3625 158.87813 35.346874Q159.75313 36.33125 161.08125 36.33125Q162.39375 36.33125 163.25313 35.346874Q164.12813 34.346874 164.12813 32.3Q164.12813 30.378124 163.25313 29.39375Q162.37813 28.39375 161.08125 28.39375Q159.75313 28.39375 158.87813 29.39375Q158.01875 30.378124 158.01875 32.3625ZM177.22188 41.753124Q175.76875 39.925 174.76875 37.471874Q173.76875 35.003124 173.76875 32.3625Q173.76875 30.034374 174.51875 27.909374Q175.39375 25.440624 177.22188 22.9875L178.4875 22.9875Q177.3 25.01875 176.925 25.89375Q176.33125 27.2375 175.9875 28.70625Q175.56563 30.534374 175.56563 32.378124Q175.56563 37.065624 178.4875 41.753124L177.22188 41.753124ZM189.6125 35.8625L189.6125 37.55L180.15938 37.55Q180.14375 36.909374 180.3625 36.33125Q180.72188 35.3625 181.51875 34.425Q182.31563 33.4875 183.81563 32.253124Q186.15938 30.346874 186.97188 29.2375Q187.8 28.1125 187.8 27.1125Q187.8 26.065624 187.05 25.346874Q186.3 24.628124 185.09688 24.628124Q183.83125 24.628124 183.06563 25.39375Q182.3 26.159374 182.3 27.503124L180.4875 27.315624Q180.675 25.3 181.87813 24.2375Q183.09688 23.175 185.14375 23.175Q187.19063 23.175 188.39375 24.315624Q189.59688 25.45625 189.59688 27.14375Q189.59688 28.003124 189.2375 28.846874Q188.89375 29.675 188.08125 30.596874Q187.26875 31.503124 185.37813 33.1125Q183.78438 34.440624 183.33125 34.909374Q182.89375 35.378124 182.59688 35.8625L189.6125 35.8625ZM191.37813 30.4875Q191.37813 27.95625 191.89375 26.409374Q192.425 24.846874 193.45625 24.01875Q194.4875 23.175 196.05 23.175Q197.20625 23.175 198.06563 23.64375Q198.94063 24.096874 199.50313 24.971874Q200.06563 25.846874 200.39375 27.1125Q200.72188 28.3625 200.72188 30.4875Q200.72188 33.003124 200.19063 34.55Q199.675 36.096874 198.64375 36.95625Q197.62813 37.8 196.05 37.8Q193.97188 37.8 192.8 36.315624Q191.37813 34.51875 191.37813 30.4875ZM193.19063 30.4875Q193.19063 34.01875 194.00313 35.190624Q194.83125 36.346874 196.05 36.346874Q197.25313 36.346874 198.08125 35.175Q198.90938 34.003124 198.90938 30.4875Q198.90938 26.95625 198.08125 25.8Q197.25313 24.628124 196.03438 24.628124Q194.81563 24.628124 194.09688 25.659374Q193.19063 26.95625 193.19063 30.4875ZM209.00313 37.55L207.2375 37.55L207.2375 26.346874Q206.6125 26.95625 205.58125 27.565624Q204.55 28.159374 203.72188 28.471874L203.72188 26.76875Q205.20625 26.08125 206.3 25.096874Q207.40938 24.096874 207.8625 23.175L209.00313 23.175L209.00313 37.55ZM220.00313 37.55L218.2375 37.55L218.2375 26.346874Q217.6125 26.95625 216.58125 27.565624Q215.55 28.159374 214.72188 28.471874L214.72188 26.76875Q216.20625 26.08125 217.3 25.096874Q218.40938 24.096874 218.8625 23.175L220.00313 23.175L220.00313 37.55ZM224.19063 33.253124L224.19063 31.4875L229.58125 31.4875L229.58125 33.253124L224.19063 33.253124ZM240.6125 35.8625L240.6125 37.55L231.15938 37.55Q231.14375 36.909374 231.3625 36.33125Q231.72188 35.3625 232.51875 34.425Q233.31563 33.4875 234.81563 32.253124Q237.15938 30.346874 237.97188 29.2375Q238.8 28.1125 238.8 27.1125Q238.8 26.065624 238.05 25.346874Q237.3 24.628124 236.09688 24.628124Q234.83125 24.628124 234.06563 25.39375Q233.3 26.159374 233.3 27.503124L231.4875 27.315624Q231.675 25.3 232.87813 24.2375Q234.09688 23.175 236.14375 23.175Q238.19063 23.175 239.39375 24.315624Q240.59688 25.45625 240.59688 27.14375Q240.59688 28.003124 240.2375 28.846874Q239.89375 29.675 239.08125 30.596874Q238.26875 31.503124 236.37813 33.1125Q234.78438 34.440624 234.33125 34.909374Q233.89375 35.378124 233.59688 35.8625L240.6125 35.8625ZM242.37813 30.4875Q242.37813 27.95625 242.89375 26.409374Q243.425 24.846874 244.45625 24.01875Q245.4875 23.175 247.05 23.175Q248.20625 23.175 249.06563 23.64375Q249.94063 24.096874 250.50313 24.971874Q251.06563 25.846874 251.39375 27.1125Q251.72188 28.3625 251.72188 30.4875Q251.72188 33.003124 251.19063 34.55Q250.675 36.096874 249.64375 36.95625Q248.62813 37.8 247.05 37.8Q244.97188 37.8 243.8 36.315624Q242.37813 34.51875 242.37813 30.4875ZM244.19063 30.4875Q244.19063 34.01875 245.00313 35.190624Q245.83125 36.346874 247.05 36.346874Q248.25313 36.346874 249.08125 35.175Q249.90938 34.003124 249.90938 30.4875Q249.90938 26.95625 249.08125 25.8Q248.25313 24.628124 247.03438 24.628124Q245.81563 24.628124 245.09688 25.659374Q244.19063 26.95625 244.19063 30.4875ZM262.6125 35.8625L262.6125 37.55L253.15938 37.55Q253.14375 36.909374 253.3625 36.33125Q253.72188 35.3625 254.51875 34.425Q255.31563 33.4875 256.8156 32.253124Q259.15936 30.346874 259.97186 29.2375Q260.8 28.1125 260.8 27.1125Q260.8 26.065624 260.05 25.346874Q259.3 24.628124 258.09686 24.628124Q256.83124 24.628124 256.0656 25.39375Q255.3 26.159374 255.3 27.503124L253.4875 27.315624Q253.675 25.3 254.87813 24.2375Q256.09686 23.175 258.14374 23.175Q260.1906 23.175 261.39374 24.315624Q262.59686 25.45625 262.59686 27.14375Q262.59686 28.003124 262.2375 28.846874Q261.89374 29.675 261.08124 30.596874Q260.26874 31.503124 258.3781 33.1125Q256.78436 34.440624 256.33124 34.909374Q255.89375 35.378124 255.59688 35.8625L262.6125 35.8625ZM271.0031 37.55L269.2375 37.55L269.2375 26.346874Q268.6125 26.95625 267.58124 27.565624Q266.55 28.159374 265.72186 28.471874L265.72186 26.76875Q267.20624 26.08125 268.3 25.096874Q269.40936 24.096874 269.8625 23.175L271.0031 23.175L271.0031 37.55ZM277.01874 41.753124L275.76874 41.753124Q278.675 37.065624 278.675 32.378124Q278.675 30.534374 278.26874 28.7375Q277.925 27.26875 277.33124 25.925Q276.95624 25.034374 275.76874 22.9875L277.01874 22.9875Q278.8625 25.440624 279.7375 27.909374Q280.4875 30.034374 280.4875 32.3625Q280.4875 35.003124 279.47186 37.471874Q278.47186 39.925 277.01874 41.753124Z" fill-rule="nonzero"/></svg>