<svg version="1.1" viewBox="0.0 0.0 600.0 371.0" fill="none" stroke="none" stroke-linecap="square" stroke-miterlimit="10" width="600" height="371" xmlns:xlink="http://www.w3.org/1999/xlink" xmlns="http://www.w3.org/2000/svg"><path fill="#ffffff" d="M0 0L600.0 0L600.0 371.0L0 371.0L0 0Z" fill-rule="nonzero"/><path stroke="#cccccc" stroke-width="1.0" stroke-linecap="butt" d="M133.5 61.5L133.5 300.5" fill-rule="nonzero"/><path stroke="#cccccc" stroke-width="1.0" stroke-linecap="butt" d="M231.5 61.5L231.5 300.5" fill-rule="nonzero"/><path stroke="#cccccc" stroke-width="1.0" stroke-linecap="butt" d="M329.5 61.5L329.5 300.5" fill-rule="nonzero"/><path stroke="#cccccc" stroke-width="1.0" stroke-linecap="butt" d="M427.5 61.5L427.5 300.5" fill-rule="nonzero"/><path stroke="#cccccc" stroke-width="1.0" stroke-linecap="butt" d="M525.5 61.5L525.5 300.5" fill-rule="nonzero"/><path stroke="#333333" stroke-width="1.0" stroke-linecap="butt" d="M77.5 300.5L581.5 300.5" fill-rule="nonzero"/><path stroke="#cccccc" stroke-width="1.0" stroke-linecap="butt" d="M77.5 240.5L581.5 240.5" fill-rule="nonzero"/><path stroke="#cccccc" stroke-width="1.0" stroke-linecap="butt" d="M77.5 181.5L581.5 181.5" fill-rule="nonzero"/><path stroke="#cccccc" stroke-width="1.0" stroke-linecap="butt" d="M77.5 121.5L581.5 121.5" fill-rule="nonzero"/><path stroke="#cccccc" stroke-width="1.0" stroke-linecap="butt" d="M77.5 61.5L581.5 61.5" fill-rule="nonzero"/><clipPath id="id_0"><path d="M77.55 61.916668L581.45 61.916668L581.45 300.45L77.55 300.45L77.55 61.916668Z" clip-rule="nonzero"/></clipPath><path fill="#4285f4" clip-path="url(#id_0)" d="M88.86077 298.36282C88.86077 300.8481 86.846054 302.86282 84.36077 302.86282C81.875496 302.86282 79.86077 300.8481 79.86077 298.36282C79.86077 295.87756 81.875496 293.86282 84.36077 293.86282C86.846054 293.86282 88.86077 295.87756 88.86077 298.36282Z" fill-rule="nonzero"/><path fill="#4285f4" clip-path="url(#id_0)" d="M137.88863 155.83917C137.88863 158.32445 135.8739 160.33917 133.38863 160.33917C130.90334 160.33917 128.88863 158.32445 128.88863 155.83917C128.88863 153.35388 130.90334 151.33917 133.38863 151.33917C135.8739 151.33917 137.88863 153.35388 137.88863 155.83917Z" fill-rule="nonzero"/><path fill="#4285f4" clip-path="url(#id_0)" d="M186.91646 83.68283C186.91646 86.16811 184.90175 88.18283 182.41646 88.18283C179.93118 88.18283 177.91646 86.16811 177.91646 83.68283C177.91646 81.197556 179.93118 79.18283 182.41646 79.18283C184.90175 79.18283 186.91646 81.197556 186.91646 83.68283Z" fill-rule="nonzero"/><path fill="#4285f4" clip-path="url(#id_0)" d="M235.9443 294.1885C235.9443 296.67377 233.9296 298.6885 231.4443 298.6885C228.95903 298.6885 226.9443 296.67377 226.9443 294.1885C226.9443 291.70322 228.95903 289.6885 231.4443 289.6885C233.9296 289.6885 235.9443 291.70322 235.9443 294.1885Z" fill-rule="nonzero"/><path fill="#4285f4" clip-path="url(#id_0)" d="M284.97217 286.138C284.97217 288.6233 282.95743 290.638 280.47217 290.638C277.98688 290.638 275.97217 288.6233 275.97217 286.138C275.97217 283.6527 277.98688 281.638 280.47217 281.638C282.95743 281.638 284.97217 283.6527 284.97217 286.138Z" fill-rule="nonzero"/><path fill="#4285f4" clip-path="url(#id_0)" d="M334.0 284.94534C334.0 287.4306 331.9853 289.44534 329.5 289.44534C327.0147 289.44534 325.0 287.4306 325.0 284.94534C325.0 282.46005 327.0147 280.44534 329.5 280.44534C331.9853 280.44534 334.0 282.46005 334.0 284.94534Z" fill-rule="nonzero"/><path fill="#4285f4" clip-path="url(#id_0)" d="M383.02783 277.49118C383.02783 279.97644 381.01312 281.99118 378.52783 281.99118C376.04257 281.99118 374.02783 279.97644 374.02783 277.49118C374.02783 275.0059 376.04257 272.99118 378.52783 272.99118C381.01312 272.99118 383.02783 275.0059 383.02783 277.49118Z" fill-rule="nonzero"/><path fill="#4285f4" clip-path="url(#id_0)" d="M432.0557 276.2985C432.0557 278.78378 430.041 280.7985 427.5557 280.7985C425.0704 280.7985 423.0557 278.78378 423.0557 276.2985C423.0557 273.81323 425.0704 271.7985 427.5557 271.7985C430.041 271.7985 432.0557 273.81323 432.0557 276.2985Z" fill-rule="nonzero"/><path fill="#4285f4" clip-path="url(#id_0)" d="M481.08353 288.22516C481.08353 290.71045 479.06882 292.72516 476.58353 292.72516C474.09827 292.72516 472.08353 290.71045 472.08353 288.22516C472.08353 285.7399 474.09827 283.72516 476.58353 283.72516C479.06882 283.72516 481.08353 285.7399 481.08353 288.22516Z" fill-rule="nonzero"/><path fill="#4285f4" clip-path="url(#id_0)" d="M530.1114 282.26184C530.1114 284.7471 528.0967 286.76184 525.6114 286.76184C523.1261 286.76184 521.1114 284.7471 521.1114 282.26184C521.1114 279.77655 523.1261 277.76184 525.6114 277.76184C528.0967 277.76184 530.1114 279.77655 530.1114 282.26184Z" fill-rule="nonzero"/><path fill="#4285f4" clip-path="url(#id_0)" d="M579.1392 290.67014C579.1392 293.15543 577.1245 295.17014 574.6392 295.17014C572.15393 295.17014 570.1392 293.15543 570.1392 290.67014C570.1392 288.18484 572.15393 286.17014 574.6392 286.17014C577.1245 286.17014 579.1392 288.18484 579.1392 290.67014Z" fill-rule="nonzero"/><path fill="#000000" d="M318.98438 349.45L322.28125 340.85626L323.5 340.85626L327.01562 349.45L325.73438 349.45L324.71875 346.84064L321.14062 346.84064L320.1875 349.45L318.98438 349.45ZM321.46875 345.91876L324.375 345.91876L323.48438 343.54376Q323.0625 342.46564 322.875 341.7625Q322.70312 342.59064 322.40625 343.40314L321.46875 345.91876ZM326.79688 349.45L326.79688 343.23126L327.73438 343.23126L327.73438 344.10626Q328.42188 343.09064 329.71875 343.09064Q330.28125 343.09064 330.75 343.29376Q331.23438 343.4969 331.46875 343.825Q331.70312 344.15314 331.79688 344.59064Q331.84375 344.8875 331.84375 345.6219L331.84375 349.45L330.79688 349.45L330.79688 345.66876Q330.79688 345.0125 330.67188 344.7Q330.54688 344.3875 330.23438 344.2Q329.92188 343.9969 329.5 343.9969Q328.82812 343.9969 328.32812 344.4344Q327.84375 344.85626 327.84375 346.04376L327.84375 349.45L326.79688 349.45ZM333.40625 346.34064Q333.40625 344.60626 334.35938 343.77814Q335.15625 343.09064 336.3125 343.09064Q337.59375 343.09064 338.40625 343.9344Q339.23438 344.7625 339.23438 346.2469Q339.23438 347.45 338.875 348.1375Q338.51562 348.825 337.8125 349.21564Q337.125 349.59064 336.3125 349.59064Q335.01562 349.59064 334.20312 348.7625Q333.40625 347.91876 333.40625 346.34064ZM334.48438 346.34064Q334.48438 347.52814 335.0 348.1219Q335.53125 348.71564 336.3125 348.71564Q337.10938 348.71564 337.625 348.1219Q338.14062 347.52814 338.14062 346.3094Q338.14062 345.15314 337.60938 344.5594Q337.09375 343.96564 336.3125 343.96564Q335.53125 343.96564 335.0 344.5594Q334.48438 345.1375 334.48438 346.34064Z" fill-rule="nonzero"/><path fill="#000000" d="M25.362513 240.60521Q23.221888 240.60521 22.018763 239.46458Q20.800013 238.30833 20.800013 236.49583Q20.800013 235.29271 21.378138 234.33958Q21.940638 233.38646 22.956263 232.88646Q23.971888 232.38646 25.268763 232.38646Q26.565638 232.38646 27.596888 232.91771Q28.628138 233.44896 29.159388 234.41771Q29.690638 235.37083 29.690638 236.49583Q29.690638 237.71458 29.112513 238.66771Q28.518763 239.62083 27.518763 240.12083Q26.503138 240.60521 25.362513 240.60521ZM25.378138 239.43333Q26.940638 239.43333 27.831263 238.60521Q28.721888 237.76146 28.721888 236.49583Q28.721888 235.21458 27.831263 234.38646Q26.925013 233.55833 25.253138 233.55833Q24.206263 233.55833 23.425013 233.91771Q22.643763 234.26146 22.221888 234.94896Q21.784388 235.63646 21.784388 236.48021Q21.784388 237.68333 22.612513 238.55833Q23.440638 239.43333 25.378138 239.43333ZM29.550013 232.08958L26.315638 229.82396L23.331263 231.91771L23.331263 230.60521L24.784388 229.65208Q25.206263 229.38646 25.487513 229.21458Q25.096888 228.96458 24.800013 228.74583L23.331263 227.69896L23.331263 226.43333L26.253138 228.58958L29.550013 226.27708L29.550013 227.55833L27.612513 228.83958L27.096888 229.18333L29.550013 230.82396L29.550013 232.08958ZM22.175013 226.38646L20.956263 226.38646L20.956263 225.32396L22.175013 225.32396L22.175013 226.38646ZM29.550013 226.38646L23.331263 226.38646L23.331263 225.32396L29.550013 225.32396L29.550013 226.38646ZM30.065638 223.58958L30.221888 222.55833Q30.690638 222.49583 30.909388 222.19896Q31.206263 221.80833 31.206263 221.13646Q31.206263 220.40208 30.909388 220.01146Q30.612513 219.60521 30.096888 219.46458Q29.768763 219.37083 28.737513 219.38646Q29.550013 220.07396 29.550013 221.10521Q29.550013 222.38646 28.628138 223.08958Q27.690638 223.79271 26.409388 223.79271Q25.518763 223.79271 24.768763 223.48021Q24.003138 223.15208 23.596888 222.54271Q23.190638 221.93333 23.190638 221.10521Q23.190638 219.99583 24.081263 219.27708L23.331263 219.27708L23.331263 218.30833L28.706263 218.30833Q30.159388 218.30833 30.768763 218.60521Q31.378138 218.90208 31.721888 219.54271Q32.08126 220.18333 32.08126 221.12083Q32.08126 222.23021 31.581263 222.91771Q31.081263 223.60521 30.065638 223.58958ZM26.331263 222.71458Q27.550013 222.71458 28.112513 222.23021Q28.675013 221.74583 28.675013 221.01146Q28.675013 220.27708 28.112513 219.79271Q27.550013 219.29271 26.362513 219.29271Q25.221888 219.29271 24.643763 219.80833Q24.065638 220.30833 24.065638 221.02708Q24.065638 221.73021 24.643763 222.23021Q25.206263 222.71458 26.331263 222.71458ZM27.550013 212.13646L27.675013 211.04271Q28.628138 211.29271 29.159388 211.99583Q29.690638 212.69896 29.690638 213.77708Q29.690638 215.13646 28.846888 215.94896Q28.003138 216.74583 26.487513 216.74583Q24.925013 216.74583 24.065638 215.93333Q23.190638 215.12083 23.190638 213.83958Q23.190638 212.58958 24.034388 211.80833Q24.878138 211.01146 26.425013 211.01146Q26.518763 211.01146 26.706263 211.01146L26.706263 215.65208Q27.737513 215.58958 28.284388 215.07396Q28.815638 214.55833 28.815638 213.77708Q28.815638 213.19896 28.518763 212.79271Q28.206263 212.37083 27.550013 212.13646ZM25.846888 215.58958L25.846888 212.12083Q25.050013 212.18333 24.659388 212.51146Q24.050013 213.02708 24.050013 213.82396Q24.050013 214.55833 24.534388 215.05833Q25.018763 215.54271 25.846888 215.58958ZM21.550013 213.85521L22.550013 214.51146L22.550013 215.73021L20.909388 214.46458L20.909388 213.33958L22.550013 212.01146L22.550013 213.21458L21.550013 213.85521ZM29.550013 209.38646L23.331263 209.38646L23.331263 208.44896L24.206263 208.44896Q23.190638 207.76146 23.190638 206.46458Q23.190638 205.90208 23.393763 205.43333Q23.596888 204.94896 23.925013 204.71458Q24.253138 204.48021 24.690638 204.38646Q24.987513 204.33958 25.721888 204.33958L29.550013 204.33958L29.550013 205.38646L25.768763 205.38646Q25.112513 205.38646 24.800013 205.51146Q24.487513 205.63646 24.300013 205.94896Q24.096888 206.26146 24.096888 206.68333Q24.096888 207.35521 24.534388 207.85521Q24.956263 208.33958 26.143763 208.33958L29.550013 208.33958L29.550013 209.38646ZM22.175013 202.38646L20.956263 202.38646L20.956263 201.32396L22.175013 201.32396L22.175013 202.38646ZM29.550013 202.38646L23.331263 202.38646L23.331263 201.32396L29.550013 201.32396L29.550013 202.38646ZM26.440638 199.77708Q24.706263 199.77708 23.878138 198.82396Q23.190638 198.02708 23.190638 196.87083Q23.190638 195.58958 24.034388 194.77708Q24.862513 193.94896 26.346888 193.94896Q27.550013 193.94896 28.237513 194.30833Q28.925013 194.66771 29.315638 195.37083Q29.690638 196.05833 29.690638 196.87083Q29.690638 198.16771 28.862513 198.98021Q28.018763 199.77708 26.440638 199.77708ZM26.440638 198.69896Q27.628138 198.69896 28.221888 198.18333Q28.815638 197.65208 28.815638 196.87083Q28.815638 196.07396 28.221888 195.55833Q27.628138 195.04271 26.409388 195.04271Q25.253138 195.04271 24.659388 195.57396Q24.065638 196.08958 24.065638 196.87083Q24.065638 197.65208 24.659388 198.18333Q25.237513 198.69896 26.440638 198.69896ZM29.550013 185.35521L28.768763 185.35521Q29.690638 185.94896 29.690638 187.08958Q29.690638 187.83958 29.284388 188.46458Q28.862513 189.08958 28.128138 189.43333Q27.393763 189.77708 26.440638 189.77708Q25.518763 189.77708 24.753138 189.46458Q23.987513 189.15208 23.596888 188.52708Q23.190638 187.90208 23.190638 187.13646Q23.190638 186.57396 23.425013 186.13646Q23.659388 185.69896 24.034388 185.41771L20.956263 185.41771L20.956263 184.37083L29.550013 184.37083L29.550013 185.35521ZM26.440638 188.68333Q27.643763 188.68333 28.237513 188.18333Q28.815638 187.68333 28.815638 186.99583Q28.815638 186.30833 28.253138 185.82396Q27.690638 185.33958 26.534388 185.33958Q25.253138 185.33958 24.659388 185.83958Q24.065638 186.32396 24.065638 187.04271Q24.065638 187.74583 24.643763 188.21458Q25.206263 188.68333 26.440638 188.68333ZM22.175013 182.38646L20.956263 182.38646L20.956263 181.32396L22.175013 181.32396L22.175013 182.38646ZM29.550013 182.38646L23.331263 182.38646L23.331263 181.32396L29.550013 181.32396L29.550013 182.38646ZM27.690638 179.80833L27.534388 178.77708Q28.159388 178.68333 28.487513 178.29271Q28.815638 177.88646 28.815638 177.15208Q28.815638 176.43333 28.534388 176.08958Q28.237513 175.73021 27.831263 175.73021Q27.471888 175.73021 27.268763 176.04271Q27.128138 176.26146 26.909388 177.12083Q26.612513 178.27708 26.409388 178.73021Q26.190638 179.16771 25.815638 179.40208Q25.440638 179.63646 24.971888 179.63646Q24.565638 179.63646 24.206263 179.44896Q23.846888 179.26146 23.612513 178.93333Q23.440638 178.68333 23.315638 178.26146Q23.190638 177.83958 23.190638 177.33958Q23.190638 176.62083 23.409388 176.07396Q23.612513 175.51146 23.971888 175.24583Q24.331263 174.98021 24.925013 174.88646L25.065638 175.91771Q24.596888 175.98021 24.331263 176.32396Q24.050013 176.65208 24.050013 177.27708Q24.050013 177.99583 24.300013 178.30833Q24.534388 178.62083 24.862513 178.62083Q25.065638 178.62083 25.221888 178.49583Q25.393763 178.35521 25.503138 178.08958Q25.565638 177.93333 25.768763 177.15208Q26.081263 176.02708 26.268763 175.58958Q26.456263 175.15208 26.815638 174.90208Q27.175013 174.65208 27.721888 174.65208Q28.253138 174.65208 28.721888 174.96458Q29.175013 175.26146 29.440638 175.83958Q29.690638 176.41771 29.690638 177.15208Q29.690638 178.37083 29.190638 179.01146Q28.675013 179.63646 27.690638 179.80833ZM27.690638 172.80833L27.534388 171.77708Q28.159388 171.68333 28.487513 171.29271Q28.815638 170.88646 28.815638 170.15208Q28.815638 169.43333 28.534388 169.08958Q28.237513 168.73021 27.831263 168.73021Q27.471888 168.73021 27.268763 169.04271Q27.128138 169.26146 26.909388 170.12083Q26.612513 171.27708 26.409388 171.73021Q26.190638 172.16771 25.815638 172.40208Q25.440638 172.63646 24.971888 172.63646Q24.565638 172.63646 24.206263 172.44896Q23.846888 172.26146 23.612513 171.93333Q23.440638 171.68333 23.315638 171.26146Q23.190638 170.83958 23.190638 170.33958Q23.190638 169.62083 23.409388 169.07396Q23.612513 168.51146 23.971888 168.24583Q24.331263 167.98021 24.925013 167.88646L25.065638 168.91771Q24.596888 168.98021 24.331263 169.32396Q24.050013 169.65208 24.050013 170.27708Q24.050013 170.99583 24.300013 171.30833Q24.534388 171.62083 24.862513 171.62083Q25.065638 171.62083 25.221888 171.49583Q25.393763 171.35521 25.503138 171.08958Q25.565638 170.93333 25.768763 170.15208Q26.081263 169.02708 26.268763 168.58958Q26.456263 168.15208 26.815638 167.90208Q27.175013 167.65208 27.721888 167.65208Q28.253138 167.65208 28.721888 167.96458Q29.175013 168.26146 29.440638 168.83958Q29.690638 169.41771 29.690638 170.15208Q29.690638 171.37083 29.190638 172.01146Q28.675013 172.63646 27.690638 172.80833ZM26.440638 165.77708Q24.706263 165.77708 23.878138 164.82396Q23.190638 164.02708 23.190638 162.87083Q23.190638 161.58958 24.034388 160.77708Q24.862513 159.94896 26.346888 159.94896Q27.550013 159.94896 28.237513 160.30833Q28.925013 160.66771 29.315638 161.37083Q29.690638 162.05833 29.690638 162.87083Q29.690638 164.16771 28.862513 164.98021Q28.018763 165.77708 26.440638 165.77708ZM26.440638 164.69896Q27.628138 164.69896 28.221888 164.18333Q28.815638 163.65208 28.815638 162.87083Q28.815638 162.07396 28.221888 161.55833Q27.628138 161.04271 26.409388 161.04271Q25.253138 161.04271 24.659388 161.57396Q24.065638 162.08958 24.065638 162.87083Q24.065638 163.65208 24.659388 164.18333Q25.237513 164.69896 26.440638 164.69896ZM29.550013 158.41771L20.956263 158.41771L20.956263 157.35521L29.550013 157.35521L29.550013 158.41771ZM29.550013 153.66771L23.331263 156.02708L23.331263 154.91771L27.050013 153.57396Q27.659388 153.37083 28.300013 153.18333Q27.815638 153.04271 27.128138 152.79271L23.331263 151.40208L23.331263 150.32396L29.550013 152.68333L29.550013 153.66771ZM22.175013 150.38646L20.956263 150.38646L20.956263 149.32396L22.175013 149.32396L22.175013 150.38646ZM29.550013 150.38646L23.331263 150.38646L23.331263 149.32396L29.550013 149.32396L29.550013 150.38646ZM29.550013 143.35521L28.768763 143.35521Q29.690638 143.94896 29.690638 145.08958Q29.690638 145.83958 29.284388 146.46458Q28.862513 147.08958 28.128138 147.43333Q27.393763 147.77708 26.440638 147.77708Q25.518763 147.77708 24.753138 147.46458Q23.987513 147.15208 23.596888 146.52708Q23.190638 145.90208 23.190638 145.13646Q23.190638 144.57396 23.425013 144.13646Q23.659388 143.69896 24.034388 143.41771L20.956263 143.41771L20.956263 142.37083L29.550013 142.37083L29.550013 143.35521ZM26.440638 146.68333Q27.643763 146.68333 28.237513 146.18333Q28.815638 145.68333 28.815638 144.99583Q28.815638 144.30833 28.253138 143.82396Q27.690638 143.33958 26.534388 143.33958Q25.253138 143.33958 24.659388 143.83958Q24.065638 144.32396 24.065638 145.04271Q24.065638 145.74583 24.643763 146.21458Q25.206263 146.68333 26.440638 146.68333ZM26.440638 140.77708Q24.706263 140.77708 23.878138 139.82396Q23.190638 139.02708 23.190638 137.87083Q23.190638 136.58958 24.034388 135.77708Q24.862513 134.94896 26.346888 134.94896Q27.550013 134.94896 28.237513 135.30833Q28.925013 135.66771 29.315638 136.37083Q29.690638 137.05833 29.690638 137.87083Q29.690638 139.16771 28.862513 139.98021Q28.018763 140.77708 26.440638 140.77708ZM26.440638 139.69896Q27.628138 139.69896 28.221888 139.18333Q28.815638 138.65208 28.815638 137.87083Q28.815638 137.07396 28.221888 136.55833Q27.628138 136.04271 26.409388 136.04271Q25.253138 136.04271 24.659388 136.57396Q24.065638 137.08958 24.065638 137.87083Q24.065638 138.65208 24.659388 139.18333Q25.237513 139.69896 26.440638 139.69896Z" fill-rule="nonzero"/><path fill="#000000" d="M65.05 300.21564Q65.05 298.6844 65.3625 297.7625Q65.675 296.825 66.28438 296.325Q66.90938 295.825 67.84688 295.825Q68.53438 295.825 69.05 296.10626Q69.58125 296.3875 69.925 296.91876Q70.26875 297.4344 70.45625 298.1844Q70.64375 298.9344 70.64375 300.21564Q70.64375 301.73126 70.33125 302.65314Q70.03438 303.575 69.40938 304.09064Q68.8 304.59064 67.84688 304.59064Q66.6125 304.59064 65.89375 303.7Q65.05 302.6375 65.05 300.21564ZM66.12813 300.21564Q66.12813 302.325 66.62813 303.02814Q67.12813 303.73126 67.84688 303.73126Q68.58125 303.73126 69.06563 303.02814Q69.56563 302.325 69.56563 300.21564Q69.56563 298.09064 69.06563 297.40314Q68.58125 296.7 67.83125 296.7Q67.1125 296.7 66.675 297.3094Q66.12813 298.09064 66.12813 300.21564Z" fill-rule="nonzero"/><path fill="#000000" d="M63.596874 243.80104L63.596874 244.81667L57.909374 244.81667Q57.909374 244.44167 58.034374 244.08229Q58.253124 243.50417 58.721874 242.94167Q59.20625 242.37917 60.1125 241.64479Q61.51875 240.48854 62.003124 239.81667Q62.503124 239.14479 62.503124 238.55104Q62.503124 237.92604 62.05 237.50417Q61.596874 237.06667 60.878124 237.06667Q60.1125 237.06667 59.659374 237.51979Q59.20625 237.97292 59.190624 238.78542L58.1125 238.67604Q58.221874 237.45729 58.940624 236.83229Q59.675 236.19167 60.909374 236.19167Q62.14375 236.19167 62.8625 236.87917Q63.58125 237.56667 63.58125 238.58229Q63.58125 239.09792 63.3625 239.59792Q63.159374 240.08229 62.659374 240.64479Q62.175 241.19167 61.05 242.14479Q60.096874 242.94167 59.815624 243.23854Q59.55 243.51979 59.378124 243.80104L63.596874 243.80104ZM65.05 242.56667L66.15938 242.47292Q66.28438 243.28542 66.72188 243.69167Q67.175 244.09792 67.81563 244.09792Q68.56563 244.09792 69.09688 243.51979Q69.62813 242.94167 69.62813 242.00417Q69.62813 241.09792 69.1125 240.58229Q68.6125 240.05104 67.78438 240.05104Q67.28438 240.05104 66.8625 240.28542Q66.45625 240.51979 66.22188 240.87917L65.2375 240.75417L66.06563 236.34792L70.34688 236.34792L70.34688 237.34792L66.90938 237.34792L66.45625 239.66042Q67.22188 239.11354 68.06563 239.11354Q69.19063 239.11354 69.95625 239.89479Q70.7375 240.67604 70.7375 241.91042Q70.7375 243.06667 70.06563 243.92604Q69.2375 244.95729 67.81563 244.95729Q66.64375 244.95729 65.89375 244.30104Q65.15938 243.64479 65.05 242.56667Z" fill-rule="nonzero"/><path fill="#000000" d="M58.05 182.93333L59.159374 182.83958Q59.284374 183.65208 59.721874 184.05833Q60.175 184.46458 60.815624 184.46458Q61.565624 184.46458 62.096874 183.88646Q62.628124 183.30833 62.628124 182.37083Q62.628124 181.46458 62.1125 180.94896Q61.6125 180.41771 60.784374 180.41771Q60.284374 180.41771 59.8625 180.65208Q59.45625 180.88646 59.221874 181.24583L58.2375 181.12083L59.065624 176.71458L63.346874 176.71458L63.346874 177.71458L59.909374 177.71458L59.45625 180.02708Q60.221874 179.48021 61.065624 179.48021Q62.190624 179.48021 62.95625 180.26146Q63.7375 181.04271 63.7375 182.27708Q63.7375 183.43333 63.065624 184.29271Q62.2375 185.32396 60.815624 185.32396Q59.64375 185.32396 58.89375 184.66771Q58.159374 184.01146 58.05 182.93333ZM65.05 180.94896Q65.05 179.41771 65.3625 178.49583Q65.675 177.55833 66.28438 177.05833Q66.90938 176.55833 67.84688 176.55833Q68.53438 176.55833 69.05 176.83958Q69.58125 177.12083 69.925 177.65208Q70.26875 178.16771 70.45625 178.91771Q70.64375 179.66771 70.64375 180.94896Q70.64375 182.46458 70.33125 183.38646Q70.03438 184.30833 69.40938 184.82396Q68.8 185.32396 67.84688 185.32396Q66.6125 185.32396 65.89375 184.43333Q65.05 183.37083 65.05 180.94896ZM66.12813 180.94896Q66.12813 183.05833 66.62813 183.76146Q67.12813 184.46458 67.84688 184.46458Q68.58125 184.46458 69.06563 183.76146Q69.56563 183.05833 69.56563 180.94896Q69.56563 178.82396 69.06563 178.13646Q68.58125 177.43333 67.83125 177.43333Q67.1125 177.43333 66.675 178.04271Q66.12813 178.82396 66.12813 180.94896Z" fill-rule="nonzero"/><path fill="#000000" d="M58.1125 118.08125L58.1125 117.06563L63.675 117.06563L63.675 117.89375Q62.8625 118.76875 62.05 120.22188Q61.253124 121.65938 60.815624 123.19063Q60.4875 124.26875 60.409374 125.55L59.315624 125.55Q59.33125 124.53438 59.70625 123.09688Q60.096874 121.65938 60.8 120.33125Q61.51875 119.00313 62.33125 118.08125L58.1125 118.08125ZM65.05 123.3L66.15938 123.20625Q66.28438 124.01875 66.72188 124.425Q67.175 124.83125 67.81563 124.83125Q68.56563 124.83125 69.09688 124.25313Q69.62813 123.675 69.62813 122.7375Q69.62813 121.83125 69.1125 121.31563Q68.6125 120.78438 67.78438 120.78438Q67.28438 120.78438 66.8625 121.01875Q66.45625 121.25313 66.22188 121.6125L65.2375 121.4875L66.06563 117.08125L70.34688 117.08125L70.34688 118.08125L66.90938 118.08125L66.45625 120.39375Q67.22188 119.84688 68.06563 119.84688Q69.19063 119.84688 69.95625 120.62813Q70.7375 121.40938 70.7375 122.64375Q70.7375 123.8 70.06563 124.65938Q69.2375 125.69063 67.81563 125.69063Q66.64375 125.69063 65.89375 125.03438Q65.15938 124.37813 65.05 123.3Z" fill-rule="nonzero"/><path fill="#000000" d="M55.01875 65.916664L53.971874 65.916664L53.971874 59.197914Q53.58125 59.55729 52.95625 59.93229Q52.346874 60.291664 51.8625 60.46354L51.8625 59.447914Q52.7375 59.02604 53.39375 58.447914Q54.065624 57.854164 54.346874 57.291664L55.01875 57.291664L55.01875 65.916664ZM58.05 61.68229Q58.05 60.15104 58.3625 59.229164Q58.675 58.291664 59.284374 57.791664Q59.909374 57.291664 60.846874 57.291664Q61.534374 57.291664 62.05 57.572914Q62.58125 57.854164 62.925 58.385414Q63.26875 58.90104 63.45625 59.65104Q63.64375 60.40104 63.64375 61.68229Q63.64375 63.197914 63.33125 64.11979Q63.034374 65.041664 62.409374 65.55729Q61.8 66.05729 60.846874 66.05729Q59.6125 66.05729 58.89375 65.166664Q58.05 64.104164 58.05 61.68229ZM59.128124 61.68229Q59.128124 63.791664 59.628124 64.49479Q60.128124 65.197914 60.846874 65.197914Q61.58125 65.197914 62.065624 64.49479Q62.565624 63.791664 62.565624 61.68229Q62.565624 59.55729 62.065624 58.86979Q61.58125 58.166664 60.83125 58.166664Q60.1125 58.166664 59.675 58.77604Q59.128124 59.55729 59.128124 61.68229ZM65.05 61.68229Q65.05 60.15104 65.3625 59.229164Q65.675 58.291664 66.28438 57.791664Q66.90938 57.291664 67.84688 57.291664Q68.53438 57.291664 69.05 57.572914Q69.58125 57.854164 69.925 58.385414Q70.26875 58.90104 70.45625 59.65104Q70.64375 60.40104 70.64375 61.68229Q70.64375 63.197914 70.33125 64.11979Q70.03438 65.041664 69.40938 65.55729Q68.8 66.05729 67.84688 66.05729Q66.6125 66.05729 65.89375 65.166664Q65.05 64.104164 65.05 61.68229ZM66.12813 61.68229Q66.12813 63.791664 66.62813 64.49479Q67.12813 65.197914 67.84688 65.197914Q68.58125 65.197914 69.06563 64.49479Q69.56563 63.791664 69.56563 61.68229Q69.56563 59.55729 69.06563 58.86979Q68.58125 58.166664 67.83125 58.166664Q67.1125 58.166664 66.675 58.77604Q66.12813 59.55729 66.12813 61.68229Z" fill-rule="nonzero"/><path fill="#000000" d="M125.43549 316.4344L125.43549 317.45L119.74799 317.45Q119.74799 317.075 119.87299 316.71564Q120.09174 316.1375 120.56049 315.575Q121.04487 315.0125 121.95112 314.27814Q123.35737 313.1219 123.84174 312.45Q124.34174 311.77814 124.34174 311.1844Q124.34174 310.5594 123.88862 310.1375Q123.43549 309.7 122.71674 309.7Q121.95112 309.7 121.49799 310.15314Q121.04487 310.60626 121.02924 311.41876L119.95112 311.3094Q120.06049 310.09064 120.77924 309.46564Q121.51362 308.825 122.74799 308.825Q123.98237 308.825 124.70112 309.5125Q125.41987 310.2 125.41987 311.21564Q125.41987 311.73126 125.20112 312.23126Q124.99799 312.71564 124.49799 313.27814Q124.01362 313.825 122.88862 314.77814Q121.93549 315.575 121.65424 315.8719Q121.38862 316.15314 121.21674 316.4344L125.43549 316.4344ZM126.88862 313.21564Q126.88862 311.6844 127.20112 310.7625Q127.51362 309.825 128.12299 309.325Q128.74799 308.825 129.68549 308.825Q130.37299 308.825 130.88861 309.10626Q131.41986 309.3875 131.76361 309.91876Q132.10736 310.4344 132.29486 311.1844Q132.48236 311.9344 132.48236 313.21564Q132.48236 314.73126 132.16986 315.65314Q131.87299 316.575 131.24799 317.09064Q130.63861 317.59064 129.68549 317.59064Q128.45111 317.59064 127.73237 316.7Q126.88862 315.6375 126.88862 313.21564ZM127.96674 313.21564Q127.96674 315.325 128.46674 316.02814Q128.96674 316.73126 129.68549 316.73126Q130.41986 316.73126 130.90424 316.02814Q131.40424 315.325 131.40424 313.21564Q131.40424 311.09064 130.90424 310.40314Q130.41986 309.7 129.66986 309.7Q128.95111 309.7 128.51361 310.3094Q127.96674 311.09064 127.96674 313.21564ZM137.85736 317.45L136.81049 317.45L136.81049 310.73126Q136.41986 311.09064 135.79486 311.46564Q135.18549 311.825 134.70111 311.9969L134.70111 310.98126Q135.57611 310.5594 136.23236 309.98126Q136.90424 309.3875 137.18549 308.825L137.85736 308.825L137.85736 317.45ZM146.43549 316.4344L146.43549 317.45L140.74799 317.45Q140.74799 317.075 140.87299 316.71564Q141.09174 316.1375 141.56049 315.575Q142.04486 315.0125 142.95111 314.27814Q144.35736 313.1219 144.84174 312.45Q145.34174 311.77814 145.34174 311.1844Q145.34174 310.5594 144.88861 310.1375Q144.43549 309.7 143.71674 309.7Q142.95111 309.7 142.49799 310.15314Q142.04486 310.60626 142.02924 311.41876L140.95111 311.3094Q141.06049 310.09064 141.77924 309.46564Q142.51361 308.825 143.74799 308.825Q144.98236 308.825 145.70111 309.5125Q146.41986 310.2 146.41986 311.21564Q146.41986 311.73126 146.20111 312.23126Q145.99799 312.71564 145.49799 313.27814Q145.01361 313.825 143.88861 314.77814Q142.93549 315.575 142.65424 315.8719Q142.38861 316.15314 142.21674 316.4344L146.43549 316.4344Z" fill-rule="nonzero"/><path fill="#000000" d="M223.49118 316.4344L223.49118 317.45L217.80368 317.45Q217.80368 317.075 217.92868 316.71564Q218.14743 316.1375 218.61618 315.575Q219.10056 315.0125 220.0068 314.27814Q221.41306 313.1219 221.89743 312.45Q222.39743 311.77814 222.39743 311.1844Q222.39743 310.5594 221.9443 310.1375Q221.49118 309.7 220.77243 309.7Q220.0068 309.7 219.55368 310.15314Q219.10056 310.60626 219.08493 311.41876L218.0068 311.3094Q218.11618 310.09064 218.83493 309.46564Q219.5693 308.825 220.80368 308.825Q222.03806 308.825 222.7568 309.5125Q223.47556 310.2 223.47556 311.21564Q223.47556 311.73126 223.2568 312.23126Q223.05368 312.71564 222.55368 313.27814Q222.0693 313.825 220.9443 314.77814Q219.99118 315.575 219.70993 315.8719Q219.4443 316.15314 219.27243 316.4344L223.49118 316.4344ZM224.9443 313.21564Q224.9443 311.6844 225.2568 310.7625Q225.5693 309.825 226.17868 309.325Q226.80368 308.825 227.74118 308.825Q228.42868 308.825 228.9443 309.10626Q229.47556 309.3875 229.8193 309.91876Q230.16306 310.4344 230.35056 311.1844Q230.53806 311.9344 230.53806 313.21564Q230.53806 314.73126 230.22556 315.65314Q229.92868 316.575 229.30368 317.09064Q228.6943 317.59064 227.74118 317.59064Q226.5068 317.59064 225.78806 316.7Q224.9443 315.6375 224.9443 313.21564ZM226.02243 313.21564Q226.02243 315.325 226.52243 316.02814Q227.02243 316.73126 227.74118 316.73126Q228.47556 316.73126 228.95993 316.02814Q229.45993 315.325 229.45993 313.21564Q229.45993 311.09064 228.95993 310.40314Q228.47556 309.7 227.72556 309.7Q227.0068 309.7 226.5693 310.3094Q226.02243 311.09064 226.02243 313.21564ZM235.91306 317.45L234.86618 317.45L234.86618 310.73126Q234.47556 311.09064 233.85056 311.46564Q233.24118 311.825 232.7568 311.9969L232.7568 310.98126Q233.6318 310.5594 234.28806 309.98126Q234.95993 309.3875 235.24118 308.825L235.91306 308.825L235.91306 317.45ZM242.3193 317.45L242.3193 315.3875L238.60056 315.3875L238.60056 314.41876L242.52243 308.85626L243.3818 308.85626L243.3818 314.41876L244.53806 314.41876L244.53806 315.3875L243.3818 315.3875L243.3818 317.45L242.3193 317.45ZM242.3193 314.41876L242.3193 310.5594L239.6318 314.41876L242.3193 314.41876Z" fill-rule="nonzero"/><path fill="#000000" d="M321.54688 316.4344L321.54688 317.45L315.85938 317.45Q315.85938 317.075 315.98438 316.71564Q316.20312 316.1375 316.67188 315.575Q317.15625 315.0125 318.0625 314.27814Q319.46875 313.1219 319.95312 312.45Q320.45312 311.77814 320.45312 311.1844Q320.45312 310.5594 320.0 310.1375Q319.54688 309.7 318.82812 309.7Q318.0625 309.7 317.60938 310.15314Q317.15625 310.60626 317.14062 311.41876L316.0625 311.3094Q316.17188 310.09064 316.89062 309.46564Q317.625 308.825 318.85938 308.825Q320.09375 308.825 320.8125 309.5125Q321.53125 310.2 321.53125 311.21564Q321.53125 311.73126 321.3125 312.23126Q321.10938 312.71564 320.60938 313.27814Q320.125 313.825 319.0 314.77814Q318.04688 315.575 317.76562 315.8719Q317.5 316.15314 317.32812 316.4344L321.54688 316.4344ZM323.0 313.21564Q323.0 311.6844 323.3125 310.7625Q323.625 309.825 324.23438 309.325Q324.85938 308.825 325.79688 308.825Q326.48438 308.825 327.0 309.10626Q327.53125 309.3875 327.875 309.91876Q328.21875 310.4344 328.40625 311.1844Q328.59375 311.9344 328.59375 313.21564Q328.59375 314.73126 328.28125 315.65314Q327.98438 316.575 327.35938 317.09064Q326.75 317.59064 325.79688 317.59064Q324.5625 317.59064 323.84375 316.7Q323.0 315.6375 323.0 313.21564ZM324.07812 313.21564Q324.07812 315.325 324.57812 316.02814Q325.07812 316.73126 325.79688 316.73126Q326.53125 316.73126 327.01562 316.02814Q327.51562 315.325 327.51562 313.21564Q327.51562 311.09064 327.01562 310.40314Q326.53125 309.7 325.78125 309.7Q325.0625 309.7 324.625 310.3094Q324.07812 311.09064 324.07812 313.21564ZM333.96875 317.45L332.92188 317.45L332.92188 310.73126Q332.53125 311.09064 331.90625 311.46564Q331.29688 311.825 330.8125 311.9969L330.8125 310.98126Q331.6875 310.5594 332.34375 309.98126Q333.01562 309.3875 333.29688 308.825L333.96875 308.825L333.96875 317.45ZM342.46875 310.96564L341.42188 311.04376Q341.28125 310.41876 341.03125 310.1375Q340.59375 309.6844 339.96875 309.6844Q339.46875 309.6844 339.07812 309.96564Q338.59375 310.34064 338.29688 311.04376Q338.01562 311.73126 338.0 313.0125Q338.375 312.4344 338.92188 312.15314Q339.48438 311.8719 340.09375 311.8719Q341.14062 311.8719 341.875 312.65314Q342.625 313.4344 342.625 314.65314Q342.625 315.46564 342.26562 316.16876Q341.92188 316.85626 341.3125 317.23126Q340.70312 317.59064 339.9375 317.59064Q338.60938 317.59064 337.78125 316.6219Q336.95312 315.65314 336.95312 313.4344Q336.95312 310.9344 337.875 309.8094Q338.67188 308.825 340.03125 308.825Q341.04688 308.825 341.6875 309.40314Q342.34375 309.96564 342.46875 310.96564ZM338.17188 314.66876Q338.17188 315.21564 338.39062 315.71564Q338.625 316.2 339.03125 316.46564Q339.45312 316.73126 339.92188 316.73126Q340.57812 316.73126 341.0625 316.2Q341.54688 315.65314 341.54688 314.73126Q341.54688 313.84064 341.0625 313.325Q340.59375 312.8094 339.875 312.8094Q339.15625 312.8094 338.65625 313.325Q338.17188 313.84064 338.17188 314.66876Z" fill-rule="nonzero"/><path fill="#000000" d="M419.60257 316.4344L419.60257 317.45L413.91507 317.45Q413.91507 317.075 414.04007 316.71564Q414.25882 316.1375 414.72757 315.575Q415.21194 315.0125 416.1182 314.27814Q417.52444 313.1219 418.00882 312.45Q418.50882 311.77814 418.50882 311.1844Q418.50882 310.5594 418.0557 310.1375Q417.60257 309.7 416.88382 309.7Q416.1182 309.7 415.66507 310.15314Q415.21194 310.60626 415.19632 311.41876L414.1182 311.3094Q414.22757 310.09064 414.94632 309.46564Q415.6807 308.825 416.91507 308.825Q418.14944 308.825 418.8682 309.5125Q419.58694 310.2 419.58694 311.21564Q419.58694 311.73126 419.3682 312.23126Q419.16507 312.71564 418.66507 313.27814Q418.1807 313.825 417.0557 314.77814Q416.10257 315.575 415.82132 315.8719Q415.5557 316.15314 415.38382 316.4344L419.60257 316.4344ZM421.0557 313.21564Q421.0557 311.6844 421.3682 310.7625Q421.6807 309.825 422.29007 309.325Q422.91507 308.825 423.85257 308.825Q424.54007 308.825 425.0557 309.10626Q425.58694 309.3875 425.9307 309.91876Q426.27444 310.4344 426.46194 311.1844Q426.64944 311.9344 426.64944 313.21564Q426.64944 314.73126 426.33694 315.65314Q426.04007 316.575 425.41507 317.09064Q424.8057 317.59064 423.85257 317.59064Q422.6182 317.59064 421.89944 316.7Q421.0557 315.6375 421.0557 313.21564ZM422.13382 313.21564Q422.13382 315.325 422.63382 316.02814Q423.13382 316.73126 423.85257 316.73126Q424.58694 316.73126 425.07132 316.02814Q425.57132 315.325 425.57132 313.21564Q425.57132 311.09064 425.07132 310.40314Q424.58694 309.7 423.83694 309.7Q423.1182 309.7 422.6807 310.3094Q422.13382 311.09064 422.13382 313.21564ZM432.02444 317.45L430.97757 317.45L430.97757 310.73126Q430.58694 311.09064 429.96194 311.46564Q429.35257 311.825 428.8682 311.9969L428.8682 310.98126Q429.7432 310.5594 430.39944 309.98126Q431.07132 309.3875 431.35257 308.825L432.02444 308.825L432.02444 317.45ZM436.6807 312.79376Q436.02444 312.54376 435.69632 312.10626Q435.38382 311.65314 435.38382 311.04376Q435.38382 310.10626 436.0557 309.46564Q436.7432 308.825 437.85257 308.825Q438.97757 308.825 439.66507 309.48126Q440.35257 310.1375 440.35257 311.075Q440.35257 311.66876 440.04007 312.10626Q439.72757 312.54376 439.08694 312.79376Q439.88382 313.04376 440.29007 313.6219Q440.69632 314.2 440.69632 314.9969Q440.69632 316.09064 439.91507 316.84064Q439.14944 317.59064 437.8682 317.59064Q436.60257 317.59064 435.82132 316.84064Q435.04007 316.09064 435.04007 314.96564Q435.04007 314.1219 435.46194 313.5594Q435.89944 312.9969 436.6807 312.79376ZM436.46194 310.9969Q436.46194 311.60626 436.85257 311.9969Q437.25882 312.3875 437.88382 312.3875Q438.4932 312.3875 438.88382 312.0125Q439.27444 311.6219 439.27444 311.0594Q439.27444 310.48126 438.8682 310.09064Q438.46194 309.6844 437.8682 309.6844Q437.25882 309.6844 436.85257 310.075Q436.46194 310.46564 436.46194 310.9969ZM436.13382 314.96564Q436.13382 315.41876 436.33694 315.84064Q436.5557 316.2625 436.97757 316.4969Q437.39944 316.73126 437.88382 316.73126Q438.63382 316.73126 439.1182 316.2469Q439.6182 315.7625 439.6182 315.0125Q439.6182 314.2469 439.1182 313.7469Q438.6182 313.2469 437.85257 313.2469Q437.10257 313.2469 436.6182 313.7469Q436.13382 314.23126 436.13382 314.96564Z" fill-rule="nonzero"/><path fill="#000000" d="M517.65826 316.4344L517.65826 317.45L511.97076 317.45Q511.97076 317.075 512.09576 316.71564Q512.3145 316.1375 512.78326 315.575Q513.26764 315.0125 514.1739 314.27814Q515.58014 313.1219 516.0645 312.45Q516.5645 311.77814 516.5645 311.1844Q516.5645 310.5594 516.1114 310.1375Q515.65826 309.7 514.9395 309.7Q514.1739 309.7 513.72076 310.15314Q513.26764 310.60626 513.252 311.41876L512.1739 311.3094Q512.28326 310.09064 513.002 309.46564Q513.7364 308.825 514.97076 308.825Q516.20514 308.825 516.9239 309.5125Q517.64264 310.2 517.64264 311.21564Q517.64264 311.73126 517.4239 312.23126Q517.22076 312.71564 516.72076 313.27814Q516.2364 313.825 515.1114 314.77814Q514.15826 315.575 513.877 315.8719Q513.6114 316.15314 513.4395 316.4344L517.65826 316.4344ZM519.1114 313.21564Q519.1114 311.6844 519.4239 310.7625Q519.7364 309.825 520.34576 309.325Q520.97076 308.825 521.90826 308.825Q522.59576 308.825 523.1114 309.10626Q523.64264 309.3875 523.9864 309.91876Q524.33014 310.4344 524.51764 311.1844Q524.70514 311.9344 524.70514 313.21564Q524.70514 314.73126 524.39264 315.65314Q524.09576 316.575 523.47076 317.09064Q522.8614 317.59064 521.90826 317.59064Q520.6739 317.59064 519.95514 316.7Q519.1114 315.6375 519.1114 313.21564ZM520.1895 313.21564Q520.1895 315.325 520.6895 316.02814Q521.1895 316.73126 521.90826 316.73126Q522.64264 316.73126 523.127 316.02814Q523.627 315.325 523.627 313.21564Q523.627 311.09064 523.127 310.40314Q522.64264 309.7 521.89264 309.7Q521.1739 309.7 520.7364 310.3094Q520.1895 311.09064 520.1895 313.21564ZM531.65826 316.4344L531.65826 317.45L525.97076 317.45Q525.97076 317.075 526.09576 316.71564Q526.3145 316.1375 526.78326 315.575Q527.26764 315.0125 528.1739 314.27814Q529.58014 313.1219 530.0645 312.45Q530.5645 311.77814 530.5645 311.1844Q530.5645 310.5594 530.1114 310.1375Q529.65826 309.7 528.9395 309.7Q528.1739 309.7 527.72076 310.15314Q527.26764 310.60626 527.252 311.41876L526.1739 311.3094Q526.28326 310.09064 527.002 309.46564Q527.7364 308.825 528.97076 308.825Q530.20514 308.825 530.9239 309.5125Q531.64264 310.2 531.64264 311.21564Q531.64264 311.73126 531.4239 312.23126Q531.22076 312.71564 530.72076 313.27814Q530.2364 313.825 529.1114 314.77814Q528.15826 315.575 527.877 315.8719Q527.6114 316.15314 527.4395 316.4344L531.65826 316.4344ZM533.1114 313.21564Q533.1114 311.6844 533.4239 310.7625Q533.7364 309.825 534.34576 309.325Q534.97076 308.825 535.90826 308.825Q536.59576 308.825 537.1114 309.10626Q537.64264 309.3875 537.9864 309.91876Q538.33014 310.4344 538.51764 311.1844Q538.70514 311.9344 538.70514 313.21564Q538.70514 314.73126 538.39264 315.65314Q538.09576 316.575 537.47076 317.09064Q536.8614 317.59064 535.90826 317.59064Q534.6739 317.59064 533.95514 316.7Q533.1114 315.6375 533.1114 313.21564ZM534.1895 313.21564Q534.1895 315.325 534.6895 316.02814Q535.1895 316.73126 535.90826 316.73126Q536.64264 316.73126 537.127 316.02814Q537.627 315.325 537.627 313.21564Q537.627 311.09064 537.127 310.40314Q536.64264 309.7 535.89264 309.7Q535.1739 309.7 534.7364 310.3094Q534.1895 311.09064 534.1895 313.21564Z" fill-rule="nonzero"/><path fill="#757575" d="M19.45625 32.95625L21.2375 32.8Q21.3625 33.8625 21.815624 34.55Q22.284374 35.2375 23.253124 35.675Q24.2375 36.096874 25.471874 36.096874Q26.55 36.096874 27.378124 35.784374Q28.20625 35.45625 28.6125 34.89375Q29.01875 34.33125 29.01875 33.659374Q29.01875 32.9875 28.628124 32.4875Q28.2375 31.9875 27.346874 31.64375Q26.76875 31.409374 24.784374 30.940624Q22.815624 30.471874 22.034374 30.05Q21.003124 29.51875 20.503124 28.721874Q20.003124 27.925 20.003124 26.940624Q20.003124 25.846874 20.6125 24.909374Q21.221874 23.971874 22.409374 23.4875Q23.596874 22.9875 25.034374 22.9875Q26.628124 22.9875 27.846874 23.503124Q29.065624 24.01875 29.70625 25.01875Q30.3625 26.003124 30.409374 27.26875L28.596874 27.409374Q28.45625 26.05 27.6125 25.3625Q26.76875 24.659374 25.1125 24.659374Q23.39375 24.659374 22.596874 25.3Q21.815624 25.925 21.815624 26.8Q21.815624 27.58125 22.378124 28.08125Q22.925 28.58125 25.2375 29.096874Q27.55 29.6125 28.409374 30.003124Q29.659374 30.58125 30.253124 31.471874Q30.846874 32.346874 30.846874 33.503124Q30.846874 34.64375 30.190624 35.659374Q29.534374 36.675 28.3 37.2375Q27.08125 37.8 25.55 37.8Q23.6125 37.8 22.3 37.2375Q20.9875 36.659374 20.2375 35.51875Q19.4875 34.378124 19.45625 32.95625ZM39.64375 36.26875Q38.659374 37.096874 37.753124 37.440624Q36.846874 37.784374 35.815624 37.784374Q34.1125 37.784374 33.190624 36.95625Q32.26875 36.1125 32.26875 34.815624Q32.26875 34.05 32.6125 33.425Q32.971874 32.8 33.534374 32.425Q34.096874 32.034374 34.8 31.83125Q35.315624 31.70625 36.3625 31.565624Q38.4875 31.315624 39.4875 30.971874Q39.503124 30.6125 39.503124 30.503124Q39.503124 29.440624 39.003124 28.9875Q38.33125 28.39375 37.003124 28.39375Q35.753124 28.39375 35.159374 28.83125Q34.58125 29.26875 34.3 30.378124L32.58125 30.14375Q32.815624 29.034374 33.346874 28.3625Q33.878124 27.675 34.89375 27.315624Q35.909374 26.940624 37.253124 26.940624Q38.58125 26.940624 39.409374 27.253124Q40.2375 27.565624 40.628124 28.05Q41.01875 28.51875 41.175 29.2375Q41.26875 29.690624 41.26875 30.8625L41.26875 33.20625Q41.26875 35.659374 41.378124 36.315624Q41.4875 36.95625 41.83125 37.55L39.9875 37.55Q39.721874 37.003124 39.64375 36.26875ZM39.4875 32.346874Q38.534374 32.7375 36.6125 33.003124Q35.534374 33.159374 35.08125 33.3625Q34.64375 33.55 34.39375 33.925Q34.14375 34.3 34.14375 34.76875Q34.14375 35.471874 34.675 35.940624Q35.20625 36.409374 36.2375 36.409374Q37.253124 36.409374 38.034374 35.971874Q38.83125 35.51875 39.20625 34.753124Q39.4875 34.14375 39.4875 32.9875L39.4875 32.346874ZM47.70625 35.971874L47.95625 37.534374Q47.221874 37.690624 46.628124 37.690624Q45.675 37.690624 45.14375 37.39375Q44.628124 37.08125 44.409374 36.596874Q44.190624 36.096874 44.190624 34.51875L44.190624 28.55L42.909374 28.55L42.909374 27.175L44.190624 27.175L44.190624 24.6125L45.940624 23.55L45.940624 27.175L47.70625 27.175L47.70625 28.55L45.940624 28.55L45.940624 34.6125Q45.940624 35.3625 46.034374 35.58125Q46.128124 35.784374 46.33125 35.925Q46.55 36.05 46.940624 36.05Q47.221874 36.05 47.70625 35.971874ZM56.659374 37.55L56.659374 36.01875Q55.45625 37.784374 53.378124 37.784374Q52.45625 37.784374 51.659374 37.440624Q50.8625 37.08125 50.471874 36.55Q50.096874 36.01875 49.940624 35.2375Q49.83125 34.721874 49.83125 33.596874L49.83125 27.175L51.58125 27.175L51.58125 32.925Q51.58125 34.3 51.690624 34.784374Q51.8625 35.471874 52.39375 35.878124Q52.940624 36.26875 53.721874 36.26875Q54.51875 36.26875 55.20625 35.8625Q55.909374 35.45625 56.190624 34.76875Q56.4875 34.065624 56.4875 32.7375L56.4875 27.175L58.2375 27.175L58.2375 37.55L56.659374 37.55ZM59.846874 37.55L59.846874 27.175L61.425 27.175L61.425 28.753124Q62.034374 27.64375 62.55 27.3Q63.065624 26.940624 63.675 26.940624Q64.56563 26.940624 65.4875 27.503124L64.87813 29.14375Q64.2375 28.753124 63.596874 28.753124Q63.01875 28.753124 62.55 29.1125Q62.096874 29.45625 61.89375 30.065624Q61.6125 31.003124 61.6125 32.1125L61.6125 37.55L59.846874 37.55ZM73.64375 36.26875Q72.65938 37.096874 71.75313 37.440624Q70.84688 37.784374 69.81563 37.784374Q68.1125 37.784374 67.19063 36.95625Q66.26875 36.1125 66.26875 34.815624Q66.26875 34.05 66.6125 33.425Q66.97188 32.8 67.53438 32.425Q68.09688 32.034374 68.8 31.83125Q69.31563 31.70625 70.3625 31.565624Q72.4875 31.315624 73.4875 30.971874Q73.50313 30.6125 73.50313 30.503124Q73.50313 29.440624 73.00313 28.9875Q72.33125 28.39375 71.00313 28.39375Q69.75313 28.39375 69.15938 28.83125Q68.58125 29.26875 68.3 30.378124L66.58125 30.14375Q66.81563 29.034374 67.34688 28.3625Q67.87813 27.675 68.89375 27.315624Q69.90938 26.940624 71.25313 26.940624Q72.58125 26.940624 73.40938 27.253124Q74.2375 27.565624 74.62813 28.05Q75.01875 28.51875 75.175 29.2375Q75.26875 29.690624 75.26875 30.8625L75.26875 33.20625Q75.26875 35.659374 75.37813 36.315624Q75.4875 36.95625 75.83125 37.55L73.9875 37.55Q73.72188 37.003124 73.64375 36.26875ZM73.4875 32.346874Q72.53438 32.7375 70.6125 33.003124Q69.53438 33.159374 69.08125 33.3625Q68.64375 33.55 68.39375 33.925Q68.14375 34.3 68.14375 34.76875Q68.14375 35.471874 68.675 35.940624Q69.20625 36.409374 70.2375 36.409374Q71.25313 36.409374 72.03438 35.971874Q72.83125 35.51875 73.20625 34.753124Q73.4875 34.14375 73.4875 32.9875L73.4875 32.346874ZM84.64375 33.753124L86.3625 33.971874Q86.08125 35.76875 84.90938 36.784374Q83.75313 37.784374 82.05 37.784374Q79.925 37.784374 78.62813 36.39375Q77.33125 35.003124 77.33125 32.409374Q77.33125 30.721874 77.87813 29.471874Q78.44063 28.20625 79.58125 27.58125Q80.72188 26.940624 82.06563 26.940624Q83.75313 26.940624 84.81563 27.8Q85.89375 28.659374 86.20625 30.221874L84.4875 30.4875Q84.25313 29.440624 83.62813 28.925Q83.00313 28.39375 82.12813 28.39375Q80.8 28.39375 79.97188 29.346874Q79.14375 30.3 79.14375 32.346874Q79.14375 34.440624 79.94063 35.39375Q80.7375 36.33125 82.03438 36.33125Q83.06563 36.33125 83.75313 35.70625Q84.45625 35.065624 84.64375 33.753124ZM80.56563 38.846874L81.08125 37.128124L82.37813 37.128124L82.06563 38.175Q82.89375 38.26875 83.31563 38.675Q83.7375 39.096874 83.7375 39.596874Q83.7375 40.33125 83.03438 40.89375Q82.33125 41.45625 80.90938 41.45625Q80.1125 41.45625 79.50313 41.346874L79.6125 40.20625Q80.2375 40.2375 80.53438 40.2375Q81.44063 40.2375 81.81563 39.9875Q82.09688 39.784374 82.09688 39.503124Q82.09688 39.33125 81.9875 39.190624Q81.87813 39.05 81.56563 38.95625Q81.26875 38.8625 80.56563 38.846874ZM94.64375 36.26875Q93.65938 37.096874 92.75313 37.440624Q91.84688 37.784374 90.81563 37.784374Q89.1125 37.784374 88.19063 36.95625Q87.26875 36.1125 87.26875 34.815624Q87.26875 34.05 87.6125 33.425Q87.97188 32.8 88.53438 32.425Q89.09688 32.034374 89.8 31.83125Q90.31563 31.70625 91.3625 31.565624Q93.4875 31.315624 94.4875 30.971874Q94.50313 30.6125 94.50313 30.503124Q94.50313 29.440624 94.00313 28.9875Q93.33125 28.39375 92.00313 28.39375Q90.75313 28.39375 90.15938 28.83125Q89.58125 29.26875 89.3 30.378124L87.58125 30.14375Q87.81563 29.034374 88.34688 28.3625Q88.87813 27.675 89.89375 27.315624Q90.90938 26.940624 92.25313 26.940624Q93.58125 26.940624 94.40938 27.253124Q95.2375 27.565624 95.62813 28.05Q96.01875 28.51875 96.175 29.2375Q96.26875 29.690624 96.26875 30.8625L96.26875 33.20625Q96.26875 35.659374 96.37813 36.315624Q96.4875 36.95625 96.83125 37.55L94.9875 37.55Q94.72188 37.003124 94.64375 36.26875ZM94.4875 32.346874Q93.53438 32.7375 91.6125 33.003124Q90.53438 33.159374 90.08125 33.3625Q89.64375 33.55 89.39375 33.925Q89.14375 34.3 89.14375 34.76875Q89.14375 35.471874 89.675 35.940624Q90.20625 36.409374 91.2375 36.409374Q92.25313 36.409374 93.03438 35.971874Q93.83125 35.51875 94.20625 34.753124Q94.4875 34.14375 94.4875 32.9875L94.4875 32.346874ZM88.78438 25.64375Q88.78438 24.628124 89.34688 24.01875Q89.90938 23.425 90.76875 23.425Q91.37813 23.425 92.425 23.940624Q93.00313 24.2375 93.34688 24.2375Q93.65938 24.2375 93.81563 24.065624Q93.9875 23.89375 94.05 23.39375L95.33125 23.39375Q95.3 24.503124 94.76875 25.065624Q94.2375 25.6125 93.40938 25.6125Q92.8 25.6125 91.78438 25.065624Q91.12813 24.721874 90.83125 24.721874Q90.50313 24.721874 90.3 24.95625Q90.08125 25.190624 90.09688 25.64375L88.78438 25.64375ZM98.22188 32.3625Q98.22188 29.4875 99.81563 28.096874Q101.15938 26.940624 103.08125 26.940624Q105.22188 26.940624 106.56563 28.346874Q107.925 29.753124 107.925 32.221874Q107.925 34.221874 107.33125 35.378124Q106.7375 36.51875 105.58125 37.159374Q104.44063 37.784374 103.08125 37.784374Q100.89375 37.784374 99.55 36.39375Q98.22188 34.9875 98.22188 32.3625ZM100.01875 32.3625Q100.01875 34.3625 100.87813 35.346874Q101.75313 36.33125 103.08125 36.33125Q104.39375 36.33125 105.25313 35.346874Q106.12813 34.346874 106.12813 32.3Q106.12813 30.378124 105.25313 29.39375Q104.37813 28.39375 103.08125 28.39375Q101.75313 28.39375 100.87813 29.39375Q100.01875 30.378124 100.01875 32.3625ZM122.59688 37.55L122.59688 36.2375Q121.6125 37.784374 119.69063 37.784374Q118.45625 37.784374 117.40938 37.096874Q116.37813 36.409374 115.8 35.190624Q115.2375 33.971874 115.2375 32.378124Q115.2375 30.815624 115.75313 29.55Q116.26875 28.284374 117.3 27.6125Q118.34688 26.940624 119.6125 26.940624Q120.55 26.940624 121.28438 27.346874Q122.01875 27.7375 122.4875 28.3625L122.4875 23.2375L124.22188 23.2375L124.22188 37.55L122.59688 37.55ZM117.03438 32.378124Q117.03438 34.3625 117.87813 35.346874Q118.72188 36.33125 119.8625 36.33125Q121.01875 36.33125 121.81563 35.39375Q122.62813 34.45625 122.62813 32.51875Q122.62813 30.39375 121.8 29.39375Q120.9875 28.39375 119.78438 28.39375Q118.6125 28.39375 117.81563 29.3625Q117.03438 30.315624 117.03438 32.378124ZM133.97188 34.20625L135.78438 34.440624Q135.3625 36.01875 134.19063 36.909374Q133.03438 37.784374 131.22188 37.784374Q128.95625 37.784374 127.6125 36.39375Q126.28438 34.9875 126.28438 32.45625Q126.28438 29.83125 127.62813 28.39375Q128.97188 26.940624 131.12813 26.940624Q133.20625 26.940624 134.51875 28.3625Q135.84688 29.76875 135.84688 32.346874Q135.84688 32.503124 135.83125 32.815624L128.09688 32.815624Q128.19063 34.51875 129.06563 35.425Q129.94063 36.33125 131.2375 36.33125Q132.20625 36.33125 132.87813 35.83125Q133.56563 35.315624 133.97188 34.20625ZM128.19063 31.3625L133.9875 31.3625Q133.87813 30.065624 133.33125 29.409374Q132.4875 28.39375 131.14375 28.39375Q129.94063 28.39375 129.1125 29.20625Q128.28438 30.003124 128.19063 31.3625ZM143.51875 30.58125Q143.51875 27.01875 145.425 25.003124Q147.34688 22.971874 150.37813 22.971874Q152.3625 22.971874 153.94063 23.925Q155.53438 24.878124 156.3625 26.58125Q157.20625 28.26875 157.20625 30.409374Q157.20625 32.58125 156.33125 34.3Q155.45625 36.01875 153.83125 36.909374Q152.22188 37.8 150.3625 37.8Q148.34688 37.8 146.75313 36.83125Q145.15938 35.846874 144.33125 34.159374Q143.51875 32.45625 143.51875 30.58125ZM145.47188 30.6125Q145.47188 33.190624 146.8625 34.690624Q148.25313 36.175 150.34688 36.175Q152.4875 36.175 153.8625 34.675Q155.25313 33.159374 155.25313 30.39375Q155.25313 28.659374 154.65938 27.3625Q154.08125 26.05 152.94063 25.33125Q151.8 24.6125 150.37813 24.6125Q148.37813 24.6125 146.925 26.003124Q145.47188 27.378124 145.47188 30.6125ZM158.69063 37.55L162.4875 32.159374L158.9875 27.175L161.175 27.175L162.76875 29.6125Q163.22188 30.3 163.4875 30.76875Q163.925 30.128124 164.28438 29.628124L166.03438 27.175L168.12813 27.175L164.55 32.065624L168.40938 37.55L166.25313 37.55L164.1125 34.33125L163.55 33.45625L160.83125 37.55L158.69063 37.55ZM168.87813 25.253124L168.87813 23.2375L170.64375 23.2375L170.64375 25.253124L168.87813 25.253124ZM168.87813 37.55L168.87813 27.175L170.64375 27.175L170.64375 37.55L168.87813 37.55ZM172.55 38.409374L174.25313 38.659374Q174.3625 39.45625 174.84688 39.815624Q175.50313 40.3 176.64375 40.3Q177.8625 40.3 178.51875 39.815624Q179.19063 39.33125 179.425 38.45625Q179.56563 37.909374 179.55 36.190624Q178.39375 37.55 176.675 37.55Q174.53438 37.55 173.3625 36.003124Q172.19063 34.45625 172.19063 32.3Q172.19063 30.815624 172.72188 29.565624Q173.26875 28.315624 174.28438 27.628124Q175.31563 26.940624 176.69063 26.940624Q178.51875 26.940624 179.72188 28.425L179.72188 27.175L181.33125 27.175L181.33125 36.14375Q181.33125 38.565624 180.83125 39.565624Q180.34688 40.58125 179.26875 41.159374Q178.20625 41.753124 176.64375 41.753124Q174.8 41.753124 173.64375 40.925Q172.50313 40.096874 172.55 38.409374ZM174.00313 32.175Q174.00313 34.221874 174.81563 35.159374Q175.62813 36.096874 176.84688 36.096874Q178.05 36.096874 178.8625 35.159374Q179.69063 34.221874 179.69063 32.2375Q179.69063 30.33125 178.84688 29.3625Q178.00313 28.39375 176.81563 28.39375Q175.64375 28.39375 174.81563 29.346874Q174.00313 30.3 174.00313 32.175ZM190.97188 34.20625L192.78438 34.440624Q192.3625 36.01875 191.19063 36.909374Q190.03438 37.784374 188.22188 37.784374Q185.95625 37.784374 184.6125 36.39375Q183.28438 34.9875 183.28438 32.45625Q183.28438 29.83125 184.62813 28.39375Q185.97188 26.940624 188.12813 26.940624Q190.20625 26.940624 191.51875 28.3625Q192.84688 29.76875 192.84688 32.346874Q192.84688 32.503124 192.83125 32.815624L185.09688 32.815624Q185.19063 34.51875 186.06563 35.425Q186.94063 36.33125 188.2375 36.33125Q189.20625 36.33125 189.87813 35.83125Q190.56563 35.315624 190.97188 34.20625ZM185.19063 31.3625L190.9875 31.3625Q190.87813 30.065624 190.33125 29.409374Q189.4875 28.39375 188.14375 28.39375Q186.94063 28.39375 186.1125 29.20625Q185.28438 30.003124 185.19063 31.3625ZM188.08125 24.221874L186.97188 25.89375L184.97188 25.89375L187.08125 23.159374L188.95625 23.159374L191.14375 25.89375L189.15938 25.89375L188.08125 24.221874ZM194.8625 37.55L194.8625 27.175L196.45625 27.175L196.45625 28.659374Q197.59688 26.940624 199.75313 26.940624Q200.69063 26.940624 201.47188 27.284374Q202.26875 27.6125 202.65938 28.159374Q203.05 28.70625 203.20625 29.45625Q203.3 29.95625 203.3 31.175L203.3 37.55L201.53438 37.55L201.53438 31.2375Q201.53438 30.159374 201.33125 29.628124Q201.12813 29.096874 200.59688 28.784374Q200.08125 28.471874 199.37813 28.471874Q198.25313 28.471874 197.44063 29.190624Q196.62813 29.89375 196.62813 31.878124L196.62813 37.55L194.8625 37.55ZM204.87813 25.253124L204.87813 23.2375L206.64375 23.2375L206.64375 25.253124L204.87813 25.253124ZM204.87813 37.55L204.87813 27.175L206.64375 27.175L206.64375 37.55L204.87813 37.55ZM208.22188 32.3625Q208.22188 29.4875 209.81563 28.096874Q211.15938 26.940624 213.08125 26.940624Q215.22188 26.940624 216.56563 28.346874Q217.925 29.753124 217.925 32.221874Q217.925 34.221874 217.33125 35.378124Q216.7375 36.51875 215.58125 37.159374Q214.44063 37.784374 213.08125 37.784374Q210.89375 37.784374 209.55 36.39375Q208.22188 34.9875 208.22188 32.3625ZM210.01875 32.3625Q210.01875 34.3625 210.87813 35.346874Q211.75313 36.33125 213.08125 36.33125Q214.39375 36.33125 215.25313 35.346874Q216.12813 34.346874 216.12813 32.3Q216.12813 30.378124 215.25313 29.39375Q214.37813 28.39375 213.08125 28.39375Q211.75313 28.39375 210.87813 29.39375Q210.01875 30.378124 210.01875 32.3625ZM225.8625 41.51875L225.8625 27.175L227.47188 27.175L227.47188 28.51875Q228.03438 27.7375 228.7375 27.346874Q229.45625 26.940624 230.47188 26.940624Q231.8 26.940624 232.81563 27.628124Q233.83125 28.315624 234.34688 29.565624Q234.87813 30.8 234.87813 32.284374Q234.87813 33.878124 234.3 35.159374Q233.7375 36.425 232.64375 37.1125Q231.55 37.784374 230.34688 37.784374Q229.47188 37.784374 228.76875 37.409374Q228.08125 37.034374 227.62813 36.471874L227.62813 41.51875L225.8625 41.51875ZM227.45625 32.425Q227.45625 34.425 228.26875 35.378124Q229.08125 36.33125 230.2375 36.33125Q231.40938 36.33125 232.2375 35.346874Q233.08125 34.3625 233.08125 32.26875Q233.08125 30.3 232.25313 29.315624Q231.44063 28.315624 230.31563 28.315624Q229.19063 28.315624 228.31563 29.378124Q227.45625 30.425 227.45625 32.425ZM236.22188 32.3625Q236.22188 29.4875 237.81563 28.096874Q239.15938 26.940624 241.08125 26.940624Q243.22188 26.940624 244.56563 28.346874Q245.925 29.753124 245.925 32.221874Q245.925 34.221874 245.33125 35.378124Q244.7375 36.51875 243.58125 37.159374Q242.44063 37.784374 241.08125 37.784374Q238.89375 37.784374 237.55 36.39375Q236.22188 34.9875 236.22188 32.3625ZM238.01875 32.3625Q238.01875 34.3625 238.87813 35.346874Q239.75313 36.33125 241.08125 36.33125Q242.39375 36.33125 243.25313 35.346874Q244.12813 34.346874 244.12813 32.3Q244.12813 30.378124 243.25313 29.39375Q242.37813 28.39375 241.08125 28.39375Q239.75313 28.39375 238.87813 29.39375Q238.01875 30.378124 238.01875 32.3625ZM247.84688 37.55L247.84688 27.175L249.425 27.175L249.425 28.753124Q250.03438 27.64375 250.55 27.3Q251.06563 26.940624 251.675 26.940624Q252.56563 26.940624 253.4875 27.503124L252.87813 29.14375Q252.2375 28.753124 251.59688 28.753124Q251.01875 28.753124 250.55 29.1125Q250.09688 29.45625 249.89375 30.065624Q249.6125 31.003124 249.6125 32.1125L249.6125 37.55L247.84688 37.55ZM267.64374 36.26875Q266.65936 37.096874 265.7531 37.440624Q264.84686 37.784374 263.8156 37.784374Q262.1125 37.784374 261.1906 36.95625Q260.26874 36.1125 260.26874 34.815624Q260.26874 34.05 260.6125 33.425Q260.97186 32.8 261.53436 32.425Q262.09686 32.034374 262.8 31.83125Q263.3156 31.70625 264.3625 31.565624Q266.4875 31.315624 267.4875 30.971874Q267.5031 30.6125 267.5031 30.503124Q267.5031 29.440624 267.0031 28.9875Q266.33124 28.39375 265.0031 28.39375Q263.7531 28.39375 263.15936 28.83125Q262.58124 29.26875 262.3 30.378124L260.58124 30.14375Q260.8156 29.034374 261.34686 28.3625Q261.8781 27.675 262.89374 27.315624Q263.90936 26.940624 265.2531 26.940624Q266.58124 26.940624 267.40936 27.253124Q268.2375 27.565624 268.6281 28.05Q269.01874 28.51875 269.175 29.2375Q269.26874 29.690624 269.26874 30.8625L269.26874 33.20625Q269.26874 35.659374 269.3781 36.315624Q269.4875 36.95625 269.83124 37.55L267.9875 37.55Q267.72186 37.003124 267.64374 36.26875ZM267.4875 32.346874Q266.53436 32.7375 264.6125 33.003124Q263.53436 33.159374 263.08124 33.3625Q262.64374 33.55 262.39374 33.925Q262.14374 34.3 262.14374 34.76875Q262.14374 35.471874 262.675 35.940624Q263.20624 36.409374 264.2375 36.409374Q265.2531 36.409374 266.03436 35.971874Q266.83124 35.51875 267.20624 34.753124Q267.4875 34.14375 267.4875 32.9875L267.4875 32.346874ZM271.8625 37.55L271.8625 27.175L273.45624 27.175L273.45624 28.659374Q274.59686 26.940624 276.7531 26.940624Q277.6906 26.940624 278.47186 27.284374Q279.26874 27.6125 279.65936 28.159374Q280.05 28.70625 280.20624 29.45625Q280.3 29.95625 280.3 31.175L280.3 37.55L278.53436 37.55L278.53436 31.2375Q278.53436 30.159374 278.33124 29.628124Q278.1281 29.096874 277.59686 28.784374Q277.08124 28.471874 276.3781 28.471874Q275.2531 28.471874 274.4406 29.190624Q273.6281 29.89375 273.6281 31.878124L273.6281 37.55L271.8625 37.55ZM281.22186 32.3625Q281.22186 29.4875 282.8156 28.096874Q284.15936 26.940624 286.08124 26.940624Q288.22186 26.940624 289.5656 28.346874Q290.925 29.753124 290.925 32.221874Q290.925 34.221874 290.33124 35.378124Q289.7375 36.51875 288.58124 37.159374Q287.4406 37.784374 286.08124 37.784374Q283.89374 37.784374 282.55 36.39375Q281.22186 34.9875 281.22186 32.3625ZM283.01874 32.3625Q283.01874 34.3625 283.8781 35.346874Q284.7531 36.33125 286.08124 36.33125Q287.39374 36.33125 288.2531 35.346874Q289.1281 34.346874 289.1281 32.3Q289.1281 30.378124 288.2531 29.39375Q287.3781 28.39375 286.08124 28.39375Q284.7531 28.39375 283.8781 29.39375Q283.01874 30.378124 283.01874 32.3625ZM302.22186 41.753124Q300.76874 39.925 299.76874 37.471874Q298.76874 35.003124 298.76874 32.3625Q298.76874 30.034374 299.51874 27.909374Q300.39374 25.440624 302.22186 22.9875L303.4875 22.9875Q302.3 25.01875 301.925 25.89375Q301.33124 27.2375 300.9875 28.70625Q300.5656 30.534374 300.5656 32.378124Q300.5656 37.065624 303.4875 41.753124L302.22186 41.753124ZM314.6125 35.8625L314.6125 37.55L305.15936 37.55Q305.14374 36.909374 305.3625 36.33125Q305.72186 35.3625 306.51874 34.425Q307.3156 33.4875 308.8156 32.253124Q311.15936 30.346874 311.97186 29.2375Q312.8 28.1125 312.8 27.1125Q312.8 26.065624 312.05 25.346874Q311.3 24.628124 310.09686 24.628124Q308.83124 24.628124 308.0656 25.39375Q307.3 26.159374 307.3 27.503124L305.4875 27.315624Q305.675 25.3 306.8781 24.2375Q308.09686 23.175 310.14374 23.175Q312.1906 23.175 313.39374 24.315624Q314.59686 25.45625 314.59686 27.14375Q314.59686 28.003124 314.2375 28.846874Q313.89374 29.675 313.08124 30.596874Q312.26874 31.503124 310.3781 33.1125Q308.78436 34.440624 308.33124 34.909374Q307.89374 35.378124 307.59686 35.8625L314.6125 35.8625ZM316.3781 30.4875Q316.3781 27.95625 316.89374 26.409374Q317.425 24.846874 318.45624 24.01875Q319.4875 23.175 321.05 23.175Q322.20624 23.175 323.0656 23.64375Q323.9406 24.096874 324.5031 24.971874Q325.0656 25.846874 325.39374 27.1125Q325.72186 28.3625 325.72186 30.4875Q325.72186 33.003124 325.1906 34.55Q324.675 36.096874 323.64374 36.95625Q322.6281 37.8 321.05 37.8Q318.97186 37.8 317.8 36.315624Q316.3781 34.51875 316.3781 30.4875ZM318.1906 30.4875Q318.1906 34.01875 319.0031 35.190624Q319.83124 36.346874 321.05 36.346874Q322.2531 36.346874 323.08124 35.175Q323.90936 34.003124 323.90936 30.4875Q323.90936 26.95625 323.08124 25.8Q322.2531 24.628124 321.03436 24.628124Q319.8156 24.628124 319.09686 25.659374Q318.1906 26.95625 318.1906 30.4875ZM334.0031 37.55L332.2375 37.55L332.2375 26.346874Q331.6125 26.95625 330.58124 27.565624Q329.55 28.159374 328.72186 28.471874L328.72186 26.76875Q330.20624 26.08125 331.3 25.096874Q332.40936 24.096874 332.8625 23.175L334.0031 23.175L334.0031 37.55ZM345.0031 37.55L343.2375 37.55L343.2375 26.346874Q342.6125 26.95625 341.58124 27.565624Q340.55 28.159374 339.72186 28.471874L339.72186 26.76875Q341.20624 26.08125 342.3 25.096874Q343.40936 24.096874 343.8625 23.175L345.0031 23.175L345.0031 37.55ZM349.1906 33.253124L349.1906 31.4875L354.58124 31.4875L354.58124 33.253124L349.1906 33.253124ZM365.6125 35.8625L365.6125 37.55L356.15936 37.55Q356.14374 36.909374 356.3625 36.33125Q356.72186 35.3625 357.51874 34.425Q358.3156 33.4875 359.8156 32.253124Q362.15936 30.346874 362.97186 29.2375Q363.8 28.1125 363.8 27.1125Q363.8 26.065624 363.05 25.346874Q362.3 24.628124 361.09686 24.628124Q359.83124 24.628124 359.0656 25.39375Q358.3 26.159374 358.3 27.503124L356.4875 27.315624Q356.675 25.3 357.8781 24.2375Q359.09686 23.175 361.14374 23.175Q363.1906 23.175 364.39374 24.315624Q365.59686 25.45625 365.59686 27.14375Q365.59686 28.003124 365.2375 28.846874Q364.89374 29.675 364.08124 30.596874Q363.26874 31.503124 361.3781 33.1125Q359.78436 34.440624 359.33124 34.909374Q358.89374 35.378124 358.59686 35.8625L365.6125 35.8625ZM367.3781 30.4875Q367.3781 27.95625 367.89374 26.409374Q368.425 24.846874 369.45624 24.01875Q370.4875 23.175 372.05 23.175Q373.20624 23.175 374.0656 23.64375Q374.9406 24.096874 375.5031 24.971874Q376.0656 25.846874 376.39374 27.1125Q376.72186 28.3625 376.72186 30.4875Q376.72186 33.003124 376.1906 34.55Q375.675 36.096874 374.64374 36.95625Q373.6281 37.8 372.05 37.8Q369.97186 37.8 368.8 36.315624Q367.3781 34.51875 367.3781 30.4875ZM369.1906 30.4875Q369.1906 34.01875 370.0031 35.190624Q370.83124 36.346874 372.05 36.346874Q373.2531 36.346874 374.08124 35.175Q374.90936 34.003124 374.90936 30.4875Q374.90936 26.95625 374.08124 25.8Q373.2531 24.628124 372.03436 24.628124Q370.8156 24.628124 370.09686 25.659374Q369.1906 26.95625 369.1906 30.4875ZM387.6125 35.8625L387.6125 37.55L378.15936 37.55Q378.14374 36.909374 378.3625 36.33125Q378.72186 35.3625 379.51874 34.425Q380.3156 33.4875 381.8156 32.253124Q384.15936 30.346874 384.97186 29.2375Q385.8 28.1125 385.8 27.1125Q385.8 26.065624 385.05 25.346874Q384.3 24.628124 383.09686 24.628124Q381.83124 24.628124 381.0656 25.39375Q380.3 26.159374 380.3 27.503124L378.4875 27.315624Q378.675 25.3 379.8781 24.2375Q381.09686 23.175 383.14374 23.175Q385.1906 23.175 386.39374 24.315624Q387.59686 25.45625 387.59686 27.14375Q387.59686 28.003124 387.2375 28.846874Q386.89374 29.675 386.08124 30.596874Q385.26874 31.503124 383.3781 33.1125Q381.78436 34.440624 381.33124 34.909374Q380.89374 35.378124 380.59686 35.8625L387.6125 35.8625ZM396.0031 37.55L394.2375 37.55L394.2375 26.346874Q393.6125 26.95625 392.58124 27.565624Q391.55 28.159374 390.72186 28.471874L390.72186 26.76875Q392.20624 26.08125 393.3 25.096874Q394.40936 24.096874 394.8625 23.175L396.0031 23.175L396.0031 37.55ZM402.01874 41.753124L400.76874 41.753124Q403.675 37.065624 403.675 32.378124Q403.675 30.534374 403.26874 28.7375Q402.925 27.26875 402.33124 25.925Q401.95624 25.034374 400.76874 22.9875L402.01874 22.9875Q403.8625 25.440624 404.7375 27.909374Q405.4875 30.034374 405.4875 32.3625Q405.4875 35.003124 404.47186 37.471874Q403.47186 39.925 402.01874 41.753124Z" fill-rule="nonzero"/></svg>